G04 #@! TF.GenerationSoftware,KiCad,Pcbnew,5.1.5+dfsg1-2build2*
G04 #@! TF.CreationDate,2020-11-23T21:05:58+01:00*
G04 #@! TF.ProjectId,Logic_panel_v1,4c6f6769-635f-4706-916e-656c5f76312e,rev?*
G04 #@! TF.SameCoordinates,Original*
G04 #@! TF.FileFunction,Copper,L4,Bot*
G04 #@! TF.FilePolarity,Positive*
%FSLAX46Y46*%
G04 Gerber Fmt 4.6, Leading zero omitted, Abs format (unit mm)*
G04 Created by KiCad (PCBNEW 5.1.5+dfsg1-2build2) date 2020-11-23 21:05:58*
%MOMM*%
%LPD*%
G04 APERTURE LIST*
G04 #@! TA.AperFunction,ComponentPad*
%ADD10C,5.600000*%
G04 #@! TD*
G04 #@! TA.AperFunction,ComponentPad*
%ADD11R,1.700000X1.700000*%
G04 #@! TD*
G04 #@! TA.AperFunction,ComponentPad*
%ADD12O,1.700000X1.700000*%
G04 #@! TD*
G04 #@! TA.AperFunction,ComponentPad*
%ADD13C,2.000000*%
G04 #@! TD*
G04 #@! TA.AperFunction,ComponentPad*
%ADD14O,2.000000X1.450000*%
G04 #@! TD*
G04 #@! TA.AperFunction,ComponentPad*
%ADD15O,1.800000X1.150000*%
G04 #@! TD*
G04 #@! TA.AperFunction,ViaPad*
%ADD16C,0.800000*%
G04 #@! TD*
G04 #@! TA.AperFunction,ViaPad*
%ADD17C,0.600000*%
G04 #@! TD*
G04 #@! TA.AperFunction,Conductor*
%ADD18C,0.150000*%
G04 #@! TD*
G04 APERTURE END LIST*
D10*
G04 #@! TO.P,H1,1*
G04 #@! TO.N,N/C*
X55000001Y-145000001D03*
G04 #@! TD*
G04 #@! TO.P,H2,1*
G04 #@! TO.N,N/C*
X145000001Y-55000001D03*
G04 #@! TD*
G04 #@! TO.P,H3,1*
G04 #@! TO.N,N/C*
X55000001Y-55000001D03*
G04 #@! TD*
G04 #@! TO.P,H4,1*
G04 #@! TO.N,N/C*
X145000001Y-145000001D03*
G04 #@! TD*
D11*
G04 #@! TO.P,SW1,1*
G04 #@! TO.N,Board_1-+5V*
X64220001Y-52640001D03*
D12*
G04 #@! TO.P,SW1,2*
G04 #@! TO.N,Board_1-V_IN*
X66760001Y-52640001D03*
G04 #@! TO.P,SW1,3*
G04 #@! TO.N,Board_1-Net-(SW1-Pad3)*
X69300001Y-52640001D03*
G04 #@! TD*
D13*
G04 #@! TO.P,SW2,2*
G04 #@! TO.N,Board_1-GND*
X74562001Y-147588001D03*
G04 #@! TO.P,SW2,1*
G04 #@! TO.N,Board_1-BARVA_1*
X70062001Y-147588001D03*
G04 #@! TO.P,SW2,2*
G04 #@! TO.N,Board_1-GND*
X74562001Y-141088001D03*
G04 #@! TO.P,SW2,1*
G04 #@! TO.N,Board_1-BARVA_1*
X70062001Y-141088001D03*
G04 #@! TD*
G04 #@! TO.P,SW3,2*
G04 #@! TO.N,Board_1-GND*
X82690001Y-147588001D03*
G04 #@! TO.P,SW3,1*
G04 #@! TO.N,Board_1-BARVA_2*
X78190001Y-147588001D03*
G04 #@! TO.P,SW3,2*
G04 #@! TO.N,Board_1-GND*
X82690001Y-141088001D03*
G04 #@! TO.P,SW3,1*
G04 #@! TO.N,Board_1-BARVA_2*
X78190001Y-141088001D03*
G04 #@! TD*
G04 #@! TO.P,SW4,2*
G04 #@! TO.N,Board_1-GND*
X64656001Y-135396001D03*
G04 #@! TO.P,SW4,1*
G04 #@! TO.N,Board_1-BTN_SIPKA_VPRAVO*
X60156001Y-135396001D03*
G04 #@! TO.P,SW4,2*
G04 #@! TO.N,Board_1-GND*
X64656001Y-128896001D03*
G04 #@! TO.P,SW4,1*
G04 #@! TO.N,Board_1-BTN_SIPKA_VPRAVO*
X60156001Y-128896001D03*
G04 #@! TD*
G04 #@! TO.P,SW5,2*
G04 #@! TO.N,Board_1-GND*
X90564001Y-147588001D03*
G04 #@! TO.P,SW5,1*
G04 #@! TO.N,Board_1-BARVA_3*
X86064001Y-147588001D03*
G04 #@! TO.P,SW5,2*
G04 #@! TO.N,Board_1-GND*
X90564001Y-141088001D03*
G04 #@! TO.P,SW5,1*
G04 #@! TO.N,Board_1-BARVA_3*
X86064001Y-141088001D03*
G04 #@! TD*
G04 #@! TO.P,SW6,2*
G04 #@! TO.N,Board_1-GND*
X56782001Y-135396001D03*
G04 #@! TO.P,SW6,1*
G04 #@! TO.N,Board_1-BTN_SIPKA_VLEVO*
X52282001Y-135396001D03*
G04 #@! TO.P,SW6,2*
G04 #@! TO.N,Board_1-GND*
X56782001Y-128896001D03*
G04 #@! TO.P,SW6,1*
G04 #@! TO.N,Board_1-BTN_SIPKA_VLEVO*
X52282001Y-128896001D03*
G04 #@! TD*
G04 #@! TO.P,SW8,2*
G04 #@! TO.N,Board_1-GND*
X98438001Y-147588001D03*
G04 #@! TO.P,SW8,1*
G04 #@! TO.N,Board_1-BARVA_4*
X93938001Y-147588001D03*
G04 #@! TO.P,SW8,2*
G04 #@! TO.N,Board_1-GND*
X98438001Y-141088001D03*
G04 #@! TO.P,SW8,1*
G04 #@! TO.N,Board_1-BARVA_4*
X93938001Y-141088001D03*
G04 #@! TD*
G04 #@! TO.P,SW9,2*
G04 #@! TO.N,Board_1-GND*
X106312001Y-147588001D03*
G04 #@! TO.P,SW9,1*
G04 #@! TO.N,Board_1-BARVA_5*
X101812001Y-147588001D03*
G04 #@! TO.P,SW9,2*
G04 #@! TO.N,Board_1-GND*
X106312001Y-141088001D03*
G04 #@! TO.P,SW9,1*
G04 #@! TO.N,Board_1-BARVA_5*
X101812001Y-141088001D03*
G04 #@! TD*
G04 #@! TO.P,SW10,2*
G04 #@! TO.N,Board_1-GND*
X114186001Y-147588001D03*
G04 #@! TO.P,SW10,1*
G04 #@! TO.N,Board_1-BARVA_6*
X109686001Y-147588001D03*
G04 #@! TO.P,SW10,2*
G04 #@! TO.N,Board_1-GND*
X114186001Y-141088001D03*
G04 #@! TO.P,SW10,1*
G04 #@! TO.N,Board_1-BARVA_6*
X109686001Y-141088001D03*
G04 #@! TD*
G04 #@! TO.P,SW11,2*
G04 #@! TO.N,Board_1-GND*
X136030001Y-147588001D03*
G04 #@! TO.P,SW11,1*
G04 #@! TO.N,Board_1-BTN_ENTER*
X131530001Y-147588001D03*
G04 #@! TO.P,SW11,2*
G04 #@! TO.N,Board_1-GND*
X136030001Y-141088001D03*
G04 #@! TO.P,SW11,1*
G04 #@! TO.N,Board_1-BTN_ENTER*
X131530001Y-141088001D03*
G04 #@! TD*
G04 #@! TO.P,SW12,2*
G04 #@! TO.N,Board_1-GND*
X114186001Y-133618001D03*
G04 #@! TO.P,SW12,1*
G04 #@! TO.N,Board_1-BTN_NEW_GAME*
X109686001Y-133618001D03*
G04 #@! TO.P,SW12,2*
G04 #@! TO.N,Board_1-GND*
X114186001Y-127118001D03*
G04 #@! TO.P,SW12,1*
G04 #@! TO.N,Board_1-BTN_NEW_GAME*
X109686001Y-127118001D03*
G04 #@! TD*
G04 #@! TO.P,SW7,2*
G04 #@! TO.N,Board_1-GND*
X56858001Y-124234001D03*
G04 #@! TO.P,SW7,1*
G04 #@! TO.N,Board_1-BTN_END*
X52358001Y-124234001D03*
G04 #@! TO.P,SW7,2*
G04 #@! TO.N,Board_1-GND*
X56858001Y-117734001D03*
G04 #@! TO.P,SW7,1*
G04 #@! TO.N,Board_1-BTN_END*
X52358001Y-117734001D03*
G04 #@! TD*
D14*
G04 #@! TO.P,J1,6*
G04 #@! TO.N,Board_1-Net-(J1-Pad6)*
X56140001Y-64095001D03*
X56140001Y-71545001D03*
D15*
X52340001Y-63945001D03*
X52340001Y-71695001D03*
G04 #@! TD*
D16*
G04 #@! TO.N,Board_1-+3V3*
X55390001Y-77390001D03*
X54200001Y-100920001D03*
D17*
X105740001Y-137700001D03*
X97870001Y-137670001D03*
D16*
X57250001Y-97340001D03*
X62790001Y-111020001D03*
X53870001Y-106610001D03*
X64910001Y-105290001D03*
X60321722Y-101700334D03*
X65900001Y-86420001D03*
X63170001Y-80930001D03*
G04 #@! TO.N,Board_1-+5V*
X69110001Y-61570001D03*
X57890001Y-74190001D03*
X65130001Y-60140001D03*
X70100001Y-93220001D03*
X69920001Y-115220001D03*
D17*
G04 #@! TO.N,Board_1-/herni_LED.sch/10.sch/DATA_IN*
X104900001Y-125400001D03*
X75320001Y-132250001D03*
G04 #@! TO.N,Board_1-/herni_LED.sch/2.sch/DATA_IN*
X104890001Y-69390001D03*
X74930001Y-75360001D03*
G04 #@! TO.N,Board_1-/herni_LED.sch/3.sch/DATA_IN*
X104880001Y-76260001D03*
X74790001Y-81780001D03*
G04 #@! TO.N,Board_1-/herni_LED.sch/4.ch/DATA_IN*
X104860001Y-83350001D03*
X74660001Y-89200001D03*
G04 #@! TO.N,Board_1-/herni_LED.sch/5.sch/DATA_IN*
X104830001Y-90270001D03*
X74960001Y-97190001D03*
G04 #@! TO.N,Board_1-/herni_LED.sch/6.sch/DATA_IN*
X104890001Y-97280001D03*
X75240001Y-104340001D03*
G04 #@! TO.N,Board_1-/herni_LED.sch/7.sch/DATA_IN*
X104870001Y-104250001D03*
X75090001Y-111200001D03*
G04 #@! TO.N,Board_1-/herni_LED.sch/8.sch/DATA_IN*
X104870001Y-111250001D03*
X75190001Y-118070001D03*
G04 #@! TO.N,Board_1-/herni_LED.sch/9.sch/DATA_IN*
X104900001Y-118490001D03*
X75190001Y-125340001D03*
G04 #@! TO.N,Board_1-/hodnoceni_LED.sch/10.sch/DATA_IN*
X147280001Y-125180001D03*
X117320001Y-132080001D03*
G04 #@! TO.N,Board_1-/hodnoceni_LED.sch/2.sch/DATA_IN*
X147240001Y-69270001D03*
X116730001Y-75050001D03*
G04 #@! TO.N,Board_1-/hodnoceni_LED.sch/3.sch/DATA_IN*
X147230001Y-76050001D03*
X116910001Y-81610001D03*
G04 #@! TO.N,Board_1-/hodnoceni_LED.sch/4.ch/DATA_IN*
X147270001Y-83070001D03*
X117100001Y-89350001D03*
G04 #@! TO.N,Board_1-/hodnoceni_LED.sch/5.sch/DATA_IN*
X147280001Y-90200001D03*
X117170001Y-96600001D03*
G04 #@! TO.N,Board_1-/hodnoceni_LED.sch/6.sch/DATA_IN*
X147270001Y-97100001D03*
X117330001Y-103800001D03*
G04 #@! TO.N,Board_1-/hodnoceni_LED.sch/7.sch/DATA_IN*
X147240001Y-104160001D03*
X117100001Y-110670001D03*
G04 #@! TO.N,Board_1-/hodnoceni_LED.sch/8.sch/DATA_IN*
X147270001Y-111170001D03*
X117030001Y-117860001D03*
G04 #@! TO.N,Board_1-/hodnoceni_LED.sch/9.sch/DATA_IN*
X147280001Y-118210001D03*
X117190001Y-125150001D03*
G04 #@! TO.N,Board_1-BARVA_1*
X59920001Y-117520001D03*
X55410001Y-112980001D03*
G04 #@! TO.N,Board_1-BARVA_4*
X56810001Y-102900001D03*
X60350001Y-112400001D03*
G04 #@! TO.N,Board_1-BARVA_5*
X57540001Y-102320001D03*
X62350001Y-113770001D03*
G04 #@! TO.N,Board_1-BARVA_6*
X64540001Y-113110001D03*
X63990001Y-109780001D03*
G04 #@! TO.N,Board_1-BTN_END*
X53160001Y-111480001D03*
G04 #@! TO.N,Board_1-BTN_ENTER*
X60070001Y-115290001D03*
X65449999Y-120670001D03*
G04 #@! TO.N,Board_1-BTN_NEW_GAME*
X65757506Y-119162496D03*
X58030001Y-113599999D03*
G04 #@! TO.N,Board_1-DATA_herni_LED*
X62290001Y-111845001D03*
X74718001Y-71148001D03*
G04 #@! TO.N,Board_1-DATA_zadani_LED*
X76600001Y-59390001D03*
X65600001Y-107360001D03*
G04 #@! TO.N,Board_1-GND*
X56970001Y-109210001D03*
X57920001Y-109220001D03*
X58840001Y-109160001D03*
X57490001Y-108410001D03*
X58440001Y-108380001D03*
X59380001Y-108350001D03*
X59850001Y-109070001D03*
X60940001Y-109090001D03*
X60410001Y-108420001D03*
X60880001Y-107470001D03*
X59950001Y-107470001D03*
X58970001Y-107420001D03*
X57990001Y-107450001D03*
X57010001Y-107450001D03*
X57600001Y-106630001D03*
X58470001Y-106590001D03*
X59370001Y-106590001D03*
X60270001Y-106540001D03*
X60670001Y-105730001D03*
X59870001Y-105720001D03*
X58940001Y-105710001D03*
X58070001Y-105720001D03*
X57130001Y-105680001D03*
D16*
X76460001Y-69220001D03*
X86220001Y-67910001D03*
X93400001Y-67920001D03*
X101710001Y-67920001D03*
X73680001Y-72980001D03*
X78210001Y-74960001D03*
X85590001Y-74920001D03*
X93650001Y-74930001D03*
X101570001Y-74900001D03*
X78180001Y-81930001D03*
X85500001Y-81900001D03*
X93620001Y-81910001D03*
X101550001Y-81990001D03*
X101490001Y-88920001D03*
X93700001Y-88990001D03*
X85680001Y-89000001D03*
X78250001Y-88940001D03*
X78100001Y-95950001D03*
X85630001Y-95970001D03*
X93580001Y-95970001D03*
X101810001Y-95950001D03*
X101640001Y-102950001D03*
X93810001Y-102920001D03*
X85800001Y-102950001D03*
X78300001Y-102970001D03*
X78300001Y-109950001D03*
X85980001Y-109970001D03*
X93780001Y-109950001D03*
X101700001Y-109950001D03*
X78220001Y-116970001D03*
X85590001Y-116950001D03*
X93760001Y-116960001D03*
X101940001Y-116930001D03*
X101820001Y-123950001D03*
X93820001Y-123970001D03*
X85780001Y-123940001D03*
X78320001Y-123960001D03*
X78150001Y-130900001D03*
X85830001Y-130920001D03*
X93880001Y-130900001D03*
X101750001Y-130870001D03*
X78530001Y-54490001D03*
X86280001Y-54420001D03*
X94030001Y-54440001D03*
X101870001Y-54400001D03*
X67690001Y-65270001D03*
X63080001Y-60140001D03*
X120210001Y-67830001D03*
X128140001Y-67750001D03*
X136140001Y-67770001D03*
X144370001Y-67770001D03*
X144250001Y-74820001D03*
X136440001Y-74800001D03*
X128180001Y-74810001D03*
X120240001Y-74760001D03*
X120120001Y-81780001D03*
X128410001Y-81800001D03*
X136290001Y-81800001D03*
X144230001Y-81810001D03*
X144220001Y-88760001D03*
X136430001Y-88810001D03*
X128200001Y-88800001D03*
X120440001Y-88840001D03*
X120350001Y-95760001D03*
X128550001Y-95750001D03*
X136440001Y-95800001D03*
X144230001Y-95740001D03*
X144330001Y-102760001D03*
X136630001Y-102800001D03*
X120620001Y-102790001D03*
X128460001Y-102810001D03*
X120410001Y-109760001D03*
X128460001Y-109780001D03*
X136610001Y-109780001D03*
X144190001Y-109810001D03*
X144110001Y-116810001D03*
X136390001Y-116800001D03*
X128480001Y-116780001D03*
X120420001Y-116810001D03*
X120420001Y-123740001D03*
X128400001Y-123770001D03*
X136540001Y-123760001D03*
X144440001Y-123790001D03*
X144080001Y-130760001D03*
X136380001Y-130820001D03*
X128370001Y-130780001D03*
X120310001Y-130800001D03*
X68400001Y-57950001D03*
X64710001Y-86200001D03*
X58380001Y-69180001D03*
X64100001Y-67200001D03*
X65950001Y-111050001D03*
X63780001Y-103740001D03*
X54066001Y-101996001D03*
X68928849Y-110323511D03*
D17*
X53840001Y-110345001D03*
D16*
X65690001Y-106150001D03*
X59340001Y-101510001D03*
X63200001Y-81930001D03*
X70120001Y-89420001D03*
D17*
G04 #@! TO.N,Board_1-IO0*
X60770001Y-88130001D03*
X64380001Y-91680001D03*
X51560001Y-98130001D03*
X64390001Y-89310001D03*
X50774947Y-108840001D03*
X54642356Y-109759201D03*
G04 #@! TO.N,Board_1-Net-(D7-Pad2)*
X62420001Y-67420001D03*
X59890001Y-81280001D03*
G04 #@! TO.N,Board_1-Net-(D8-Pad2)*
X61620283Y-67398676D03*
X59150003Y-81910001D03*
G04 #@! TO.N,Board_1-Net-(R8-Pad2)*
X51820001Y-90380001D03*
X53990001Y-91740001D03*
G04 #@! TO.N,Board_1-Net-(R9-Pad2)*
X50810001Y-90840001D03*
X55990001Y-92450001D03*
G04 #@! TO.N,Board_1-RX_ESP*
X56080001Y-86270001D03*
X56510001Y-90450001D03*
G04 #@! TO.N,Board_1-TX_ESP*
X55390001Y-87360001D03*
X54520001Y-90140001D03*
D16*
G04 #@! TO.N,Board_1-V_LED_1*
X80600001Y-52550001D03*
X88570001Y-52610001D03*
X96140001Y-52590001D03*
X106770001Y-57590001D03*
X80890001Y-66040001D03*
X88220001Y-66080001D03*
X96360001Y-66000001D03*
X104530001Y-66060001D03*
X80500001Y-73080001D03*
X88510001Y-73020001D03*
X96310001Y-73060001D03*
X104710001Y-73020001D03*
X80720001Y-80070001D03*
X88580001Y-80030001D03*
X96690001Y-80030001D03*
X104710001Y-80030001D03*
X80570001Y-87060001D03*
X88300001Y-87050001D03*
X96270001Y-87030001D03*
X104450001Y-87100001D03*
X122420001Y-65900001D03*
X130690001Y-65860001D03*
X138510001Y-65880001D03*
X146370001Y-65930001D03*
X139050001Y-72920001D03*
X146620001Y-72870001D03*
X130780001Y-72870001D03*
X122920001Y-72870001D03*
X122860001Y-79900001D03*
X130730001Y-79860001D03*
X138850001Y-79840001D03*
X146930001Y-79900001D03*
X123050001Y-86850001D03*
X130820001Y-86870001D03*
X139230001Y-86870001D03*
X146910001Y-86900001D03*
X75750001Y-63030001D03*
G04 #@! TO.N,Board_1-V_LED_2*
X80700001Y-94110001D03*
X88580001Y-94030001D03*
X96430001Y-94060001D03*
X80510001Y-108070001D03*
X104490001Y-94040001D03*
X104160001Y-101010001D03*
X96300001Y-101070001D03*
X104250001Y-108060001D03*
X96260001Y-108040001D03*
X88320001Y-108060001D03*
X88170001Y-101020001D03*
X80440001Y-101040001D03*
X123070001Y-93840001D03*
X131090001Y-93880001D03*
X139090001Y-93840001D03*
X146820001Y-93820001D03*
X146710001Y-100920001D03*
X138810001Y-100870001D03*
X131270001Y-100890001D03*
X123100001Y-100880001D03*
X123390001Y-107880001D03*
X130930001Y-107870001D03*
X139250001Y-107930001D03*
X146880001Y-107910001D03*
X74670001Y-92960001D03*
G04 #@! TO.N,Board_1-V_LED_3*
X80230001Y-115060001D03*
X88650001Y-115100001D03*
X96290001Y-115060001D03*
X104490001Y-115090001D03*
X80400001Y-122030001D03*
X88330001Y-122030001D03*
X96270001Y-122070001D03*
X104430001Y-122070001D03*
X80310001Y-129060001D03*
X88410001Y-129060001D03*
X96410001Y-129090001D03*
X104390001Y-129050001D03*
X122820001Y-114850001D03*
X130340001Y-114860001D03*
X138710001Y-114880001D03*
X146630001Y-114840001D03*
X146820001Y-121880001D03*
X138570001Y-121910001D03*
X123180001Y-121910001D03*
X131340001Y-121900001D03*
X122380001Y-128870001D03*
X131050001Y-128880001D03*
X138960001Y-128900001D03*
X147390001Y-128860001D03*
X74740001Y-116090001D03*
D17*
G04 #@! TO.N,Board_1-ZAPINANI_1_CAST_LED*
X68700001Y-56450001D03*
X54664001Y-108266001D03*
G04 #@! TO.N,Board_1-ZAPINANI_2_CAST_LED*
X65860001Y-91470001D03*
X54700001Y-110830001D03*
G04 #@! TD*
D18*
G04 #@! TO.N,Board_1-/herni_LED.sch/10.sch/DATA_IN*
X104900001Y-125400001D02*
X104900001Y-126920001D01*
X104900001Y-126920001D02*
X103750001Y-128070001D01*
X103750001Y-128070001D02*
X76190001Y-128070001D01*
X75320001Y-128940001D02*
X75320001Y-132250001D01*
X76190001Y-128070001D02*
X75320001Y-128940001D01*
G04 #@! TO.N,Board_1-/herni_LED.sch/2.sch/DATA_IN*
X104890001Y-69390001D02*
X104890001Y-70940001D01*
X104890001Y-70940001D02*
X103720001Y-72110001D01*
X103720001Y-72110001D02*
X75810001Y-72110001D01*
X74930001Y-72990001D02*
X74930001Y-75360001D01*
X75810001Y-72110001D02*
X74930001Y-72990001D01*
G04 #@! TO.N,Board_1-/herni_LED.sch/3.sch/DATA_IN*
X104880001Y-76260001D02*
X104880001Y-77970001D01*
X104880001Y-77970001D02*
X103970001Y-78880001D01*
X103970001Y-78880001D02*
X81190001Y-78880001D01*
X81190001Y-78880001D02*
X81180001Y-78890001D01*
X81180001Y-78890001D02*
X75750001Y-78890001D01*
X74790001Y-79850001D02*
X74790001Y-81780001D01*
X75750001Y-78890001D02*
X74790001Y-79850001D01*
G04 #@! TO.N,Board_1-/herni_LED.sch/4.ch/DATA_IN*
X104860001Y-83350001D02*
X104860001Y-84860001D01*
X104860001Y-84860001D02*
X103730001Y-85990001D01*
X103730001Y-85990001D02*
X75640001Y-85990001D01*
X74660001Y-86970001D02*
X74660001Y-89200001D01*
X75640001Y-85990001D02*
X74660001Y-86970001D01*
G04 #@! TO.N,Board_1-/herni_LED.sch/5.sch/DATA_IN*
X104830001Y-90270001D02*
X104830001Y-91850001D01*
X104830001Y-91850001D02*
X103750001Y-92930001D01*
X103750001Y-92930001D02*
X76030001Y-92930001D01*
X74960001Y-94000001D02*
X74960001Y-97190001D01*
X76030001Y-92930001D02*
X74960001Y-94000001D01*
G04 #@! TO.N,Board_1-/herni_LED.sch/6.sch/DATA_IN*
X104890001Y-97280001D02*
X104890001Y-98750001D01*
X104890001Y-98750001D02*
X103570001Y-100070001D01*
X103570001Y-100070001D02*
X75740001Y-100070001D01*
X75240001Y-100570001D02*
X75240001Y-104340001D01*
X75740001Y-100070001D02*
X75240001Y-100570001D01*
G04 #@! TO.N,Board_1-/herni_LED.sch/7.sch/DATA_IN*
X104870001Y-104250001D02*
X104870001Y-105870001D01*
X104870001Y-105870001D02*
X103950001Y-106790001D01*
X103950001Y-106790001D02*
X76330001Y-106790001D01*
X76330001Y-106790001D02*
X75090001Y-108030001D01*
X75090001Y-108030001D02*
X75090001Y-111200001D01*
G04 #@! TO.N,Board_1-/herni_LED.sch/8.sch/DATA_IN*
X75190001Y-117220001D02*
X75190001Y-118070001D01*
X78050001Y-114360001D02*
X75190001Y-117220001D01*
X103880001Y-114360001D02*
X78050001Y-114360001D01*
X104870001Y-113370001D02*
X103880001Y-114360001D01*
X104870001Y-111250001D02*
X104870001Y-113370001D01*
G04 #@! TO.N,Board_1-/herni_LED.sch/9.sch/DATA_IN*
X104900001Y-118490001D02*
X104900001Y-120230001D01*
X104900001Y-120230001D02*
X104100001Y-121030001D01*
X104100001Y-121030001D02*
X76180001Y-121030001D01*
X75190001Y-122020001D02*
X75190001Y-125340001D01*
X76180001Y-121030001D02*
X75190001Y-122020001D01*
G04 #@! TO.N,Board_1-/hodnoceni_LED.sch/10.sch/DATA_IN*
X147280001Y-125180001D02*
X147280001Y-127250001D01*
X147280001Y-127250001D02*
X146670001Y-127860001D01*
X146670001Y-127860001D02*
X118030001Y-127860001D01*
X117320001Y-128570001D02*
X117320001Y-132080001D01*
X118030001Y-127860001D02*
X117320001Y-128570001D01*
G04 #@! TO.N,Board_1-/hodnoceni_LED.sch/2.sch/DATA_IN*
X147240001Y-69270001D02*
X147240001Y-70670001D01*
X147240001Y-70670001D02*
X146370001Y-71540001D01*
X146370001Y-71540001D02*
X117460001Y-71540001D01*
X116730001Y-72270001D02*
X116730001Y-75050001D01*
X117460001Y-71540001D02*
X116730001Y-72270001D01*
G04 #@! TO.N,Board_1-/hodnoceni_LED.sch/3.sch/DATA_IN*
X147230001Y-76050001D02*
X147230001Y-77200001D01*
X147230001Y-77200001D02*
X145860001Y-78570001D01*
X145860001Y-78570001D02*
X117920001Y-78570001D01*
X116910001Y-79580001D02*
X116910001Y-81610001D01*
X117920001Y-78570001D02*
X116910001Y-79580001D01*
G04 #@! TO.N,Board_1-/hodnoceni_LED.sch/4.ch/DATA_IN*
X147270001Y-83070001D02*
X147270001Y-84050001D01*
X147270001Y-84050001D02*
X146040001Y-85280001D01*
X146040001Y-85280001D02*
X118880001Y-85280001D01*
X117100001Y-87060001D02*
X117100001Y-89350001D01*
X118880001Y-85280001D02*
X117100001Y-87060001D01*
G04 #@! TO.N,Board_1-/hodnoceni_LED.sch/5.sch/DATA_IN*
X147280001Y-90200001D02*
X147280001Y-91500001D01*
X147280001Y-91500001D02*
X145970001Y-92810001D01*
X145970001Y-92810001D02*
X118420001Y-92810001D01*
X117170001Y-94060001D02*
X117170001Y-96600001D01*
X118420001Y-92810001D02*
X117170001Y-94060001D01*
G04 #@! TO.N,Board_1-/hodnoceni_LED.sch/6.sch/DATA_IN*
X147270001Y-97100001D02*
X147270001Y-98640001D01*
X147270001Y-98640001D02*
X146360001Y-99550001D01*
X146360001Y-99550001D02*
X118470001Y-99550001D01*
X117330001Y-100690001D02*
X117330001Y-103800001D01*
X118470001Y-99550001D02*
X117330001Y-100690001D01*
G04 #@! TO.N,Board_1-/hodnoceni_LED.sch/7.sch/DATA_IN*
X147240001Y-104160001D02*
X147240001Y-105160001D01*
X147240001Y-105160001D02*
X145810001Y-106590001D01*
X145810001Y-106590001D02*
X118370001Y-106590001D01*
X117100001Y-107860001D02*
X117100001Y-110670001D01*
X118370001Y-106590001D02*
X117100001Y-107860001D01*
G04 #@! TO.N,Board_1-/hodnoceni_LED.sch/8.sch/DATA_IN*
X147270001Y-111170001D02*
X147270001Y-112980001D01*
X147270001Y-112980001D02*
X146260001Y-113990001D01*
X146260001Y-113990001D02*
X117860001Y-113990001D01*
X117030001Y-114820001D02*
X117030001Y-117860001D01*
X117860001Y-113990001D02*
X117030001Y-114820001D01*
G04 #@! TO.N,Board_1-/hodnoceni_LED.sch/9.sch/DATA_IN*
X147280001Y-118210001D02*
X147280001Y-120460001D01*
X147280001Y-120460001D02*
X146790001Y-120950001D01*
X146790001Y-120950001D02*
X118010001Y-120950001D01*
X117190001Y-121770001D02*
X117190001Y-125150001D01*
X118010001Y-120950001D02*
X117190001Y-121770001D01*
G04 #@! TO.N,Board_1-BARVA_1*
X59920001Y-117490001D02*
X55410001Y-112980001D01*
X59920001Y-117520001D02*
X59920001Y-117490001D01*
G04 #@! TO.N,Board_1-BARVA_4*
X60350001Y-112400001D02*
X60350001Y-110600001D01*
X60350001Y-110600001D02*
X61515002Y-109435000D01*
X61515002Y-109435000D02*
X61515002Y-105055002D01*
X61515002Y-105055002D02*
X60840001Y-104380001D01*
X60840001Y-104380001D02*
X55530001Y-104380001D01*
X55530001Y-104380001D02*
X54980001Y-103830001D01*
X54980001Y-103830001D02*
X54980001Y-101970001D01*
X54980001Y-101970001D02*
X55550001Y-101400001D01*
X55550001Y-101400001D02*
X56480001Y-101400001D01*
X56480001Y-101400001D02*
X56810001Y-101730001D01*
X56810001Y-101730001D02*
X56810001Y-102900001D01*
G04 #@! TO.N,Board_1-BARVA_5*
X57540001Y-101300001D02*
X57540001Y-102320001D01*
X58160001Y-100680001D02*
X57540001Y-101300001D01*
X61970001Y-101140001D02*
X61510001Y-100680001D01*
X61970001Y-109760001D02*
X61970001Y-101140001D01*
X61510001Y-100680001D02*
X58160001Y-100680001D01*
X61530001Y-110200001D02*
X61970001Y-109760001D01*
X61530001Y-112350001D02*
X61530001Y-110200001D01*
X62350001Y-113170001D02*
X61530001Y-112350001D01*
X62350001Y-113770001D02*
X62350001Y-113170001D01*
G04 #@! TO.N,Board_1-BARVA_6*
X64540001Y-109960001D02*
X64540001Y-113110001D01*
X64360001Y-109780001D02*
X64540001Y-109960001D01*
X63990001Y-109780001D02*
X64360001Y-109780001D01*
G04 #@! TO.N,Board_1-BTN_END*
X52358001Y-117734001D02*
X52358001Y-124234001D01*
X53480001Y-111800001D02*
X53480001Y-113290001D01*
X52358001Y-117734001D02*
X52358001Y-114402001D01*
X52358001Y-114402001D02*
X52865001Y-113895001D01*
X52865001Y-113895001D02*
X52875001Y-113895001D01*
X52875001Y-113895001D02*
X53410001Y-113360001D01*
X53480001Y-113290001D02*
X53410001Y-113360001D01*
X53160001Y-111480001D02*
X53480001Y-111800001D01*
G04 #@! TO.N,Board_1-BTN_ENTER*
X60070001Y-115290001D02*
X60370000Y-115590002D01*
X60370000Y-115590002D02*
X65449999Y-120670001D01*
G04 #@! TO.N,Board_1-BTN_NEW_GAME*
X60195009Y-113599999D02*
X58030001Y-113599999D01*
X65757506Y-119162496D02*
X60195009Y-113599999D01*
G04 #@! TO.N,Board_1-DATA_herni_LED*
X70880001Y-72590001D02*
X72322001Y-71148001D01*
X70880001Y-110950001D02*
X70880001Y-72590001D01*
X68000001Y-113830001D02*
X70880001Y-110950001D01*
X64275001Y-113830001D02*
X68000001Y-113830001D01*
X72322001Y-71148001D02*
X74718001Y-71148001D01*
X62290001Y-111845001D02*
X64275001Y-113830001D01*
G04 #@! TO.N,Board_1-DATA_zadani_LED*
X68455001Y-68625001D02*
X68455001Y-104505001D01*
X68455001Y-104505001D02*
X65600001Y-107360001D01*
X76600001Y-60480001D02*
X68455001Y-68625001D01*
X76600001Y-59390001D02*
X76600001Y-60480001D01*
G04 #@! TO.N,Board_1-IO0*
X64380001Y-91680001D02*
X64380001Y-92650001D01*
X64380001Y-92650001D02*
X62300001Y-94730001D01*
X62300001Y-94730001D02*
X55150001Y-94730001D01*
X54960001Y-94730001D02*
X51560001Y-98130001D01*
X55150001Y-94730001D02*
X54960001Y-94730001D01*
X62210001Y-88130001D02*
X63710001Y-88130001D01*
X60770001Y-88130001D02*
X62210001Y-88130001D01*
X64390001Y-88810001D02*
X64390001Y-89310001D01*
X63710001Y-88130001D02*
X64390001Y-88810001D01*
X54199201Y-109759201D02*
X54642356Y-109759201D01*
X53280001Y-108840001D02*
X54199201Y-109759201D01*
X50774947Y-108840001D02*
X53280001Y-108840001D01*
G04 #@! TO.N,Board_1-Net-(D7-Pad2)*
X62420001Y-69250001D02*
X62420001Y-67420001D01*
X59890001Y-71780001D02*
X62420001Y-69250001D01*
X59890001Y-81280001D02*
X59890001Y-71780001D01*
G04 #@! TO.N,Board_1-Net-(D8-Pad2)*
X59150003Y-71559999D02*
X61620283Y-69089719D01*
X59150003Y-81910001D02*
X59150003Y-71559999D01*
X61620283Y-69089719D02*
X61620283Y-67398676D01*
G04 #@! TO.N,Board_1-Net-(R8-Pad2)*
X53180001Y-91740001D02*
X51820001Y-90380001D01*
X53990001Y-91740001D02*
X53180001Y-91740001D01*
G04 #@! TO.N,Board_1-Net-(R9-Pad2)*
X55990001Y-92450001D02*
X51730001Y-92450001D01*
X50810001Y-91530001D02*
X50810001Y-90840001D01*
X51730001Y-92450001D02*
X50810001Y-91530001D01*
G04 #@! TO.N,Board_1-RX_ESP*
X56080001Y-90020001D02*
X56510001Y-90450001D01*
X56080001Y-90010001D02*
X56080001Y-90020001D01*
X56080001Y-86270001D02*
X56080001Y-90010001D01*
G04 #@! TO.N,Board_1-TX_ESP*
X55100001Y-90140001D02*
X54520001Y-90140001D01*
X55390001Y-89850001D02*
X55100001Y-90140001D01*
X55390001Y-87360001D02*
X55390001Y-89850001D01*
G04 #@! TO.N,Board_1-ZAPINANI_1_CAST_LED*
X50640001Y-107390001D02*
X51516001Y-108266001D01*
X50640001Y-97840001D02*
X50640001Y-107390001D01*
X55210001Y-93270001D02*
X50640001Y-97840001D01*
X61440001Y-93270001D02*
X55210001Y-93270001D01*
X66885000Y-87825002D02*
X61440001Y-93270001D01*
X66885000Y-57545002D02*
X66885000Y-87825002D01*
X67980001Y-56450001D02*
X66885000Y-57545002D01*
X51516001Y-108266001D02*
X54664001Y-108266001D01*
X68700001Y-56450001D02*
X67980001Y-56450001D01*
G04 #@! TO.N,Board_1-ZAPINANI_2_CAST_LED*
X54840111Y-111330111D02*
X54700001Y-111190001D01*
X55383815Y-111330001D02*
X55383705Y-111330111D01*
X54700001Y-111190001D02*
X54700001Y-110830001D01*
X55920001Y-111330001D02*
X55383815Y-111330001D01*
X56370001Y-110880001D02*
X55920001Y-111330001D01*
X56370001Y-106360001D02*
X56370001Y-110880001D01*
X53190001Y-103180001D02*
X56370001Y-106360001D01*
X55030001Y-95780001D02*
X53190001Y-97620001D01*
X63460001Y-95780001D02*
X55030001Y-95780001D01*
X55383705Y-111330111D02*
X54840111Y-111330111D01*
X65860001Y-93380001D02*
X63460001Y-95780001D01*
X53190001Y-97620001D02*
X53190001Y-103180001D01*
X65860001Y-91470001D02*
X65860001Y-93380001D01*
G04 #@! TD*
M02*
