G04 #@! TF.GenerationSoftware,KiCad,Pcbnew,5.1.5+dfsg1-2build2*
G04 #@! TF.CreationDate,2020-11-23T21:05:59+01:00*
G04 #@! TF.ProjectId,Logic_panel_v1,4c6f6769-635f-4706-916e-656c5f76312e,rev?*
G04 #@! TF.SameCoordinates,Original*
G04 #@! TF.FileFunction,Profile,NP*
%FSLAX46Y46*%
G04 Gerber Fmt 4.6, Leading zero omitted, Abs format (unit mm)*
G04 Created by KiCad (PCBNEW 5.1.5+dfsg1-2build2) date 2020-11-23 21:05:59*
%MOMM*%
%LPD*%
G04 APERTURE LIST*
G04 #@! TA.AperFunction,Profile*
%ADD10C,0.100000*%
G04 #@! TD*
G04 APERTURE END LIST*
D10*
X144993500Y-150001000D02*
X145522500Y-149973300D01*
X55000100Y-150000900D02*
X144993500Y-150001000D01*
X54477000Y-149973200D02*
X55000100Y-150000900D01*
X53960000Y-149891300D02*
X54477000Y-149973200D01*
X53454900Y-149756000D02*
X53960000Y-149891300D01*
X52966300Y-149568400D02*
X53454900Y-149756000D01*
X52499900Y-149330800D02*
X52966300Y-149568400D01*
X52060900Y-149045800D02*
X52499900Y-149330800D01*
X51654100Y-148716400D02*
X52060900Y-149045800D01*
X51292700Y-148355400D02*
X51654100Y-148716400D01*
X51275300Y-148336100D02*
X51292700Y-148355400D01*
X50954500Y-147939500D02*
X51275300Y-148336100D01*
X50676200Y-147511500D02*
X50954500Y-147939500D01*
X50663000Y-147488800D02*
X50676200Y-147511500D01*
X50437300Y-147045800D02*
X50663000Y-147488800D01*
X50426600Y-147021800D02*
X50437300Y-147045800D01*
X50244000Y-146545000D02*
X50426600Y-147021800D01*
X50108600Y-146039400D02*
X50244000Y-146545000D01*
X50026800Y-145522900D02*
X50108600Y-146039400D01*
X49999100Y-144999900D02*
X50026800Y-145522900D01*
X49999000Y-55006600D02*
X49999100Y-144999900D01*
X50026700Y-54477500D02*
X49999000Y-55006600D01*
X50108600Y-53960500D02*
X50026700Y-54477500D01*
X50244000Y-53454900D02*
X50108600Y-53960500D01*
X50431600Y-52966300D02*
X50244000Y-53454900D01*
X50669200Y-52499900D02*
X50431600Y-52966300D01*
X50954200Y-52060900D02*
X50669200Y-52499900D01*
X51283600Y-51654100D02*
X50954200Y-52060900D01*
X51644600Y-51292700D02*
X51283600Y-51654100D01*
X51663900Y-51275300D02*
X51644600Y-51292700D01*
X52060500Y-50954500D02*
X51663900Y-51275300D01*
X52488500Y-50676200D02*
X52060500Y-50954500D01*
X52511200Y-50663000D02*
X52488500Y-50676200D01*
X52954200Y-50437300D02*
X52511200Y-50663000D01*
X52978200Y-50426600D02*
X52954200Y-50437300D01*
X53455000Y-50244000D02*
X52978200Y-50426600D01*
X53960600Y-50108600D02*
X53455000Y-50244000D01*
X54477100Y-50026800D02*
X53960600Y-50108600D01*
X55000100Y-49999100D02*
X54477100Y-50026800D01*
X144993400Y-49999000D02*
X55000100Y-49999100D01*
X145522500Y-50026700D02*
X144993400Y-49999000D01*
X146039500Y-50108600D02*
X145522500Y-50026700D01*
X146545100Y-50244000D02*
X146039500Y-50108600D01*
X147033700Y-50431600D02*
X146545100Y-50244000D01*
X147500100Y-50669200D02*
X147033700Y-50431600D01*
X147939100Y-50954200D02*
X147500100Y-50669200D01*
X148345900Y-51283600D02*
X147939100Y-50954200D01*
X148707300Y-51644600D02*
X148345900Y-51283600D01*
X148724700Y-51663900D02*
X148707300Y-51644600D01*
X149045500Y-52060500D02*
X148724700Y-51663900D01*
X149323800Y-52488500D02*
X149045500Y-52060500D01*
X149337000Y-52511200D02*
X149323800Y-52488500D01*
X149562700Y-52954200D02*
X149337000Y-52511200D01*
X149573400Y-52978200D02*
X149562700Y-52954200D01*
X149756000Y-53455000D02*
X149573400Y-52978200D01*
X149891400Y-53960600D02*
X149756000Y-53455000D01*
X149973200Y-54477100D02*
X149891400Y-53960600D01*
X150000900Y-55000100D02*
X149973200Y-54477100D01*
X150000900Y-145000200D02*
X150000900Y-55000100D01*
X149973200Y-145523000D02*
X150000900Y-145000200D01*
X149891400Y-146039500D02*
X149973200Y-145523000D01*
X149756000Y-146545100D02*
X149891400Y-146039500D01*
X149573400Y-147021800D02*
X149756000Y-146545100D01*
X149562700Y-147045800D02*
X149573400Y-147021800D01*
X149337000Y-147488800D02*
X149562700Y-147045800D01*
X149323800Y-147511500D02*
X149337000Y-147488800D01*
X149045400Y-147939500D02*
X149323800Y-147511500D01*
X148716000Y-148346300D02*
X149045400Y-147939500D01*
X148346300Y-148716100D02*
X148716000Y-148346300D01*
X147939500Y-149045500D02*
X148346300Y-148716100D01*
X147500500Y-149330600D02*
X147939500Y-149045500D01*
X147045800Y-149562700D02*
X147500500Y-149330600D01*
X147021800Y-149573400D02*
X147045800Y-149562700D01*
X146557700Y-149751500D02*
X147021800Y-149573400D01*
X146532700Y-149759600D02*
X146557700Y-149751500D01*
X146039400Y-149891400D02*
X146532700Y-149759600D01*
X145522500Y-149973300D02*
X146039400Y-149891400D01*
M02*
