M48
; DRILL file {KiCad 5.1.5+dfsg1-2build2} date Mon Nov 23 21:06:00 2020
; FORMAT={-:-/ absolute / metric / decimal}
; #@! TF.CreationDate,2020-11-23T21:06:00+01:00
; #@! TF.GenerationSoftware,Kicad,Pcbnew,5.1.5+dfsg1-2build2
FMAT,2
METRIC
T1C0.300
T2C0.500
T3C0.550
T4C0.850
T5C1.000
T6C1.100
T7C3.200
T8C0.800
T9C1.152
%
G90
G05
T1
X50.775Y-108.84
X50.81Y-90.84
X51.56Y-98.13
X51.82Y-90.38
X53.16Y-111.48
X53.84Y-110.345
X53.99Y-91.74
X54.52Y-90.14
X54.642Y-109.759
X54.664Y-108.266
X54.7Y-110.83
X55.39Y-87.36
X55.41Y-112.98
X55.99Y-92.45
X56.08Y-86.27
X56.51Y-90.45
X56.81Y-102.9
X56.97Y-109.21
X57.01Y-107.45
X57.13Y-105.68
X57.49Y-108.41
X57.54Y-102.32
X57.6Y-106.63
X57.92Y-109.22
X57.99Y-107.45
X58.03Y-113.6
X58.07Y-105.72
X58.44Y-108.38
X58.47Y-106.59
X58.84Y-109.16
X58.94Y-105.71
X58.97Y-107.42
X59.15Y-81.91
X59.37Y-106.59
X59.38Y-108.35
X59.85Y-109.07
X59.87Y-105.72
X59.89Y-81.28
X59.92Y-117.52
X59.95Y-107.47
X60.07Y-115.29
X60.27Y-106.54
X60.35Y-112.4
X60.41Y-108.42
X60.67Y-105.73
X60.77Y-88.13
X60.88Y-107.47
X60.94Y-109.09
X61.62Y-67.399
X62.29Y-111.845
X62.35Y-113.77
X62.42Y-67.42
X63.99Y-109.78
X64.38Y-91.68
X64.39Y-89.31
X64.54Y-113.11
X65.45Y-120.67
X65.6Y-107.36
X65.758Y-119.162
X65.86Y-91.47
X68.7Y-56.45
X74.66Y-89.2
X74.718Y-71.148
X74.79Y-81.78
X74.93Y-75.36
X74.96Y-97.19
X75.09Y-111.2
X75.19Y-118.07
X75.19Y-125.34
X75.24Y-104.34
X75.32Y-132.25
X76.6Y-59.39
X97.87Y-137.67
X104.83Y-90.27
X104.86Y-83.35
X104.87Y-104.25
X104.87Y-111.25
X104.88Y-76.26
X104.89Y-69.39
X104.89Y-97.28
X104.9Y-118.49
X104.9Y-125.4
X105.74Y-137.7
X116.73Y-75.05
X116.91Y-81.61
X117.03Y-117.86
X117.1Y-89.35
X117.1Y-110.67
X117.17Y-96.6
X117.19Y-125.15
X117.32Y-132.08
X117.33Y-103.8
X147.23Y-76.05
X147.24Y-69.27
X147.24Y-104.16
X147.27Y-83.07
X147.27Y-97.1
X147.27Y-111.17
X147.28Y-90.2
X147.28Y-118.21
X147.28Y-125.18
T2
X53.87Y-106.61
X54.066Y-101.996
X54.2Y-100.92
X55.39Y-77.39
X57.25Y-97.34
X57.89Y-74.19
X58.38Y-69.18
X59.34Y-101.51
X60.322Y-101.7
X62.79Y-111.02
X63.08Y-60.14
X63.17Y-80.93
X63.2Y-81.93
X63.78Y-103.74
X64.1Y-67.2
X64.71Y-86.2
X64.91Y-105.29
X65.13Y-60.14
X65.69Y-106.15
X65.9Y-86.42
X65.95Y-111.05
X67.69Y-65.27
X68.4Y-57.95
X68.929Y-110.324
X69.11Y-61.57
X69.92Y-115.22
X70.1Y-93.22
X70.12Y-89.42
X73.68Y-72.98
X74.67Y-92.96
X74.74Y-116.09
X75.75Y-63.03
X76.46Y-69.22
X78.1Y-95.95
X78.15Y-130.9
X78.18Y-81.93
X78.21Y-74.96
X78.22Y-116.97
X78.25Y-88.94
X78.3Y-102.97
X78.3Y-109.95
X78.32Y-123.96
X78.53Y-54.49
X80.23Y-115.06
X80.31Y-129.06
X80.4Y-122.03
X80.44Y-101.04
X80.5Y-73.08
X80.51Y-108.07
X80.57Y-87.06
X80.6Y-52.55
X80.7Y-94.11
X80.72Y-80.07
X80.89Y-66.04
X85.5Y-81.9
X85.59Y-74.92
X85.59Y-116.95
X85.63Y-95.97
X85.68Y-89.0
X85.78Y-123.94
X85.8Y-102.95
X85.83Y-130.92
X85.98Y-109.97
X86.22Y-67.91
X86.28Y-54.42
X88.17Y-101.02
X88.22Y-66.08
X88.3Y-87.05
X88.32Y-108.06
X88.33Y-122.03
X88.41Y-129.06
X88.51Y-73.02
X88.57Y-52.61
X88.58Y-80.03
X88.58Y-94.03
X88.65Y-115.1
X93.4Y-67.92
X93.58Y-95.97
X93.62Y-81.91
X93.65Y-74.93
X93.7Y-88.99
X93.76Y-116.96
X93.78Y-109.95
X93.81Y-102.92
X93.82Y-123.97
X93.88Y-130.9
X94.03Y-54.44
X96.14Y-52.59
X96.26Y-108.04
X96.27Y-87.03
X96.27Y-122.07
X96.29Y-115.06
X96.3Y-101.07
X96.31Y-73.06
X96.36Y-66.0
X96.41Y-129.09
X96.43Y-94.06
X96.69Y-80.03
X101.49Y-88.92
X101.55Y-81.99
X101.57Y-74.9
X101.64Y-102.95
X101.7Y-109.95
X101.71Y-67.92
X101.75Y-130.87
X101.81Y-95.95
X101.82Y-123.95
X101.87Y-54.4
X101.94Y-116.93
X104.16Y-101.01
X104.25Y-108.06
X104.39Y-129.05
X104.43Y-122.07
X104.45Y-87.1
X104.49Y-94.04
X104.49Y-115.09
X104.53Y-66.06
X104.71Y-73.02
X104.71Y-80.03
X106.77Y-57.59
X120.12Y-81.78
X120.21Y-67.83
X120.24Y-74.76
X120.31Y-130.8
X120.35Y-95.76
X120.41Y-109.76
X120.42Y-116.81
X120.42Y-123.74
X120.44Y-88.84
X120.62Y-102.79
X122.38Y-128.87
X122.42Y-65.9
X122.82Y-114.85
X122.86Y-79.9
X122.92Y-72.87
X123.05Y-86.85
X123.07Y-93.84
X123.1Y-100.88
X123.18Y-121.91
X123.39Y-107.88
X128.14Y-67.75
X128.18Y-74.81
X128.2Y-88.8
X128.37Y-130.78
X128.4Y-123.77
X128.41Y-81.8
X128.46Y-102.81
X128.46Y-109.78
X128.48Y-116.78
X128.55Y-95.75
X130.34Y-114.86
X130.69Y-65.86
X130.73Y-79.86
X130.78Y-72.87
X130.82Y-86.87
X130.93Y-107.87
X131.05Y-128.88
X131.09Y-93.88
X131.27Y-100.89
X131.34Y-121.9
X136.14Y-67.77
X136.29Y-81.8
X136.38Y-130.82
X136.39Y-116.8
X136.43Y-88.81
X136.44Y-74.8
X136.44Y-95.8
X136.54Y-123.76
X136.61Y-109.78
X136.63Y-102.8
X138.51Y-65.88
X138.57Y-121.91
X138.71Y-114.88
X138.81Y-100.87
X138.85Y-79.84
X138.96Y-128.9
X139.05Y-72.92
X139.09Y-93.84
X139.23Y-86.87
X139.25Y-107.93
X144.08Y-130.76
X144.11Y-116.81
X144.19Y-109.81
X144.22Y-88.76
X144.23Y-81.81
X144.23Y-95.74
X144.25Y-74.82
X144.33Y-102.76
X144.37Y-67.77
X144.44Y-123.79
X146.37Y-65.93
X146.62Y-72.87
X146.63Y-114.84
X146.71Y-100.92
X146.82Y-93.82
X146.82Y-121.88
X146.88Y-107.91
X146.91Y-86.9
X146.93Y-79.9
X147.39Y-128.86
T5
X64.22Y-52.64
X66.76Y-52.64
X69.3Y-52.64
T6
X78.19Y-141.088
X78.19Y-147.588
X82.69Y-141.088
X82.69Y-147.588
X86.064Y-141.088
X86.064Y-147.588
X90.564Y-141.088
X90.564Y-147.588
X52.358Y-117.734
X52.358Y-124.234
X56.858Y-117.734
X56.858Y-124.234
X109.686Y-141.088
X109.686Y-147.588
X114.186Y-141.088
X114.186Y-147.588
X131.53Y-141.088
X131.53Y-147.588
X136.03Y-141.088
X136.03Y-147.588
X101.812Y-141.088
X101.812Y-147.588
X106.312Y-141.088
X106.312Y-147.588
X52.282Y-128.896
X52.282Y-135.396
X56.782Y-128.896
X56.782Y-135.396
X70.062Y-141.088
X70.062Y-147.588
X74.562Y-141.088
X74.562Y-147.588
X93.938Y-141.088
X93.938Y-147.588
X98.438Y-141.088
X98.438Y-147.588
X109.686Y-127.118
X109.686Y-133.618
X114.186Y-127.118
X114.186Y-133.618
X60.156Y-128.896
X60.156Y-135.396
X64.656Y-128.896
X64.656Y-135.396
T7
X55.0Y-145.0
X145.0Y-55.0
X55.0Y-55.0
X145.0Y-145.0
T8
X55.09Y-65.32
X55.09Y-70.32
T9
X57.999Y-51.999
X142.001Y-51.999
X57.999Y-148.001
T3
X52.665Y-63.945G85X52.015Y-63.945
G05
X52.665Y-71.695G85X52.015Y-71.695
G05
T4
X56.415Y-64.095G85X55.865Y-64.095
G05
X56.415Y-71.545G85X55.865Y-71.545
G05
T0
M30
