G04 #@! TF.GenerationSoftware,KiCad,Pcbnew,5.1.5+dfsg1-2build2*
G04 #@! TF.CreationDate,2021-01-24T21:22:00+01:00*
G04 #@! TF.ProjectId,Logic_panel_v1_1,4c6f6769-635f-4706-916e-656c5f76315f,rev?*
G04 #@! TF.SameCoordinates,Original*
G04 #@! TF.FileFunction,Soldermask,Bot*
G04 #@! TF.FilePolarity,Negative*
%FSLAX46Y46*%
G04 Gerber Fmt 4.6, Leading zero omitted, Abs format (unit mm)*
G04 Created by KiCad (PCBNEW 5.1.5+dfsg1-2build2) date 2021-01-24 21:22:00*
%MOMM*%
%LPD*%
G04 APERTURE LIST*
%ADD10C,0.350000*%
G04 APERTURE END LIST*
D10*
G36*
X60121322Y-146886049D02*
G01*
X60181889Y-146898096D01*
X60238942Y-146921728D01*
X60295997Y-146945361D01*
X60398687Y-147013976D01*
X60486025Y-147101314D01*
X60554640Y-147204004D01*
X60601905Y-147318113D01*
X60626000Y-147439246D01*
X60626000Y-147562756D01*
X60601905Y-147683889D01*
X60554640Y-147797998D01*
X60486025Y-147900688D01*
X60398687Y-147988026D01*
X60295997Y-148056641D01*
X60238942Y-148080274D01*
X60181889Y-148103906D01*
X60121322Y-148115953D01*
X60060755Y-148128001D01*
X59937245Y-148128001D01*
X59876678Y-148115953D01*
X59816111Y-148103906D01*
X59759058Y-148080274D01*
X59702003Y-148056641D01*
X59599313Y-147988026D01*
X59511975Y-147900688D01*
X59443360Y-147797998D01*
X59396095Y-147683889D01*
X59372000Y-147562756D01*
X59372000Y-147439246D01*
X59396095Y-147318113D01*
X59443360Y-147204004D01*
X59511975Y-147101314D01*
X59599313Y-147013976D01*
X59702003Y-146945361D01*
X59759058Y-146921728D01*
X59816111Y-146898096D01*
X59876678Y-146886049D01*
X59937245Y-146874001D01*
X60060755Y-146874001D01*
X60121322Y-146886049D01*
G37*
G36*
X145556203Y-142203782D02*
G01*
X145831607Y-142258563D01*
X146350456Y-142473477D01*
X146817408Y-142785485D01*
X147214517Y-143182594D01*
X147526525Y-143649546D01*
X147741439Y-144168395D01*
X147851001Y-144719202D01*
X147851001Y-145280800D01*
X147741439Y-145831607D01*
X147526525Y-146350456D01*
X147214517Y-146817408D01*
X146817408Y-147214517D01*
X146350456Y-147526525D01*
X145831607Y-147741439D01*
X145556203Y-147796220D01*
X145280801Y-147851001D01*
X144719201Y-147851001D01*
X144443799Y-147796220D01*
X144168395Y-147741439D01*
X143649546Y-147526525D01*
X143182594Y-147214517D01*
X142785485Y-146817408D01*
X142473477Y-146350456D01*
X142258563Y-145831607D01*
X142149001Y-145280800D01*
X142149001Y-144719202D01*
X142258563Y-144168395D01*
X142473477Y-143649546D01*
X142785485Y-143182594D01*
X143182594Y-142785485D01*
X143649546Y-142473477D01*
X144168395Y-142258563D01*
X144443799Y-142203782D01*
X144719201Y-142149001D01*
X145280801Y-142149001D01*
X145556203Y-142203782D01*
G37*
G36*
X55556203Y-142203782D02*
G01*
X55831607Y-142258563D01*
X56350456Y-142473477D01*
X56817408Y-142785485D01*
X57214517Y-143182594D01*
X57526525Y-143649546D01*
X57741439Y-144168395D01*
X57851001Y-144719202D01*
X57851001Y-145280800D01*
X57741439Y-145831607D01*
X57526525Y-146350456D01*
X57214517Y-146817408D01*
X56817408Y-147214517D01*
X56350456Y-147526525D01*
X55831607Y-147741439D01*
X55556203Y-147796220D01*
X55280801Y-147851001D01*
X54719201Y-147851001D01*
X54443799Y-147796220D01*
X54168395Y-147741439D01*
X53649546Y-147526525D01*
X53182594Y-147214517D01*
X52785485Y-146817408D01*
X52473477Y-146350456D01*
X52258563Y-145831607D01*
X52149001Y-145280800D01*
X52149001Y-144719202D01*
X52258563Y-144168395D01*
X52473477Y-143649546D01*
X52785485Y-143182594D01*
X53182594Y-142785485D01*
X53649546Y-142473477D01*
X54168395Y-142258563D01*
X54443799Y-142203782D01*
X54719201Y-142149001D01*
X55280801Y-142149001D01*
X55556203Y-142203782D01*
G37*
G36*
X55221553Y-69886332D02*
G01*
X55303628Y-69920329D01*
X55303630Y-69920330D01*
X55340814Y-69945176D01*
X55377496Y-69969686D01*
X55440316Y-70032506D01*
X55489673Y-70106374D01*
X55523670Y-70188449D01*
X55541001Y-70275580D01*
X55541001Y-70364422D01*
X55523670Y-70451553D01*
X55489673Y-70533628D01*
X55440316Y-70607496D01*
X55424763Y-70623049D01*
X55409218Y-70641991D01*
X55397667Y-70663602D01*
X55390554Y-70687051D01*
X55388152Y-70711437D01*
X55390554Y-70735823D01*
X55397667Y-70759272D01*
X55409218Y-70780883D01*
X55424763Y-70799825D01*
X55443705Y-70815370D01*
X55465316Y-70826921D01*
X55488765Y-70834034D01*
X55513151Y-70836436D01*
X55537537Y-70834034D01*
X55560986Y-70826921D01*
X55564615Y-70825205D01*
X55566601Y-70824603D01*
X55566602Y-70824602D01*
X55610902Y-70811164D01*
X55712880Y-70780229D01*
X55826883Y-70769001D01*
X56453119Y-70769001D01*
X56567122Y-70780229D01*
X56713403Y-70824603D01*
X56848205Y-70896656D01*
X56848208Y-70896658D01*
X56848209Y-70896659D01*
X56933569Y-70966713D01*
X56966370Y-70993632D01*
X57063346Y-71111797D01*
X57135399Y-71246599D01*
X57179773Y-71392880D01*
X57194755Y-71545001D01*
X57179773Y-71697122D01*
X57135399Y-71843403D01*
X57063346Y-71978205D01*
X57063344Y-71978208D01*
X57063343Y-71978209D01*
X56966370Y-72096370D01*
X56848205Y-72193346D01*
X56713403Y-72265399D01*
X56567122Y-72309773D01*
X56453119Y-72321001D01*
X55826883Y-72321001D01*
X55712880Y-72309773D01*
X55566599Y-72265399D01*
X55431797Y-72193346D01*
X55313632Y-72096370D01*
X55216659Y-71978209D01*
X55216658Y-71978208D01*
X55216656Y-71978205D01*
X55144603Y-71843403D01*
X55100229Y-71697122D01*
X55085247Y-71545001D01*
X55100229Y-71392880D01*
X55144603Y-71246599D01*
X55216656Y-71111797D01*
X55313634Y-70993629D01*
X55346431Y-70966713D01*
X55363758Y-70949386D01*
X55377371Y-70929012D01*
X55386749Y-70906373D01*
X55391529Y-70882340D01*
X55391529Y-70857836D01*
X55386749Y-70833802D01*
X55377371Y-70811164D01*
X55363757Y-70790789D01*
X55346430Y-70773462D01*
X55326056Y-70759849D01*
X55303417Y-70750471D01*
X55279384Y-70745691D01*
X55254880Y-70745691D01*
X55230846Y-70750471D01*
X55222352Y-70753511D01*
X55134422Y-70771001D01*
X55045580Y-70771001D01*
X54958449Y-70753670D01*
X54876374Y-70719673D01*
X54876373Y-70719673D01*
X54876372Y-70719672D01*
X54802505Y-70670315D01*
X54739687Y-70607497D01*
X54690330Y-70533630D01*
X54690329Y-70533628D01*
X54656332Y-70451553D01*
X54639001Y-70364422D01*
X54639001Y-70275580D01*
X54656332Y-70188449D01*
X54690329Y-70106374D01*
X54739686Y-70032506D01*
X54802506Y-69969686D01*
X54839188Y-69945176D01*
X54876372Y-69920330D01*
X54876374Y-69920329D01*
X54958449Y-69886332D01*
X55045580Y-69869001D01*
X55134422Y-69869001D01*
X55221553Y-69886332D01*
G37*
G36*
X52787716Y-71078059D02*
G01*
X52883754Y-71107192D01*
X52898936Y-71111797D01*
X52905723Y-71113856D01*
X53014469Y-71171982D01*
X53109791Y-71250211D01*
X53188020Y-71345533D01*
X53246146Y-71454279D01*
X53281943Y-71572286D01*
X53294029Y-71695001D01*
X53281943Y-71817716D01*
X53246146Y-71935723D01*
X53188020Y-72044469D01*
X53109791Y-72139791D01*
X53014469Y-72218020D01*
X52905723Y-72276146D01*
X52787716Y-72311943D01*
X52695747Y-72321001D01*
X51984255Y-72321001D01*
X51892286Y-72311943D01*
X51774279Y-72276146D01*
X51665533Y-72218020D01*
X51570211Y-72139791D01*
X51491982Y-72044469D01*
X51433856Y-71935723D01*
X51398059Y-71817716D01*
X51385973Y-71695001D01*
X51398059Y-71572286D01*
X51433856Y-71454279D01*
X51491982Y-71345533D01*
X51570211Y-71250211D01*
X51665533Y-71171982D01*
X51774279Y-71113856D01*
X51781067Y-71111797D01*
X51796248Y-71107192D01*
X51892286Y-71078059D01*
X51984255Y-71069001D01*
X52695747Y-71069001D01*
X52787716Y-71078059D01*
G37*
G36*
X56567122Y-63330229D02*
G01*
X56713403Y-63374603D01*
X56848205Y-63446656D01*
X56848208Y-63446658D01*
X56848209Y-63446659D01*
X56966370Y-63543632D01*
X57008964Y-63595532D01*
X57063346Y-63661797D01*
X57135399Y-63796599D01*
X57179773Y-63942880D01*
X57194755Y-64095001D01*
X57179773Y-64247122D01*
X57135399Y-64393403D01*
X57063346Y-64528205D01*
X57063344Y-64528208D01*
X57063343Y-64528209D01*
X56966370Y-64646370D01*
X56874117Y-64722081D01*
X56848205Y-64743346D01*
X56713403Y-64815399D01*
X56567122Y-64859773D01*
X56453119Y-64871001D01*
X55826883Y-64871001D01*
X55712880Y-64859773D01*
X55560665Y-64813599D01*
X55549440Y-64808949D01*
X55525406Y-64804168D01*
X55500902Y-64804168D01*
X55476869Y-64808947D01*
X55454230Y-64818324D01*
X55433855Y-64831937D01*
X55416528Y-64849264D01*
X55402913Y-64869638D01*
X55393535Y-64892276D01*
X55388754Y-64916310D01*
X55388754Y-64940814D01*
X55393533Y-64964847D01*
X55402910Y-64987486D01*
X55416523Y-65007861D01*
X55424763Y-65016953D01*
X55440316Y-65032506D01*
X55489673Y-65106374D01*
X55523670Y-65188449D01*
X55541001Y-65275580D01*
X55541001Y-65364422D01*
X55523670Y-65451553D01*
X55489673Y-65533628D01*
X55489672Y-65533630D01*
X55440315Y-65607497D01*
X55377497Y-65670315D01*
X55303630Y-65719672D01*
X55303629Y-65719673D01*
X55303628Y-65719673D01*
X55221553Y-65753670D01*
X55134422Y-65771001D01*
X55045580Y-65771001D01*
X54958449Y-65753670D01*
X54876374Y-65719673D01*
X54876373Y-65719673D01*
X54876372Y-65719672D01*
X54802505Y-65670315D01*
X54739687Y-65607497D01*
X54690330Y-65533630D01*
X54690329Y-65533628D01*
X54656332Y-65451553D01*
X54639001Y-65364422D01*
X54639001Y-65275580D01*
X54656332Y-65188449D01*
X54690329Y-65106374D01*
X54739686Y-65032506D01*
X54802506Y-64969686D01*
X54845716Y-64940814D01*
X54876372Y-64920330D01*
X54886077Y-64916310D01*
X54958449Y-64886332D01*
X55045580Y-64869001D01*
X55134422Y-64869001D01*
X55223947Y-64886808D01*
X55242744Y-64892511D01*
X55267130Y-64894913D01*
X55291516Y-64892512D01*
X55314965Y-64885399D01*
X55336576Y-64873848D01*
X55355518Y-64858303D01*
X55371064Y-64839362D01*
X55382615Y-64817751D01*
X55389729Y-64794302D01*
X55392131Y-64769916D01*
X55389730Y-64745530D01*
X55382617Y-64722081D01*
X55371066Y-64700470D01*
X55355521Y-64681528D01*
X55346431Y-64673289D01*
X55313634Y-64646373D01*
X55216656Y-64528205D01*
X55144603Y-64393403D01*
X55100229Y-64247122D01*
X55085247Y-64095001D01*
X55100229Y-63942880D01*
X55144603Y-63796599D01*
X55216656Y-63661797D01*
X55271039Y-63595532D01*
X55313632Y-63543632D01*
X55431793Y-63446659D01*
X55431794Y-63446658D01*
X55431797Y-63446656D01*
X55566599Y-63374603D01*
X55712880Y-63330229D01*
X55826883Y-63319001D01*
X56453119Y-63319001D01*
X56567122Y-63330229D01*
G37*
G36*
X52787716Y-63328059D02*
G01*
X52905723Y-63363856D01*
X53014469Y-63421982D01*
X53109791Y-63500211D01*
X53188020Y-63595533D01*
X53246146Y-63704279D01*
X53281943Y-63822286D01*
X53294029Y-63945001D01*
X53281943Y-64067716D01*
X53246146Y-64185723D01*
X53188020Y-64294469D01*
X53109791Y-64389791D01*
X53014469Y-64468020D01*
X52905723Y-64526146D01*
X52905720Y-64526147D01*
X52898922Y-64528209D01*
X52787716Y-64561943D01*
X52695747Y-64571001D01*
X51984255Y-64571001D01*
X51892286Y-64561943D01*
X51781080Y-64528209D01*
X51774282Y-64526147D01*
X51774279Y-64526146D01*
X51665533Y-64468020D01*
X51570211Y-64389791D01*
X51491982Y-64294469D01*
X51433856Y-64185723D01*
X51398059Y-64067716D01*
X51385973Y-63945001D01*
X51398059Y-63822286D01*
X51433856Y-63704279D01*
X51491982Y-63595533D01*
X51570211Y-63500211D01*
X51665533Y-63421982D01*
X51774279Y-63363856D01*
X51892286Y-63328059D01*
X51984255Y-63319001D01*
X52695747Y-63319001D01*
X52787716Y-63328059D01*
G37*
G36*
X55547260Y-52202003D02*
G01*
X55831607Y-52258563D01*
X56350456Y-52473477D01*
X56662364Y-52681888D01*
X56817407Y-52785484D01*
X57214518Y-53182595D01*
X57235739Y-53214355D01*
X57526525Y-53649546D01*
X57741439Y-54168395D01*
X57851001Y-54719202D01*
X57851001Y-55280800D01*
X57741439Y-55831607D01*
X57526525Y-56350456D01*
X57214517Y-56817408D01*
X56817408Y-57214517D01*
X56350456Y-57526525D01*
X55831607Y-57741439D01*
X55556203Y-57796220D01*
X55280801Y-57851001D01*
X54719201Y-57851001D01*
X54443799Y-57796220D01*
X54168395Y-57741439D01*
X53649546Y-57526525D01*
X53182594Y-57214517D01*
X52785485Y-56817408D01*
X52473477Y-56350456D01*
X52258563Y-55831607D01*
X52149001Y-55280800D01*
X52149001Y-54719202D01*
X52258563Y-54168395D01*
X52473477Y-53649546D01*
X52764263Y-53214355D01*
X52785484Y-53182595D01*
X53182595Y-52785484D01*
X53337638Y-52681888D01*
X53649546Y-52473477D01*
X54168395Y-52258563D01*
X54452742Y-52202003D01*
X54719201Y-52149001D01*
X55280801Y-52149001D01*
X55547260Y-52202003D01*
G37*
G36*
X145547260Y-52202003D02*
G01*
X145831607Y-52258563D01*
X146350456Y-52473477D01*
X146662364Y-52681888D01*
X146817407Y-52785484D01*
X147214518Y-53182595D01*
X147235739Y-53214355D01*
X147526525Y-53649546D01*
X147741439Y-54168395D01*
X147851001Y-54719202D01*
X147851001Y-55280800D01*
X147741439Y-55831607D01*
X147526525Y-56350456D01*
X147214517Y-56817408D01*
X146817408Y-57214517D01*
X146350456Y-57526525D01*
X145831607Y-57741439D01*
X145556203Y-57796220D01*
X145280801Y-57851001D01*
X144719201Y-57851001D01*
X144443799Y-57796220D01*
X144168395Y-57741439D01*
X143649546Y-57526525D01*
X143182594Y-57214517D01*
X142785485Y-56817408D01*
X142473477Y-56350456D01*
X142258563Y-55831607D01*
X142149001Y-55280800D01*
X142149001Y-54719202D01*
X142258563Y-54168395D01*
X142473477Y-53649546D01*
X142764263Y-53214355D01*
X142785484Y-53182595D01*
X143182595Y-52785484D01*
X143337638Y-52681888D01*
X143649546Y-52473477D01*
X144168395Y-52258563D01*
X144452742Y-52202003D01*
X144719201Y-52149001D01*
X145280801Y-52149001D01*
X145547260Y-52202003D01*
G37*
G36*
X65121001Y-53541001D02*
G01*
X63319001Y-53541001D01*
X63319001Y-51739001D01*
X65121001Y-51739001D01*
X65121001Y-53541001D01*
G37*
G36*
X66873513Y-51743928D02*
G01*
X67022813Y-51773625D01*
X67186785Y-51841545D01*
X67334355Y-51940148D01*
X67459854Y-52065647D01*
X67558457Y-52213217D01*
X67626377Y-52377189D01*
X67661001Y-52551260D01*
X67661001Y-52728742D01*
X67626377Y-52902813D01*
X67558457Y-53066785D01*
X67459854Y-53214355D01*
X67334355Y-53339854D01*
X67186785Y-53438457D01*
X67022813Y-53506377D01*
X66873513Y-53536074D01*
X66848743Y-53541001D01*
X66671259Y-53541001D01*
X66646489Y-53536074D01*
X66497189Y-53506377D01*
X66333217Y-53438457D01*
X66185647Y-53339854D01*
X66060148Y-53214355D01*
X65961545Y-53066785D01*
X65893625Y-52902813D01*
X65859001Y-52728742D01*
X65859001Y-52551260D01*
X65893625Y-52377189D01*
X65961545Y-52213217D01*
X66060148Y-52065647D01*
X66185647Y-51940148D01*
X66333217Y-51841545D01*
X66497189Y-51773625D01*
X66646489Y-51743928D01*
X66671259Y-51739001D01*
X66848743Y-51739001D01*
X66873513Y-51743928D01*
G37*
G36*
X69413513Y-51743928D02*
G01*
X69562813Y-51773625D01*
X69726785Y-51841545D01*
X69874355Y-51940148D01*
X69999854Y-52065647D01*
X70098457Y-52213217D01*
X70166377Y-52377189D01*
X70201001Y-52551260D01*
X70201001Y-52728742D01*
X70166377Y-52902813D01*
X70098457Y-53066785D01*
X69999854Y-53214355D01*
X69874355Y-53339854D01*
X69726785Y-53438457D01*
X69562813Y-53506377D01*
X69413513Y-53536074D01*
X69388743Y-53541001D01*
X69211259Y-53541001D01*
X69186489Y-53536074D01*
X69037189Y-53506377D01*
X68873217Y-53438457D01*
X68725647Y-53339854D01*
X68600148Y-53214355D01*
X68501545Y-53066785D01*
X68433625Y-52902813D01*
X68399001Y-52728742D01*
X68399001Y-52551260D01*
X68433625Y-52377189D01*
X68501545Y-52213217D01*
X68600148Y-52065647D01*
X68725647Y-51940148D01*
X68873217Y-51841545D01*
X69037189Y-51773625D01*
X69186489Y-51743928D01*
X69211259Y-51739001D01*
X69388743Y-51739001D01*
X69413513Y-51743928D01*
G37*
G36*
X60121322Y-51884048D02*
G01*
X60181889Y-51896095D01*
X60238942Y-51919727D01*
X60295997Y-51943360D01*
X60398687Y-52011975D01*
X60486025Y-52099313D01*
X60554640Y-52202003D01*
X60601905Y-52316112D01*
X60626000Y-52437245D01*
X60626000Y-52560755D01*
X60601905Y-52681888D01*
X60554640Y-52795997D01*
X60486025Y-52898687D01*
X60398687Y-52986025D01*
X60295997Y-53054640D01*
X60266676Y-53066785D01*
X60181889Y-53101905D01*
X60121321Y-53113953D01*
X60060755Y-53126000D01*
X59937245Y-53126000D01*
X59876679Y-53113953D01*
X59816111Y-53101905D01*
X59731324Y-53066785D01*
X59702003Y-53054640D01*
X59599313Y-52986025D01*
X59511975Y-52898687D01*
X59443360Y-52795997D01*
X59396095Y-52681888D01*
X59372000Y-52560755D01*
X59372000Y-52437245D01*
X59396095Y-52316112D01*
X59443360Y-52202003D01*
X59511975Y-52099313D01*
X59599313Y-52011975D01*
X59702003Y-51943360D01*
X59759058Y-51919727D01*
X59816111Y-51896095D01*
X59876678Y-51884048D01*
X59937245Y-51872000D01*
X60060755Y-51872000D01*
X60121322Y-51884048D01*
G37*
G36*
X140123323Y-51884048D02*
G01*
X140183890Y-51896095D01*
X140240943Y-51919727D01*
X140297998Y-51943360D01*
X140400688Y-52011975D01*
X140488026Y-52099313D01*
X140556641Y-52202003D01*
X140603906Y-52316112D01*
X140628001Y-52437245D01*
X140628001Y-52560755D01*
X140603906Y-52681888D01*
X140556641Y-52795997D01*
X140488026Y-52898687D01*
X140400688Y-52986025D01*
X140297998Y-53054640D01*
X140268677Y-53066785D01*
X140183890Y-53101905D01*
X140123322Y-53113953D01*
X140062756Y-53126000D01*
X139939246Y-53126000D01*
X139878680Y-53113953D01*
X139818112Y-53101905D01*
X139733325Y-53066785D01*
X139704004Y-53054640D01*
X139601314Y-52986025D01*
X139513976Y-52898687D01*
X139445361Y-52795997D01*
X139398096Y-52681888D01*
X139374001Y-52560755D01*
X139374001Y-52437245D01*
X139398096Y-52316112D01*
X139445361Y-52202003D01*
X139513976Y-52099313D01*
X139601314Y-52011975D01*
X139704004Y-51943360D01*
X139761059Y-51919727D01*
X139818112Y-51896095D01*
X139878679Y-51884048D01*
X139939246Y-51872000D01*
X140062756Y-51872000D01*
X140123323Y-51884048D01*
G37*
M02*
