G04 #@! TF.GenerationSoftware,KiCad,Pcbnew,5.1.5+dfsg1-2build2*
G04 #@! TF.CreationDate,2020-11-21T21:11:59+01:00*
G04 #@! TF.ProjectId,Logic_panel_v1,4c6f6769-635f-4706-916e-656c5f76312e,rev?*
G04 #@! TF.SameCoordinates,Original*
G04 #@! TF.FileFunction,Legend,Bot*
G04 #@! TF.FilePolarity,Positive*
%FSLAX46Y46*%
G04 Gerber Fmt 4.6, Leading zero omitted, Abs format (unit mm)*
G04 Created by KiCad (PCBNEW 5.1.5+dfsg1-2build2) date 2020-11-21 21:11:59*
%MOMM*%
%LPD*%
G04 APERTURE LIST*
%ADD10C,0.150000*%
G04 APERTURE END LIST*
D10*
X132644572Y-57016623D02*
X133596953Y-57016623D01*
X133596953Y-55016623D01*
X131692191Y-57016623D02*
X131882667Y-56921385D01*
X131977905Y-56826147D01*
X132073143Y-56635671D01*
X132073143Y-56064242D01*
X131977905Y-55873766D01*
X131882667Y-55778528D01*
X131692191Y-55683290D01*
X131406477Y-55683290D01*
X131216001Y-55778528D01*
X131120762Y-55873766D01*
X131025524Y-56064242D01*
X131025524Y-56635671D01*
X131120762Y-56826147D01*
X131216001Y-56921385D01*
X131406477Y-57016623D01*
X131692191Y-57016623D01*
X129311239Y-55683290D02*
X129311239Y-57302338D01*
X129406477Y-57492814D01*
X129501715Y-57588052D01*
X129692191Y-57683290D01*
X129977905Y-57683290D01*
X130168381Y-57588052D01*
X129311239Y-56921385D02*
X129501715Y-57016623D01*
X129882667Y-57016623D01*
X130073143Y-56921385D01*
X130168381Y-56826147D01*
X130263620Y-56635671D01*
X130263620Y-56064242D01*
X130168381Y-55873766D01*
X130073143Y-55778528D01*
X129882667Y-55683290D01*
X129501715Y-55683290D01*
X129311239Y-55778528D01*
X128358858Y-57016623D02*
X128358858Y-55683290D01*
X128358858Y-55016623D02*
X128454096Y-55111862D01*
X128358858Y-55207100D01*
X128263620Y-55111862D01*
X128358858Y-55016623D01*
X128358858Y-55207100D01*
X126549334Y-56921385D02*
X126739810Y-57016623D01*
X127120762Y-57016623D01*
X127311239Y-56921385D01*
X127406477Y-56826147D01*
X127501715Y-56635671D01*
X127501715Y-56064242D01*
X127406477Y-55873766D01*
X127311239Y-55778528D01*
X127120762Y-55683290D01*
X126739810Y-55683290D01*
X126549334Y-55778528D01*
X124358858Y-55683290D02*
X123882667Y-57016623D01*
X123406477Y-55683290D01*
X121596953Y-57016623D02*
X122739810Y-57016623D01*
X122168381Y-57016623D02*
X122168381Y-55016623D01*
X122358858Y-55302338D01*
X122549334Y-55492814D01*
X122739810Y-55588052D01*
X120739810Y-56826147D02*
X120644572Y-56921385D01*
X120739810Y-57016623D01*
X120835048Y-56921385D01*
X120739810Y-56826147D01*
X120739810Y-57016623D01*
X119406477Y-55016623D02*
X119216001Y-55016623D01*
X119025524Y-55111862D01*
X118930286Y-55207100D01*
X118835048Y-55397576D01*
X118739810Y-55778528D01*
X118739810Y-56254719D01*
X118835048Y-56635671D01*
X118930286Y-56826147D01*
X119025524Y-56921385D01*
X119216001Y-57016623D01*
X119406477Y-57016623D01*
X119596953Y-56921385D01*
X119692191Y-56826147D01*
X119787429Y-56635671D01*
X119882667Y-56254719D01*
X119882667Y-55778528D01*
X119787429Y-55397576D01*
X119692191Y-55207100D01*
X119596953Y-55111862D01*
X119406477Y-55016623D01*
X141596953Y-60166623D02*
X141596953Y-58166623D01*
X141596953Y-58928528D02*
X141406477Y-58833290D01*
X141025524Y-58833290D01*
X140835048Y-58928528D01*
X140739810Y-59023766D01*
X140644572Y-59214242D01*
X140644572Y-59785671D01*
X140739810Y-59976147D01*
X140835048Y-60071385D01*
X141025524Y-60166623D01*
X141406477Y-60166623D01*
X141596953Y-60071385D01*
X139977905Y-58833290D02*
X139501715Y-60166623D01*
X139025524Y-58833290D02*
X139501715Y-60166623D01*
X139692191Y-60642814D01*
X139787429Y-60738052D01*
X139977905Y-60833290D01*
X135596953Y-60166623D02*
X136263620Y-59214242D01*
X136739810Y-60166623D02*
X136739810Y-58166623D01*
X135977905Y-58166623D01*
X135787429Y-58261862D01*
X135692191Y-58357100D01*
X135596953Y-58547576D01*
X135596953Y-58833290D01*
X135692191Y-59023766D01*
X135787429Y-59119004D01*
X135977905Y-59214242D01*
X136739810Y-59214242D01*
X133977905Y-60071385D02*
X134168381Y-60166623D01*
X134549334Y-60166623D01*
X134739810Y-60071385D01*
X134835048Y-59880909D01*
X134835048Y-59119004D01*
X134739810Y-58928528D01*
X134549334Y-58833290D01*
X134168381Y-58833290D01*
X133977905Y-58928528D01*
X133882667Y-59119004D01*
X133882667Y-59309481D01*
X134835048Y-59499957D01*
X133025524Y-58833290D02*
X133025524Y-60166623D01*
X133025524Y-59023766D02*
X132930286Y-58928528D01*
X132739810Y-58833290D01*
X132454096Y-58833290D01*
X132263620Y-58928528D01*
X132168381Y-59119004D01*
X132168381Y-60166623D01*
X130358858Y-60166623D02*
X130358858Y-59119004D01*
X130454096Y-58928528D01*
X130644572Y-58833290D01*
X131025524Y-58833290D01*
X131216001Y-58928528D01*
X130358858Y-60071385D02*
X130549334Y-60166623D01*
X131025524Y-60166623D01*
X131216001Y-60071385D01*
X131311239Y-59880909D01*
X131311239Y-59690433D01*
X131216001Y-59499957D01*
X131025524Y-59404719D01*
X130549334Y-59404719D01*
X130358858Y-59309481D01*
X129692191Y-58833290D02*
X128930286Y-58833290D01*
X129406477Y-58166623D02*
X129406477Y-59880909D01*
X129311239Y-60071385D01*
X129120762Y-60166623D01*
X128930286Y-60166623D01*
X127406477Y-60166623D02*
X127406477Y-59119004D01*
X127501715Y-58928528D01*
X127692191Y-58833290D01*
X128073143Y-58833290D01*
X128263620Y-58928528D01*
X127406477Y-60071385D02*
X127596953Y-60166623D01*
X128073143Y-60166623D01*
X128263620Y-60071385D01*
X128358858Y-59880909D01*
X128358858Y-59690433D01*
X128263620Y-59499957D01*
X128073143Y-59404719D01*
X127596953Y-59404719D01*
X127406477Y-59309481D01*
X125120762Y-58166623D02*
X123787429Y-58166623D01*
X125120762Y-60166623D01*
X123787429Y-60166623D01*
X122263620Y-60071385D02*
X122454096Y-60166623D01*
X122835048Y-60166623D01*
X123025524Y-60071385D01*
X123120762Y-59880909D01*
X123120762Y-59119004D01*
X123025524Y-58928528D01*
X122835048Y-58833290D01*
X122454096Y-58833290D01*
X122263620Y-58928528D01*
X122168381Y-59119004D01*
X122168381Y-59309481D01*
X123120762Y-59499957D01*
X121311239Y-60166623D02*
X121311239Y-58833290D01*
X121311239Y-59023766D02*
X121216001Y-58928528D01*
X121025524Y-58833290D01*
X120739810Y-58833290D01*
X120549334Y-58928528D01*
X120454096Y-59119004D01*
X120454096Y-60166623D01*
X120454096Y-59119004D02*
X120358858Y-58928528D01*
X120168381Y-58833290D01*
X119882667Y-58833290D01*
X119692191Y-58928528D01*
X119596953Y-59119004D01*
X119596953Y-60166623D01*
X117787429Y-60166623D02*
X117787429Y-59119004D01*
X117882667Y-58928528D01*
X118073143Y-58833290D01*
X118454096Y-58833290D01*
X118644572Y-58928528D01*
X117787429Y-60071385D02*
X117977905Y-60166623D01*
X118454096Y-60166623D01*
X118644572Y-60071385D01*
X118739810Y-59880909D01*
X118739810Y-59690433D01*
X118644572Y-59499957D01*
X118454096Y-59404719D01*
X117977905Y-59404719D01*
X117787429Y-59309481D01*
X116835048Y-58833290D02*
X116835048Y-60166623D01*
X116835048Y-59023766D02*
X116739810Y-58928528D01*
X116549334Y-58833290D01*
X116263620Y-58833290D01*
X116073143Y-58928528D01*
X115977905Y-59119004D01*
X115977905Y-60166623D01*
X114739810Y-60166623D02*
X114930286Y-60071385D01*
X115025524Y-59976147D01*
X115120762Y-59785671D01*
X115120762Y-59214242D01*
X115025524Y-59023766D01*
X114930286Y-58928528D01*
X114739810Y-58833290D01*
X114454096Y-58833290D01*
X114263620Y-58928528D01*
X114168381Y-59023766D01*
X114073143Y-59214242D01*
X114073143Y-59785671D01*
X114168381Y-59976147D01*
X114263620Y-60071385D01*
X114454096Y-60166623D01*
X114739810Y-60166623D01*
X113406477Y-58833290D02*
X112930286Y-60166623D01*
X112454096Y-58833290D01*
X110835048Y-60166623D02*
X110835048Y-59119004D01*
X110930286Y-58928528D01*
X111120762Y-58833290D01*
X111501715Y-58833290D01*
X111692191Y-58928528D01*
X110835048Y-60071385D02*
X111025524Y-60166623D01*
X111501715Y-60166623D01*
X111692191Y-60071385D01*
X111787429Y-59880909D01*
X111787429Y-59690433D01*
X111692191Y-59499957D01*
X111501715Y-59404719D01*
X111025524Y-59404719D01*
X110835048Y-59309481D01*
X111120762Y-58071385D02*
X111406477Y-58357100D01*
M02*
