M48
; DRILL file {KiCad 5.1.5+dfsg1-2build2} date Sat Nov 21 21:11:59 2020
; FORMAT={-:-/ absolute / metric / decimal}
; #@! TF.CreationDate,2020-11-21T21:11:59+01:00
; #@! TF.GenerationSoftware,Kicad,Pcbnew,5.1.5+dfsg1-2build2
FMAT,2
METRIC
T1C0.300
T2C0.500
T3C0.550
T4C0.850
T5C1.000
T6C1.100
T7C3.200
T8C0.800
T9C1.152
%
G90
G05
T1
X50.795Y-108.855
X50.83Y-90.855
X51.58Y-98.145
X51.84Y-90.395
X53.18Y-111.495
X53.86Y-110.36
X54.01Y-91.755
X54.54Y-90.155
X54.666Y-109.781
X54.684Y-108.281
X54.72Y-110.845
X55.41Y-87.375
X55.43Y-112.995
X56.01Y-92.465
X56.1Y-86.285
X56.53Y-90.465
X56.83Y-102.915
X56.99Y-109.225
X57.03Y-107.465
X57.15Y-105.695
X57.51Y-108.425
X57.56Y-102.335
X57.62Y-106.645
X57.94Y-109.235
X58.01Y-107.465
X58.05Y-113.615
X58.09Y-105.735
X58.46Y-67.345
X58.46Y-108.395
X58.49Y-106.605
X58.86Y-109.175
X58.96Y-105.725
X58.99Y-107.435
X59.094Y-81.182
X59.39Y-106.605
X59.4Y-108.365
X59.505Y-64.09
X59.76Y-81.625
X59.87Y-109.085
X59.89Y-105.735
X59.94Y-117.535
X59.97Y-107.485
X60.09Y-115.305
X60.29Y-106.555
X60.37Y-112.415
X60.43Y-108.435
X60.69Y-105.745
X60.79Y-88.145
X60.9Y-107.485
X60.96Y-109.105
X61.69Y-67.284
X62.03Y-79.945
X62.03Y-82.995
X62.31Y-111.86
X62.37Y-113.785
X62.49Y-67.295
X64.01Y-109.795
X64.4Y-91.695
X64.41Y-89.325
X64.56Y-113.125
X65.47Y-120.685
X65.62Y-107.375
X65.778Y-119.177
X65.88Y-91.485
X67.48Y-89.245
X68.72Y-56.465
X74.68Y-89.215
X74.738Y-71.163
X74.81Y-81.795
X74.95Y-75.375
X74.98Y-97.205
X75.11Y-111.215
X75.21Y-118.085
X75.21Y-125.355
X75.26Y-104.355
X75.34Y-132.265
X76.62Y-59.405
X97.89Y-137.685
X104.85Y-90.285
X104.88Y-83.365
X104.89Y-104.265
X104.89Y-111.265
X104.9Y-76.275
X104.91Y-69.405
X104.91Y-97.295
X104.92Y-118.505
X104.92Y-125.415
X105.76Y-137.715
X116.75Y-75.065
X116.93Y-81.625
X117.05Y-117.875
X117.12Y-89.365
X117.12Y-110.685
X117.19Y-96.615
X117.21Y-125.165
X117.34Y-132.095
X117.35Y-103.815
X147.25Y-76.065
X147.26Y-69.285
X147.26Y-104.175
X147.29Y-83.085
X147.29Y-97.115
X147.29Y-111.185
X147.3Y-90.215
X147.3Y-118.225
X147.3Y-125.195
T2
X53.89Y-106.625
X54.086Y-102.011
X54.22Y-100.935
X55.41Y-77.405
X57.27Y-97.355
X57.91Y-74.205
X58.4Y-69.195
X59.36Y-101.525
X60.342Y-101.715
X62.81Y-111.035
X63.1Y-60.155
X63.8Y-103.755
X64.12Y-67.215
X64.73Y-86.215
X64.93Y-105.305
X65.15Y-60.155
X65.71Y-106.165
X65.95Y-86.855
X65.97Y-111.065
X67.71Y-65.285
X68.42Y-57.965
X68.949Y-110.338
X69.13Y-61.585
X69.94Y-115.235
X70.12Y-93.235
X73.36Y-115.895
X73.46Y-93.705
X73.7Y-72.995
X74.79Y-64.205
X76.48Y-69.235
X78.12Y-95.965
X78.17Y-130.915
X78.2Y-81.945
X78.23Y-74.975
X78.24Y-116.985
X78.27Y-88.955
X78.32Y-102.985
X78.32Y-109.965
X78.34Y-123.975
X78.55Y-54.505
X80.25Y-115.075
X80.33Y-129.075
X80.42Y-122.045
X80.46Y-101.055
X80.52Y-73.095
X80.53Y-108.085
X80.59Y-87.075
X80.62Y-52.565
X80.72Y-94.125
X80.74Y-80.085
X80.91Y-66.055
X85.52Y-81.915
X85.61Y-74.935
X85.61Y-116.965
X85.65Y-95.985
X85.7Y-89.015
X85.8Y-123.955
X85.82Y-102.965
X85.85Y-130.935
X86.0Y-109.985
X86.24Y-67.925
X86.3Y-54.435
X88.19Y-101.035
X88.24Y-66.095
X88.32Y-87.065
X88.34Y-108.075
X88.35Y-122.045
X88.43Y-129.075
X88.53Y-73.035
X88.59Y-52.625
X88.6Y-80.045
X88.6Y-94.045
X88.67Y-115.115
X93.42Y-67.935
X93.6Y-95.985
X93.64Y-81.925
X93.67Y-74.945
X93.72Y-89.005
X93.78Y-116.975
X93.8Y-109.965
X93.83Y-102.935
X93.84Y-123.985
X93.9Y-130.915
X94.05Y-54.455
X96.16Y-52.605
X96.28Y-108.055
X96.29Y-87.045
X96.29Y-122.085
X96.31Y-115.075
X96.32Y-101.085
X96.33Y-73.075
X96.38Y-66.015
X96.43Y-129.105
X96.45Y-94.075
X96.71Y-80.045
X101.51Y-88.935
X101.57Y-82.005
X101.59Y-74.915
X101.66Y-102.965
X101.72Y-109.965
X101.73Y-67.935
X101.77Y-130.885
X101.83Y-95.965
X101.84Y-123.965
X101.89Y-54.415
X101.96Y-116.945
X104.18Y-101.025
X104.27Y-108.075
X104.41Y-129.065
X104.45Y-122.085
X104.47Y-87.115
X104.51Y-94.055
X104.51Y-115.105
X104.55Y-66.075
X104.73Y-73.035
X104.73Y-80.045
X106.79Y-57.605
X120.14Y-81.795
X120.23Y-67.845
X120.26Y-74.775
X120.33Y-130.815
X120.37Y-95.775
X120.43Y-109.775
X120.44Y-116.825
X120.44Y-123.755
X120.46Y-88.855
X120.64Y-102.805
X122.4Y-128.885
X122.44Y-65.915
X122.84Y-114.865
X122.88Y-79.915
X122.94Y-72.885
X123.07Y-86.865
X123.09Y-93.855
X123.12Y-100.895
X123.2Y-121.925
X123.41Y-107.895
X128.16Y-67.765
X128.2Y-74.825
X128.22Y-88.815
X128.39Y-130.795
X128.42Y-123.785
X128.43Y-81.815
X128.48Y-102.825
X128.48Y-109.795
X128.5Y-116.795
X128.57Y-95.765
X130.36Y-114.875
X130.71Y-65.875
X130.75Y-79.875
X130.8Y-72.885
X130.84Y-86.885
X130.95Y-107.885
X131.07Y-128.895
X131.11Y-93.895
X131.29Y-100.905
X131.36Y-121.915
X136.16Y-67.785
X136.31Y-81.815
X136.4Y-130.835
X136.41Y-116.815
X136.45Y-88.825
X136.46Y-74.815
X136.46Y-95.815
X136.56Y-123.775
X136.63Y-109.795
X136.65Y-102.815
X138.53Y-65.895
X138.59Y-121.925
X138.73Y-114.895
X138.83Y-100.885
X138.87Y-79.855
X138.98Y-128.915
X139.07Y-72.935
X139.11Y-93.855
X139.25Y-86.885
X139.27Y-107.945
X144.1Y-130.775
X144.13Y-116.825
X144.21Y-109.825
X144.24Y-88.775
X144.25Y-81.825
X144.25Y-95.755
X144.27Y-74.835
X144.35Y-102.775
X144.39Y-67.785
X144.46Y-123.805
X146.39Y-65.945
X146.64Y-72.885
X146.65Y-114.855
X146.73Y-100.935
X146.84Y-93.835
X146.84Y-121.895
X146.9Y-107.925
X146.93Y-86.915
X146.95Y-79.915
X147.41Y-128.875
T5
X64.24Y-52.655
X66.78Y-52.655
X69.32Y-52.655
T6
X52.302Y-128.911
X52.302Y-135.411
X56.802Y-128.911
X56.802Y-135.411
X109.706Y-127.133
X109.706Y-133.633
X114.206Y-127.133
X114.206Y-133.633
X70.082Y-141.103
X70.082Y-147.603
X74.582Y-141.103
X74.582Y-147.603
X52.378Y-117.749
X52.378Y-124.249
X56.878Y-117.749
X56.878Y-124.249
X60.176Y-128.911
X60.176Y-135.411
X64.676Y-128.911
X64.676Y-135.411
X93.958Y-141.103
X93.958Y-147.603
X98.458Y-141.103
X98.458Y-147.603
X78.21Y-141.103
X78.21Y-147.603
X82.71Y-141.103
X82.71Y-147.603
X86.084Y-141.103
X86.084Y-147.603
X90.584Y-141.103
X90.584Y-147.603
X109.706Y-141.103
X109.706Y-147.603
X114.206Y-141.103
X114.206Y-147.603
X131.55Y-141.103
X131.55Y-147.603
X136.05Y-141.103
X136.05Y-147.603
X101.832Y-141.103
X101.832Y-147.603
X106.332Y-141.103
X106.332Y-147.603
T7
X55.02Y-145.015
X145.02Y-55.015
X55.02Y-55.015
X145.02Y-145.015
T8
X55.11Y-65.335
X55.11Y-70.335
T9
X57.999Y-51.999
X142.071Y-51.999
X57.999Y-148.046
T3
X52.685Y-63.96G85X52.035Y-63.96
G05
X52.685Y-71.71G85X52.035Y-71.71
G05
T4
X56.435Y-64.11G85X55.885Y-64.11
G05
X56.435Y-71.56G85X55.885Y-71.56
G05
T0
M30
