M48
; DRILL file {KiCad 5.1.5+dfsg1-2build2} date Thu Oct  8 13:47:44 2020
; FORMAT={-:-/ absolute / metric / decimal}
; #@! TF.CreationDate,2020-10-08T13:47:44+02:00
; #@! TF.GenerationSoftware,Kicad,Pcbnew,5.1.5+dfsg1-2build2
FMAT,2
METRIC
T1C0.300
T2C0.500
T3C0.550
T4C0.762
T5C0.813
T6C0.850
T7C1.000
T8C1.500
T9C0.400
T10C0.800
T11C1.152
%
G90
G05
T1
X60.163Y-74.856
X61.088Y-90.156
X61.288Y-85.181
X64.413Y-72.406
X65.188Y-58.056
X65.488Y-59.681
X65.788Y-55.606
X66.863Y-111.056
X67.038Y-99.631
X67.063Y-94.481
X68.353Y-87.236
X69.038Y-79.706
X71.778Y-69.176
X73.838Y-68.506
X74.101Y-63.163
X74.438Y-69.531
X74.763Y-62.331
X74.763Y-74.751
X74.763Y-76.451
X74.888Y-110.781
X74.913Y-112.481
X74.963Y-85.681
X74.963Y-87.381
X75.038Y-93.841
X75.063Y-95.541
X75.263Y-102.421
X75.263Y-104.121
X77.138Y-65.006
X77.138Y-68.506
X78.252Y-66.406
X78.982Y-67.006
X80.213Y-72.231
X80.738Y-57.956
X80.738Y-59.106
X81.138Y-54.831
X82.338Y-72.306
X82.338Y-64.931
X82.763Y-57.956
X83.113Y-68.106
X83.163Y-110.856
X83.163Y-112.436
X83.238Y-55.531
X83.263Y-85.766
X83.288Y-87.466
X83.338Y-93.841
X83.338Y-95.541
X83.388Y-74.751
X83.388Y-76.451
X83.438Y-102.491
X83.463Y-104.191
X83.838Y-60.856
X84.563Y-59.356
X85.142Y-58.541
X85.175Y-60.147
X85.963Y-53.581
X86.463Y-64.506
X86.513Y-58.406
X86.588Y-61.931
X86.609Y-55.385
X87.693Y-53.671
X87.704Y-55.659
X88.538Y-65.906
X88.838Y-60.156
X89.088Y-62.406
X89.338Y-61.156
X89.338Y-63.156
X89.501Y-56.498
X89.537Y-65.871
X89.838Y-60.156
X89.838Y-62.406
X90.338Y-61.156
X90.338Y-63.156
X90.838Y-60.156
X90.838Y-62.406
X91.338Y-61.156
X91.338Y-63.156
X91.838Y-60.156
X91.838Y-62.406
X91.888Y-110.706
X91.888Y-112.456
X92.013Y-93.841
X92.013Y-95.541
X92.063Y-85.766
X92.088Y-76.456
X92.088Y-87.466
X92.138Y-74.751
X92.138Y-104.166
X92.163Y-102.466
X92.338Y-61.156
X92.338Y-63.156
X92.838Y-60.156
X92.838Y-62.406
X93.338Y-61.156
X93.338Y-63.156
X93.513Y-65.981
X95.528Y-69.626
X96.513Y-58.856
X96.668Y-61.241
X97.07Y-63.313
X98.12Y-62.176
X98.6Y-63.053
X99.258Y-69.536
X100.063Y-59.381
X100.788Y-62.206
X100.788Y-69.456
X100.963Y-102.466
X101.038Y-85.766
X101.388Y-93.841
X102.818Y-65.296
X102.968Y-74.286
X104.363Y-64.531
X106.688Y-54.256
X106.769Y-66.131
X108.963Y-87.981
X109.338Y-112.831
X109.388Y-104.581
X109.513Y-96.281
X117.163Y-85.721
X117.163Y-110.546
X117.232Y-112.246
X117.263Y-102.471
X117.285Y-87.421
X117.288Y-93.871
X117.288Y-95.571
X117.288Y-104.171
X117.528Y-73.996
X118.888Y-59.706
X119.698Y-74.006
X123.318Y-60.281
X124.638Y-85.771
X124.713Y-102.431
X124.738Y-110.656
X124.788Y-87.471
X124.788Y-93.871
X124.838Y-112.431
X124.85Y-95.571
X124.888Y-104.131
X131.163Y-56.006
X132.188Y-110.706
X132.287Y-87.446
X132.288Y-85.746
X132.313Y-102.466
X132.323Y-93.784
X132.338Y-112.471
X132.35Y-95.571
X132.388Y-104.166
X136.488Y-101.431
X136.613Y-93.081
X140.113Y-85.931
T2
X58.813Y-98.906
X58.838Y-96.581
X60.563Y-72.431
X67.738Y-64.506
X69.613Y-72.556
X70.863Y-67.756
X77.838Y-60.056
X80.388Y-63.521
X84.113Y-66.131
X85.678Y-63.131
X91.838Y-54.781
X95.038Y-54.731
X95.513Y-73.831
X98.498Y-60.496
X101.488Y-55.581
X101.863Y-68.106
X103.113Y-80.956
X103.113Y-88.181
X107.268Y-96.696
X107.293Y-93.496
X109.688Y-64.631
X110.293Y-106.096
X114.013Y-61.106
X114.243Y-101.821
X122.288Y-63.081
X125.613Y-66.656
X127.863Y-84.756
X128.438Y-80.581
T5
X52.258Y-93.256
X52.258Y-100.876
X57.338Y-93.256
X57.338Y-100.876
X60.188Y-120.211
X60.188Y-127.831
X65.268Y-120.211
X65.268Y-127.831
X68.913Y-120.161
X68.913Y-127.781
X73.993Y-120.161
X73.993Y-127.781
X118.738Y-119.986
X118.738Y-127.606
X123.818Y-119.986
X123.818Y-127.606
X102.338Y-105.511
X102.338Y-113.131
X107.418Y-105.511
X107.418Y-113.131
X86.038Y-120.186
X86.038Y-127.806
X91.118Y-120.186
X91.118Y-127.806
X60.338Y-93.211
X60.338Y-100.831
X65.418Y-93.211
X65.418Y-100.831
X94.513Y-120.211
X94.513Y-127.831
X99.593Y-120.211
X99.593Y-127.831
X77.313Y-120.211
X77.313Y-127.831
X82.393Y-120.211
X82.393Y-127.831
X102.788Y-120.161
X102.788Y-127.781
X107.868Y-120.161
X107.868Y-127.781
X60.438Y-105.686
X60.438Y-113.306
X65.518Y-105.686
X65.518Y-113.306
T7
X53.108Y-53.931
X55.648Y-53.931
X58.188Y-53.931
T8
X111.418Y-75.461
X111.418Y-77.486
X134.068Y-67.746
X136.138Y-67.756
T9
X123.396Y-50.256
X116.627Y-50.259
X70.363Y-50.279
X93.495Y-50.269
X100.264Y-50.266
X98.418Y-50.267
X115.396Y-132.176
X121.55Y-50.257
X77.132Y-50.276
X75.286Y-50.276
X120.319Y-132.172
X94.11Y-132.192
X123.396Y-132.169
X96.572Y-50.268
X92.879Y-132.193
X116.011Y-132.175
X122.165Y-132.17
X75.901Y-132.206
X119.704Y-50.258
X74.67Y-132.207
X73.44Y-50.277
X95.956Y-132.191
X73.44Y-132.208
X94.725Y-132.192
X118.473Y-132.173
X99.649Y-132.188
X117.858Y-50.259
X116.012Y-50.259
X119.088Y-132.173
X71.593Y-132.209
X99.033Y-132.188
X71.594Y-50.278
X69.748Y-50.279
X70.363Y-132.21
X97.802Y-132.189
X94.726Y-50.268
X92.88Y-50.269
X69.132Y-132.211
X99.649Y-50.266
X116.627Y-132.175
X122.781Y-50.256
X77.132Y-132.205
X76.517Y-50.276
X97.803Y-50.267
X95.957Y-50.268
X120.935Y-50.257
X119.089Y-50.258
X74.671Y-50.277
X72.824Y-50.278
X120.934Y-132.171
X117.242Y-50.259
X119.704Y-132.172
X93.495Y-132.193
X70.978Y-50.278
X122.781Y-132.17
X76.516Y-132.206
X92.264Y-132.193
X121.55Y-132.171
X94.11Y-50.269
X75.286Y-132.207
X96.572Y-132.19
X74.055Y-132.208
X115.396Y-50.26
X99.033Y-50.266
X95.341Y-132.191
X72.824Y-132.208
X122.166Y-50.257
X92.264Y-50.269
X75.901Y-50.276
X70.978Y-132.21
X97.187Y-50.267
X95.341Y-50.268
X98.418Y-132.189
X69.747Y-132.211
X69.132Y-50.279
X117.858Y-132.174
X97.187Y-132.19
X120.319Y-50.258
X118.473Y-50.258
X117.242Y-132.174
X72.209Y-132.209
X100.264Y-132.187
X74.055Y-50.277
X72.209Y-50.278
T10
X55.413Y-73.706
X55.413Y-78.706
T11
X54.999Y-136.974
X137.529Y-45.499
X54.999Y-45.499
T3
X52.988Y-72.331G85X52.338Y-72.331
G05
X52.988Y-80.081G85X52.338Y-80.081
G05
T4
X64.438Y-60.962G85X64.438Y-61.8
G05
X64.438Y-80.862G85X64.438Y-81.7
G05
X138.138Y-60.962G85X138.138Y-61.8
G05
X138.138Y-80.862G85X138.138Y-81.7
G05
T6
X56.738Y-72.481G85X56.188Y-72.481
G05
X56.738Y-79.931G85X56.188Y-79.931
G05
T0
M30
