M48
; DRILL file {KiCad 5.1.5+dfsg1-2build2} date Tue Mar 30 07:29:48 2021
; FORMAT={-:-/ absolute / metric / decimal}
; #@! TF.CreationDate,2021-03-30T07:29:48+02:00
; #@! TF.GenerationSoftware,Kicad,Pcbnew,5.1.5+dfsg1-2build2
FMAT,2
METRIC
T1C0.300
T2C0.400
T3C0.500
T4C0.550
T5C0.600
T6C0.850
T7C1.000
T8C3.200
T9C0.650
T10C0.800
%
G90
G05
T1
X95.75Y-97.85
X96.38Y-77.5
X97.0Y-109.7
X98.085Y-109.612
X98.11Y-87.94
X98.6Y-95.7
X99.12Y-87.48
X99.2Y-106.4
X99.2Y-107.6
X99.5Y-110.1
X100.2Y-106.975
X100.3Y-59.1
X100.879Y-105.299
X101.29Y-88.84
X101.3Y-60.3
X101.82Y-87.24
X101.88Y-108.0
X102.1Y-111.4
X102.69Y-84.46
X103.29Y-89.55
X103.31Y-99.9
X103.38Y-83.37
X103.47Y-106.21
X103.51Y-104.45
X103.63Y-102.68
X103.81Y-87.55
X103.99Y-105.41
X104.04Y-99.32
X104.1Y-103.63
X104.42Y-106.22
X104.49Y-104.45
X104.57Y-102.72
X104.94Y-105.38
X104.97Y-103.59
X105.34Y-106.16
X105.44Y-102.71
X105.47Y-104.42
X105.7Y-60.6
X105.87Y-103.59
X105.88Y-105.35
X106.35Y-106.07
X106.37Y-102.72
X106.45Y-104.47
X106.45Y-79.01
X106.48Y-53.2
X106.77Y-103.54
X106.85Y-109.4
X106.91Y-105.42
X107.17Y-102.73
X107.18Y-54.0
X107.19Y-78.38
X107.38Y-104.47
X107.44Y-106.09
X107.8Y-59.1
X108.0Y-85.2
X108.79Y-108.845
X110.2Y-111.5
X111.9Y-87.2
X112.1Y-104.36
X113.3Y-109.5
X113.3Y-111.4
X113.98Y-38.8
X114.08Y-118.6
X114.98Y-120.3
X116.2Y-75.4
X117.3Y-110.7
X119.4Y-75.4
X120.3Y-48.7
X120.3Y-93.3
X122.08Y-81.4
X122.08Y-88.6
X122.18Y-67.8
X122.18Y-74.3
X122.18Y-95.3
X122.18Y-103.0
X122.18Y-109.8
X122.18Y-117.1
X122.28Y-60.6
X151.48Y-68.3
X151.48Y-75.4
X151.48Y-89.1
X151.58Y-54.2
X151.58Y-61.3
X151.58Y-82.1
X151.58Y-96.2
X151.58Y-103.5
X151.58Y-110.2
X153.58Y-39.3
X154.5Y-87.6
X154.5Y-108.4
X162.98Y-60.5
X162.98Y-67.6
X162.98Y-74.7
X162.98Y-81.6
X162.98Y-95.7
X162.98Y-103.2
X163.08Y-88.9
X163.08Y-110.2
X163.08Y-117.2
X183.3Y-39.4
X192.23Y-61.05
X192.24Y-54.27
X192.24Y-89.16
X192.27Y-68.07
X192.27Y-82.1
X192.27Y-96.17
X192.28Y-75.2
X192.28Y-103.21
X192.28Y-110.18
T2
X102.78Y-116.2
X102.78Y-122.9
X103.7Y-50.7
X110.28Y-122.8
X121.78Y-130.5
X129.38Y-130.5
X136.98Y-130.5
X141.28Y-125.4
X144.58Y-130.6
X149.28Y-125.5
X152.18Y-130.6
X153.88Y-114.6
X159.78Y-130.5
X179.78Y-131.8
T3
X98.68Y-104.6
X98.68Y-105.6
X100.566Y-98.996
X100.7Y-97.92
X101.1Y-75.4
X102.8Y-72.5
X104.55Y-94.44
X105.0Y-63.5
X105.1Y-55.5
X105.84Y-98.51
X106.822Y-98.7
X107.78Y-45.14
X108.75Y-55.8
X109.29Y-108.02
X110.28Y-100.74
X110.47Y-78.03
X110.5Y-79.03
X110.71Y-59.59
X110.8Y-91.3
X111.41Y-102.29
X112.19Y-103.15
X112.45Y-108.05
X113.4Y-74.1
X114.0Y-76.7
X114.6Y-53.7
X115.48Y-38.7
X116.2Y-48.3
X116.4Y-93.6
X116.68Y-42.3
X117.3Y-102.2
X117.4Y-84.32
X117.42Y-80.52
X117.42Y-106.02
X117.7Y-65.8
X117.98Y-60.7
X120.78Y-84.7
X120.88Y-106.3
X121.28Y-45.6
X121.48Y-43.9
X123.78Y-57.9
X123.78Y-100.0
X123.8Y-50.8
X123.88Y-36.0
X123.88Y-65.0
X123.88Y-71.9
X123.88Y-78.9
X123.88Y-85.9
X123.88Y-92.9
X123.88Y-106.9
X123.88Y-113.9
X127.48Y-45.6
X128.18Y-71.8
X128.28Y-64.9
X128.38Y-85.8
X128.38Y-120.7
X128.48Y-92.9
X128.48Y-99.8
X128.48Y-106.8
X128.48Y-113.8
X128.58Y-42.6
X128.58Y-57.9
X128.58Y-78.8
X131.38Y-36.0
X131.38Y-50.9
X131.38Y-58.0
X131.38Y-113.8
X131.48Y-65.0
X131.48Y-71.9
X131.48Y-79.1
X131.48Y-85.9
X131.48Y-93.0
X131.48Y-100.0
X135.88Y-42.6
X135.88Y-64.9
X135.88Y-99.9
X135.98Y-113.8
X136.08Y-71.8
X136.08Y-78.8
X136.08Y-85.8
X136.08Y-92.8
X136.18Y-57.9
X136.18Y-106.9
X136.18Y-120.7
X138.98Y-50.9
X138.98Y-58.0
X138.98Y-79.1
X138.98Y-92.9
X138.98Y-99.9
X139.08Y-36.0
X139.08Y-65.1
X139.08Y-71.9
X139.08Y-85.9
X139.08Y-107.0
X139.08Y-113.9
X143.18Y-42.6
X143.58Y-57.9
X143.58Y-92.8
X143.58Y-99.8
X143.58Y-106.9
X143.58Y-113.8
X143.58Y-120.7
X143.68Y-64.8
X143.78Y-71.9
X143.78Y-78.8
X143.88Y-85.8
X146.58Y-36.1
X146.58Y-50.9
X146.58Y-58.0
X146.58Y-100.0
X146.58Y-113.9
X146.63Y-72.05
X146.68Y-65.0
X146.68Y-78.9
X146.68Y-85.9
X146.68Y-92.9
X146.68Y-106.9
X151.08Y-42.7
X151.08Y-106.9
X151.08Y-120.7
X151.18Y-57.9
X151.18Y-92.8
X151.28Y-64.9
X151.28Y-85.8
X151.38Y-71.9
X151.38Y-78.8
X151.38Y-99.8
X151.38Y-113.8
X154.6Y-44.0
X154.6Y-49.7
X160.8Y-95.3
X164.603Y-51.023
X164.68Y-58.1
X164.68Y-65.0
X164.68Y-72.0
X164.68Y-79.0
X164.68Y-86.0
X164.68Y-92.9
X164.68Y-100.0
X164.68Y-107.0
X164.68Y-113.9
X169.08Y-57.9
X169.08Y-64.9
X169.08Y-85.9
X169.08Y-92.9
X169.08Y-106.9
X169.28Y-78.9
X169.28Y-120.9
X169.38Y-71.9
X169.38Y-99.9
X169.38Y-113.9
X171.0Y-38.8
X172.18Y-51.0
X172.18Y-65.0
X172.28Y-58.0
X172.28Y-72.0
X172.28Y-79.0
X172.28Y-86.0
X172.28Y-93.0
X172.28Y-100.0
X172.28Y-107.0
X172.28Y-113.9
X176.68Y-78.9
X176.68Y-92.9
X176.78Y-57.9
X176.78Y-85.9
X176.78Y-113.9
X176.88Y-64.9
X176.88Y-71.9
X176.88Y-106.9
X176.98Y-120.8
X177.08Y-99.9
X179.78Y-86.0
X179.78Y-93.0
X179.88Y-51.0
X179.88Y-58.0
X179.88Y-65.1
X179.88Y-72.0
X179.88Y-79.0
X179.88Y-100.0
X179.88Y-107.0
X179.88Y-114.0
X184.28Y-57.9
X184.28Y-71.9
X184.28Y-78.9
X184.38Y-64.9
X184.38Y-92.9
X184.38Y-99.9
X184.48Y-85.9
X184.48Y-106.9
X184.68Y-113.9
X184.78Y-120.8
X187.38Y-51.0
X187.38Y-58.1
X187.38Y-65.0
X187.38Y-72.0
X187.38Y-79.0
X187.38Y-85.9
X187.38Y-93.0
X187.38Y-100.0
X187.38Y-107.1
X187.38Y-114.0
X191.88Y-57.9
X191.98Y-64.9
X191.98Y-120.8
X192.08Y-71.9
X192.08Y-78.9
X192.18Y-85.9
X192.18Y-92.9
X192.18Y-99.9
X192.28Y-106.8
X192.38Y-113.9
T7
X106.38Y-37.6
X108.92Y-37.6
X111.46Y-37.6
T8
X191.0Y-131.0
X99.0Y-39.0
X191.0Y-39.0
X99.0Y-131.0
T9
X101.5Y-56.91
X101.5Y-62.69
T10
X100.4Y-45.7
X100.4Y-50.7
T4
X97.975Y-44.325G85X97.325Y-44.325
G05
X97.975Y-52.075G85X97.325Y-52.075
G05
T5
X98.15Y-55.48G85X97.55Y-55.48
G05
X98.15Y-64.12G85X97.55Y-64.12
G05
X102.58Y-55.48G85X101.48Y-55.48
G05
X102.58Y-64.12G85X101.48Y-64.12
G05
T6
X101.725Y-44.475G85X101.175Y-44.475
G05
X101.725Y-51.925G85X101.175Y-51.925
G05
T0
M30
