G04 #@! TF.GenerationSoftware,KiCad,Pcbnew,5.1.5+dfsg1-2build2*
G04 #@! TF.CreationDate,2020-11-23T20:40:27+01:00*
G04 #@! TF.ProjectId,Logic_panel_v1,4c6f6769-635f-4706-916e-656c5f76312e,rev?*
G04 #@! TF.SameCoordinates,Original*
G04 #@! TF.FileFunction,Legend,Bot*
G04 #@! TF.FilePolarity,Positive*
%FSLAX46Y46*%
G04 Gerber Fmt 4.6, Leading zero omitted, Abs format (unit mm)*
G04 Created by KiCad (PCBNEW 5.1.5+dfsg1-2build2) date 2020-11-23 20:40:27*
%MOMM*%
%LPD*%
G04 APERTURE LIST*
%ADD10C,0.300000*%
G04 APERTURE END LIST*
D10*
X132624572Y-56926762D02*
X133576953Y-56926762D01*
X133576953Y-54926762D01*
X131672191Y-56926762D02*
X131862667Y-56831524D01*
X131957905Y-56736286D01*
X132053143Y-56545810D01*
X132053143Y-55974381D01*
X131957905Y-55783905D01*
X131862667Y-55688667D01*
X131672191Y-55593429D01*
X131386477Y-55593429D01*
X131196001Y-55688667D01*
X131100762Y-55783905D01*
X131005524Y-55974381D01*
X131005524Y-56545810D01*
X131100762Y-56736286D01*
X131196001Y-56831524D01*
X131386477Y-56926762D01*
X131672191Y-56926762D01*
X129291239Y-55593429D02*
X129291239Y-57212477D01*
X129386477Y-57402953D01*
X129481715Y-57498191D01*
X129672191Y-57593429D01*
X129957905Y-57593429D01*
X130148381Y-57498191D01*
X129291239Y-56831524D02*
X129481715Y-56926762D01*
X129862667Y-56926762D01*
X130053143Y-56831524D01*
X130148381Y-56736286D01*
X130243620Y-56545810D01*
X130243620Y-55974381D01*
X130148381Y-55783905D01*
X130053143Y-55688667D01*
X129862667Y-55593429D01*
X129481715Y-55593429D01*
X129291239Y-55688667D01*
X128338858Y-56926762D02*
X128338858Y-55593429D01*
X128338858Y-54926762D02*
X128434096Y-55022001D01*
X128338858Y-55117239D01*
X128243620Y-55022001D01*
X128338858Y-54926762D01*
X128338858Y-55117239D01*
X126529334Y-56831524D02*
X126719810Y-56926762D01*
X127100762Y-56926762D01*
X127291239Y-56831524D01*
X127386477Y-56736286D01*
X127481715Y-56545810D01*
X127481715Y-55974381D01*
X127386477Y-55783905D01*
X127291239Y-55688667D01*
X127100762Y-55593429D01*
X126719810Y-55593429D01*
X126529334Y-55688667D01*
X124338858Y-55593429D02*
X123862667Y-56926762D01*
X123386477Y-55593429D01*
X121576953Y-56926762D02*
X122719810Y-56926762D01*
X122148381Y-56926762D02*
X122148381Y-54926762D01*
X122338858Y-55212477D01*
X122529334Y-55402953D01*
X122719810Y-55498191D01*
X120719810Y-56736286D02*
X120624572Y-56831524D01*
X120719810Y-56926762D01*
X120815048Y-56831524D01*
X120719810Y-56736286D01*
X120719810Y-56926762D01*
X119386477Y-54926762D02*
X119196001Y-54926762D01*
X119005524Y-55022001D01*
X118910286Y-55117239D01*
X118815048Y-55307715D01*
X118719810Y-55688667D01*
X118719810Y-56164858D01*
X118815048Y-56545810D01*
X118910286Y-56736286D01*
X119005524Y-56831524D01*
X119196001Y-56926762D01*
X119386477Y-56926762D01*
X119576953Y-56831524D01*
X119672191Y-56736286D01*
X119767429Y-56545810D01*
X119862667Y-56164858D01*
X119862667Y-55688667D01*
X119767429Y-55307715D01*
X119672191Y-55117239D01*
X119576953Y-55022001D01*
X119386477Y-54926762D01*
X141576953Y-60226762D02*
X141576953Y-58226762D01*
X141576953Y-58988667D02*
X141386477Y-58893429D01*
X141005524Y-58893429D01*
X140815048Y-58988667D01*
X140719810Y-59083905D01*
X140624572Y-59274381D01*
X140624572Y-59845810D01*
X140719810Y-60036286D01*
X140815048Y-60131524D01*
X141005524Y-60226762D01*
X141386477Y-60226762D01*
X141576953Y-60131524D01*
X139957905Y-58893429D02*
X139481715Y-60226762D01*
X139005524Y-58893429D02*
X139481715Y-60226762D01*
X139672191Y-60702953D01*
X139767429Y-60798191D01*
X139957905Y-60893429D01*
X135576953Y-60226762D02*
X136243620Y-59274381D01*
X136719810Y-60226762D02*
X136719810Y-58226762D01*
X135957905Y-58226762D01*
X135767429Y-58322001D01*
X135672191Y-58417239D01*
X135576953Y-58607715D01*
X135576953Y-58893429D01*
X135672191Y-59083905D01*
X135767429Y-59179143D01*
X135957905Y-59274381D01*
X136719810Y-59274381D01*
X133957905Y-60131524D02*
X134148381Y-60226762D01*
X134529334Y-60226762D01*
X134719810Y-60131524D01*
X134815048Y-59941048D01*
X134815048Y-59179143D01*
X134719810Y-58988667D01*
X134529334Y-58893429D01*
X134148381Y-58893429D01*
X133957905Y-58988667D01*
X133862667Y-59179143D01*
X133862667Y-59369620D01*
X134815048Y-59560096D01*
X133005524Y-58893429D02*
X133005524Y-60226762D01*
X133005524Y-59083905D02*
X132910286Y-58988667D01*
X132719810Y-58893429D01*
X132434096Y-58893429D01*
X132243620Y-58988667D01*
X132148381Y-59179143D01*
X132148381Y-60226762D01*
X130338858Y-60226762D02*
X130338858Y-59179143D01*
X130434096Y-58988667D01*
X130624572Y-58893429D01*
X131005524Y-58893429D01*
X131196001Y-58988667D01*
X130338858Y-60131524D02*
X130529334Y-60226762D01*
X131005524Y-60226762D01*
X131196001Y-60131524D01*
X131291239Y-59941048D01*
X131291239Y-59750572D01*
X131196001Y-59560096D01*
X131005524Y-59464858D01*
X130529334Y-59464858D01*
X130338858Y-59369620D01*
X129672191Y-58893429D02*
X128910286Y-58893429D01*
X129386477Y-58226762D02*
X129386477Y-59941048D01*
X129291239Y-60131524D01*
X129100762Y-60226762D01*
X128910286Y-60226762D01*
X127386477Y-60226762D02*
X127386477Y-59179143D01*
X127481715Y-58988667D01*
X127672191Y-58893429D01*
X128053143Y-58893429D01*
X128243620Y-58988667D01*
X127386477Y-60131524D02*
X127576953Y-60226762D01*
X128053143Y-60226762D01*
X128243620Y-60131524D01*
X128338858Y-59941048D01*
X128338858Y-59750572D01*
X128243620Y-59560096D01*
X128053143Y-59464858D01*
X127576953Y-59464858D01*
X127386477Y-59369620D01*
X125100762Y-58226762D02*
X123767429Y-58226762D01*
X125100762Y-60226762D01*
X123767429Y-60226762D01*
X122243620Y-60131524D02*
X122434096Y-60226762D01*
X122815048Y-60226762D01*
X123005524Y-60131524D01*
X123100762Y-59941048D01*
X123100762Y-59179143D01*
X123005524Y-58988667D01*
X122815048Y-58893429D01*
X122434096Y-58893429D01*
X122243620Y-58988667D01*
X122148381Y-59179143D01*
X122148381Y-59369620D01*
X123100762Y-59560096D01*
X121291239Y-60226762D02*
X121291239Y-58893429D01*
X121291239Y-59083905D02*
X121196001Y-58988667D01*
X121005524Y-58893429D01*
X120719810Y-58893429D01*
X120529334Y-58988667D01*
X120434096Y-59179143D01*
X120434096Y-60226762D01*
X120434096Y-59179143D02*
X120338858Y-58988667D01*
X120148381Y-58893429D01*
X119862667Y-58893429D01*
X119672191Y-58988667D01*
X119576953Y-59179143D01*
X119576953Y-60226762D01*
X117767429Y-60226762D02*
X117767429Y-59179143D01*
X117862667Y-58988667D01*
X118053143Y-58893429D01*
X118434096Y-58893429D01*
X118624572Y-58988667D01*
X117767429Y-60131524D02*
X117957905Y-60226762D01*
X118434096Y-60226762D01*
X118624572Y-60131524D01*
X118719810Y-59941048D01*
X118719810Y-59750572D01*
X118624572Y-59560096D01*
X118434096Y-59464858D01*
X117957905Y-59464858D01*
X117767429Y-59369620D01*
X116815048Y-58893429D02*
X116815048Y-60226762D01*
X116815048Y-59083905D02*
X116719810Y-58988667D01*
X116529334Y-58893429D01*
X116243620Y-58893429D01*
X116053143Y-58988667D01*
X115957905Y-59179143D01*
X115957905Y-60226762D01*
X114719810Y-60226762D02*
X114910286Y-60131524D01*
X115005524Y-60036286D01*
X115100762Y-59845810D01*
X115100762Y-59274381D01*
X115005524Y-59083905D01*
X114910286Y-58988667D01*
X114719810Y-58893429D01*
X114434096Y-58893429D01*
X114243620Y-58988667D01*
X114148381Y-59083905D01*
X114053143Y-59274381D01*
X114053143Y-59845810D01*
X114148381Y-60036286D01*
X114243620Y-60131524D01*
X114434096Y-60226762D01*
X114719810Y-60226762D01*
X113386477Y-58893429D02*
X112910286Y-60226762D01*
X112434096Y-58893429D01*
X110815048Y-60226762D02*
X110815048Y-59179143D01*
X110910286Y-58988667D01*
X111100762Y-58893429D01*
X111481715Y-58893429D01*
X111672191Y-58988667D01*
X110815048Y-60131524D02*
X111005524Y-60226762D01*
X111481715Y-60226762D01*
X111672191Y-60131524D01*
X111767429Y-59941048D01*
X111767429Y-59750572D01*
X111672191Y-59560096D01*
X111481715Y-59464858D01*
X111005524Y-59464858D01*
X110815048Y-59369620D01*
X111100762Y-58131524D02*
X111386477Y-58417239D01*
M02*
