G04 #@! TF.GenerationSoftware,KiCad,Pcbnew,5.1.5+dfsg1-2build2*
G04 #@! TF.CreationDate,2020-11-18T16:39:58+01:00*
G04 #@! TF.ProjectId,Logic_panel_v1,4c6f6769-635f-4706-916e-656c5f76312e,rev?*
G04 #@! TF.SameCoordinates,Original*
G04 #@! TF.FileFunction,Soldermask,Bot*
G04 #@! TF.FilePolarity,Negative*
%FSLAX46Y46*%
G04 Gerber Fmt 4.6, Leading zero omitted, Abs format (unit mm)*
G04 Created by KiCad (PCBNEW 5.1.5+dfsg1-2build2) date 2020-11-18 16:39:58*
%MOMM*%
%LPD*%
G04 APERTURE LIST*
%ADD10C,0.350000*%
G04 APERTURE END LIST*
D10*
G36*
X58121322Y-147430947D02*
G01*
X58181889Y-147442994D01*
X58238943Y-147466627D01*
X58295997Y-147490259D01*
X58398687Y-147558874D01*
X58486025Y-147646212D01*
X58554640Y-147748902D01*
X58601905Y-147863011D01*
X58626000Y-147984144D01*
X58626000Y-148107654D01*
X58601905Y-148228787D01*
X58554640Y-148342896D01*
X58486025Y-148445586D01*
X58398687Y-148532924D01*
X58295997Y-148601539D01*
X58267185Y-148613473D01*
X58181889Y-148648804D01*
X58156460Y-148653862D01*
X58060755Y-148672899D01*
X57937245Y-148672899D01*
X57841540Y-148653862D01*
X57816111Y-148648804D01*
X57730815Y-148613473D01*
X57702003Y-148601539D01*
X57599313Y-148532924D01*
X57511975Y-148445586D01*
X57443360Y-148342896D01*
X57396095Y-148228787D01*
X57372000Y-148107654D01*
X57372000Y-147984144D01*
X57396095Y-147863011D01*
X57443360Y-147748902D01*
X57511975Y-147646212D01*
X57599313Y-147558874D01*
X57702003Y-147490259D01*
X57759057Y-147466627D01*
X57816111Y-147442994D01*
X57876678Y-147430947D01*
X57937245Y-147418899D01*
X58060755Y-147418899D01*
X58121322Y-147430947D01*
G37*
G36*
X94264565Y-146592251D02*
G01*
X94455834Y-146671477D01*
X94455836Y-146671478D01*
X94627974Y-146786497D01*
X94774366Y-146932889D01*
X94889386Y-147105029D01*
X94968612Y-147296298D01*
X95009001Y-147499346D01*
X95009001Y-147706378D01*
X94968612Y-147909426D01*
X94937662Y-147984145D01*
X94889385Y-148100697D01*
X94774366Y-148272835D01*
X94627974Y-148419227D01*
X94455836Y-148534246D01*
X94455835Y-148534247D01*
X94455834Y-148534247D01*
X94264565Y-148613473D01*
X94061517Y-148653862D01*
X93854485Y-148653862D01*
X93651437Y-148613473D01*
X93460168Y-148534247D01*
X93460167Y-148534247D01*
X93460166Y-148534246D01*
X93288028Y-148419227D01*
X93141636Y-148272835D01*
X93026617Y-148100697D01*
X92978340Y-147984145D01*
X92947390Y-147909426D01*
X92907001Y-147706378D01*
X92907001Y-147499346D01*
X92947390Y-147296298D01*
X93026616Y-147105029D01*
X93141636Y-146932889D01*
X93288028Y-146786497D01*
X93460166Y-146671478D01*
X93460168Y-146671477D01*
X93651437Y-146592251D01*
X93854485Y-146551862D01*
X94061517Y-146551862D01*
X94264565Y-146592251D01*
G37*
G36*
X131856565Y-146592251D02*
G01*
X132047834Y-146671477D01*
X132047836Y-146671478D01*
X132219974Y-146786497D01*
X132366366Y-146932889D01*
X132481386Y-147105029D01*
X132560612Y-147296298D01*
X132601001Y-147499346D01*
X132601001Y-147706378D01*
X132560612Y-147909426D01*
X132529662Y-147984145D01*
X132481385Y-148100697D01*
X132366366Y-148272835D01*
X132219974Y-148419227D01*
X132047836Y-148534246D01*
X132047835Y-148534247D01*
X132047834Y-148534247D01*
X131856565Y-148613473D01*
X131653517Y-148653862D01*
X131446485Y-148653862D01*
X131243437Y-148613473D01*
X131052168Y-148534247D01*
X131052167Y-148534247D01*
X131052166Y-148534246D01*
X130880028Y-148419227D01*
X130733636Y-148272835D01*
X130618617Y-148100697D01*
X130570340Y-147984145D01*
X130539390Y-147909426D01*
X130499001Y-147706378D01*
X130499001Y-147499346D01*
X130539390Y-147296298D01*
X130618616Y-147105029D01*
X130733636Y-146932889D01*
X130880028Y-146786497D01*
X131052166Y-146671478D01*
X131052168Y-146671477D01*
X131243437Y-146592251D01*
X131446485Y-146551862D01*
X131653517Y-146551862D01*
X131856565Y-146592251D01*
G37*
G36*
X136356565Y-146592251D02*
G01*
X136547834Y-146671477D01*
X136547836Y-146671478D01*
X136719974Y-146786497D01*
X136866366Y-146932889D01*
X136981386Y-147105029D01*
X137060612Y-147296298D01*
X137101001Y-147499346D01*
X137101001Y-147706378D01*
X137060612Y-147909426D01*
X137029662Y-147984145D01*
X136981385Y-148100697D01*
X136866366Y-148272835D01*
X136719974Y-148419227D01*
X136547836Y-148534246D01*
X136547835Y-148534247D01*
X136547834Y-148534247D01*
X136356565Y-148613473D01*
X136153517Y-148653862D01*
X135946485Y-148653862D01*
X135743437Y-148613473D01*
X135552168Y-148534247D01*
X135552167Y-148534247D01*
X135552166Y-148534246D01*
X135380028Y-148419227D01*
X135233636Y-148272835D01*
X135118617Y-148100697D01*
X135070340Y-147984145D01*
X135039390Y-147909426D01*
X134999001Y-147706378D01*
X134999001Y-147499346D01*
X135039390Y-147296298D01*
X135118616Y-147105029D01*
X135233636Y-146932889D01*
X135380028Y-146786497D01*
X135552166Y-146671478D01*
X135552168Y-146671477D01*
X135743437Y-146592251D01*
X135946485Y-146551862D01*
X136153517Y-146551862D01*
X136356565Y-146592251D01*
G37*
G36*
X110012565Y-146592251D02*
G01*
X110203834Y-146671477D01*
X110203836Y-146671478D01*
X110375974Y-146786497D01*
X110522366Y-146932889D01*
X110637386Y-147105029D01*
X110716612Y-147296298D01*
X110757001Y-147499346D01*
X110757001Y-147706378D01*
X110716612Y-147909426D01*
X110685662Y-147984145D01*
X110637385Y-148100697D01*
X110522366Y-148272835D01*
X110375974Y-148419227D01*
X110203836Y-148534246D01*
X110203835Y-148534247D01*
X110203834Y-148534247D01*
X110012565Y-148613473D01*
X109809517Y-148653862D01*
X109602485Y-148653862D01*
X109399437Y-148613473D01*
X109208168Y-148534247D01*
X109208167Y-148534247D01*
X109208166Y-148534246D01*
X109036028Y-148419227D01*
X108889636Y-148272835D01*
X108774617Y-148100697D01*
X108726340Y-147984145D01*
X108695390Y-147909426D01*
X108655001Y-147706378D01*
X108655001Y-147499346D01*
X108695390Y-147296298D01*
X108774616Y-147105029D01*
X108889636Y-146932889D01*
X109036028Y-146786497D01*
X109208166Y-146671478D01*
X109208168Y-146671477D01*
X109399437Y-146592251D01*
X109602485Y-146551862D01*
X109809517Y-146551862D01*
X110012565Y-146592251D01*
G37*
G36*
X114512565Y-146592251D02*
G01*
X114703834Y-146671477D01*
X114703836Y-146671478D01*
X114875974Y-146786497D01*
X115022366Y-146932889D01*
X115137386Y-147105029D01*
X115216612Y-147296298D01*
X115257001Y-147499346D01*
X115257001Y-147706378D01*
X115216612Y-147909426D01*
X115185662Y-147984145D01*
X115137385Y-148100697D01*
X115022366Y-148272835D01*
X114875974Y-148419227D01*
X114703836Y-148534246D01*
X114703835Y-148534247D01*
X114703834Y-148534247D01*
X114512565Y-148613473D01*
X114309517Y-148653862D01*
X114102485Y-148653862D01*
X113899437Y-148613473D01*
X113708168Y-148534247D01*
X113708167Y-148534247D01*
X113708166Y-148534246D01*
X113536028Y-148419227D01*
X113389636Y-148272835D01*
X113274617Y-148100697D01*
X113226340Y-147984145D01*
X113195390Y-147909426D01*
X113155001Y-147706378D01*
X113155001Y-147499346D01*
X113195390Y-147296298D01*
X113274616Y-147105029D01*
X113389636Y-146932889D01*
X113536028Y-146786497D01*
X113708166Y-146671478D01*
X113708168Y-146671477D01*
X113899437Y-146592251D01*
X114102485Y-146551862D01*
X114309517Y-146551862D01*
X114512565Y-146592251D01*
G37*
G36*
X102138565Y-146592251D02*
G01*
X102329834Y-146671477D01*
X102329836Y-146671478D01*
X102501974Y-146786497D01*
X102648366Y-146932889D01*
X102763386Y-147105029D01*
X102842612Y-147296298D01*
X102883001Y-147499346D01*
X102883001Y-147706378D01*
X102842612Y-147909426D01*
X102811662Y-147984145D01*
X102763385Y-148100697D01*
X102648366Y-148272835D01*
X102501974Y-148419227D01*
X102329836Y-148534246D01*
X102329835Y-148534247D01*
X102329834Y-148534247D01*
X102138565Y-148613473D01*
X101935517Y-148653862D01*
X101728485Y-148653862D01*
X101525437Y-148613473D01*
X101334168Y-148534247D01*
X101334167Y-148534247D01*
X101334166Y-148534246D01*
X101162028Y-148419227D01*
X101015636Y-148272835D01*
X100900617Y-148100697D01*
X100852340Y-147984145D01*
X100821390Y-147909426D01*
X100781001Y-147706378D01*
X100781001Y-147499346D01*
X100821390Y-147296298D01*
X100900616Y-147105029D01*
X101015636Y-146932889D01*
X101162028Y-146786497D01*
X101334166Y-146671478D01*
X101334168Y-146671477D01*
X101525437Y-146592251D01*
X101728485Y-146551862D01*
X101935517Y-146551862D01*
X102138565Y-146592251D01*
G37*
G36*
X106638565Y-146592251D02*
G01*
X106829834Y-146671477D01*
X106829836Y-146671478D01*
X107001974Y-146786497D01*
X107148366Y-146932889D01*
X107263386Y-147105029D01*
X107342612Y-147296298D01*
X107383001Y-147499346D01*
X107383001Y-147706378D01*
X107342612Y-147909426D01*
X107311662Y-147984145D01*
X107263385Y-148100697D01*
X107148366Y-148272835D01*
X107001974Y-148419227D01*
X106829836Y-148534246D01*
X106829835Y-148534247D01*
X106829834Y-148534247D01*
X106638565Y-148613473D01*
X106435517Y-148653862D01*
X106228485Y-148653862D01*
X106025437Y-148613473D01*
X105834168Y-148534247D01*
X105834167Y-148534247D01*
X105834166Y-148534246D01*
X105662028Y-148419227D01*
X105515636Y-148272835D01*
X105400617Y-148100697D01*
X105352340Y-147984145D01*
X105321390Y-147909426D01*
X105281001Y-147706378D01*
X105281001Y-147499346D01*
X105321390Y-147296298D01*
X105400616Y-147105029D01*
X105515636Y-146932889D01*
X105662028Y-146786497D01*
X105834166Y-146671478D01*
X105834168Y-146671477D01*
X106025437Y-146592251D01*
X106228485Y-146551862D01*
X106435517Y-146551862D01*
X106638565Y-146592251D01*
G37*
G36*
X98764565Y-146592251D02*
G01*
X98955834Y-146671477D01*
X98955836Y-146671478D01*
X99127974Y-146786497D01*
X99274366Y-146932889D01*
X99389386Y-147105029D01*
X99468612Y-147296298D01*
X99509001Y-147499346D01*
X99509001Y-147706378D01*
X99468612Y-147909426D01*
X99437662Y-147984145D01*
X99389385Y-148100697D01*
X99274366Y-148272835D01*
X99127974Y-148419227D01*
X98955836Y-148534246D01*
X98955835Y-148534247D01*
X98955834Y-148534247D01*
X98764565Y-148613473D01*
X98561517Y-148653862D01*
X98354485Y-148653862D01*
X98151437Y-148613473D01*
X97960168Y-148534247D01*
X97960167Y-148534247D01*
X97960166Y-148534246D01*
X97788028Y-148419227D01*
X97641636Y-148272835D01*
X97526617Y-148100697D01*
X97478340Y-147984145D01*
X97447390Y-147909426D01*
X97407001Y-147706378D01*
X97407001Y-147499346D01*
X97447390Y-147296298D01*
X97526616Y-147105029D01*
X97641636Y-146932889D01*
X97788028Y-146786497D01*
X97960166Y-146671478D01*
X97960168Y-146671477D01*
X98151437Y-146592251D01*
X98354485Y-146551862D01*
X98561517Y-146551862D01*
X98764565Y-146592251D01*
G37*
G36*
X74888565Y-146592251D02*
G01*
X75079834Y-146671477D01*
X75079836Y-146671478D01*
X75251974Y-146786497D01*
X75398366Y-146932889D01*
X75513386Y-147105029D01*
X75592612Y-147296298D01*
X75633001Y-147499346D01*
X75633001Y-147706378D01*
X75592612Y-147909426D01*
X75561662Y-147984145D01*
X75513385Y-148100697D01*
X75398366Y-148272835D01*
X75251974Y-148419227D01*
X75079836Y-148534246D01*
X75079835Y-148534247D01*
X75079834Y-148534247D01*
X74888565Y-148613473D01*
X74685517Y-148653862D01*
X74478485Y-148653862D01*
X74275437Y-148613473D01*
X74084168Y-148534247D01*
X74084167Y-148534247D01*
X74084166Y-148534246D01*
X73912028Y-148419227D01*
X73765636Y-148272835D01*
X73650617Y-148100697D01*
X73602340Y-147984145D01*
X73571390Y-147909426D01*
X73531001Y-147706378D01*
X73531001Y-147499346D01*
X73571390Y-147296298D01*
X73650616Y-147105029D01*
X73765636Y-146932889D01*
X73912028Y-146786497D01*
X74084166Y-146671478D01*
X74084168Y-146671477D01*
X74275437Y-146592251D01*
X74478485Y-146551862D01*
X74685517Y-146551862D01*
X74888565Y-146592251D01*
G37*
G36*
X70388565Y-146592251D02*
G01*
X70579834Y-146671477D01*
X70579836Y-146671478D01*
X70751974Y-146786497D01*
X70898366Y-146932889D01*
X71013386Y-147105029D01*
X71092612Y-147296298D01*
X71133001Y-147499346D01*
X71133001Y-147706378D01*
X71092612Y-147909426D01*
X71061662Y-147984145D01*
X71013385Y-148100697D01*
X70898366Y-148272835D01*
X70751974Y-148419227D01*
X70579836Y-148534246D01*
X70579835Y-148534247D01*
X70579834Y-148534247D01*
X70388565Y-148613473D01*
X70185517Y-148653862D01*
X69978485Y-148653862D01*
X69775437Y-148613473D01*
X69584168Y-148534247D01*
X69584167Y-148534247D01*
X69584166Y-148534246D01*
X69412028Y-148419227D01*
X69265636Y-148272835D01*
X69150617Y-148100697D01*
X69102340Y-147984145D01*
X69071390Y-147909426D01*
X69031001Y-147706378D01*
X69031001Y-147499346D01*
X69071390Y-147296298D01*
X69150616Y-147105029D01*
X69265636Y-146932889D01*
X69412028Y-146786497D01*
X69584166Y-146671478D01*
X69584168Y-146671477D01*
X69775437Y-146592251D01*
X69978485Y-146551862D01*
X70185517Y-146551862D01*
X70388565Y-146592251D01*
G37*
G36*
X83016565Y-146592251D02*
G01*
X83207834Y-146671477D01*
X83207836Y-146671478D01*
X83379974Y-146786497D01*
X83526366Y-146932889D01*
X83641386Y-147105029D01*
X83720612Y-147296298D01*
X83761001Y-147499346D01*
X83761001Y-147706378D01*
X83720612Y-147909426D01*
X83689662Y-147984145D01*
X83641385Y-148100697D01*
X83526366Y-148272835D01*
X83379974Y-148419227D01*
X83207836Y-148534246D01*
X83207835Y-148534247D01*
X83207834Y-148534247D01*
X83016565Y-148613473D01*
X82813517Y-148653862D01*
X82606485Y-148653862D01*
X82403437Y-148613473D01*
X82212168Y-148534247D01*
X82212167Y-148534247D01*
X82212166Y-148534246D01*
X82040028Y-148419227D01*
X81893636Y-148272835D01*
X81778617Y-148100697D01*
X81730340Y-147984145D01*
X81699390Y-147909426D01*
X81659001Y-147706378D01*
X81659001Y-147499346D01*
X81699390Y-147296298D01*
X81778616Y-147105029D01*
X81893636Y-146932889D01*
X82040028Y-146786497D01*
X82212166Y-146671478D01*
X82212168Y-146671477D01*
X82403437Y-146592251D01*
X82606485Y-146551862D01*
X82813517Y-146551862D01*
X83016565Y-146592251D01*
G37*
G36*
X78516565Y-146592251D02*
G01*
X78707834Y-146671477D01*
X78707836Y-146671478D01*
X78879974Y-146786497D01*
X79026366Y-146932889D01*
X79141386Y-147105029D01*
X79220612Y-147296298D01*
X79261001Y-147499346D01*
X79261001Y-147706378D01*
X79220612Y-147909426D01*
X79189662Y-147984145D01*
X79141385Y-148100697D01*
X79026366Y-148272835D01*
X78879974Y-148419227D01*
X78707836Y-148534246D01*
X78707835Y-148534247D01*
X78707834Y-148534247D01*
X78516565Y-148613473D01*
X78313517Y-148653862D01*
X78106485Y-148653862D01*
X77903437Y-148613473D01*
X77712168Y-148534247D01*
X77712167Y-148534247D01*
X77712166Y-148534246D01*
X77540028Y-148419227D01*
X77393636Y-148272835D01*
X77278617Y-148100697D01*
X77230340Y-147984145D01*
X77199390Y-147909426D01*
X77159001Y-147706378D01*
X77159001Y-147499346D01*
X77199390Y-147296298D01*
X77278616Y-147105029D01*
X77393636Y-146932889D01*
X77540028Y-146786497D01*
X77712166Y-146671478D01*
X77712168Y-146671477D01*
X77903437Y-146592251D01*
X78106485Y-146551862D01*
X78313517Y-146551862D01*
X78516565Y-146592251D01*
G37*
G36*
X90890565Y-146592251D02*
G01*
X91081834Y-146671477D01*
X91081836Y-146671478D01*
X91253974Y-146786497D01*
X91400366Y-146932889D01*
X91515386Y-147105029D01*
X91594612Y-147296298D01*
X91635001Y-147499346D01*
X91635001Y-147706378D01*
X91594612Y-147909426D01*
X91563662Y-147984145D01*
X91515385Y-148100697D01*
X91400366Y-148272835D01*
X91253974Y-148419227D01*
X91081836Y-148534246D01*
X91081835Y-148534247D01*
X91081834Y-148534247D01*
X90890565Y-148613473D01*
X90687517Y-148653862D01*
X90480485Y-148653862D01*
X90277437Y-148613473D01*
X90086168Y-148534247D01*
X90086167Y-148534247D01*
X90086166Y-148534246D01*
X89914028Y-148419227D01*
X89767636Y-148272835D01*
X89652617Y-148100697D01*
X89604340Y-147984145D01*
X89573390Y-147909426D01*
X89533001Y-147706378D01*
X89533001Y-147499346D01*
X89573390Y-147296298D01*
X89652616Y-147105029D01*
X89767636Y-146932889D01*
X89914028Y-146786497D01*
X90086166Y-146671478D01*
X90086168Y-146671477D01*
X90277437Y-146592251D01*
X90480485Y-146551862D01*
X90687517Y-146551862D01*
X90890565Y-146592251D01*
G37*
G36*
X86390565Y-146592251D02*
G01*
X86581834Y-146671477D01*
X86581836Y-146671478D01*
X86753974Y-146786497D01*
X86900366Y-146932889D01*
X87015386Y-147105029D01*
X87094612Y-147296298D01*
X87135001Y-147499346D01*
X87135001Y-147706378D01*
X87094612Y-147909426D01*
X87063662Y-147984145D01*
X87015385Y-148100697D01*
X86900366Y-148272835D01*
X86753974Y-148419227D01*
X86581836Y-148534246D01*
X86581835Y-148534247D01*
X86581834Y-148534247D01*
X86390565Y-148613473D01*
X86187517Y-148653862D01*
X85980485Y-148653862D01*
X85777437Y-148613473D01*
X85586168Y-148534247D01*
X85586167Y-148534247D01*
X85586166Y-148534246D01*
X85414028Y-148419227D01*
X85267636Y-148272835D01*
X85152617Y-148100697D01*
X85104340Y-147984145D01*
X85073390Y-147909426D01*
X85033001Y-147706378D01*
X85033001Y-147499346D01*
X85073390Y-147296298D01*
X85152616Y-147105029D01*
X85267636Y-146932889D01*
X85414028Y-146786497D01*
X85586166Y-146671478D01*
X85586168Y-146671477D01*
X85777437Y-146592251D01*
X85980485Y-146551862D01*
X86187517Y-146551862D01*
X86390565Y-146592251D01*
G37*
G36*
X145576203Y-142218643D02*
G01*
X145851607Y-142273424D01*
X146370456Y-142488338D01*
X146837408Y-142800346D01*
X147234517Y-143197455D01*
X147546525Y-143664407D01*
X147761439Y-144183256D01*
X147871001Y-144734063D01*
X147871001Y-145295661D01*
X147761439Y-145846468D01*
X147546525Y-146365317D01*
X147234517Y-146832269D01*
X146837408Y-147229378D01*
X146370456Y-147541386D01*
X145851607Y-147756300D01*
X145576203Y-147811081D01*
X145300801Y-147865862D01*
X144739201Y-147865862D01*
X144463799Y-147811081D01*
X144188395Y-147756300D01*
X143669546Y-147541386D01*
X143202594Y-147229378D01*
X142805485Y-146832269D01*
X142493477Y-146365317D01*
X142278563Y-145846468D01*
X142169001Y-145295661D01*
X142169001Y-144734063D01*
X142278563Y-144183256D01*
X142493477Y-143664407D01*
X142805485Y-143197455D01*
X143202594Y-142800346D01*
X143669546Y-142488338D01*
X144188395Y-142273424D01*
X144463799Y-142218643D01*
X144739201Y-142163862D01*
X145300801Y-142163862D01*
X145576203Y-142218643D01*
G37*
G36*
X55576203Y-142218643D02*
G01*
X55851607Y-142273424D01*
X56370456Y-142488338D01*
X56837408Y-142800346D01*
X57234517Y-143197455D01*
X57546525Y-143664407D01*
X57761439Y-144183256D01*
X57871001Y-144734063D01*
X57871001Y-145295661D01*
X57761439Y-145846468D01*
X57546525Y-146365317D01*
X57234517Y-146832269D01*
X56837408Y-147229378D01*
X56370456Y-147541386D01*
X55851607Y-147756300D01*
X55576203Y-147811081D01*
X55300801Y-147865862D01*
X54739201Y-147865862D01*
X54463799Y-147811081D01*
X54188395Y-147756300D01*
X53669546Y-147541386D01*
X53202594Y-147229378D01*
X52805485Y-146832269D01*
X52493477Y-146365317D01*
X52278563Y-145846468D01*
X52169001Y-145295661D01*
X52169001Y-144734063D01*
X52278563Y-144183256D01*
X52493477Y-143664407D01*
X52805485Y-143197455D01*
X53202594Y-142800346D01*
X53669546Y-142488338D01*
X54188395Y-142273424D01*
X54463799Y-142218643D01*
X54739201Y-142163862D01*
X55300801Y-142163862D01*
X55576203Y-142218643D01*
G37*
G36*
X110012565Y-140092251D02*
G01*
X110203834Y-140171477D01*
X110203836Y-140171478D01*
X110375974Y-140286497D01*
X110522366Y-140432889D01*
X110637386Y-140605029D01*
X110716612Y-140796298D01*
X110757001Y-140999346D01*
X110757001Y-141206378D01*
X110716612Y-141409426D01*
X110637386Y-141600695D01*
X110637385Y-141600697D01*
X110522366Y-141772835D01*
X110375974Y-141919227D01*
X110203836Y-142034246D01*
X110203835Y-142034247D01*
X110203834Y-142034247D01*
X110012565Y-142113473D01*
X109809517Y-142153862D01*
X109602485Y-142153862D01*
X109399437Y-142113473D01*
X109208168Y-142034247D01*
X109208167Y-142034247D01*
X109208166Y-142034246D01*
X109036028Y-141919227D01*
X108889636Y-141772835D01*
X108774617Y-141600697D01*
X108774616Y-141600695D01*
X108695390Y-141409426D01*
X108655001Y-141206378D01*
X108655001Y-140999346D01*
X108695390Y-140796298D01*
X108774616Y-140605029D01*
X108889636Y-140432889D01*
X109036028Y-140286497D01*
X109208166Y-140171478D01*
X109208168Y-140171477D01*
X109399437Y-140092251D01*
X109602485Y-140051862D01*
X109809517Y-140051862D01*
X110012565Y-140092251D01*
G37*
G36*
X78516565Y-140092251D02*
G01*
X78707834Y-140171477D01*
X78707836Y-140171478D01*
X78879974Y-140286497D01*
X79026366Y-140432889D01*
X79141386Y-140605029D01*
X79220612Y-140796298D01*
X79261001Y-140999346D01*
X79261001Y-141206378D01*
X79220612Y-141409426D01*
X79141386Y-141600695D01*
X79141385Y-141600697D01*
X79026366Y-141772835D01*
X78879974Y-141919227D01*
X78707836Y-142034246D01*
X78707835Y-142034247D01*
X78707834Y-142034247D01*
X78516565Y-142113473D01*
X78313517Y-142153862D01*
X78106485Y-142153862D01*
X77903437Y-142113473D01*
X77712168Y-142034247D01*
X77712167Y-142034247D01*
X77712166Y-142034246D01*
X77540028Y-141919227D01*
X77393636Y-141772835D01*
X77278617Y-141600697D01*
X77278616Y-141600695D01*
X77199390Y-141409426D01*
X77159001Y-141206378D01*
X77159001Y-140999346D01*
X77199390Y-140796298D01*
X77278616Y-140605029D01*
X77393636Y-140432889D01*
X77540028Y-140286497D01*
X77712166Y-140171478D01*
X77712168Y-140171477D01*
X77903437Y-140092251D01*
X78106485Y-140051862D01*
X78313517Y-140051862D01*
X78516565Y-140092251D01*
G37*
G36*
X83016565Y-140092251D02*
G01*
X83207834Y-140171477D01*
X83207836Y-140171478D01*
X83379974Y-140286497D01*
X83526366Y-140432889D01*
X83641386Y-140605029D01*
X83720612Y-140796298D01*
X83761001Y-140999346D01*
X83761001Y-141206378D01*
X83720612Y-141409426D01*
X83641386Y-141600695D01*
X83641385Y-141600697D01*
X83526366Y-141772835D01*
X83379974Y-141919227D01*
X83207836Y-142034246D01*
X83207835Y-142034247D01*
X83207834Y-142034247D01*
X83016565Y-142113473D01*
X82813517Y-142153862D01*
X82606485Y-142153862D01*
X82403437Y-142113473D01*
X82212168Y-142034247D01*
X82212167Y-142034247D01*
X82212166Y-142034246D01*
X82040028Y-141919227D01*
X81893636Y-141772835D01*
X81778617Y-141600697D01*
X81778616Y-141600695D01*
X81699390Y-141409426D01*
X81659001Y-141206378D01*
X81659001Y-140999346D01*
X81699390Y-140796298D01*
X81778616Y-140605029D01*
X81893636Y-140432889D01*
X82040028Y-140286497D01*
X82212166Y-140171478D01*
X82212168Y-140171477D01*
X82403437Y-140092251D01*
X82606485Y-140051862D01*
X82813517Y-140051862D01*
X83016565Y-140092251D01*
G37*
G36*
X70388565Y-140092251D02*
G01*
X70579834Y-140171477D01*
X70579836Y-140171478D01*
X70751974Y-140286497D01*
X70898366Y-140432889D01*
X71013386Y-140605029D01*
X71092612Y-140796298D01*
X71133001Y-140999346D01*
X71133001Y-141206378D01*
X71092612Y-141409426D01*
X71013386Y-141600695D01*
X71013385Y-141600697D01*
X70898366Y-141772835D01*
X70751974Y-141919227D01*
X70579836Y-142034246D01*
X70579835Y-142034247D01*
X70579834Y-142034247D01*
X70388565Y-142113473D01*
X70185517Y-142153862D01*
X69978485Y-142153862D01*
X69775437Y-142113473D01*
X69584168Y-142034247D01*
X69584167Y-142034247D01*
X69584166Y-142034246D01*
X69412028Y-141919227D01*
X69265636Y-141772835D01*
X69150617Y-141600697D01*
X69150616Y-141600695D01*
X69071390Y-141409426D01*
X69031001Y-141206378D01*
X69031001Y-140999346D01*
X69071390Y-140796298D01*
X69150616Y-140605029D01*
X69265636Y-140432889D01*
X69412028Y-140286497D01*
X69584166Y-140171478D01*
X69584168Y-140171477D01*
X69775437Y-140092251D01*
X69978485Y-140051862D01*
X70185517Y-140051862D01*
X70388565Y-140092251D01*
G37*
G36*
X74888565Y-140092251D02*
G01*
X75079834Y-140171477D01*
X75079836Y-140171478D01*
X75251974Y-140286497D01*
X75398366Y-140432889D01*
X75513386Y-140605029D01*
X75592612Y-140796298D01*
X75633001Y-140999346D01*
X75633001Y-141206378D01*
X75592612Y-141409426D01*
X75513386Y-141600695D01*
X75513385Y-141600697D01*
X75398366Y-141772835D01*
X75251974Y-141919227D01*
X75079836Y-142034246D01*
X75079835Y-142034247D01*
X75079834Y-142034247D01*
X74888565Y-142113473D01*
X74685517Y-142153862D01*
X74478485Y-142153862D01*
X74275437Y-142113473D01*
X74084168Y-142034247D01*
X74084167Y-142034247D01*
X74084166Y-142034246D01*
X73912028Y-141919227D01*
X73765636Y-141772835D01*
X73650617Y-141600697D01*
X73650616Y-141600695D01*
X73571390Y-141409426D01*
X73531001Y-141206378D01*
X73531001Y-140999346D01*
X73571390Y-140796298D01*
X73650616Y-140605029D01*
X73765636Y-140432889D01*
X73912028Y-140286497D01*
X74084166Y-140171478D01*
X74084168Y-140171477D01*
X74275437Y-140092251D01*
X74478485Y-140051862D01*
X74685517Y-140051862D01*
X74888565Y-140092251D01*
G37*
G36*
X90890565Y-140092251D02*
G01*
X91081834Y-140171477D01*
X91081836Y-140171478D01*
X91253974Y-140286497D01*
X91400366Y-140432889D01*
X91515386Y-140605029D01*
X91594612Y-140796298D01*
X91635001Y-140999346D01*
X91635001Y-141206378D01*
X91594612Y-141409426D01*
X91515386Y-141600695D01*
X91515385Y-141600697D01*
X91400366Y-141772835D01*
X91253974Y-141919227D01*
X91081836Y-142034246D01*
X91081835Y-142034247D01*
X91081834Y-142034247D01*
X90890565Y-142113473D01*
X90687517Y-142153862D01*
X90480485Y-142153862D01*
X90277437Y-142113473D01*
X90086168Y-142034247D01*
X90086167Y-142034247D01*
X90086166Y-142034246D01*
X89914028Y-141919227D01*
X89767636Y-141772835D01*
X89652617Y-141600697D01*
X89652616Y-141600695D01*
X89573390Y-141409426D01*
X89533001Y-141206378D01*
X89533001Y-140999346D01*
X89573390Y-140796298D01*
X89652616Y-140605029D01*
X89767636Y-140432889D01*
X89914028Y-140286497D01*
X90086166Y-140171478D01*
X90086168Y-140171477D01*
X90277437Y-140092251D01*
X90480485Y-140051862D01*
X90687517Y-140051862D01*
X90890565Y-140092251D01*
G37*
G36*
X86390565Y-140092251D02*
G01*
X86581834Y-140171477D01*
X86581836Y-140171478D01*
X86753974Y-140286497D01*
X86900366Y-140432889D01*
X87015386Y-140605029D01*
X87094612Y-140796298D01*
X87135001Y-140999346D01*
X87135001Y-141206378D01*
X87094612Y-141409426D01*
X87015386Y-141600695D01*
X87015385Y-141600697D01*
X86900366Y-141772835D01*
X86753974Y-141919227D01*
X86581836Y-142034246D01*
X86581835Y-142034247D01*
X86581834Y-142034247D01*
X86390565Y-142113473D01*
X86187517Y-142153862D01*
X85980485Y-142153862D01*
X85777437Y-142113473D01*
X85586168Y-142034247D01*
X85586167Y-142034247D01*
X85586166Y-142034246D01*
X85414028Y-141919227D01*
X85267636Y-141772835D01*
X85152617Y-141600697D01*
X85152616Y-141600695D01*
X85073390Y-141409426D01*
X85033001Y-141206378D01*
X85033001Y-140999346D01*
X85073390Y-140796298D01*
X85152616Y-140605029D01*
X85267636Y-140432889D01*
X85414028Y-140286497D01*
X85586166Y-140171478D01*
X85586168Y-140171477D01*
X85777437Y-140092251D01*
X85980485Y-140051862D01*
X86187517Y-140051862D01*
X86390565Y-140092251D01*
G37*
G36*
X98764565Y-140092251D02*
G01*
X98955834Y-140171477D01*
X98955836Y-140171478D01*
X99127974Y-140286497D01*
X99274366Y-140432889D01*
X99389386Y-140605029D01*
X99468612Y-140796298D01*
X99509001Y-140999346D01*
X99509001Y-141206378D01*
X99468612Y-141409426D01*
X99389386Y-141600695D01*
X99389385Y-141600697D01*
X99274366Y-141772835D01*
X99127974Y-141919227D01*
X98955836Y-142034246D01*
X98955835Y-142034247D01*
X98955834Y-142034247D01*
X98764565Y-142113473D01*
X98561517Y-142153862D01*
X98354485Y-142153862D01*
X98151437Y-142113473D01*
X97960168Y-142034247D01*
X97960167Y-142034247D01*
X97960166Y-142034246D01*
X97788028Y-141919227D01*
X97641636Y-141772835D01*
X97526617Y-141600697D01*
X97526616Y-141600695D01*
X97447390Y-141409426D01*
X97407001Y-141206378D01*
X97407001Y-140999346D01*
X97447390Y-140796298D01*
X97526616Y-140605029D01*
X97641636Y-140432889D01*
X97788028Y-140286497D01*
X97960166Y-140171478D01*
X97960168Y-140171477D01*
X98151437Y-140092251D01*
X98354485Y-140051862D01*
X98561517Y-140051862D01*
X98764565Y-140092251D01*
G37*
G36*
X94264565Y-140092251D02*
G01*
X94455834Y-140171477D01*
X94455836Y-140171478D01*
X94627974Y-140286497D01*
X94774366Y-140432889D01*
X94889386Y-140605029D01*
X94968612Y-140796298D01*
X95009001Y-140999346D01*
X95009001Y-141206378D01*
X94968612Y-141409426D01*
X94889386Y-141600695D01*
X94889385Y-141600697D01*
X94774366Y-141772835D01*
X94627974Y-141919227D01*
X94455836Y-142034246D01*
X94455835Y-142034247D01*
X94455834Y-142034247D01*
X94264565Y-142113473D01*
X94061517Y-142153862D01*
X93854485Y-142153862D01*
X93651437Y-142113473D01*
X93460168Y-142034247D01*
X93460167Y-142034247D01*
X93460166Y-142034246D01*
X93288028Y-141919227D01*
X93141636Y-141772835D01*
X93026617Y-141600697D01*
X93026616Y-141600695D01*
X92947390Y-141409426D01*
X92907001Y-141206378D01*
X92907001Y-140999346D01*
X92947390Y-140796298D01*
X93026616Y-140605029D01*
X93141636Y-140432889D01*
X93288028Y-140286497D01*
X93460166Y-140171478D01*
X93460168Y-140171477D01*
X93651437Y-140092251D01*
X93854485Y-140051862D01*
X94061517Y-140051862D01*
X94264565Y-140092251D01*
G37*
G36*
X106638565Y-140092251D02*
G01*
X106829834Y-140171477D01*
X106829836Y-140171478D01*
X107001974Y-140286497D01*
X107148366Y-140432889D01*
X107263386Y-140605029D01*
X107342612Y-140796298D01*
X107383001Y-140999346D01*
X107383001Y-141206378D01*
X107342612Y-141409426D01*
X107263386Y-141600695D01*
X107263385Y-141600697D01*
X107148366Y-141772835D01*
X107001974Y-141919227D01*
X106829836Y-142034246D01*
X106829835Y-142034247D01*
X106829834Y-142034247D01*
X106638565Y-142113473D01*
X106435517Y-142153862D01*
X106228485Y-142153862D01*
X106025437Y-142113473D01*
X105834168Y-142034247D01*
X105834167Y-142034247D01*
X105834166Y-142034246D01*
X105662028Y-141919227D01*
X105515636Y-141772835D01*
X105400617Y-141600697D01*
X105400616Y-141600695D01*
X105321390Y-141409426D01*
X105281001Y-141206378D01*
X105281001Y-140999346D01*
X105321390Y-140796298D01*
X105400616Y-140605029D01*
X105515636Y-140432889D01*
X105662028Y-140286497D01*
X105834166Y-140171478D01*
X105834168Y-140171477D01*
X106025437Y-140092251D01*
X106228485Y-140051862D01*
X106435517Y-140051862D01*
X106638565Y-140092251D01*
G37*
G36*
X102138565Y-140092251D02*
G01*
X102329834Y-140171477D01*
X102329836Y-140171478D01*
X102501974Y-140286497D01*
X102648366Y-140432889D01*
X102763386Y-140605029D01*
X102842612Y-140796298D01*
X102883001Y-140999346D01*
X102883001Y-141206378D01*
X102842612Y-141409426D01*
X102763386Y-141600695D01*
X102763385Y-141600697D01*
X102648366Y-141772835D01*
X102501974Y-141919227D01*
X102329836Y-142034246D01*
X102329835Y-142034247D01*
X102329834Y-142034247D01*
X102138565Y-142113473D01*
X101935517Y-142153862D01*
X101728485Y-142153862D01*
X101525437Y-142113473D01*
X101334168Y-142034247D01*
X101334167Y-142034247D01*
X101334166Y-142034246D01*
X101162028Y-141919227D01*
X101015636Y-141772835D01*
X100900617Y-141600697D01*
X100900616Y-141600695D01*
X100821390Y-141409426D01*
X100781001Y-141206378D01*
X100781001Y-140999346D01*
X100821390Y-140796298D01*
X100900616Y-140605029D01*
X101015636Y-140432889D01*
X101162028Y-140286497D01*
X101334166Y-140171478D01*
X101334168Y-140171477D01*
X101525437Y-140092251D01*
X101728485Y-140051862D01*
X101935517Y-140051862D01*
X102138565Y-140092251D01*
G37*
G36*
X131856565Y-140092251D02*
G01*
X132047834Y-140171477D01*
X132047836Y-140171478D01*
X132219974Y-140286497D01*
X132366366Y-140432889D01*
X132481386Y-140605029D01*
X132560612Y-140796298D01*
X132601001Y-140999346D01*
X132601001Y-141206378D01*
X132560612Y-141409426D01*
X132481386Y-141600695D01*
X132481385Y-141600697D01*
X132366366Y-141772835D01*
X132219974Y-141919227D01*
X132047836Y-142034246D01*
X132047835Y-142034247D01*
X132047834Y-142034247D01*
X131856565Y-142113473D01*
X131653517Y-142153862D01*
X131446485Y-142153862D01*
X131243437Y-142113473D01*
X131052168Y-142034247D01*
X131052167Y-142034247D01*
X131052166Y-142034246D01*
X130880028Y-141919227D01*
X130733636Y-141772835D01*
X130618617Y-141600697D01*
X130618616Y-141600695D01*
X130539390Y-141409426D01*
X130499001Y-141206378D01*
X130499001Y-140999346D01*
X130539390Y-140796298D01*
X130618616Y-140605029D01*
X130733636Y-140432889D01*
X130880028Y-140286497D01*
X131052166Y-140171478D01*
X131052168Y-140171477D01*
X131243437Y-140092251D01*
X131446485Y-140051862D01*
X131653517Y-140051862D01*
X131856565Y-140092251D01*
G37*
G36*
X136356565Y-140092251D02*
G01*
X136547834Y-140171477D01*
X136547836Y-140171478D01*
X136719974Y-140286497D01*
X136866366Y-140432889D01*
X136981386Y-140605029D01*
X137060612Y-140796298D01*
X137101001Y-140999346D01*
X137101001Y-141206378D01*
X137060612Y-141409426D01*
X136981386Y-141600695D01*
X136981385Y-141600697D01*
X136866366Y-141772835D01*
X136719974Y-141919227D01*
X136547836Y-142034246D01*
X136547835Y-142034247D01*
X136547834Y-142034247D01*
X136356565Y-142113473D01*
X136153517Y-142153862D01*
X135946485Y-142153862D01*
X135743437Y-142113473D01*
X135552168Y-142034247D01*
X135552167Y-142034247D01*
X135552166Y-142034246D01*
X135380028Y-141919227D01*
X135233636Y-141772835D01*
X135118617Y-141600697D01*
X135118616Y-141600695D01*
X135039390Y-141409426D01*
X134999001Y-141206378D01*
X134999001Y-140999346D01*
X135039390Y-140796298D01*
X135118616Y-140605029D01*
X135233636Y-140432889D01*
X135380028Y-140286497D01*
X135552166Y-140171478D01*
X135552168Y-140171477D01*
X135743437Y-140092251D01*
X135946485Y-140051862D01*
X136153517Y-140051862D01*
X136356565Y-140092251D01*
G37*
G36*
X114512565Y-140092251D02*
G01*
X114703834Y-140171477D01*
X114703836Y-140171478D01*
X114875974Y-140286497D01*
X115022366Y-140432889D01*
X115137386Y-140605029D01*
X115216612Y-140796298D01*
X115257001Y-140999346D01*
X115257001Y-141206378D01*
X115216612Y-141409426D01*
X115137386Y-141600695D01*
X115137385Y-141600697D01*
X115022366Y-141772835D01*
X114875974Y-141919227D01*
X114703836Y-142034246D01*
X114703835Y-142034247D01*
X114703834Y-142034247D01*
X114512565Y-142113473D01*
X114309517Y-142153862D01*
X114102485Y-142153862D01*
X113899437Y-142113473D01*
X113708168Y-142034247D01*
X113708167Y-142034247D01*
X113708166Y-142034246D01*
X113536028Y-141919227D01*
X113389636Y-141772835D01*
X113274617Y-141600697D01*
X113274616Y-141600695D01*
X113195390Y-141409426D01*
X113155001Y-141206378D01*
X113155001Y-140999346D01*
X113195390Y-140796298D01*
X113274616Y-140605029D01*
X113389636Y-140432889D01*
X113536028Y-140286497D01*
X113708166Y-140171478D01*
X113708168Y-140171477D01*
X113899437Y-140092251D01*
X114102485Y-140051862D01*
X114309517Y-140051862D01*
X114512565Y-140092251D01*
G37*
G36*
X64982565Y-134400251D02*
G01*
X65173834Y-134479477D01*
X65173836Y-134479478D01*
X65300700Y-134564246D01*
X65345974Y-134594497D01*
X65492366Y-134740889D01*
X65607386Y-134913029D01*
X65686612Y-135104298D01*
X65727001Y-135307346D01*
X65727001Y-135514378D01*
X65686612Y-135717426D01*
X65607386Y-135908695D01*
X65607385Y-135908697D01*
X65492366Y-136080835D01*
X65345974Y-136227227D01*
X65173836Y-136342246D01*
X65173835Y-136342247D01*
X65173834Y-136342247D01*
X64982565Y-136421473D01*
X64779517Y-136461862D01*
X64572485Y-136461862D01*
X64369437Y-136421473D01*
X64178168Y-136342247D01*
X64178167Y-136342247D01*
X64178166Y-136342246D01*
X64006028Y-136227227D01*
X63859636Y-136080835D01*
X63744617Y-135908697D01*
X63744616Y-135908695D01*
X63665390Y-135717426D01*
X63625001Y-135514378D01*
X63625001Y-135307346D01*
X63665390Y-135104298D01*
X63744616Y-134913029D01*
X63859636Y-134740889D01*
X64006028Y-134594497D01*
X64051302Y-134564246D01*
X64178166Y-134479478D01*
X64178168Y-134479477D01*
X64369437Y-134400251D01*
X64572485Y-134359862D01*
X64779517Y-134359862D01*
X64982565Y-134400251D01*
G37*
G36*
X60482565Y-134400251D02*
G01*
X60673834Y-134479477D01*
X60673836Y-134479478D01*
X60800700Y-134564246D01*
X60845974Y-134594497D01*
X60992366Y-134740889D01*
X61107386Y-134913029D01*
X61186612Y-135104298D01*
X61227001Y-135307346D01*
X61227001Y-135514378D01*
X61186612Y-135717426D01*
X61107386Y-135908695D01*
X61107385Y-135908697D01*
X60992366Y-136080835D01*
X60845974Y-136227227D01*
X60673836Y-136342246D01*
X60673835Y-136342247D01*
X60673834Y-136342247D01*
X60482565Y-136421473D01*
X60279517Y-136461862D01*
X60072485Y-136461862D01*
X59869437Y-136421473D01*
X59678168Y-136342247D01*
X59678167Y-136342247D01*
X59678166Y-136342246D01*
X59506028Y-136227227D01*
X59359636Y-136080835D01*
X59244617Y-135908697D01*
X59244616Y-135908695D01*
X59165390Y-135717426D01*
X59125001Y-135514378D01*
X59125001Y-135307346D01*
X59165390Y-135104298D01*
X59244616Y-134913029D01*
X59359636Y-134740889D01*
X59506028Y-134594497D01*
X59551302Y-134564246D01*
X59678166Y-134479478D01*
X59678168Y-134479477D01*
X59869437Y-134400251D01*
X60072485Y-134359862D01*
X60279517Y-134359862D01*
X60482565Y-134400251D01*
G37*
G36*
X57108565Y-134400251D02*
G01*
X57299834Y-134479477D01*
X57299836Y-134479478D01*
X57426700Y-134564246D01*
X57471974Y-134594497D01*
X57618366Y-134740889D01*
X57733386Y-134913029D01*
X57812612Y-135104298D01*
X57853001Y-135307346D01*
X57853001Y-135514378D01*
X57812612Y-135717426D01*
X57733386Y-135908695D01*
X57733385Y-135908697D01*
X57618366Y-136080835D01*
X57471974Y-136227227D01*
X57299836Y-136342246D01*
X57299835Y-136342247D01*
X57299834Y-136342247D01*
X57108565Y-136421473D01*
X56905517Y-136461862D01*
X56698485Y-136461862D01*
X56495437Y-136421473D01*
X56304168Y-136342247D01*
X56304167Y-136342247D01*
X56304166Y-136342246D01*
X56132028Y-136227227D01*
X55985636Y-136080835D01*
X55870617Y-135908697D01*
X55870616Y-135908695D01*
X55791390Y-135717426D01*
X55751001Y-135514378D01*
X55751001Y-135307346D01*
X55791390Y-135104298D01*
X55870616Y-134913029D01*
X55985636Y-134740889D01*
X56132028Y-134594497D01*
X56177302Y-134564246D01*
X56304166Y-134479478D01*
X56304168Y-134479477D01*
X56495437Y-134400251D01*
X56698485Y-134359862D01*
X56905517Y-134359862D01*
X57108565Y-134400251D01*
G37*
G36*
X52608565Y-134400251D02*
G01*
X52799834Y-134479477D01*
X52799836Y-134479478D01*
X52926700Y-134564246D01*
X52971974Y-134594497D01*
X53118366Y-134740889D01*
X53233386Y-134913029D01*
X53312612Y-135104298D01*
X53353001Y-135307346D01*
X53353001Y-135514378D01*
X53312612Y-135717426D01*
X53233386Y-135908695D01*
X53233385Y-135908697D01*
X53118366Y-136080835D01*
X52971974Y-136227227D01*
X52799836Y-136342246D01*
X52799835Y-136342247D01*
X52799834Y-136342247D01*
X52608565Y-136421473D01*
X52405517Y-136461862D01*
X52198485Y-136461862D01*
X51995437Y-136421473D01*
X51804168Y-136342247D01*
X51804167Y-136342247D01*
X51804166Y-136342246D01*
X51632028Y-136227227D01*
X51485636Y-136080835D01*
X51370617Y-135908697D01*
X51370616Y-135908695D01*
X51291390Y-135717426D01*
X51251001Y-135514378D01*
X51251001Y-135307346D01*
X51291390Y-135104298D01*
X51370616Y-134913029D01*
X51485636Y-134740889D01*
X51632028Y-134594497D01*
X51677302Y-134564246D01*
X51804166Y-134479478D01*
X51804168Y-134479477D01*
X51995437Y-134400251D01*
X52198485Y-134359862D01*
X52405517Y-134359862D01*
X52608565Y-134400251D01*
G37*
G36*
X114512565Y-132622251D02*
G01*
X114703834Y-132701477D01*
X114703836Y-132701478D01*
X114875974Y-132816497D01*
X115022366Y-132962889D01*
X115137386Y-133135029D01*
X115216612Y-133326298D01*
X115257001Y-133529346D01*
X115257001Y-133736378D01*
X115216612Y-133939426D01*
X115137386Y-134130695D01*
X115137385Y-134130697D01*
X115022366Y-134302835D01*
X114875974Y-134449227D01*
X114703836Y-134564246D01*
X114703835Y-134564247D01*
X114703834Y-134564247D01*
X114512565Y-134643473D01*
X114309517Y-134683862D01*
X114102485Y-134683862D01*
X113899437Y-134643473D01*
X113708168Y-134564247D01*
X113708167Y-134564247D01*
X113708166Y-134564246D01*
X113536028Y-134449227D01*
X113389636Y-134302835D01*
X113274617Y-134130697D01*
X113274616Y-134130695D01*
X113195390Y-133939426D01*
X113155001Y-133736378D01*
X113155001Y-133529346D01*
X113195390Y-133326298D01*
X113274616Y-133135029D01*
X113389636Y-132962889D01*
X113536028Y-132816497D01*
X113708166Y-132701478D01*
X113708168Y-132701477D01*
X113899437Y-132622251D01*
X114102485Y-132581862D01*
X114309517Y-132581862D01*
X114512565Y-132622251D01*
G37*
G36*
X110012565Y-132622251D02*
G01*
X110203834Y-132701477D01*
X110203836Y-132701478D01*
X110375974Y-132816497D01*
X110522366Y-132962889D01*
X110637386Y-133135029D01*
X110716612Y-133326298D01*
X110757001Y-133529346D01*
X110757001Y-133736378D01*
X110716612Y-133939426D01*
X110637386Y-134130695D01*
X110637385Y-134130697D01*
X110522366Y-134302835D01*
X110375974Y-134449227D01*
X110203836Y-134564246D01*
X110203835Y-134564247D01*
X110203834Y-134564247D01*
X110012565Y-134643473D01*
X109809517Y-134683862D01*
X109602485Y-134683862D01*
X109399437Y-134643473D01*
X109208168Y-134564247D01*
X109208167Y-134564247D01*
X109208166Y-134564246D01*
X109036028Y-134449227D01*
X108889636Y-134302835D01*
X108774617Y-134130697D01*
X108774616Y-134130695D01*
X108695390Y-133939426D01*
X108655001Y-133736378D01*
X108655001Y-133529346D01*
X108695390Y-133326298D01*
X108774616Y-133135029D01*
X108889636Y-132962889D01*
X109036028Y-132816497D01*
X109208166Y-132701478D01*
X109208168Y-132701477D01*
X109399437Y-132622251D01*
X109602485Y-132581862D01*
X109809517Y-132581862D01*
X110012565Y-132622251D01*
G37*
G36*
X64982565Y-127900251D02*
G01*
X65173834Y-127979477D01*
X65173836Y-127979478D01*
X65300700Y-128064246D01*
X65345974Y-128094497D01*
X65492366Y-128240889D01*
X65607386Y-128413029D01*
X65686612Y-128604298D01*
X65727001Y-128807346D01*
X65727001Y-129014378D01*
X65686612Y-129217426D01*
X65607386Y-129408695D01*
X65607385Y-129408697D01*
X65492366Y-129580835D01*
X65345974Y-129727227D01*
X65173836Y-129842246D01*
X65173835Y-129842247D01*
X65173834Y-129842247D01*
X64982565Y-129921473D01*
X64779517Y-129961862D01*
X64572485Y-129961862D01*
X64369437Y-129921473D01*
X64178168Y-129842247D01*
X64178167Y-129842247D01*
X64178166Y-129842246D01*
X64006028Y-129727227D01*
X63859636Y-129580835D01*
X63744617Y-129408697D01*
X63744616Y-129408695D01*
X63665390Y-129217426D01*
X63625001Y-129014378D01*
X63625001Y-128807346D01*
X63665390Y-128604298D01*
X63744616Y-128413029D01*
X63859636Y-128240889D01*
X64006028Y-128094497D01*
X64051302Y-128064246D01*
X64178166Y-127979478D01*
X64178168Y-127979477D01*
X64369437Y-127900251D01*
X64572485Y-127859862D01*
X64779517Y-127859862D01*
X64982565Y-127900251D01*
G37*
G36*
X60482565Y-127900251D02*
G01*
X60673834Y-127979477D01*
X60673836Y-127979478D01*
X60800700Y-128064246D01*
X60845974Y-128094497D01*
X60992366Y-128240889D01*
X61107386Y-128413029D01*
X61186612Y-128604298D01*
X61227001Y-128807346D01*
X61227001Y-129014378D01*
X61186612Y-129217426D01*
X61107386Y-129408695D01*
X61107385Y-129408697D01*
X60992366Y-129580835D01*
X60845974Y-129727227D01*
X60673836Y-129842246D01*
X60673835Y-129842247D01*
X60673834Y-129842247D01*
X60482565Y-129921473D01*
X60279517Y-129961862D01*
X60072485Y-129961862D01*
X59869437Y-129921473D01*
X59678168Y-129842247D01*
X59678167Y-129842247D01*
X59678166Y-129842246D01*
X59506028Y-129727227D01*
X59359636Y-129580835D01*
X59244617Y-129408697D01*
X59244616Y-129408695D01*
X59165390Y-129217426D01*
X59125001Y-129014378D01*
X59125001Y-128807346D01*
X59165390Y-128604298D01*
X59244616Y-128413029D01*
X59359636Y-128240889D01*
X59506028Y-128094497D01*
X59551302Y-128064246D01*
X59678166Y-127979478D01*
X59678168Y-127979477D01*
X59869437Y-127900251D01*
X60072485Y-127859862D01*
X60279517Y-127859862D01*
X60482565Y-127900251D01*
G37*
G36*
X52608565Y-127900251D02*
G01*
X52799834Y-127979477D01*
X52799836Y-127979478D01*
X52926700Y-128064246D01*
X52971974Y-128094497D01*
X53118366Y-128240889D01*
X53233386Y-128413029D01*
X53312612Y-128604298D01*
X53353001Y-128807346D01*
X53353001Y-129014378D01*
X53312612Y-129217426D01*
X53233386Y-129408695D01*
X53233385Y-129408697D01*
X53118366Y-129580835D01*
X52971974Y-129727227D01*
X52799836Y-129842246D01*
X52799835Y-129842247D01*
X52799834Y-129842247D01*
X52608565Y-129921473D01*
X52405517Y-129961862D01*
X52198485Y-129961862D01*
X51995437Y-129921473D01*
X51804168Y-129842247D01*
X51804167Y-129842247D01*
X51804166Y-129842246D01*
X51632028Y-129727227D01*
X51485636Y-129580835D01*
X51370617Y-129408697D01*
X51370616Y-129408695D01*
X51291390Y-129217426D01*
X51251001Y-129014378D01*
X51251001Y-128807346D01*
X51291390Y-128604298D01*
X51370616Y-128413029D01*
X51485636Y-128240889D01*
X51632028Y-128094497D01*
X51677302Y-128064246D01*
X51804166Y-127979478D01*
X51804168Y-127979477D01*
X51995437Y-127900251D01*
X52198485Y-127859862D01*
X52405517Y-127859862D01*
X52608565Y-127900251D01*
G37*
G36*
X57108565Y-127900251D02*
G01*
X57299834Y-127979477D01*
X57299836Y-127979478D01*
X57426700Y-128064246D01*
X57471974Y-128094497D01*
X57618366Y-128240889D01*
X57733386Y-128413029D01*
X57812612Y-128604298D01*
X57853001Y-128807346D01*
X57853001Y-129014378D01*
X57812612Y-129217426D01*
X57733386Y-129408695D01*
X57733385Y-129408697D01*
X57618366Y-129580835D01*
X57471974Y-129727227D01*
X57299836Y-129842246D01*
X57299835Y-129842247D01*
X57299834Y-129842247D01*
X57108565Y-129921473D01*
X56905517Y-129961862D01*
X56698485Y-129961862D01*
X56495437Y-129921473D01*
X56304168Y-129842247D01*
X56304167Y-129842247D01*
X56304166Y-129842246D01*
X56132028Y-129727227D01*
X55985636Y-129580835D01*
X55870617Y-129408697D01*
X55870616Y-129408695D01*
X55791390Y-129217426D01*
X55751001Y-129014378D01*
X55751001Y-128807346D01*
X55791390Y-128604298D01*
X55870616Y-128413029D01*
X55985636Y-128240889D01*
X56132028Y-128094497D01*
X56177302Y-128064246D01*
X56304166Y-127979478D01*
X56304168Y-127979477D01*
X56495437Y-127900251D01*
X56698485Y-127859862D01*
X56905517Y-127859862D01*
X57108565Y-127900251D01*
G37*
G36*
X114512565Y-126122251D02*
G01*
X114703834Y-126201477D01*
X114703836Y-126201478D01*
X114875974Y-126316497D01*
X115022366Y-126462889D01*
X115137386Y-126635029D01*
X115216612Y-126826298D01*
X115257001Y-127029346D01*
X115257001Y-127236378D01*
X115216612Y-127439426D01*
X115137386Y-127630695D01*
X115137385Y-127630697D01*
X115022366Y-127802835D01*
X114875974Y-127949227D01*
X114703836Y-128064246D01*
X114703835Y-128064247D01*
X114703834Y-128064247D01*
X114512565Y-128143473D01*
X114309517Y-128183862D01*
X114102485Y-128183862D01*
X113899437Y-128143473D01*
X113708168Y-128064247D01*
X113708167Y-128064247D01*
X113708166Y-128064246D01*
X113536028Y-127949227D01*
X113389636Y-127802835D01*
X113274617Y-127630697D01*
X113274616Y-127630695D01*
X113195390Y-127439426D01*
X113155001Y-127236378D01*
X113155001Y-127029346D01*
X113195390Y-126826298D01*
X113274616Y-126635029D01*
X113389636Y-126462889D01*
X113536028Y-126316497D01*
X113708166Y-126201478D01*
X113708168Y-126201477D01*
X113899437Y-126122251D01*
X114102485Y-126081862D01*
X114309517Y-126081862D01*
X114512565Y-126122251D01*
G37*
G36*
X110012565Y-126122251D02*
G01*
X110203834Y-126201477D01*
X110203836Y-126201478D01*
X110375974Y-126316497D01*
X110522366Y-126462889D01*
X110637386Y-126635029D01*
X110716612Y-126826298D01*
X110757001Y-127029346D01*
X110757001Y-127236378D01*
X110716612Y-127439426D01*
X110637386Y-127630695D01*
X110637385Y-127630697D01*
X110522366Y-127802835D01*
X110375974Y-127949227D01*
X110203836Y-128064246D01*
X110203835Y-128064247D01*
X110203834Y-128064247D01*
X110012565Y-128143473D01*
X109809517Y-128183862D01*
X109602485Y-128183862D01*
X109399437Y-128143473D01*
X109208168Y-128064247D01*
X109208167Y-128064247D01*
X109208166Y-128064246D01*
X109036028Y-127949227D01*
X108889636Y-127802835D01*
X108774617Y-127630697D01*
X108774616Y-127630695D01*
X108695390Y-127439426D01*
X108655001Y-127236378D01*
X108655001Y-127029346D01*
X108695390Y-126826298D01*
X108774616Y-126635029D01*
X108889636Y-126462889D01*
X109036028Y-126316497D01*
X109208166Y-126201478D01*
X109208168Y-126201477D01*
X109399437Y-126122251D01*
X109602485Y-126081862D01*
X109809517Y-126081862D01*
X110012565Y-126122251D01*
G37*
G36*
X57184565Y-123238251D02*
G01*
X57375834Y-123317477D01*
X57375836Y-123317478D01*
X57547974Y-123432497D01*
X57694366Y-123578889D01*
X57809386Y-123751029D01*
X57888612Y-123942298D01*
X57929001Y-124145346D01*
X57929001Y-124352378D01*
X57888612Y-124555426D01*
X57809386Y-124746695D01*
X57809385Y-124746697D01*
X57694366Y-124918835D01*
X57547974Y-125065227D01*
X57375836Y-125180246D01*
X57375835Y-125180247D01*
X57375834Y-125180247D01*
X57184565Y-125259473D01*
X56981517Y-125299862D01*
X56774485Y-125299862D01*
X56571437Y-125259473D01*
X56380168Y-125180247D01*
X56380167Y-125180247D01*
X56380166Y-125180246D01*
X56208028Y-125065227D01*
X56061636Y-124918835D01*
X55946617Y-124746697D01*
X55946616Y-124746695D01*
X55867390Y-124555426D01*
X55827001Y-124352378D01*
X55827001Y-124145346D01*
X55867390Y-123942298D01*
X55946616Y-123751029D01*
X56061636Y-123578889D01*
X56208028Y-123432497D01*
X56380166Y-123317478D01*
X56380168Y-123317477D01*
X56571437Y-123238251D01*
X56774485Y-123197862D01*
X56981517Y-123197862D01*
X57184565Y-123238251D01*
G37*
G36*
X52684565Y-123238251D02*
G01*
X52875834Y-123317477D01*
X52875836Y-123317478D01*
X53047974Y-123432497D01*
X53194366Y-123578889D01*
X53309386Y-123751029D01*
X53388612Y-123942298D01*
X53429001Y-124145346D01*
X53429001Y-124352378D01*
X53388612Y-124555426D01*
X53309386Y-124746695D01*
X53309385Y-124746697D01*
X53194366Y-124918835D01*
X53047974Y-125065227D01*
X52875836Y-125180246D01*
X52875835Y-125180247D01*
X52875834Y-125180247D01*
X52684565Y-125259473D01*
X52481517Y-125299862D01*
X52274485Y-125299862D01*
X52071437Y-125259473D01*
X51880168Y-125180247D01*
X51880167Y-125180247D01*
X51880166Y-125180246D01*
X51708028Y-125065227D01*
X51561636Y-124918835D01*
X51446617Y-124746697D01*
X51446616Y-124746695D01*
X51367390Y-124555426D01*
X51327001Y-124352378D01*
X51327001Y-124145346D01*
X51367390Y-123942298D01*
X51446616Y-123751029D01*
X51561636Y-123578889D01*
X51708028Y-123432497D01*
X51880166Y-123317478D01*
X51880168Y-123317477D01*
X52071437Y-123238251D01*
X52274485Y-123197862D01*
X52481517Y-123197862D01*
X52684565Y-123238251D01*
G37*
G36*
X57184565Y-116738251D02*
G01*
X57375834Y-116817477D01*
X57375836Y-116817478D01*
X57547974Y-116932497D01*
X57694366Y-117078889D01*
X57809386Y-117251029D01*
X57888612Y-117442298D01*
X57929001Y-117645346D01*
X57929001Y-117852378D01*
X57888612Y-118055426D01*
X57809386Y-118246695D01*
X57809385Y-118246697D01*
X57694366Y-118418835D01*
X57547974Y-118565227D01*
X57375836Y-118680246D01*
X57375835Y-118680247D01*
X57375834Y-118680247D01*
X57184565Y-118759473D01*
X56981517Y-118799862D01*
X56774485Y-118799862D01*
X56571437Y-118759473D01*
X56380168Y-118680247D01*
X56380167Y-118680247D01*
X56380166Y-118680246D01*
X56208028Y-118565227D01*
X56061636Y-118418835D01*
X55946617Y-118246697D01*
X55946616Y-118246695D01*
X55867390Y-118055426D01*
X55827001Y-117852378D01*
X55827001Y-117645346D01*
X55867390Y-117442298D01*
X55946616Y-117251029D01*
X56061636Y-117078889D01*
X56208028Y-116932497D01*
X56380166Y-116817478D01*
X56380168Y-116817477D01*
X56571437Y-116738251D01*
X56774485Y-116697862D01*
X56981517Y-116697862D01*
X57184565Y-116738251D01*
G37*
G36*
X52684565Y-116738251D02*
G01*
X52875834Y-116817477D01*
X52875836Y-116817478D01*
X53047974Y-116932497D01*
X53194366Y-117078889D01*
X53309386Y-117251029D01*
X53388612Y-117442298D01*
X53429001Y-117645346D01*
X53429001Y-117852378D01*
X53388612Y-118055426D01*
X53309386Y-118246695D01*
X53309385Y-118246697D01*
X53194366Y-118418835D01*
X53047974Y-118565227D01*
X52875836Y-118680246D01*
X52875835Y-118680247D01*
X52875834Y-118680247D01*
X52684565Y-118759473D01*
X52481517Y-118799862D01*
X52274485Y-118799862D01*
X52071437Y-118759473D01*
X51880168Y-118680247D01*
X51880167Y-118680247D01*
X51880166Y-118680246D01*
X51708028Y-118565227D01*
X51561636Y-118418835D01*
X51446617Y-118246697D01*
X51446616Y-118246695D01*
X51367390Y-118055426D01*
X51327001Y-117852378D01*
X51327001Y-117645346D01*
X51367390Y-117442298D01*
X51446616Y-117251029D01*
X51561636Y-117078889D01*
X51708028Y-116932497D01*
X51880166Y-116817478D01*
X51880168Y-116817477D01*
X52071437Y-116738251D01*
X52274485Y-116697862D01*
X52481517Y-116697862D01*
X52684565Y-116738251D01*
G37*
G36*
X52793716Y-67686920D02*
G01*
X52889754Y-67716053D01*
X52904936Y-67720658D01*
X52911723Y-67722717D01*
X53020469Y-67780843D01*
X53115791Y-67859072D01*
X53194020Y-67954394D01*
X53252146Y-68063140D01*
X53287943Y-68181147D01*
X53300029Y-68303862D01*
X53287943Y-68426577D01*
X53252146Y-68544584D01*
X53194020Y-68653330D01*
X53115791Y-68748652D01*
X53020469Y-68826881D01*
X52911723Y-68885007D01*
X52793716Y-68920804D01*
X52701747Y-68929862D01*
X51990255Y-68929862D01*
X51898286Y-68920804D01*
X51780279Y-68885007D01*
X51671533Y-68826881D01*
X51576211Y-68748652D01*
X51497982Y-68653330D01*
X51439856Y-68544584D01*
X51404059Y-68426577D01*
X51391973Y-68303862D01*
X51404059Y-68181147D01*
X51439856Y-68063140D01*
X51497982Y-67954394D01*
X51576211Y-67859072D01*
X51671533Y-67780843D01*
X51780279Y-67722717D01*
X51787067Y-67720658D01*
X51802248Y-67716053D01*
X51898286Y-67686920D01*
X51990255Y-67677862D01*
X52701747Y-67677862D01*
X52793716Y-67686920D01*
G37*
G36*
X55227553Y-66495193D02*
G01*
X55309628Y-66529190D01*
X55309630Y-66529191D01*
X55346814Y-66554037D01*
X55383496Y-66578547D01*
X55446316Y-66641367D01*
X55495673Y-66715235D01*
X55529670Y-66797310D01*
X55547001Y-66884441D01*
X55547001Y-66973283D01*
X55529670Y-67060414D01*
X55495673Y-67142489D01*
X55446316Y-67216357D01*
X55430763Y-67231910D01*
X55415218Y-67250852D01*
X55403667Y-67272463D01*
X55396554Y-67295912D01*
X55394152Y-67320298D01*
X55396554Y-67344684D01*
X55403667Y-67368133D01*
X55415218Y-67389744D01*
X55430763Y-67408686D01*
X55449705Y-67424231D01*
X55471316Y-67435782D01*
X55494765Y-67442895D01*
X55519151Y-67445297D01*
X55543537Y-67442895D01*
X55566986Y-67435782D01*
X55570615Y-67434066D01*
X55572601Y-67433464D01*
X55572602Y-67433463D01*
X55616902Y-67420025D01*
X55718880Y-67389090D01*
X55832883Y-67377862D01*
X56459119Y-67377862D01*
X56573122Y-67389090D01*
X56719403Y-67433464D01*
X56854205Y-67505517D01*
X56854208Y-67505519D01*
X56854209Y-67505520D01*
X56939569Y-67575574D01*
X56972370Y-67602493D01*
X57069346Y-67720658D01*
X57141399Y-67855460D01*
X57185773Y-68001741D01*
X57200755Y-68153862D01*
X57185773Y-68305983D01*
X57141399Y-68452264D01*
X57069346Y-68587066D01*
X57069344Y-68587069D01*
X57069343Y-68587070D01*
X56972370Y-68705231D01*
X56854205Y-68802207D01*
X56719403Y-68874260D01*
X56573122Y-68918634D01*
X56459119Y-68929862D01*
X55832883Y-68929862D01*
X55718880Y-68918634D01*
X55572599Y-68874260D01*
X55437797Y-68802207D01*
X55319632Y-68705231D01*
X55222659Y-68587070D01*
X55222658Y-68587069D01*
X55222656Y-68587066D01*
X55150603Y-68452264D01*
X55106229Y-68305983D01*
X55091247Y-68153862D01*
X55106229Y-68001741D01*
X55150603Y-67855460D01*
X55222656Y-67720658D01*
X55319634Y-67602490D01*
X55352431Y-67575574D01*
X55369758Y-67558247D01*
X55383371Y-67537873D01*
X55392749Y-67515234D01*
X55397529Y-67491201D01*
X55397529Y-67466697D01*
X55392749Y-67442663D01*
X55383371Y-67420025D01*
X55369757Y-67399650D01*
X55352430Y-67382323D01*
X55332056Y-67368710D01*
X55309417Y-67359332D01*
X55285384Y-67354552D01*
X55260880Y-67354552D01*
X55236846Y-67359332D01*
X55228352Y-67362372D01*
X55140422Y-67379862D01*
X55051580Y-67379862D01*
X54964449Y-67362531D01*
X54882374Y-67328534D01*
X54882373Y-67328534D01*
X54882372Y-67328533D01*
X54808505Y-67279176D01*
X54745687Y-67216358D01*
X54696330Y-67142491D01*
X54696329Y-67142489D01*
X54662332Y-67060414D01*
X54645001Y-66973283D01*
X54645001Y-66884441D01*
X54662332Y-66797310D01*
X54696329Y-66715235D01*
X54745686Y-66641367D01*
X54808506Y-66578547D01*
X54845188Y-66554037D01*
X54882372Y-66529191D01*
X54882374Y-66529190D01*
X54964449Y-66495193D01*
X55051580Y-66477862D01*
X55140422Y-66477862D01*
X55227553Y-66495193D01*
G37*
G36*
X56573122Y-59939090D02*
G01*
X56719403Y-59983464D01*
X56854205Y-60055517D01*
X56854208Y-60055519D01*
X56854209Y-60055520D01*
X56972370Y-60152493D01*
X57014964Y-60204393D01*
X57069346Y-60270658D01*
X57141399Y-60405460D01*
X57185773Y-60551741D01*
X57200755Y-60703862D01*
X57185773Y-60855983D01*
X57141399Y-61002264D01*
X57069346Y-61137066D01*
X57069344Y-61137069D01*
X57069343Y-61137070D01*
X56972370Y-61255231D01*
X56880117Y-61330942D01*
X56854205Y-61352207D01*
X56719403Y-61424260D01*
X56573122Y-61468634D01*
X56459119Y-61479862D01*
X55832883Y-61479862D01*
X55718880Y-61468634D01*
X55566665Y-61422460D01*
X55555440Y-61417810D01*
X55531406Y-61413029D01*
X55506902Y-61413029D01*
X55482869Y-61417808D01*
X55460230Y-61427185D01*
X55439855Y-61440798D01*
X55422528Y-61458125D01*
X55408913Y-61478499D01*
X55399535Y-61501137D01*
X55394754Y-61525171D01*
X55394754Y-61549675D01*
X55399533Y-61573708D01*
X55408910Y-61596347D01*
X55422523Y-61616722D01*
X55430763Y-61625814D01*
X55446316Y-61641367D01*
X55495673Y-61715235D01*
X55529670Y-61797310D01*
X55547001Y-61884441D01*
X55547001Y-61973283D01*
X55529670Y-62060414D01*
X55495673Y-62142489D01*
X55495672Y-62142491D01*
X55446315Y-62216358D01*
X55383497Y-62279176D01*
X55309630Y-62328533D01*
X55309629Y-62328534D01*
X55309628Y-62328534D01*
X55227553Y-62362531D01*
X55140422Y-62379862D01*
X55051580Y-62379862D01*
X54964449Y-62362531D01*
X54882374Y-62328534D01*
X54882373Y-62328534D01*
X54882372Y-62328533D01*
X54808505Y-62279176D01*
X54745687Y-62216358D01*
X54696330Y-62142491D01*
X54696329Y-62142489D01*
X54662332Y-62060414D01*
X54645001Y-61973283D01*
X54645001Y-61884441D01*
X54662332Y-61797310D01*
X54696329Y-61715235D01*
X54745686Y-61641367D01*
X54808506Y-61578547D01*
X54851716Y-61549675D01*
X54882372Y-61529191D01*
X54892077Y-61525171D01*
X54964449Y-61495193D01*
X55051580Y-61477862D01*
X55140422Y-61477862D01*
X55229947Y-61495669D01*
X55248744Y-61501372D01*
X55273130Y-61503774D01*
X55297516Y-61501373D01*
X55320965Y-61494260D01*
X55342576Y-61482709D01*
X55361518Y-61467164D01*
X55377064Y-61448223D01*
X55388615Y-61426612D01*
X55395729Y-61403163D01*
X55398131Y-61378777D01*
X55395730Y-61354391D01*
X55388617Y-61330942D01*
X55377066Y-61309331D01*
X55361521Y-61290389D01*
X55352431Y-61282150D01*
X55319634Y-61255234D01*
X55222656Y-61137066D01*
X55150603Y-61002264D01*
X55106229Y-60855983D01*
X55091247Y-60703862D01*
X55106229Y-60551741D01*
X55150603Y-60405460D01*
X55222656Y-60270658D01*
X55277039Y-60204393D01*
X55319632Y-60152493D01*
X55437793Y-60055520D01*
X55437794Y-60055519D01*
X55437797Y-60055517D01*
X55572599Y-59983464D01*
X55718880Y-59939090D01*
X55832883Y-59927862D01*
X56459119Y-59927862D01*
X56573122Y-59939090D01*
G37*
G36*
X52793716Y-59936920D02*
G01*
X52911723Y-59972717D01*
X53020469Y-60030843D01*
X53115791Y-60109072D01*
X53194020Y-60204394D01*
X53252146Y-60313140D01*
X53287943Y-60431147D01*
X53300029Y-60553862D01*
X53287943Y-60676577D01*
X53252146Y-60794584D01*
X53194020Y-60903330D01*
X53115791Y-60998652D01*
X53020469Y-61076881D01*
X52911723Y-61135007D01*
X52911720Y-61135008D01*
X52904922Y-61137070D01*
X52793716Y-61170804D01*
X52701747Y-61179862D01*
X51990255Y-61179862D01*
X51898286Y-61170804D01*
X51787080Y-61137070D01*
X51780282Y-61135008D01*
X51780279Y-61135007D01*
X51671533Y-61076881D01*
X51576211Y-60998652D01*
X51497982Y-60903330D01*
X51439856Y-60794584D01*
X51404059Y-60676577D01*
X51391973Y-60553862D01*
X51404059Y-60431147D01*
X51439856Y-60313140D01*
X51497982Y-60204394D01*
X51576211Y-60109072D01*
X51671533Y-60030843D01*
X51780279Y-59972717D01*
X51898286Y-59936920D01*
X51990255Y-59927862D01*
X52701747Y-59927862D01*
X52793716Y-59936920D01*
G37*
G36*
X145851607Y-52273424D02*
G01*
X146370456Y-52488338D01*
X146744525Y-52738283D01*
X146837407Y-52800345D01*
X147234518Y-53197456D01*
X147296580Y-53290338D01*
X147546525Y-53664407D01*
X147761439Y-54183256D01*
X147871001Y-54734063D01*
X147871001Y-55295661D01*
X147761439Y-55846468D01*
X147546525Y-56365317D01*
X147234517Y-56832269D01*
X146837408Y-57229378D01*
X146370456Y-57541386D01*
X145851607Y-57756300D01*
X145576203Y-57811081D01*
X145300801Y-57865862D01*
X144739201Y-57865862D01*
X144463799Y-57811081D01*
X144188395Y-57756300D01*
X143669546Y-57541386D01*
X143202594Y-57229378D01*
X142805485Y-56832269D01*
X142493477Y-56365317D01*
X142278563Y-55846468D01*
X142169001Y-55295661D01*
X142169001Y-54734063D01*
X142278563Y-54183256D01*
X142493477Y-53664407D01*
X142743422Y-53290338D01*
X142805484Y-53197456D01*
X143202595Y-52800345D01*
X143295477Y-52738283D01*
X143669546Y-52488338D01*
X144188395Y-52273424D01*
X144463799Y-52218643D01*
X144739201Y-52163862D01*
X145300801Y-52163862D01*
X145851607Y-52273424D01*
G37*
G36*
X55851607Y-52273424D02*
G01*
X56370456Y-52488338D01*
X56744525Y-52738283D01*
X56837407Y-52800345D01*
X57234518Y-53197456D01*
X57296580Y-53290338D01*
X57546525Y-53664407D01*
X57761439Y-54183256D01*
X57871001Y-54734063D01*
X57871001Y-55295661D01*
X57761439Y-55846468D01*
X57546525Y-56365317D01*
X57234517Y-56832269D01*
X56837408Y-57229378D01*
X56370456Y-57541386D01*
X55851607Y-57756300D01*
X55576203Y-57811081D01*
X55300801Y-57865862D01*
X54739201Y-57865862D01*
X54463799Y-57811081D01*
X54188395Y-57756300D01*
X53669546Y-57541386D01*
X53202594Y-57229378D01*
X52805485Y-56832269D01*
X52493477Y-56365317D01*
X52278563Y-55846468D01*
X52169001Y-55295661D01*
X52169001Y-54734063D01*
X52278563Y-54183256D01*
X52493477Y-53664407D01*
X52743422Y-53290338D01*
X52805484Y-53197456D01*
X53202595Y-52800345D01*
X53295477Y-52738283D01*
X53669546Y-52488338D01*
X54188395Y-52273424D01*
X54463799Y-52218643D01*
X54739201Y-52163862D01*
X55300801Y-52163862D01*
X55851607Y-52273424D01*
G37*
G36*
X61585001Y-55031862D02*
G01*
X59783001Y-55031862D01*
X59783001Y-53229862D01*
X61585001Y-53229862D01*
X61585001Y-55031862D01*
G37*
G36*
X65877513Y-53234789D02*
G01*
X66026813Y-53264486D01*
X66190785Y-53332406D01*
X66338355Y-53431009D01*
X66463854Y-53556508D01*
X66562457Y-53704078D01*
X66630377Y-53868050D01*
X66665001Y-54042121D01*
X66665001Y-54219603D01*
X66630377Y-54393674D01*
X66562457Y-54557646D01*
X66463854Y-54705216D01*
X66338355Y-54830715D01*
X66190785Y-54929318D01*
X66026813Y-54997238D01*
X65877513Y-55026935D01*
X65852743Y-55031862D01*
X65675259Y-55031862D01*
X65650489Y-55026935D01*
X65501189Y-54997238D01*
X65337217Y-54929318D01*
X65189647Y-54830715D01*
X65064148Y-54705216D01*
X64965545Y-54557646D01*
X64897625Y-54393674D01*
X64863001Y-54219603D01*
X64863001Y-54042121D01*
X64897625Y-53868050D01*
X64965545Y-53704078D01*
X65064148Y-53556508D01*
X65189647Y-53431009D01*
X65337217Y-53332406D01*
X65501189Y-53264486D01*
X65650489Y-53234789D01*
X65675259Y-53229862D01*
X65852743Y-53229862D01*
X65877513Y-53234789D01*
G37*
G36*
X63337513Y-53234789D02*
G01*
X63486813Y-53264486D01*
X63650785Y-53332406D01*
X63798355Y-53431009D01*
X63923854Y-53556508D01*
X64022457Y-53704078D01*
X64090377Y-53868050D01*
X64125001Y-54042121D01*
X64125001Y-54219603D01*
X64090377Y-54393674D01*
X64022457Y-54557646D01*
X63923854Y-54705216D01*
X63798355Y-54830715D01*
X63650785Y-54929318D01*
X63486813Y-54997238D01*
X63337513Y-55026935D01*
X63312743Y-55031862D01*
X63135259Y-55031862D01*
X63110489Y-55026935D01*
X62961189Y-54997238D01*
X62797217Y-54929318D01*
X62649647Y-54830715D01*
X62524148Y-54705216D01*
X62425545Y-54557646D01*
X62357625Y-54393674D01*
X62323001Y-54219603D01*
X62323001Y-54042121D01*
X62357625Y-53868050D01*
X62425545Y-53704078D01*
X62524148Y-53556508D01*
X62649647Y-53431009D01*
X62797217Y-53332406D01*
X62961189Y-53264486D01*
X63110489Y-53234789D01*
X63135259Y-53229862D01*
X63312743Y-53229862D01*
X63337513Y-53234789D01*
G37*
G36*
X142193320Y-51384047D02*
G01*
X142253888Y-51396095D01*
X142310941Y-51419727D01*
X142367996Y-51443360D01*
X142470686Y-51511975D01*
X142558024Y-51599313D01*
X142626639Y-51702003D01*
X142673904Y-51816112D01*
X142697999Y-51937245D01*
X142697999Y-52060755D01*
X142673904Y-52181888D01*
X142626639Y-52295997D01*
X142558024Y-52398687D01*
X142470686Y-52486025D01*
X142367996Y-52554640D01*
X142310941Y-52578273D01*
X142253888Y-52601905D01*
X142193321Y-52613952D01*
X142132754Y-52626000D01*
X142009244Y-52626000D01*
X141948678Y-52613953D01*
X141888110Y-52601905D01*
X141831056Y-52578272D01*
X141774002Y-52554640D01*
X141671312Y-52486025D01*
X141583974Y-52398687D01*
X141515359Y-52295997D01*
X141468094Y-52181888D01*
X141443999Y-52060755D01*
X141443999Y-51937245D01*
X141468094Y-51816112D01*
X141515359Y-51702003D01*
X141583974Y-51599313D01*
X141671312Y-51511975D01*
X141774002Y-51443360D01*
X141831057Y-51419727D01*
X141888110Y-51396095D01*
X141948677Y-51384048D01*
X142009244Y-51372000D01*
X142132754Y-51372000D01*
X142193320Y-51384047D01*
G37*
G36*
X58121321Y-51384047D02*
G01*
X58181889Y-51396095D01*
X58238942Y-51419727D01*
X58295997Y-51443360D01*
X58398687Y-51511975D01*
X58486025Y-51599313D01*
X58554640Y-51702003D01*
X58601905Y-51816112D01*
X58626000Y-51937245D01*
X58626000Y-52060755D01*
X58601905Y-52181888D01*
X58554640Y-52295997D01*
X58486025Y-52398687D01*
X58398687Y-52486025D01*
X58295997Y-52554640D01*
X58238942Y-52578273D01*
X58181889Y-52601905D01*
X58121322Y-52613952D01*
X58060755Y-52626000D01*
X57937245Y-52626000D01*
X57876679Y-52613953D01*
X57816111Y-52601905D01*
X57759057Y-52578272D01*
X57702003Y-52554640D01*
X57599313Y-52486025D01*
X57511975Y-52398687D01*
X57443360Y-52295997D01*
X57396095Y-52181888D01*
X57372000Y-52060755D01*
X57372000Y-51937245D01*
X57396095Y-51816112D01*
X57443360Y-51702003D01*
X57511975Y-51599313D01*
X57599313Y-51511975D01*
X57702003Y-51443360D01*
X57759058Y-51419727D01*
X57816111Y-51396095D01*
X57876678Y-51384048D01*
X57937245Y-51372000D01*
X58060755Y-51372000D01*
X58121321Y-51384047D01*
G37*
M02*
