G04 #@! TF.GenerationSoftware,KiCad,Pcbnew,5.1.5+dfsg1-2build2*
G04 #@! TF.CreationDate,2020-10-08T13:47:44+02:00*
G04 #@! TF.ProjectId,Logic_panel,4c6f6769-635f-4706-916e-656c2e6b6963,rev?*
G04 #@! TF.SameCoordinates,Original*
G04 #@! TF.FileFunction,Soldermask,Bot*
G04 #@! TF.FilePolarity,Negative*
%FSLAX46Y46*%
G04 Gerber Fmt 4.6, Leading zero omitted, Abs format (unit mm)*
G04 Created by KiCad (PCBNEW 5.1.5+dfsg1-2build2) date 2020-10-08 13:47:44*
%MOMM*%
%LPD*%
G04 APERTURE LIST*
%ADD10C,0.350000*%
G04 APERTURE END LIST*
D10*
G36*
X55121322Y-136359174D02*
G01*
X55181890Y-136371222D01*
X55238943Y-136394854D01*
X55295998Y-136418487D01*
X55398688Y-136487102D01*
X55486026Y-136574440D01*
X55554641Y-136677130D01*
X55601906Y-136791239D01*
X55626001Y-136912372D01*
X55626001Y-137035882D01*
X55601906Y-137157015D01*
X55554641Y-137271124D01*
X55486026Y-137373814D01*
X55398688Y-137461152D01*
X55295998Y-137529767D01*
X55238943Y-137553400D01*
X55181890Y-137577032D01*
X55121323Y-137589079D01*
X55060756Y-137601127D01*
X54937246Y-137601127D01*
X54876679Y-137589079D01*
X54816112Y-137577032D01*
X54759059Y-137553400D01*
X54702004Y-137529767D01*
X54599314Y-137461152D01*
X54511976Y-137373814D01*
X54443361Y-137271124D01*
X54396096Y-137157015D01*
X54372001Y-137035882D01*
X54372001Y-136912372D01*
X54396096Y-136791239D01*
X54443361Y-136677130D01*
X54511976Y-136574440D01*
X54599314Y-136487102D01*
X54702004Y-136418487D01*
X54759059Y-136394854D01*
X54816112Y-136371222D01*
X54876680Y-136359174D01*
X54937246Y-136347127D01*
X55060756Y-136347127D01*
X55121322Y-136359174D01*
G37*
G36*
X77205089Y-131963816D02*
G01*
X77216571Y-131968572D01*
X77250769Y-131982737D01*
X77291873Y-132010202D01*
X77291875Y-132010204D01*
X77291878Y-132010206D01*
X77326839Y-132045167D01*
X77326841Y-132045170D01*
X77326843Y-132045172D01*
X77354308Y-132086276D01*
X77366028Y-132114572D01*
X77373229Y-132131956D01*
X77382875Y-132180449D01*
X77382875Y-132229891D01*
X77373229Y-132278384D01*
X77369559Y-132287243D01*
X77354308Y-132324064D01*
X77326843Y-132365168D01*
X77326841Y-132365170D01*
X77326839Y-132365173D01*
X77291878Y-132400134D01*
X77291875Y-132400136D01*
X77291873Y-132400138D01*
X77250769Y-132427603D01*
X77233316Y-132434832D01*
X77205089Y-132446524D01*
X77156596Y-132456170D01*
X77107154Y-132456170D01*
X77058661Y-132446524D01*
X77030434Y-132434832D01*
X77012981Y-132427603D01*
X76971877Y-132400138D01*
X76971875Y-132400136D01*
X76971872Y-132400134D01*
X76936911Y-132365173D01*
X76928269Y-132352240D01*
X76912731Y-132333306D01*
X76893789Y-132317761D01*
X76872178Y-132306209D01*
X76848729Y-132299096D01*
X76824343Y-132296694D01*
X76799957Y-132299096D01*
X76776508Y-132306208D01*
X76754897Y-132317759D01*
X76735955Y-132333304D01*
X76720410Y-132352246D01*
X76717233Y-132357001D01*
X76711455Y-132365648D01*
X76676494Y-132400609D01*
X76676491Y-132400611D01*
X76676489Y-132400613D01*
X76635385Y-132428078D01*
X76607271Y-132439723D01*
X76589705Y-132446999D01*
X76541212Y-132456645D01*
X76491770Y-132456645D01*
X76443277Y-132446999D01*
X76425711Y-132439723D01*
X76397597Y-132428078D01*
X76356493Y-132400613D01*
X76356491Y-132400611D01*
X76356488Y-132400609D01*
X76321527Y-132365648D01*
X76312885Y-132352715D01*
X76297347Y-132333781D01*
X76278405Y-132318236D01*
X76256794Y-132306684D01*
X76233345Y-132299571D01*
X76208959Y-132297169D01*
X76184573Y-132299571D01*
X76161124Y-132306683D01*
X76139513Y-132318234D01*
X76120571Y-132333779D01*
X76105028Y-132352718D01*
X76096070Y-132366124D01*
X76061109Y-132401085D01*
X76061106Y-132401087D01*
X76061104Y-132401089D01*
X76020000Y-132428554D01*
X75995331Y-132438772D01*
X75974320Y-132447475D01*
X75925827Y-132457121D01*
X75876385Y-132457121D01*
X75827892Y-132447475D01*
X75806881Y-132438772D01*
X75782212Y-132428554D01*
X75741108Y-132401089D01*
X75741106Y-132401087D01*
X75741103Y-132401085D01*
X75706142Y-132366124D01*
X75697503Y-132353194D01*
X75681958Y-132334255D01*
X75663016Y-132318710D01*
X75641405Y-132307159D01*
X75617956Y-132300046D01*
X75593570Y-132297645D01*
X75569184Y-132300047D01*
X75545735Y-132307161D01*
X75524124Y-132318712D01*
X75505183Y-132334258D01*
X75489640Y-132353197D01*
X75486463Y-132357951D01*
X75480685Y-132366599D01*
X75445724Y-132401560D01*
X75445721Y-132401562D01*
X75445719Y-132401564D01*
X75404615Y-132429029D01*
X75376501Y-132440674D01*
X75358935Y-132447950D01*
X75310442Y-132457596D01*
X75261000Y-132457596D01*
X75212507Y-132447950D01*
X75194941Y-132440674D01*
X75166827Y-132429029D01*
X75125723Y-132401564D01*
X75125721Y-132401562D01*
X75125718Y-132401560D01*
X75090757Y-132366599D01*
X75084979Y-132357951D01*
X75082120Y-132353673D01*
X75066575Y-132334732D01*
X75047633Y-132319186D01*
X75026022Y-132307636D01*
X75002573Y-132300523D01*
X74978187Y-132298121D01*
X74953801Y-132300523D01*
X74930352Y-132307636D01*
X74908741Y-132319188D01*
X74889800Y-132334733D01*
X74874256Y-132353673D01*
X74865301Y-132367075D01*
X74830340Y-132402036D01*
X74830337Y-132402038D01*
X74830335Y-132402040D01*
X74789231Y-132429505D01*
X74764562Y-132439723D01*
X74743551Y-132448426D01*
X74695058Y-132458072D01*
X74645616Y-132458072D01*
X74597123Y-132448426D01*
X74576112Y-132439723D01*
X74551443Y-132429505D01*
X74510339Y-132402040D01*
X74510337Y-132402038D01*
X74510334Y-132402036D01*
X74475373Y-132367075D01*
X74466734Y-132354145D01*
X74451189Y-132335206D01*
X74432247Y-132319661D01*
X74410636Y-132308110D01*
X74387187Y-132300997D01*
X74362801Y-132298596D01*
X74338415Y-132300998D01*
X74314966Y-132308112D01*
X74293355Y-132319663D01*
X74274414Y-132335209D01*
X74258872Y-132354147D01*
X74249916Y-132367550D01*
X74214955Y-132402511D01*
X74214952Y-132402513D01*
X74214950Y-132402515D01*
X74173846Y-132429980D01*
X74145732Y-132441625D01*
X74128166Y-132448901D01*
X74079673Y-132458547D01*
X74030231Y-132458547D01*
X73981738Y-132448901D01*
X73964172Y-132441625D01*
X73936058Y-132429980D01*
X73894954Y-132402515D01*
X73894952Y-132402513D01*
X73894949Y-132402511D01*
X73859988Y-132367550D01*
X73859035Y-132366124D01*
X73851351Y-132354624D01*
X73835806Y-132335683D01*
X73816864Y-132320137D01*
X73795253Y-132308587D01*
X73771804Y-132301474D01*
X73747418Y-132299072D01*
X73723032Y-132301474D01*
X73699583Y-132308587D01*
X73677972Y-132320139D01*
X73659031Y-132335684D01*
X73643487Y-132354624D01*
X73634532Y-132368026D01*
X73599571Y-132402987D01*
X73599568Y-132402989D01*
X73599566Y-132402991D01*
X73558462Y-132430456D01*
X73533793Y-132440674D01*
X73512782Y-132449377D01*
X73464289Y-132459023D01*
X73414847Y-132459023D01*
X73366354Y-132449377D01*
X73345343Y-132440674D01*
X73320674Y-132430456D01*
X73279570Y-132402991D01*
X73279568Y-132402989D01*
X73279565Y-132402987D01*
X73244604Y-132368026D01*
X73235965Y-132355096D01*
X73220420Y-132336157D01*
X73201478Y-132320612D01*
X73179867Y-132309061D01*
X73156418Y-132301948D01*
X73132032Y-132299547D01*
X73107646Y-132301949D01*
X73084197Y-132309063D01*
X73062586Y-132320614D01*
X73043645Y-132336160D01*
X73028103Y-132355098D01*
X73019147Y-132368501D01*
X72984186Y-132403462D01*
X72984183Y-132403464D01*
X72984181Y-132403466D01*
X72943077Y-132430931D01*
X72914963Y-132442576D01*
X72897397Y-132449852D01*
X72848904Y-132459498D01*
X72799462Y-132459498D01*
X72750969Y-132449852D01*
X72733403Y-132442576D01*
X72705289Y-132430931D01*
X72664185Y-132403466D01*
X72664183Y-132403464D01*
X72664180Y-132403462D01*
X72629219Y-132368501D01*
X72620577Y-132355568D01*
X72605039Y-132336634D01*
X72586097Y-132321089D01*
X72564486Y-132309537D01*
X72541037Y-132302424D01*
X72516651Y-132300022D01*
X72492265Y-132302424D01*
X72468816Y-132309536D01*
X72447205Y-132321087D01*
X72428263Y-132336632D01*
X72412720Y-132355571D01*
X72403762Y-132368977D01*
X72368801Y-132403938D01*
X72368798Y-132403940D01*
X72368796Y-132403942D01*
X72327692Y-132431407D01*
X72303023Y-132441625D01*
X72282012Y-132450328D01*
X72233519Y-132459974D01*
X72184077Y-132459974D01*
X72135584Y-132450328D01*
X72114573Y-132441625D01*
X72089904Y-132431407D01*
X72048800Y-132403942D01*
X72048798Y-132403940D01*
X72048795Y-132403938D01*
X72013834Y-132368977D01*
X72005192Y-132356044D01*
X71989654Y-132337110D01*
X71970712Y-132321565D01*
X71949101Y-132310013D01*
X71925652Y-132302900D01*
X71901266Y-132300498D01*
X71876880Y-132302900D01*
X71853431Y-132310012D01*
X71831820Y-132321563D01*
X71812878Y-132337108D01*
X71797333Y-132356050D01*
X71788378Y-132369452D01*
X71753417Y-132404413D01*
X71753414Y-132404415D01*
X71753412Y-132404417D01*
X71712308Y-132431882D01*
X71684194Y-132443527D01*
X71666628Y-132450803D01*
X71618135Y-132460449D01*
X71568693Y-132460449D01*
X71520200Y-132450803D01*
X71502634Y-132443527D01*
X71474520Y-132431882D01*
X71433416Y-132404417D01*
X71433414Y-132404415D01*
X71433411Y-132404413D01*
X71398450Y-132369452D01*
X71389808Y-132356519D01*
X71374270Y-132337585D01*
X71355328Y-132322040D01*
X71333717Y-132310488D01*
X71310268Y-132303375D01*
X71285882Y-132300973D01*
X71261496Y-132303375D01*
X71238047Y-132310487D01*
X71216436Y-132322038D01*
X71197494Y-132337583D01*
X71181951Y-132356522D01*
X71172993Y-132369928D01*
X71138032Y-132404889D01*
X71138029Y-132404891D01*
X71138027Y-132404893D01*
X71096923Y-132432358D01*
X71072254Y-132442576D01*
X71051243Y-132451279D01*
X71002750Y-132460925D01*
X70953308Y-132460925D01*
X70904815Y-132451279D01*
X70883804Y-132442576D01*
X70859135Y-132432358D01*
X70818031Y-132404893D01*
X70818029Y-132404891D01*
X70818026Y-132404889D01*
X70783065Y-132369928D01*
X70774423Y-132356995D01*
X70758885Y-132338061D01*
X70739943Y-132322516D01*
X70718332Y-132310964D01*
X70694883Y-132303851D01*
X70670497Y-132301449D01*
X70646111Y-132303851D01*
X70622662Y-132310963D01*
X70601051Y-132322514D01*
X70582109Y-132338059D01*
X70566564Y-132357001D01*
X70557609Y-132370403D01*
X70522648Y-132405364D01*
X70522645Y-132405366D01*
X70522643Y-132405368D01*
X70481539Y-132432833D01*
X70453425Y-132444478D01*
X70435859Y-132451754D01*
X70387366Y-132461400D01*
X70337924Y-132461400D01*
X70289431Y-132451754D01*
X70271865Y-132444478D01*
X70243751Y-132432833D01*
X70202647Y-132405368D01*
X70202645Y-132405366D01*
X70202642Y-132405364D01*
X70167681Y-132370403D01*
X70159039Y-132357470D01*
X70143501Y-132338536D01*
X70124559Y-132322991D01*
X70102948Y-132311439D01*
X70079499Y-132304326D01*
X70055113Y-132301924D01*
X70030727Y-132304326D01*
X70007278Y-132311438D01*
X69985667Y-132322989D01*
X69966725Y-132338534D01*
X69951182Y-132357473D01*
X69942224Y-132370879D01*
X69907263Y-132405840D01*
X69907260Y-132405842D01*
X69907258Y-132405844D01*
X69866154Y-132433309D01*
X69841485Y-132443527D01*
X69820474Y-132452230D01*
X69771981Y-132461876D01*
X69722539Y-132461876D01*
X69674046Y-132452230D01*
X69653035Y-132443527D01*
X69628366Y-132433309D01*
X69587262Y-132405844D01*
X69587260Y-132405842D01*
X69587257Y-132405840D01*
X69552296Y-132370879D01*
X69543657Y-132357949D01*
X69528112Y-132339010D01*
X69509170Y-132323465D01*
X69487559Y-132311914D01*
X69464110Y-132304801D01*
X69439724Y-132302400D01*
X69415338Y-132304802D01*
X69391889Y-132311916D01*
X69370278Y-132323467D01*
X69351337Y-132339013D01*
X69335795Y-132357951D01*
X69326839Y-132371354D01*
X69291878Y-132406315D01*
X69291875Y-132406317D01*
X69291873Y-132406319D01*
X69250769Y-132433784D01*
X69224951Y-132444478D01*
X69205089Y-132452705D01*
X69156596Y-132462351D01*
X69107154Y-132462351D01*
X69058661Y-132452705D01*
X69038799Y-132444478D01*
X69012981Y-132433784D01*
X68971877Y-132406319D01*
X68971875Y-132406317D01*
X68971872Y-132406315D01*
X68936911Y-132371354D01*
X68936909Y-132371351D01*
X68936907Y-132371349D01*
X68909442Y-132330245D01*
X68894249Y-132293565D01*
X68890521Y-132284565D01*
X68880875Y-132236072D01*
X68880875Y-132186630D01*
X68890521Y-132138137D01*
X68900272Y-132114597D01*
X68909442Y-132092457D01*
X68936907Y-132051353D01*
X68936909Y-132051351D01*
X68936911Y-132051348D01*
X68971872Y-132016387D01*
X68971875Y-132016385D01*
X68971877Y-132016383D01*
X69012981Y-131988918D01*
X69046747Y-131974932D01*
X69058661Y-131969997D01*
X69107154Y-131960351D01*
X69156596Y-131960351D01*
X69205089Y-131969997D01*
X69217003Y-131974932D01*
X69250769Y-131988918D01*
X69291873Y-132016383D01*
X69291875Y-132016385D01*
X69291878Y-132016387D01*
X69326839Y-132051348D01*
X69335477Y-132064276D01*
X69351023Y-132083217D01*
X69369965Y-132098762D01*
X69391576Y-132110313D01*
X69415025Y-132117426D01*
X69439411Y-132119827D01*
X69463797Y-132117425D01*
X69487246Y-132110311D01*
X69508857Y-132098760D01*
X69527798Y-132083214D01*
X69543341Y-132064275D01*
X69552294Y-132050876D01*
X69552296Y-132050873D01*
X69587257Y-132015912D01*
X69587260Y-132015910D01*
X69587262Y-132015908D01*
X69628366Y-131988443D01*
X69672897Y-131969998D01*
X69674046Y-131969522D01*
X69722539Y-131959876D01*
X69771981Y-131959876D01*
X69820474Y-131969522D01*
X69821623Y-131969998D01*
X69866154Y-131988443D01*
X69907258Y-132015908D01*
X69907260Y-132015910D01*
X69907263Y-132015912D01*
X69942224Y-132050873D01*
X69950866Y-132063806D01*
X69966404Y-132082740D01*
X69985346Y-132098285D01*
X70006957Y-132109837D01*
X70030406Y-132116950D01*
X70054792Y-132119352D01*
X70079178Y-132116950D01*
X70102627Y-132109838D01*
X70124238Y-132098287D01*
X70143180Y-132082742D01*
X70158725Y-132063801D01*
X70158966Y-132063440D01*
X70167681Y-132050397D01*
X70202642Y-132015436D01*
X70202645Y-132015434D01*
X70202647Y-132015432D01*
X70243751Y-131987967D01*
X70288048Y-131969619D01*
X70289431Y-131969046D01*
X70337924Y-131959400D01*
X70387366Y-131959400D01*
X70435859Y-131969046D01*
X70437242Y-131969619D01*
X70481539Y-131987967D01*
X70522643Y-132015432D01*
X70522645Y-132015434D01*
X70522648Y-132015436D01*
X70557609Y-132050397D01*
X70566251Y-132063330D01*
X70581789Y-132082264D01*
X70600731Y-132097809D01*
X70622342Y-132109361D01*
X70645791Y-132116474D01*
X70670177Y-132118876D01*
X70694563Y-132116474D01*
X70718012Y-132109362D01*
X70739623Y-132097811D01*
X70758565Y-132082266D01*
X70774110Y-132063324D01*
X70783063Y-132049925D01*
X70783065Y-132049922D01*
X70818026Y-132014961D01*
X70818029Y-132014959D01*
X70818031Y-132014957D01*
X70859135Y-131987492D01*
X70891435Y-131974113D01*
X70904815Y-131968571D01*
X70953308Y-131958925D01*
X71002750Y-131958925D01*
X71051243Y-131968571D01*
X71064623Y-131974113D01*
X71096923Y-131987492D01*
X71138027Y-132014957D01*
X71138029Y-132014959D01*
X71138032Y-132014961D01*
X71172993Y-132049922D01*
X71181635Y-132062855D01*
X71197173Y-132081789D01*
X71216115Y-132097334D01*
X71237726Y-132108886D01*
X71261175Y-132115999D01*
X71285561Y-132118401D01*
X71309947Y-132115999D01*
X71333396Y-132108887D01*
X71355007Y-132097336D01*
X71373949Y-132081791D01*
X71389494Y-132062850D01*
X71389700Y-132062541D01*
X71398450Y-132049446D01*
X71433411Y-132014485D01*
X71433414Y-132014483D01*
X71433416Y-132014481D01*
X71474520Y-131987016D01*
X71518817Y-131968668D01*
X71520200Y-131968095D01*
X71568693Y-131958449D01*
X71618135Y-131958449D01*
X71666628Y-131968095D01*
X71668011Y-131968668D01*
X71712308Y-131987016D01*
X71753412Y-132014481D01*
X71753414Y-132014483D01*
X71753417Y-132014485D01*
X71788378Y-132049446D01*
X71797020Y-132062379D01*
X71812558Y-132081313D01*
X71831500Y-132096858D01*
X71853111Y-132108410D01*
X71876560Y-132115523D01*
X71900946Y-132117925D01*
X71925332Y-132115523D01*
X71948781Y-132108411D01*
X71970392Y-132096860D01*
X71989334Y-132081315D01*
X72004879Y-132062373D01*
X72013832Y-132048974D01*
X72013834Y-132048971D01*
X72048795Y-132014010D01*
X72048798Y-132014008D01*
X72048800Y-132014006D01*
X72089904Y-131986541D01*
X72122204Y-131973162D01*
X72135584Y-131967620D01*
X72184077Y-131957974D01*
X72233519Y-131957974D01*
X72282012Y-131967620D01*
X72295392Y-131973162D01*
X72327692Y-131986541D01*
X72368796Y-132014006D01*
X72368798Y-132014008D01*
X72368801Y-132014010D01*
X72403762Y-132048971D01*
X72412404Y-132061904D01*
X72427942Y-132080838D01*
X72446884Y-132096383D01*
X72468495Y-132107935D01*
X72491944Y-132115048D01*
X72516330Y-132117450D01*
X72540716Y-132115048D01*
X72564165Y-132107936D01*
X72585776Y-132096385D01*
X72604718Y-132080840D01*
X72620263Y-132061899D01*
X72620469Y-132061590D01*
X72629219Y-132048495D01*
X72664180Y-132013534D01*
X72664183Y-132013532D01*
X72664185Y-132013530D01*
X72705289Y-131986065D01*
X72744079Y-131969998D01*
X72750969Y-131967144D01*
X72799462Y-131957498D01*
X72848904Y-131957498D01*
X72897397Y-131967144D01*
X72904287Y-131969998D01*
X72943077Y-131986065D01*
X72984181Y-132013530D01*
X72984183Y-132013532D01*
X72984186Y-132013534D01*
X73019147Y-132048495D01*
X73027785Y-132061423D01*
X73043331Y-132080364D01*
X73062273Y-132095909D01*
X73083884Y-132107460D01*
X73107333Y-132114573D01*
X73131719Y-132116974D01*
X73156105Y-132114572D01*
X73179554Y-132107458D01*
X73201165Y-132095907D01*
X73220106Y-132080361D01*
X73235649Y-132061422D01*
X73244602Y-132048023D01*
X73244604Y-132048020D01*
X73279565Y-132013059D01*
X73279568Y-132013057D01*
X73279570Y-132013055D01*
X73320674Y-131985590D01*
X73352974Y-131972211D01*
X73366354Y-131966669D01*
X73414847Y-131957023D01*
X73464289Y-131957023D01*
X73512782Y-131966669D01*
X73526162Y-131972211D01*
X73558462Y-131985590D01*
X73599566Y-132013055D01*
X73599568Y-132013057D01*
X73599571Y-132013059D01*
X73634532Y-132048020D01*
X73634534Y-132048023D01*
X73643169Y-132060946D01*
X73658714Y-132079887D01*
X73677656Y-132095433D01*
X73699267Y-132106983D01*
X73722716Y-132114096D01*
X73747102Y-132116498D01*
X73771488Y-132114096D01*
X73794937Y-132106983D01*
X73816548Y-132095431D01*
X73835489Y-132079886D01*
X73851033Y-132060946D01*
X73858717Y-132049446D01*
X73859988Y-132047544D01*
X73894949Y-132012583D01*
X73894952Y-132012581D01*
X73894954Y-132012579D01*
X73936058Y-131985114D01*
X73972552Y-131969998D01*
X73981738Y-131966193D01*
X74030231Y-131956547D01*
X74079673Y-131956547D01*
X74128166Y-131966193D01*
X74137352Y-131969998D01*
X74173846Y-131985114D01*
X74214950Y-132012579D01*
X74214952Y-132012581D01*
X74214955Y-132012583D01*
X74249916Y-132047544D01*
X74258554Y-132060472D01*
X74274100Y-132079413D01*
X74293042Y-132094958D01*
X74314653Y-132106509D01*
X74338102Y-132113622D01*
X74362488Y-132116023D01*
X74386874Y-132113621D01*
X74410323Y-132106507D01*
X74431934Y-132094956D01*
X74450875Y-132079410D01*
X74466418Y-132060471D01*
X74475371Y-132047072D01*
X74475373Y-132047069D01*
X74510334Y-132012108D01*
X74510337Y-132012106D01*
X74510339Y-132012104D01*
X74551443Y-131984639D01*
X74585409Y-131970570D01*
X74597123Y-131965718D01*
X74645616Y-131956072D01*
X74695058Y-131956072D01*
X74743551Y-131965718D01*
X74755265Y-131970570D01*
X74789231Y-131984639D01*
X74830335Y-132012104D01*
X74830337Y-132012106D01*
X74830340Y-132012108D01*
X74865301Y-132047069D01*
X74865303Y-132047072D01*
X74873938Y-132059995D01*
X74889483Y-132078936D01*
X74908425Y-132094482D01*
X74930036Y-132106032D01*
X74953485Y-132113145D01*
X74977871Y-132115547D01*
X75002257Y-132113145D01*
X75025706Y-132106032D01*
X75047317Y-132094480D01*
X75066258Y-132078935D01*
X75081802Y-132059995D01*
X75089486Y-132048495D01*
X75090757Y-132046593D01*
X75125718Y-132011632D01*
X75125721Y-132011630D01*
X75125723Y-132011628D01*
X75166827Y-131984163D01*
X75201025Y-131969998D01*
X75212507Y-131965242D01*
X75261000Y-131955596D01*
X75310442Y-131955596D01*
X75358935Y-131965242D01*
X75370417Y-131969998D01*
X75404615Y-131984163D01*
X75445719Y-132011628D01*
X75445721Y-132011630D01*
X75445724Y-132011632D01*
X75480685Y-132046593D01*
X75489323Y-132059521D01*
X75504869Y-132078462D01*
X75523811Y-132094007D01*
X75545422Y-132105558D01*
X75568871Y-132112671D01*
X75593257Y-132115072D01*
X75617643Y-132112670D01*
X75641092Y-132105556D01*
X75662703Y-132094005D01*
X75681644Y-132078459D01*
X75697187Y-132059520D01*
X75706140Y-132046121D01*
X75706142Y-132046118D01*
X75741103Y-132011157D01*
X75741106Y-132011155D01*
X75741108Y-132011153D01*
X75782212Y-131983688D01*
X75816410Y-131969523D01*
X75827892Y-131964767D01*
X75876385Y-131955121D01*
X75925827Y-131955121D01*
X75974320Y-131964767D01*
X75985802Y-131969523D01*
X76020000Y-131983688D01*
X76061104Y-132011153D01*
X76061106Y-132011155D01*
X76061109Y-132011157D01*
X76096070Y-132046118D01*
X76104712Y-132059051D01*
X76120250Y-132077985D01*
X76139192Y-132093530D01*
X76160803Y-132105082D01*
X76184252Y-132112195D01*
X76208638Y-132114597D01*
X76233024Y-132112195D01*
X76256473Y-132105083D01*
X76278084Y-132093532D01*
X76297026Y-132077987D01*
X76312571Y-132059046D01*
X76312777Y-132058737D01*
X76321527Y-132045642D01*
X76356488Y-132010681D01*
X76356491Y-132010679D01*
X76356493Y-132010677D01*
X76397597Y-131983212D01*
X76431795Y-131969047D01*
X76443277Y-131964291D01*
X76491770Y-131954645D01*
X76541212Y-131954645D01*
X76589705Y-131964291D01*
X76601187Y-131969047D01*
X76635385Y-131983212D01*
X76676489Y-132010677D01*
X76676491Y-132010679D01*
X76676494Y-132010681D01*
X76711455Y-132045642D01*
X76720097Y-132058575D01*
X76735635Y-132077509D01*
X76754577Y-132093054D01*
X76776188Y-132104606D01*
X76799637Y-132111719D01*
X76824023Y-132114121D01*
X76848409Y-132111719D01*
X76871858Y-132104607D01*
X76893469Y-132093056D01*
X76912411Y-132077511D01*
X76927956Y-132058569D01*
X76936909Y-132045170D01*
X76936911Y-132045167D01*
X76971872Y-132010206D01*
X76971875Y-132010204D01*
X76971877Y-132010202D01*
X77012981Y-131982737D01*
X77047179Y-131968572D01*
X77058661Y-131963816D01*
X77107154Y-131954170D01*
X77156596Y-131954170D01*
X77205089Y-131963816D01*
G37*
G36*
X100337159Y-131945943D02*
G01*
X100348641Y-131950699D01*
X100382839Y-131964864D01*
X100423943Y-131992329D01*
X100423945Y-131992331D01*
X100423948Y-131992333D01*
X100458909Y-132027294D01*
X100458911Y-132027297D01*
X100458913Y-132027299D01*
X100486378Y-132068403D01*
X100497967Y-132096383D01*
X100505299Y-132114083D01*
X100514945Y-132162576D01*
X100514945Y-132212018D01*
X100505299Y-132260511D01*
X100501176Y-132270464D01*
X100486378Y-132306191D01*
X100458913Y-132347295D01*
X100458911Y-132347297D01*
X100458909Y-132347300D01*
X100423948Y-132382261D01*
X100423945Y-132382263D01*
X100423943Y-132382265D01*
X100382839Y-132409730D01*
X100354725Y-132421375D01*
X100337159Y-132428651D01*
X100288666Y-132438297D01*
X100239224Y-132438297D01*
X100190731Y-132428651D01*
X100173165Y-132421375D01*
X100145051Y-132409730D01*
X100103947Y-132382265D01*
X100103945Y-132382263D01*
X100103942Y-132382261D01*
X100068981Y-132347300D01*
X100060339Y-132334367D01*
X100044801Y-132315433D01*
X100025859Y-132299888D01*
X100004248Y-132288336D01*
X99980799Y-132281223D01*
X99956413Y-132278821D01*
X99932027Y-132281223D01*
X99908578Y-132288335D01*
X99886967Y-132299886D01*
X99868025Y-132315431D01*
X99852480Y-132334373D01*
X99849382Y-132339010D01*
X99843525Y-132347775D01*
X99808564Y-132382736D01*
X99808561Y-132382738D01*
X99808559Y-132382740D01*
X99767455Y-132410205D01*
X99739338Y-132421851D01*
X99721775Y-132429126D01*
X99673282Y-132438772D01*
X99623840Y-132438772D01*
X99575347Y-132429126D01*
X99557784Y-132421851D01*
X99529667Y-132410205D01*
X99488563Y-132382740D01*
X99488561Y-132382738D01*
X99488558Y-132382736D01*
X99453597Y-132347775D01*
X99444955Y-132334842D01*
X99429417Y-132315908D01*
X99410475Y-132300363D01*
X99388864Y-132288811D01*
X99365415Y-132281698D01*
X99341029Y-132279296D01*
X99316643Y-132281698D01*
X99293194Y-132288810D01*
X99271583Y-132300361D01*
X99252641Y-132315906D01*
X99237098Y-132334845D01*
X99228140Y-132348251D01*
X99193179Y-132383212D01*
X99193176Y-132383214D01*
X99193174Y-132383216D01*
X99152070Y-132410681D01*
X99123956Y-132422326D01*
X99106390Y-132429602D01*
X99057897Y-132439248D01*
X99008455Y-132439248D01*
X98959962Y-132429602D01*
X98942396Y-132422326D01*
X98914282Y-132410681D01*
X98873178Y-132383216D01*
X98873176Y-132383214D01*
X98873173Y-132383212D01*
X98838212Y-132348251D01*
X98829573Y-132335321D01*
X98814028Y-132316382D01*
X98795086Y-132300837D01*
X98773475Y-132289286D01*
X98750026Y-132282173D01*
X98725640Y-132279772D01*
X98701254Y-132282174D01*
X98677805Y-132289288D01*
X98656194Y-132300839D01*
X98637253Y-132316385D01*
X98621710Y-132335324D01*
X98618533Y-132340078D01*
X98612755Y-132348726D01*
X98577794Y-132383687D01*
X98577791Y-132383689D01*
X98577789Y-132383691D01*
X98536685Y-132411156D01*
X98508571Y-132422801D01*
X98491005Y-132430077D01*
X98442512Y-132439723D01*
X98393070Y-132439723D01*
X98344577Y-132430077D01*
X98327011Y-132422801D01*
X98298897Y-132411156D01*
X98257793Y-132383691D01*
X98257791Y-132383689D01*
X98257788Y-132383687D01*
X98222827Y-132348726D01*
X98217049Y-132340078D01*
X98214190Y-132335800D01*
X98198645Y-132316859D01*
X98179703Y-132301313D01*
X98158092Y-132289763D01*
X98134643Y-132282650D01*
X98110257Y-132280248D01*
X98085871Y-132282650D01*
X98062422Y-132289763D01*
X98040811Y-132301315D01*
X98021870Y-132316860D01*
X98006326Y-132335800D01*
X97997371Y-132349202D01*
X97962410Y-132384163D01*
X97962407Y-132384165D01*
X97962405Y-132384167D01*
X97921301Y-132411632D01*
X97895483Y-132422326D01*
X97875621Y-132430553D01*
X97827128Y-132440199D01*
X97777686Y-132440199D01*
X97729193Y-132430553D01*
X97709331Y-132422326D01*
X97683513Y-132411632D01*
X97642409Y-132384167D01*
X97642407Y-132384165D01*
X97642404Y-132384163D01*
X97607443Y-132349202D01*
X97598804Y-132336272D01*
X97583259Y-132317333D01*
X97564317Y-132301788D01*
X97542706Y-132290237D01*
X97519257Y-132283124D01*
X97494871Y-132280723D01*
X97470485Y-132283125D01*
X97447036Y-132290239D01*
X97425425Y-132301790D01*
X97406484Y-132317336D01*
X97390942Y-132336274D01*
X97381986Y-132349677D01*
X97347025Y-132384638D01*
X97347022Y-132384640D01*
X97347020Y-132384642D01*
X97305916Y-132412107D01*
X97277802Y-132423752D01*
X97260236Y-132431028D01*
X97211743Y-132440674D01*
X97162301Y-132440674D01*
X97113808Y-132431028D01*
X97096242Y-132423752D01*
X97068128Y-132412107D01*
X97027024Y-132384642D01*
X97027022Y-132384640D01*
X97027019Y-132384638D01*
X96992058Y-132349677D01*
X96991105Y-132348251D01*
X96983421Y-132336751D01*
X96967876Y-132317810D01*
X96948934Y-132302264D01*
X96927323Y-132290714D01*
X96903874Y-132283601D01*
X96879488Y-132281199D01*
X96855102Y-132283601D01*
X96831653Y-132290714D01*
X96810042Y-132302266D01*
X96791101Y-132317811D01*
X96775557Y-132336751D01*
X96766602Y-132350153D01*
X96731641Y-132385114D01*
X96731638Y-132385116D01*
X96731636Y-132385118D01*
X96690532Y-132412583D01*
X96665863Y-132422801D01*
X96644852Y-132431504D01*
X96596359Y-132441150D01*
X96546917Y-132441150D01*
X96498424Y-132431504D01*
X96477413Y-132422801D01*
X96452744Y-132412583D01*
X96411640Y-132385118D01*
X96411638Y-132385116D01*
X96411635Y-132385114D01*
X96376674Y-132350153D01*
X96368035Y-132337223D01*
X96352490Y-132318284D01*
X96333548Y-132302739D01*
X96311937Y-132291188D01*
X96288488Y-132284075D01*
X96264102Y-132281674D01*
X96239716Y-132284076D01*
X96216267Y-132291190D01*
X96194656Y-132302741D01*
X96175715Y-132318287D01*
X96160173Y-132337225D01*
X96151217Y-132350628D01*
X96116256Y-132385589D01*
X96116253Y-132385591D01*
X96116251Y-132385593D01*
X96075147Y-132413058D01*
X96047033Y-132424703D01*
X96029467Y-132431979D01*
X95980974Y-132441625D01*
X95931532Y-132441625D01*
X95883039Y-132431979D01*
X95865473Y-132424703D01*
X95837359Y-132413058D01*
X95796255Y-132385593D01*
X95796253Y-132385591D01*
X95796250Y-132385589D01*
X95761289Y-132350628D01*
X95752647Y-132337695D01*
X95737109Y-132318761D01*
X95718167Y-132303216D01*
X95696556Y-132291664D01*
X95673107Y-132284551D01*
X95648721Y-132282149D01*
X95624335Y-132284551D01*
X95600886Y-132291663D01*
X95579275Y-132303214D01*
X95560333Y-132318759D01*
X95544790Y-132337698D01*
X95535832Y-132351104D01*
X95500871Y-132386065D01*
X95500868Y-132386067D01*
X95500866Y-132386069D01*
X95459762Y-132413534D01*
X95435093Y-132423752D01*
X95414082Y-132432455D01*
X95365589Y-132442101D01*
X95316147Y-132442101D01*
X95267654Y-132432455D01*
X95246643Y-132423752D01*
X95221974Y-132413534D01*
X95180870Y-132386069D01*
X95180868Y-132386067D01*
X95180865Y-132386065D01*
X95145904Y-132351104D01*
X95137262Y-132338171D01*
X95121724Y-132319237D01*
X95102782Y-132303692D01*
X95081171Y-132292140D01*
X95057722Y-132285027D01*
X95033336Y-132282625D01*
X95008950Y-132285027D01*
X94985501Y-132292139D01*
X94963890Y-132303690D01*
X94944948Y-132319235D01*
X94929403Y-132338177D01*
X94920448Y-132351579D01*
X94885487Y-132386540D01*
X94885484Y-132386542D01*
X94885482Y-132386544D01*
X94844378Y-132414009D01*
X94816264Y-132425654D01*
X94798698Y-132432930D01*
X94750205Y-132442576D01*
X94700763Y-132442576D01*
X94652270Y-132432930D01*
X94634704Y-132425654D01*
X94606590Y-132414009D01*
X94565486Y-132386544D01*
X94565484Y-132386542D01*
X94565481Y-132386540D01*
X94530520Y-132351579D01*
X94521878Y-132338646D01*
X94506340Y-132319712D01*
X94487398Y-132304167D01*
X94465787Y-132292615D01*
X94442338Y-132285502D01*
X94417952Y-132283100D01*
X94393566Y-132285502D01*
X94370117Y-132292614D01*
X94348506Y-132304165D01*
X94329564Y-132319710D01*
X94314021Y-132338649D01*
X94305063Y-132352055D01*
X94270102Y-132387016D01*
X94270099Y-132387018D01*
X94270097Y-132387020D01*
X94228993Y-132414485D01*
X94204324Y-132424703D01*
X94183313Y-132433406D01*
X94134820Y-132443052D01*
X94085378Y-132443052D01*
X94036885Y-132433406D01*
X94015874Y-132424703D01*
X93991205Y-132414485D01*
X93950101Y-132387020D01*
X93950099Y-132387018D01*
X93950096Y-132387016D01*
X93915135Y-132352055D01*
X93906493Y-132339122D01*
X93890955Y-132320188D01*
X93872013Y-132304643D01*
X93850402Y-132293091D01*
X93826953Y-132285978D01*
X93802567Y-132283576D01*
X93778181Y-132285978D01*
X93754732Y-132293090D01*
X93733121Y-132304641D01*
X93714179Y-132320186D01*
X93698634Y-132339128D01*
X93689679Y-132352530D01*
X93654718Y-132387491D01*
X93654715Y-132387493D01*
X93654713Y-132387495D01*
X93613609Y-132414960D01*
X93585495Y-132426605D01*
X93567929Y-132433881D01*
X93519436Y-132443527D01*
X93469994Y-132443527D01*
X93421501Y-132433881D01*
X93403935Y-132426605D01*
X93375821Y-132414960D01*
X93334717Y-132387495D01*
X93334715Y-132387493D01*
X93334712Y-132387491D01*
X93299751Y-132352530D01*
X93291109Y-132339597D01*
X93275571Y-132320663D01*
X93256629Y-132305118D01*
X93235018Y-132293566D01*
X93211569Y-132286453D01*
X93187183Y-132284051D01*
X93162797Y-132286453D01*
X93139348Y-132293565D01*
X93117737Y-132305116D01*
X93098795Y-132320661D01*
X93083252Y-132339600D01*
X93074294Y-132353006D01*
X93039333Y-132387967D01*
X93039330Y-132387969D01*
X93039328Y-132387971D01*
X92998224Y-132415436D01*
X92967703Y-132428078D01*
X92952544Y-132434357D01*
X92904051Y-132444003D01*
X92854609Y-132444003D01*
X92806116Y-132434357D01*
X92790957Y-132428078D01*
X92760436Y-132415436D01*
X92719332Y-132387971D01*
X92719330Y-132387969D01*
X92719327Y-132387967D01*
X92684366Y-132353006D01*
X92675727Y-132340076D01*
X92660182Y-132321137D01*
X92641240Y-132305592D01*
X92619629Y-132294041D01*
X92596180Y-132286928D01*
X92571794Y-132284527D01*
X92547408Y-132286929D01*
X92523959Y-132294043D01*
X92502348Y-132305594D01*
X92483407Y-132321140D01*
X92467865Y-132340078D01*
X92458909Y-132353481D01*
X92423948Y-132388442D01*
X92423945Y-132388444D01*
X92423943Y-132388446D01*
X92382839Y-132415911D01*
X92352315Y-132428554D01*
X92337159Y-132434832D01*
X92288666Y-132444478D01*
X92239224Y-132444478D01*
X92190731Y-132434832D01*
X92175575Y-132428554D01*
X92145051Y-132415911D01*
X92103947Y-132388446D01*
X92103945Y-132388444D01*
X92103942Y-132388442D01*
X92068981Y-132353481D01*
X92068979Y-132353478D01*
X92068977Y-132353476D01*
X92041512Y-132312372D01*
X92026122Y-132275217D01*
X92022591Y-132266692D01*
X92012945Y-132218199D01*
X92012945Y-132168757D01*
X92022591Y-132120264D01*
X92032342Y-132096724D01*
X92041512Y-132074584D01*
X92068977Y-132033480D01*
X92068979Y-132033478D01*
X92068981Y-132033475D01*
X92103942Y-131998514D01*
X92103945Y-131998512D01*
X92103947Y-131998510D01*
X92145051Y-131971045D01*
X92190729Y-131952125D01*
X92190728Y-131952125D01*
X92190731Y-131952124D01*
X92239224Y-131942478D01*
X92288666Y-131942478D01*
X92337159Y-131952124D01*
X92337162Y-131952125D01*
X92337161Y-131952125D01*
X92382839Y-131971045D01*
X92423943Y-131998510D01*
X92423945Y-131998512D01*
X92423948Y-131998514D01*
X92458909Y-132033475D01*
X92467547Y-132046403D01*
X92483093Y-132065344D01*
X92502035Y-132080889D01*
X92523646Y-132092440D01*
X92547095Y-132099553D01*
X92571481Y-132101954D01*
X92595867Y-132099552D01*
X92619316Y-132092438D01*
X92640927Y-132080887D01*
X92659868Y-132065341D01*
X92675411Y-132046402D01*
X92684364Y-132033003D01*
X92684366Y-132033000D01*
X92719327Y-131998039D01*
X92719330Y-131998037D01*
X92719332Y-131998035D01*
X92760436Y-131970570D01*
X92804967Y-131952125D01*
X92806116Y-131951649D01*
X92854609Y-131942003D01*
X92904051Y-131942003D01*
X92952544Y-131951649D01*
X92953693Y-131952125D01*
X92998224Y-131970570D01*
X93039328Y-131998035D01*
X93039330Y-131998037D01*
X93039333Y-131998039D01*
X93074294Y-132033000D01*
X93082936Y-132045933D01*
X93098474Y-132064867D01*
X93117416Y-132080412D01*
X93139027Y-132091964D01*
X93162476Y-132099077D01*
X93186862Y-132101479D01*
X93211248Y-132099077D01*
X93234697Y-132091965D01*
X93256308Y-132080414D01*
X93275250Y-132064869D01*
X93290795Y-132045928D01*
X93291036Y-132045567D01*
X93299751Y-132032524D01*
X93334712Y-131997563D01*
X93334715Y-131997561D01*
X93334717Y-131997559D01*
X93375821Y-131970094D01*
X93420118Y-131951746D01*
X93421501Y-131951173D01*
X93469994Y-131941527D01*
X93519436Y-131941527D01*
X93567929Y-131951173D01*
X93569312Y-131951746D01*
X93613609Y-131970094D01*
X93654713Y-131997559D01*
X93654715Y-131997561D01*
X93654718Y-131997563D01*
X93689679Y-132032524D01*
X93698321Y-132045457D01*
X93713859Y-132064391D01*
X93732801Y-132079936D01*
X93754412Y-132091488D01*
X93777861Y-132098601D01*
X93802247Y-132101003D01*
X93826633Y-132098601D01*
X93850082Y-132091489D01*
X93871693Y-132079938D01*
X93890635Y-132064393D01*
X93906180Y-132045451D01*
X93915133Y-132032052D01*
X93915135Y-132032049D01*
X93950096Y-131997088D01*
X93950099Y-131997086D01*
X93950101Y-131997084D01*
X93991205Y-131969619D01*
X94028503Y-131954170D01*
X94036885Y-131950698D01*
X94085378Y-131941052D01*
X94134820Y-131941052D01*
X94183313Y-131950698D01*
X94191695Y-131954170D01*
X94228993Y-131969619D01*
X94270097Y-131997084D01*
X94270099Y-131997086D01*
X94270102Y-131997088D01*
X94305063Y-132032049D01*
X94313705Y-132044982D01*
X94329243Y-132063916D01*
X94348185Y-132079461D01*
X94369796Y-132091013D01*
X94393245Y-132098126D01*
X94417631Y-132100528D01*
X94442017Y-132098126D01*
X94465466Y-132091014D01*
X94487077Y-132079463D01*
X94506019Y-132063918D01*
X94521564Y-132044977D01*
X94521806Y-132044615D01*
X94530520Y-132031573D01*
X94565481Y-131996612D01*
X94565484Y-131996610D01*
X94565486Y-131996608D01*
X94606590Y-131969143D01*
X94650887Y-131950795D01*
X94652270Y-131950222D01*
X94700763Y-131940576D01*
X94750205Y-131940576D01*
X94798698Y-131950222D01*
X94800081Y-131950795D01*
X94844378Y-131969143D01*
X94885482Y-131996608D01*
X94885484Y-131996610D01*
X94885487Y-131996612D01*
X94920448Y-132031573D01*
X94929090Y-132044506D01*
X94944628Y-132063440D01*
X94963570Y-132078985D01*
X94985181Y-132090537D01*
X95008630Y-132097650D01*
X95033016Y-132100052D01*
X95057402Y-132097650D01*
X95080851Y-132090538D01*
X95102462Y-132078987D01*
X95121404Y-132063442D01*
X95136949Y-132044500D01*
X95145902Y-132031101D01*
X95145904Y-132031098D01*
X95180865Y-131996137D01*
X95180868Y-131996135D01*
X95180870Y-131996133D01*
X95221974Y-131968668D01*
X95256976Y-131954170D01*
X95267654Y-131949747D01*
X95316147Y-131940101D01*
X95365589Y-131940101D01*
X95414082Y-131949747D01*
X95424760Y-131954170D01*
X95459762Y-131968668D01*
X95500866Y-131996133D01*
X95500868Y-131996135D01*
X95500871Y-131996137D01*
X95535832Y-132031098D01*
X95544474Y-132044031D01*
X95560012Y-132062965D01*
X95578954Y-132078510D01*
X95600565Y-132090062D01*
X95624014Y-132097175D01*
X95648400Y-132099577D01*
X95672786Y-132097175D01*
X95696235Y-132090063D01*
X95717846Y-132078512D01*
X95736788Y-132062967D01*
X95752333Y-132044026D01*
X95752651Y-132043550D01*
X95761289Y-132030622D01*
X95796250Y-131995661D01*
X95796253Y-131995659D01*
X95796255Y-131995657D01*
X95837359Y-131968192D01*
X95876149Y-131952125D01*
X95883039Y-131949271D01*
X95931532Y-131939625D01*
X95980974Y-131939625D01*
X96029467Y-131949271D01*
X96036357Y-131952125D01*
X96075147Y-131968192D01*
X96116251Y-131995657D01*
X96116253Y-131995659D01*
X96116256Y-131995661D01*
X96151217Y-132030622D01*
X96159855Y-132043550D01*
X96175401Y-132062491D01*
X96194343Y-132078036D01*
X96215954Y-132089587D01*
X96239403Y-132096700D01*
X96263789Y-132099101D01*
X96288175Y-132096699D01*
X96311624Y-132089585D01*
X96333235Y-132078034D01*
X96352176Y-132062488D01*
X96367719Y-132043549D01*
X96376672Y-132030150D01*
X96376674Y-132030147D01*
X96411635Y-131995186D01*
X96411638Y-131995184D01*
X96411640Y-131995182D01*
X96452744Y-131967717D01*
X96485450Y-131954170D01*
X96498424Y-131948796D01*
X96546917Y-131939150D01*
X96596359Y-131939150D01*
X96644852Y-131948796D01*
X96657826Y-131954170D01*
X96690532Y-131967717D01*
X96731636Y-131995182D01*
X96731638Y-131995184D01*
X96731641Y-131995186D01*
X96766602Y-132030147D01*
X96766604Y-132030150D01*
X96775239Y-132043073D01*
X96790784Y-132062014D01*
X96809726Y-132077560D01*
X96831337Y-132089110D01*
X96854786Y-132096223D01*
X96879172Y-132098625D01*
X96903558Y-132096223D01*
X96927007Y-132089110D01*
X96948618Y-132077558D01*
X96967559Y-132062013D01*
X96983103Y-132043073D01*
X96990787Y-132031573D01*
X96992058Y-132029671D01*
X97027019Y-131994710D01*
X97027022Y-131994708D01*
X97027024Y-131994706D01*
X97068128Y-131967241D01*
X97104622Y-131952125D01*
X97113808Y-131948320D01*
X97162301Y-131938674D01*
X97211743Y-131938674D01*
X97260236Y-131948320D01*
X97269422Y-131952125D01*
X97305916Y-131967241D01*
X97347020Y-131994706D01*
X97347022Y-131994708D01*
X97347025Y-131994710D01*
X97381986Y-132029671D01*
X97390624Y-132042599D01*
X97406170Y-132061540D01*
X97425112Y-132077085D01*
X97446723Y-132088636D01*
X97470172Y-132095749D01*
X97494558Y-132098150D01*
X97518944Y-132095748D01*
X97542393Y-132088634D01*
X97564004Y-132077083D01*
X97582945Y-132061537D01*
X97598488Y-132042598D01*
X97607441Y-132029199D01*
X97607443Y-132029196D01*
X97642404Y-131994235D01*
X97642407Y-131994233D01*
X97642409Y-131994231D01*
X97683513Y-131966766D01*
X97717479Y-131952697D01*
X97729193Y-131947845D01*
X97777686Y-131938199D01*
X97827128Y-131938199D01*
X97875621Y-131947845D01*
X97887335Y-131952697D01*
X97921301Y-131966766D01*
X97962405Y-131994231D01*
X97962407Y-131994233D01*
X97962410Y-131994235D01*
X97997371Y-132029196D01*
X97997373Y-132029199D01*
X98006008Y-132042122D01*
X98021553Y-132061063D01*
X98040495Y-132076609D01*
X98062106Y-132088159D01*
X98085555Y-132095272D01*
X98109941Y-132097674D01*
X98134327Y-132095272D01*
X98157776Y-132088159D01*
X98179387Y-132076607D01*
X98198328Y-132061062D01*
X98213872Y-132042122D01*
X98221556Y-132030622D01*
X98222827Y-132028720D01*
X98257788Y-131993759D01*
X98257791Y-131993757D01*
X98257793Y-131993755D01*
X98298897Y-131966290D01*
X98333095Y-131952125D01*
X98344577Y-131947369D01*
X98393070Y-131937723D01*
X98442512Y-131937723D01*
X98491005Y-131947369D01*
X98502487Y-131952125D01*
X98536685Y-131966290D01*
X98577789Y-131993755D01*
X98577791Y-131993757D01*
X98577794Y-131993759D01*
X98612755Y-132028720D01*
X98621393Y-132041648D01*
X98636939Y-132060589D01*
X98655881Y-132076134D01*
X98677492Y-132087685D01*
X98700941Y-132094798D01*
X98725327Y-132097199D01*
X98749713Y-132094797D01*
X98773162Y-132087683D01*
X98794773Y-132076132D01*
X98813714Y-132060586D01*
X98829257Y-132041647D01*
X98838210Y-132028248D01*
X98838212Y-132028245D01*
X98873173Y-131993284D01*
X98873176Y-131993282D01*
X98873178Y-131993280D01*
X98914282Y-131965815D01*
X98948480Y-131951650D01*
X98959962Y-131946894D01*
X99008455Y-131937248D01*
X99057897Y-131937248D01*
X99106390Y-131946894D01*
X99117872Y-131951650D01*
X99152070Y-131965815D01*
X99193174Y-131993280D01*
X99193176Y-131993282D01*
X99193179Y-131993284D01*
X99228140Y-132028245D01*
X99236782Y-132041178D01*
X99252320Y-132060112D01*
X99271262Y-132075657D01*
X99292873Y-132087209D01*
X99316322Y-132094322D01*
X99340708Y-132096724D01*
X99365094Y-132094322D01*
X99388543Y-132087210D01*
X99410154Y-132075659D01*
X99429096Y-132060114D01*
X99444641Y-132041173D01*
X99444643Y-132041170D01*
X99453597Y-132027769D01*
X99488558Y-131992808D01*
X99488561Y-131992806D01*
X99488563Y-131992804D01*
X99529667Y-131965339D01*
X99563865Y-131951174D01*
X99575347Y-131946418D01*
X99623840Y-131936772D01*
X99673282Y-131936772D01*
X99721775Y-131946418D01*
X99733257Y-131951174D01*
X99767455Y-131965339D01*
X99808559Y-131992804D01*
X99808561Y-131992806D01*
X99808564Y-131992808D01*
X99843525Y-132027769D01*
X99852167Y-132040702D01*
X99867705Y-132059636D01*
X99886647Y-132075181D01*
X99908258Y-132086733D01*
X99931707Y-132093846D01*
X99956093Y-132096248D01*
X99980479Y-132093846D01*
X100003928Y-132086734D01*
X100025539Y-132075183D01*
X100044481Y-132059638D01*
X100060026Y-132040696D01*
X100068979Y-132027297D01*
X100068981Y-132027294D01*
X100103942Y-131992333D01*
X100103945Y-131992331D01*
X100103947Y-131992329D01*
X100145051Y-131964864D01*
X100179249Y-131950699D01*
X100190731Y-131945943D01*
X100239224Y-131936297D01*
X100288666Y-131936297D01*
X100337159Y-131945943D01*
G37*
G36*
X123469228Y-131928070D02*
G01*
X123480710Y-131932826D01*
X123514908Y-131946991D01*
X123556012Y-131974456D01*
X123556014Y-131974458D01*
X123556017Y-131974460D01*
X123590978Y-132009421D01*
X123590980Y-132009424D01*
X123590982Y-132009426D01*
X123618447Y-132050530D01*
X123631021Y-132080887D01*
X123637368Y-132096210D01*
X123647014Y-132144703D01*
X123647014Y-132194145D01*
X123637368Y-132242638D01*
X123635398Y-132247393D01*
X123618447Y-132288318D01*
X123590982Y-132329422D01*
X123590980Y-132329424D01*
X123590978Y-132329427D01*
X123556017Y-132364388D01*
X123556014Y-132364390D01*
X123556012Y-132364392D01*
X123514908Y-132391857D01*
X123484594Y-132404413D01*
X123469228Y-132410778D01*
X123420735Y-132420424D01*
X123371293Y-132420424D01*
X123322800Y-132410778D01*
X123307434Y-132404413D01*
X123277120Y-132391857D01*
X123236016Y-132364392D01*
X123236014Y-132364390D01*
X123236011Y-132364388D01*
X123201050Y-132329427D01*
X123195160Y-132320612D01*
X123192413Y-132316501D01*
X123176868Y-132297560D01*
X123157926Y-132282014D01*
X123136315Y-132270464D01*
X123112866Y-132263351D01*
X123088480Y-132260949D01*
X123064094Y-132263351D01*
X123040645Y-132270464D01*
X123019034Y-132282016D01*
X123000093Y-132297561D01*
X122984549Y-132316501D01*
X122975594Y-132329903D01*
X122940633Y-132364864D01*
X122940630Y-132364866D01*
X122940628Y-132364868D01*
X122899524Y-132392333D01*
X122872646Y-132403466D01*
X122853844Y-132411254D01*
X122805351Y-132420900D01*
X122755909Y-132420900D01*
X122707416Y-132411254D01*
X122688614Y-132403466D01*
X122661736Y-132392333D01*
X122620632Y-132364868D01*
X122620630Y-132364866D01*
X122620627Y-132364864D01*
X122585666Y-132329903D01*
X122577027Y-132316973D01*
X122561482Y-132298034D01*
X122542540Y-132282489D01*
X122520929Y-132270938D01*
X122497480Y-132263825D01*
X122473094Y-132261424D01*
X122448708Y-132263826D01*
X122425259Y-132270940D01*
X122403648Y-132282491D01*
X122384707Y-132298037D01*
X122369164Y-132316976D01*
X122366099Y-132321563D01*
X122360209Y-132330378D01*
X122325248Y-132365339D01*
X122325245Y-132365341D01*
X122325243Y-132365343D01*
X122284139Y-132392808D01*
X122253825Y-132405364D01*
X122238459Y-132411729D01*
X122189966Y-132421375D01*
X122140524Y-132421375D01*
X122092031Y-132411729D01*
X122076665Y-132405364D01*
X122046351Y-132392808D01*
X122005247Y-132365343D01*
X122005245Y-132365341D01*
X122005242Y-132365339D01*
X121970281Y-132330378D01*
X121961639Y-132317445D01*
X121946101Y-132298511D01*
X121927159Y-132282966D01*
X121905548Y-132271414D01*
X121882099Y-132264301D01*
X121857713Y-132261899D01*
X121833327Y-132264301D01*
X121809878Y-132271413D01*
X121788267Y-132282964D01*
X121769325Y-132298509D01*
X121753782Y-132317448D01*
X121744824Y-132330854D01*
X121709863Y-132365815D01*
X121709860Y-132365817D01*
X121709858Y-132365819D01*
X121668754Y-132393284D01*
X121641876Y-132404417D01*
X121623074Y-132412205D01*
X121574581Y-132421851D01*
X121525139Y-132421851D01*
X121476646Y-132412205D01*
X121457844Y-132404417D01*
X121430966Y-132393284D01*
X121389862Y-132365819D01*
X121389860Y-132365817D01*
X121389857Y-132365815D01*
X121354896Y-132330854D01*
X121346254Y-132317921D01*
X121330716Y-132298987D01*
X121311774Y-132283442D01*
X121290163Y-132271890D01*
X121266714Y-132264777D01*
X121242328Y-132262375D01*
X121217942Y-132264777D01*
X121194493Y-132271889D01*
X121172882Y-132283440D01*
X121153940Y-132298985D01*
X121138395Y-132317927D01*
X121129440Y-132331329D01*
X121094479Y-132366290D01*
X121094476Y-132366292D01*
X121094474Y-132366294D01*
X121053370Y-132393759D01*
X121023056Y-132406315D01*
X121007690Y-132412680D01*
X120959197Y-132422326D01*
X120909755Y-132422326D01*
X120861262Y-132412680D01*
X120845896Y-132406315D01*
X120815582Y-132393759D01*
X120774478Y-132366294D01*
X120774476Y-132366292D01*
X120774473Y-132366290D01*
X120739512Y-132331329D01*
X120730873Y-132318399D01*
X120715328Y-132299460D01*
X120696386Y-132283915D01*
X120674775Y-132272364D01*
X120651326Y-132265251D01*
X120626940Y-132262850D01*
X120602554Y-132265252D01*
X120579105Y-132272366D01*
X120557494Y-132283917D01*
X120538553Y-132299463D01*
X120523011Y-132318401D01*
X120514055Y-132331804D01*
X120479094Y-132366765D01*
X120479091Y-132366767D01*
X120479089Y-132366769D01*
X120437985Y-132394234D01*
X120405685Y-132407613D01*
X120392305Y-132413155D01*
X120343812Y-132422801D01*
X120294370Y-132422801D01*
X120245877Y-132413155D01*
X120232497Y-132407613D01*
X120200197Y-132394234D01*
X120159093Y-132366769D01*
X120159091Y-132366767D01*
X120159088Y-132366765D01*
X120124127Y-132331804D01*
X120117603Y-132322040D01*
X120115490Y-132318878D01*
X120099945Y-132299937D01*
X120081003Y-132284391D01*
X120059392Y-132272841D01*
X120035943Y-132265728D01*
X120011557Y-132263326D01*
X119987171Y-132265728D01*
X119963722Y-132272841D01*
X119942111Y-132284393D01*
X119923170Y-132299938D01*
X119907626Y-132318878D01*
X119898671Y-132332280D01*
X119863710Y-132367241D01*
X119863707Y-132367243D01*
X119863705Y-132367245D01*
X119822601Y-132394710D01*
X119794583Y-132406315D01*
X119776921Y-132413631D01*
X119728428Y-132423277D01*
X119678986Y-132423277D01*
X119630493Y-132413631D01*
X119612831Y-132406315D01*
X119584813Y-132394710D01*
X119543709Y-132367245D01*
X119543707Y-132367243D01*
X119543704Y-132367241D01*
X119508743Y-132332280D01*
X119500104Y-132319350D01*
X119484559Y-132300411D01*
X119465617Y-132284866D01*
X119444006Y-132273315D01*
X119420557Y-132266202D01*
X119396171Y-132263801D01*
X119371785Y-132266203D01*
X119348336Y-132273317D01*
X119326725Y-132284868D01*
X119307784Y-132300414D01*
X119292242Y-132319352D01*
X119283286Y-132332755D01*
X119248325Y-132367716D01*
X119248322Y-132367718D01*
X119248320Y-132367720D01*
X119207216Y-132395185D01*
X119174916Y-132408564D01*
X119161536Y-132414106D01*
X119113043Y-132423752D01*
X119063601Y-132423752D01*
X119015108Y-132414106D01*
X119001728Y-132408564D01*
X118969428Y-132395185D01*
X118928324Y-132367720D01*
X118928322Y-132367718D01*
X118928319Y-132367716D01*
X118893358Y-132332755D01*
X118884716Y-132319822D01*
X118869178Y-132300888D01*
X118850236Y-132285343D01*
X118828625Y-132273791D01*
X118805176Y-132266678D01*
X118780790Y-132264276D01*
X118756404Y-132266678D01*
X118732955Y-132273790D01*
X118711344Y-132285341D01*
X118692402Y-132300886D01*
X118676859Y-132319825D01*
X118667901Y-132333231D01*
X118632940Y-132368192D01*
X118632937Y-132368194D01*
X118632935Y-132368196D01*
X118591831Y-132395661D01*
X118567256Y-132405840D01*
X118546151Y-132414582D01*
X118497658Y-132424228D01*
X118448216Y-132424228D01*
X118399723Y-132414582D01*
X118378618Y-132405840D01*
X118354043Y-132395661D01*
X118312939Y-132368196D01*
X118312937Y-132368194D01*
X118312934Y-132368192D01*
X118277973Y-132333231D01*
X118269331Y-132320298D01*
X118253793Y-132301364D01*
X118234851Y-132285819D01*
X118213240Y-132274267D01*
X118189791Y-132267154D01*
X118165405Y-132264752D01*
X118141019Y-132267154D01*
X118117570Y-132274266D01*
X118095959Y-132285817D01*
X118077017Y-132301362D01*
X118061472Y-132320304D01*
X118052517Y-132333706D01*
X118017556Y-132368667D01*
X118017553Y-132368669D01*
X118017551Y-132368671D01*
X117976447Y-132396136D01*
X117957601Y-132403942D01*
X117930767Y-132415057D01*
X117882274Y-132424703D01*
X117832832Y-132424703D01*
X117784339Y-132415057D01*
X117757505Y-132403942D01*
X117738659Y-132396136D01*
X117697555Y-132368671D01*
X117697553Y-132368669D01*
X117697550Y-132368667D01*
X117662589Y-132333706D01*
X117653947Y-132320773D01*
X117638409Y-132301839D01*
X117619467Y-132286294D01*
X117597856Y-132274742D01*
X117574407Y-132267629D01*
X117550021Y-132265227D01*
X117525635Y-132267629D01*
X117502186Y-132274741D01*
X117480575Y-132286292D01*
X117461633Y-132301837D01*
X117446090Y-132320776D01*
X117437132Y-132334182D01*
X117402171Y-132369143D01*
X117402168Y-132369145D01*
X117402166Y-132369147D01*
X117361062Y-132396612D01*
X117329392Y-132409730D01*
X117315382Y-132415533D01*
X117266889Y-132425179D01*
X117217447Y-132425179D01*
X117168954Y-132415533D01*
X117154944Y-132409730D01*
X117123274Y-132396612D01*
X117082170Y-132369147D01*
X117082168Y-132369145D01*
X117082165Y-132369143D01*
X117047204Y-132334182D01*
X117038562Y-132321249D01*
X117023024Y-132302315D01*
X117004082Y-132286770D01*
X116982471Y-132275218D01*
X116959022Y-132268105D01*
X116934636Y-132265703D01*
X116910250Y-132268105D01*
X116886801Y-132275217D01*
X116865190Y-132286768D01*
X116846248Y-132302313D01*
X116830703Y-132321255D01*
X116821748Y-132334657D01*
X116786787Y-132369618D01*
X116786784Y-132369620D01*
X116786782Y-132369622D01*
X116745678Y-132397087D01*
X116726832Y-132404893D01*
X116699998Y-132416008D01*
X116651505Y-132425654D01*
X116602063Y-132425654D01*
X116553570Y-132416008D01*
X116526736Y-132404893D01*
X116507890Y-132397087D01*
X116466786Y-132369622D01*
X116466784Y-132369620D01*
X116466781Y-132369618D01*
X116431820Y-132334657D01*
X116423178Y-132321724D01*
X116407640Y-132302790D01*
X116388698Y-132287245D01*
X116367087Y-132275693D01*
X116343638Y-132268580D01*
X116319252Y-132266178D01*
X116294866Y-132268580D01*
X116271417Y-132275692D01*
X116249806Y-132287243D01*
X116230864Y-132302788D01*
X116215321Y-132321727D01*
X116206363Y-132335133D01*
X116171402Y-132370094D01*
X116171399Y-132370096D01*
X116171397Y-132370098D01*
X116130293Y-132397563D01*
X116099772Y-132410205D01*
X116084613Y-132416484D01*
X116036120Y-132426130D01*
X115986678Y-132426130D01*
X115938185Y-132416484D01*
X115923026Y-132410205D01*
X115892505Y-132397563D01*
X115851401Y-132370098D01*
X115851399Y-132370096D01*
X115851396Y-132370094D01*
X115816435Y-132335133D01*
X115807796Y-132322203D01*
X115792251Y-132303264D01*
X115773309Y-132287719D01*
X115751698Y-132276168D01*
X115728249Y-132269055D01*
X115703863Y-132266654D01*
X115679477Y-132269056D01*
X115656028Y-132276170D01*
X115634417Y-132287721D01*
X115615476Y-132303267D01*
X115599934Y-132322205D01*
X115590978Y-132335608D01*
X115556017Y-132370569D01*
X115556014Y-132370571D01*
X115556012Y-132370573D01*
X115514908Y-132398038D01*
X115484384Y-132410681D01*
X115469228Y-132416959D01*
X115420735Y-132426605D01*
X115371293Y-132426605D01*
X115322800Y-132416959D01*
X115307644Y-132410681D01*
X115277120Y-132398038D01*
X115236016Y-132370573D01*
X115236014Y-132370571D01*
X115236011Y-132370569D01*
X115201050Y-132335608D01*
X115201048Y-132335605D01*
X115201046Y-132335603D01*
X115173581Y-132294499D01*
X115154661Y-132248821D01*
X115154660Y-132248819D01*
X115145014Y-132200326D01*
X115145014Y-132150884D01*
X115154660Y-132102391D01*
X115163961Y-132079936D01*
X115173581Y-132056711D01*
X115201046Y-132015607D01*
X115201048Y-132015605D01*
X115201050Y-132015602D01*
X115236011Y-131980641D01*
X115236014Y-131980639D01*
X115236016Y-131980637D01*
X115277120Y-131953172D01*
X115322798Y-131934252D01*
X115322797Y-131934252D01*
X115322800Y-131934251D01*
X115371293Y-131924605D01*
X115420735Y-131924605D01*
X115469228Y-131934251D01*
X115469231Y-131934252D01*
X115469230Y-131934252D01*
X115514908Y-131953172D01*
X115556012Y-131980637D01*
X115556014Y-131980639D01*
X115556017Y-131980641D01*
X115590978Y-132015602D01*
X115599616Y-132028530D01*
X115615162Y-132047471D01*
X115634104Y-132063016D01*
X115655715Y-132074567D01*
X115679164Y-132081680D01*
X115703550Y-132084081D01*
X115727936Y-132081679D01*
X115751385Y-132074565D01*
X115772996Y-132063014D01*
X115791937Y-132047468D01*
X115807480Y-132028529D01*
X115816433Y-132015130D01*
X115816435Y-132015127D01*
X115851396Y-131980166D01*
X115851399Y-131980164D01*
X115851401Y-131980162D01*
X115892505Y-131952697D01*
X115937036Y-131934252D01*
X115938185Y-131933776D01*
X115986678Y-131924130D01*
X116036120Y-131924130D01*
X116084613Y-131933776D01*
X116085762Y-131934252D01*
X116130293Y-131952697D01*
X116171397Y-131980162D01*
X116171399Y-131980164D01*
X116171402Y-131980166D01*
X116206363Y-132015127D01*
X116215005Y-132028060D01*
X116230543Y-132046994D01*
X116249485Y-132062539D01*
X116271096Y-132074091D01*
X116294545Y-132081204D01*
X116318931Y-132083606D01*
X116343317Y-132081204D01*
X116366766Y-132074092D01*
X116388377Y-132062541D01*
X116407319Y-132046996D01*
X116422864Y-132028055D01*
X116423055Y-132027769D01*
X116431820Y-132014651D01*
X116466781Y-131979690D01*
X116466784Y-131979688D01*
X116466786Y-131979686D01*
X116507890Y-131952221D01*
X116551274Y-131934251D01*
X116553570Y-131933300D01*
X116602063Y-131923654D01*
X116651505Y-131923654D01*
X116699998Y-131933300D01*
X116702294Y-131934251D01*
X116745678Y-131952221D01*
X116786782Y-131979686D01*
X116786784Y-131979688D01*
X116786787Y-131979690D01*
X116821748Y-132014651D01*
X116830390Y-132027584D01*
X116845928Y-132046518D01*
X116864870Y-132062063D01*
X116886481Y-132073615D01*
X116909930Y-132080728D01*
X116934316Y-132083130D01*
X116958702Y-132080728D01*
X116982151Y-132073616D01*
X117003762Y-132062065D01*
X117022704Y-132046520D01*
X117038249Y-132027578D01*
X117047202Y-132014179D01*
X117047204Y-132014176D01*
X117082165Y-131979215D01*
X117082168Y-131979213D01*
X117082170Y-131979211D01*
X117123274Y-131951746D01*
X117165509Y-131934252D01*
X117168954Y-131932825D01*
X117217447Y-131923179D01*
X117266889Y-131923179D01*
X117315382Y-131932825D01*
X117318827Y-131934252D01*
X117361062Y-131951746D01*
X117402166Y-131979211D01*
X117402168Y-131979213D01*
X117402171Y-131979215D01*
X117437132Y-132014176D01*
X117445774Y-132027109D01*
X117461312Y-132046043D01*
X117480254Y-132061588D01*
X117501865Y-132073140D01*
X117525314Y-132080253D01*
X117549700Y-132082655D01*
X117574086Y-132080253D01*
X117597535Y-132073141D01*
X117619146Y-132061590D01*
X117638088Y-132046045D01*
X117653633Y-132027104D01*
X117653635Y-132027101D01*
X117662589Y-132013700D01*
X117697550Y-131978739D01*
X117697553Y-131978737D01*
X117697555Y-131978735D01*
X117738659Y-131951270D01*
X117782043Y-131933300D01*
X117784339Y-131932349D01*
X117832832Y-131922703D01*
X117882274Y-131922703D01*
X117930767Y-131932349D01*
X117933063Y-131933300D01*
X117976447Y-131951270D01*
X118017551Y-131978735D01*
X118017553Y-131978737D01*
X118017556Y-131978739D01*
X118052517Y-132013700D01*
X118061159Y-132026633D01*
X118076697Y-132045567D01*
X118095639Y-132061112D01*
X118117250Y-132072664D01*
X118140699Y-132079777D01*
X118165085Y-132082179D01*
X118189471Y-132079777D01*
X118212920Y-132072665D01*
X118234531Y-132061114D01*
X118253473Y-132045569D01*
X118269018Y-132026627D01*
X118277971Y-132013228D01*
X118277973Y-132013225D01*
X118312934Y-131978264D01*
X118312937Y-131978262D01*
X118312939Y-131978260D01*
X118354043Y-131950795D01*
X118393982Y-131934252D01*
X118399723Y-131931874D01*
X118448216Y-131922228D01*
X118497658Y-131922228D01*
X118546151Y-131931874D01*
X118551892Y-131934252D01*
X118591831Y-131950795D01*
X118632935Y-131978260D01*
X118632937Y-131978262D01*
X118632940Y-131978264D01*
X118667901Y-132013225D01*
X118676543Y-132026158D01*
X118692081Y-132045092D01*
X118711023Y-132060637D01*
X118732634Y-132072189D01*
X118756083Y-132079302D01*
X118780469Y-132081704D01*
X118804855Y-132079302D01*
X118828304Y-132072190D01*
X118849915Y-132060639D01*
X118868857Y-132045094D01*
X118884402Y-132026153D01*
X118884720Y-132025677D01*
X118893358Y-132012749D01*
X118928319Y-131977788D01*
X118928322Y-131977786D01*
X118928324Y-131977784D01*
X118969428Y-131950319D01*
X119008218Y-131934252D01*
X119015108Y-131931398D01*
X119063601Y-131921752D01*
X119113043Y-131921752D01*
X119161536Y-131931398D01*
X119168426Y-131934252D01*
X119207216Y-131950319D01*
X119248320Y-131977784D01*
X119248322Y-131977786D01*
X119248325Y-131977788D01*
X119283286Y-132012749D01*
X119291924Y-132025677D01*
X119307470Y-132044618D01*
X119326412Y-132060163D01*
X119348023Y-132071714D01*
X119371472Y-132078827D01*
X119395858Y-132081228D01*
X119420244Y-132078826D01*
X119443693Y-132071712D01*
X119465304Y-132060161D01*
X119484245Y-132044615D01*
X119499788Y-132025676D01*
X119508741Y-132012277D01*
X119508743Y-132012274D01*
X119543704Y-131977313D01*
X119543707Y-131977311D01*
X119543709Y-131977309D01*
X119584813Y-131949844D01*
X119623603Y-131933777D01*
X119630493Y-131930923D01*
X119678986Y-131921277D01*
X119728428Y-131921277D01*
X119776921Y-131930923D01*
X119783811Y-131933777D01*
X119822601Y-131949844D01*
X119863705Y-131977309D01*
X119863707Y-131977311D01*
X119863710Y-131977313D01*
X119898671Y-132012274D01*
X119898673Y-132012277D01*
X119907308Y-132025200D01*
X119922853Y-132044141D01*
X119941795Y-132059687D01*
X119963406Y-132071237D01*
X119986855Y-132078350D01*
X120011241Y-132080752D01*
X120035627Y-132078350D01*
X120059076Y-132071237D01*
X120080687Y-132059685D01*
X120099628Y-132044140D01*
X120115172Y-132025200D01*
X120122970Y-132013530D01*
X120124127Y-132011798D01*
X120159088Y-131976837D01*
X120159091Y-131976835D01*
X120159093Y-131976833D01*
X120200197Y-131949368D01*
X120236691Y-131934252D01*
X120245877Y-131930447D01*
X120294370Y-131920801D01*
X120343812Y-131920801D01*
X120392305Y-131930447D01*
X120401491Y-131934252D01*
X120437985Y-131949368D01*
X120479089Y-131976833D01*
X120479091Y-131976835D01*
X120479094Y-131976837D01*
X120514055Y-132011798D01*
X120522693Y-132024726D01*
X120538239Y-132043667D01*
X120557181Y-132059212D01*
X120578792Y-132070763D01*
X120602241Y-132077876D01*
X120626627Y-132080277D01*
X120651013Y-132077875D01*
X120674462Y-132070761D01*
X120696073Y-132059210D01*
X120715014Y-132043664D01*
X120730557Y-132024725D01*
X120739510Y-132011326D01*
X120739512Y-132011323D01*
X120774473Y-131976362D01*
X120774476Y-131976360D01*
X120774478Y-131976358D01*
X120815582Y-131948893D01*
X120852076Y-131933777D01*
X120861262Y-131929972D01*
X120909755Y-131920326D01*
X120959197Y-131920326D01*
X121007690Y-131929972D01*
X121016876Y-131933777D01*
X121053370Y-131948893D01*
X121094474Y-131976358D01*
X121094476Y-131976360D01*
X121094479Y-131976362D01*
X121129440Y-132011323D01*
X121138082Y-132024256D01*
X121153620Y-132043190D01*
X121172562Y-132058735D01*
X121194173Y-132070287D01*
X121217622Y-132077400D01*
X121242008Y-132079802D01*
X121266394Y-132077400D01*
X121289843Y-132070288D01*
X121311454Y-132058737D01*
X121330396Y-132043192D01*
X121345941Y-132024250D01*
X121354894Y-132010851D01*
X121354896Y-132010848D01*
X121389857Y-131975887D01*
X121389860Y-131975885D01*
X121389862Y-131975883D01*
X121430966Y-131948418D01*
X121463266Y-131935039D01*
X121476646Y-131929497D01*
X121525139Y-131919851D01*
X121574581Y-131919851D01*
X121623074Y-131929497D01*
X121636454Y-131935039D01*
X121668754Y-131948418D01*
X121709858Y-131975883D01*
X121709860Y-131975885D01*
X121709863Y-131975887D01*
X121744824Y-132010848D01*
X121753466Y-132023781D01*
X121769004Y-132042715D01*
X121787946Y-132058260D01*
X121809557Y-132069812D01*
X121833006Y-132076925D01*
X121857392Y-132079327D01*
X121881778Y-132076925D01*
X121905227Y-132069813D01*
X121926838Y-132058262D01*
X121945780Y-132042717D01*
X121961325Y-132023776D01*
X121961643Y-132023300D01*
X121970281Y-132010372D01*
X122005242Y-131975411D01*
X122005245Y-131975409D01*
X122005247Y-131975407D01*
X122046351Y-131947942D01*
X122080549Y-131933777D01*
X122092031Y-131929021D01*
X122140524Y-131919375D01*
X122189966Y-131919375D01*
X122238459Y-131929021D01*
X122249941Y-131933777D01*
X122284139Y-131947942D01*
X122325243Y-131975407D01*
X122325245Y-131975409D01*
X122325248Y-131975411D01*
X122360209Y-132010372D01*
X122368847Y-132023300D01*
X122384393Y-132042241D01*
X122403335Y-132057786D01*
X122424946Y-132069337D01*
X122448395Y-132076450D01*
X122472781Y-132078851D01*
X122497167Y-132076449D01*
X122520616Y-132069335D01*
X122542227Y-132057784D01*
X122561168Y-132042238D01*
X122576711Y-132023299D01*
X122585664Y-132009900D01*
X122585666Y-132009897D01*
X122620627Y-131974936D01*
X122620630Y-131974934D01*
X122620632Y-131974932D01*
X122661736Y-131947467D01*
X122694790Y-131933776D01*
X122707416Y-131928546D01*
X122755909Y-131918900D01*
X122805351Y-131918900D01*
X122853844Y-131928546D01*
X122866470Y-131933776D01*
X122899524Y-131947467D01*
X122940628Y-131974932D01*
X122940630Y-131974934D01*
X122940633Y-131974936D01*
X122975594Y-132009897D01*
X122975596Y-132009900D01*
X122984231Y-132022823D01*
X122999776Y-132041764D01*
X123018718Y-132057310D01*
X123040329Y-132068860D01*
X123063778Y-132075973D01*
X123088164Y-132078375D01*
X123112550Y-132075973D01*
X123135999Y-132068860D01*
X123157610Y-132057308D01*
X123176551Y-132041763D01*
X123192095Y-132022823D01*
X123199893Y-132011153D01*
X123201050Y-132009421D01*
X123236011Y-131974460D01*
X123236014Y-131974458D01*
X123236016Y-131974456D01*
X123277120Y-131946991D01*
X123311318Y-131932826D01*
X123322800Y-131928070D01*
X123371293Y-131918424D01*
X123420735Y-131918424D01*
X123469228Y-131928070D01*
G37*
G36*
X99685834Y-127085551D02*
G01*
X99811521Y-127110551D01*
X99947922Y-127167050D01*
X100070679Y-127249074D01*
X100175075Y-127353470D01*
X100257099Y-127476227D01*
X100313598Y-127612628D01*
X100342400Y-127757430D01*
X100342400Y-127905068D01*
X100313598Y-128049870D01*
X100257099Y-128186271D01*
X100175075Y-128309028D01*
X100070679Y-128413424D01*
X99947922Y-128495448D01*
X99811521Y-128551947D01*
X99687325Y-128576650D01*
X99666720Y-128580749D01*
X99519080Y-128580749D01*
X99498475Y-128576650D01*
X99374279Y-128551947D01*
X99237878Y-128495448D01*
X99115121Y-128413424D01*
X99010725Y-128309028D01*
X98928701Y-128186271D01*
X98872202Y-128049870D01*
X98843400Y-127905068D01*
X98843400Y-127757430D01*
X98872202Y-127612628D01*
X98928701Y-127476227D01*
X99010725Y-127353470D01*
X99115121Y-127249074D01*
X99237878Y-127167050D01*
X99374279Y-127110551D01*
X99499966Y-127085551D01*
X99519080Y-127081749D01*
X99666720Y-127081749D01*
X99685834Y-127085551D01*
G37*
G36*
X77405834Y-127085551D02*
G01*
X77531521Y-127110551D01*
X77667922Y-127167050D01*
X77790679Y-127249074D01*
X77895075Y-127353470D01*
X77977099Y-127476227D01*
X78033598Y-127612628D01*
X78062400Y-127757430D01*
X78062400Y-127905068D01*
X78033598Y-128049870D01*
X77977099Y-128186271D01*
X77895075Y-128309028D01*
X77790679Y-128413424D01*
X77667922Y-128495448D01*
X77531521Y-128551947D01*
X77407325Y-128576650D01*
X77386720Y-128580749D01*
X77239080Y-128580749D01*
X77218475Y-128576650D01*
X77094279Y-128551947D01*
X76957878Y-128495448D01*
X76835121Y-128413424D01*
X76730725Y-128309028D01*
X76648701Y-128186271D01*
X76592202Y-128049870D01*
X76563400Y-127905068D01*
X76563400Y-127757430D01*
X76592202Y-127612628D01*
X76648701Y-127476227D01*
X76730725Y-127353470D01*
X76835121Y-127249074D01*
X76957878Y-127167050D01*
X77094279Y-127110551D01*
X77219966Y-127085551D01*
X77239080Y-127081749D01*
X77386720Y-127081749D01*
X77405834Y-127085551D01*
G37*
G36*
X82485834Y-127085551D02*
G01*
X82611521Y-127110551D01*
X82747922Y-127167050D01*
X82870679Y-127249074D01*
X82975075Y-127353470D01*
X83057099Y-127476227D01*
X83113598Y-127612628D01*
X83142400Y-127757430D01*
X83142400Y-127905068D01*
X83113598Y-128049870D01*
X83057099Y-128186271D01*
X82975075Y-128309028D01*
X82870679Y-128413424D01*
X82747922Y-128495448D01*
X82611521Y-128551947D01*
X82487325Y-128576650D01*
X82466720Y-128580749D01*
X82319080Y-128580749D01*
X82298475Y-128576650D01*
X82174279Y-128551947D01*
X82037878Y-128495448D01*
X81915121Y-128413424D01*
X81810725Y-128309028D01*
X81728701Y-128186271D01*
X81672202Y-128049870D01*
X81643400Y-127905068D01*
X81643400Y-127757430D01*
X81672202Y-127612628D01*
X81728701Y-127476227D01*
X81810725Y-127353470D01*
X81915121Y-127249074D01*
X82037878Y-127167050D01*
X82174279Y-127110551D01*
X82299966Y-127085551D01*
X82319080Y-127081749D01*
X82466720Y-127081749D01*
X82485834Y-127085551D01*
G37*
G36*
X94605834Y-127085551D02*
G01*
X94731521Y-127110551D01*
X94867922Y-127167050D01*
X94990679Y-127249074D01*
X95095075Y-127353470D01*
X95177099Y-127476227D01*
X95233598Y-127612628D01*
X95262400Y-127757430D01*
X95262400Y-127905068D01*
X95233598Y-128049870D01*
X95177099Y-128186271D01*
X95095075Y-128309028D01*
X94990679Y-128413424D01*
X94867922Y-128495448D01*
X94731521Y-128551947D01*
X94607325Y-128576650D01*
X94586720Y-128580749D01*
X94439080Y-128580749D01*
X94418475Y-128576650D01*
X94294279Y-128551947D01*
X94157878Y-128495448D01*
X94035121Y-128413424D01*
X93930725Y-128309028D01*
X93848701Y-128186271D01*
X93792202Y-128049870D01*
X93763400Y-127905068D01*
X93763400Y-127757430D01*
X93792202Y-127612628D01*
X93848701Y-127476227D01*
X93930725Y-127353470D01*
X94035121Y-127249074D01*
X94157878Y-127167050D01*
X94294279Y-127110551D01*
X94419966Y-127085551D01*
X94439080Y-127081749D01*
X94586720Y-127081749D01*
X94605834Y-127085551D01*
G37*
G36*
X65360834Y-127085551D02*
G01*
X65486521Y-127110551D01*
X65622922Y-127167050D01*
X65745679Y-127249074D01*
X65850075Y-127353470D01*
X65932099Y-127476227D01*
X65988598Y-127612628D01*
X66017400Y-127757430D01*
X66017400Y-127905068D01*
X65988598Y-128049870D01*
X65932099Y-128186271D01*
X65850075Y-128309028D01*
X65745679Y-128413424D01*
X65622922Y-128495448D01*
X65486521Y-128551947D01*
X65362325Y-128576650D01*
X65341720Y-128580749D01*
X65194080Y-128580749D01*
X65173475Y-128576650D01*
X65049279Y-128551947D01*
X64912878Y-128495448D01*
X64790121Y-128413424D01*
X64685725Y-128309028D01*
X64603701Y-128186271D01*
X64547202Y-128049870D01*
X64518400Y-127905068D01*
X64518400Y-127757430D01*
X64547202Y-127612628D01*
X64603701Y-127476227D01*
X64685725Y-127353470D01*
X64790121Y-127249074D01*
X64912878Y-127167050D01*
X65049279Y-127110551D01*
X65174966Y-127085551D01*
X65194080Y-127081749D01*
X65341720Y-127081749D01*
X65360834Y-127085551D01*
G37*
G36*
X60280834Y-127085551D02*
G01*
X60406521Y-127110551D01*
X60542922Y-127167050D01*
X60665679Y-127249074D01*
X60770075Y-127353470D01*
X60852099Y-127476227D01*
X60908598Y-127612628D01*
X60937400Y-127757430D01*
X60937400Y-127905068D01*
X60908598Y-128049870D01*
X60852099Y-128186271D01*
X60770075Y-128309028D01*
X60665679Y-128413424D01*
X60542922Y-128495448D01*
X60406521Y-128551947D01*
X60282325Y-128576650D01*
X60261720Y-128580749D01*
X60114080Y-128580749D01*
X60093475Y-128576650D01*
X59969279Y-128551947D01*
X59832878Y-128495448D01*
X59710121Y-128413424D01*
X59605725Y-128309028D01*
X59523701Y-128186271D01*
X59467202Y-128049870D01*
X59438400Y-127905068D01*
X59438400Y-127757430D01*
X59467202Y-127612628D01*
X59523701Y-127476227D01*
X59605725Y-127353470D01*
X59710121Y-127249074D01*
X59832878Y-127167050D01*
X59969279Y-127110551D01*
X60094966Y-127085551D01*
X60114080Y-127081749D01*
X60261720Y-127081749D01*
X60280834Y-127085551D01*
G37*
G36*
X91210834Y-127060551D02*
G01*
X91336521Y-127085551D01*
X91472922Y-127142050D01*
X91595679Y-127224074D01*
X91700075Y-127328470D01*
X91782099Y-127451227D01*
X91838598Y-127587628D01*
X91867400Y-127732430D01*
X91867400Y-127880068D01*
X91838598Y-128024870D01*
X91782099Y-128161271D01*
X91700075Y-128284028D01*
X91595679Y-128388424D01*
X91472922Y-128470448D01*
X91336521Y-128526947D01*
X91212325Y-128551650D01*
X91191720Y-128555749D01*
X91044080Y-128555749D01*
X91023475Y-128551650D01*
X90899279Y-128526947D01*
X90762878Y-128470448D01*
X90640121Y-128388424D01*
X90535725Y-128284028D01*
X90453701Y-128161271D01*
X90397202Y-128024870D01*
X90368400Y-127880068D01*
X90368400Y-127732430D01*
X90397202Y-127587628D01*
X90453701Y-127451227D01*
X90535725Y-127328470D01*
X90640121Y-127224074D01*
X90762878Y-127142050D01*
X90899279Y-127085551D01*
X91024966Y-127060551D01*
X91044080Y-127056749D01*
X91191720Y-127056749D01*
X91210834Y-127060551D01*
G37*
G36*
X86130834Y-127060551D02*
G01*
X86256521Y-127085551D01*
X86392922Y-127142050D01*
X86515679Y-127224074D01*
X86620075Y-127328470D01*
X86702099Y-127451227D01*
X86758598Y-127587628D01*
X86787400Y-127732430D01*
X86787400Y-127880068D01*
X86758598Y-128024870D01*
X86702099Y-128161271D01*
X86620075Y-128284028D01*
X86515679Y-128388424D01*
X86392922Y-128470448D01*
X86256521Y-128526947D01*
X86132325Y-128551650D01*
X86111720Y-128555749D01*
X85964080Y-128555749D01*
X85943475Y-128551650D01*
X85819279Y-128526947D01*
X85682878Y-128470448D01*
X85560121Y-128388424D01*
X85455725Y-128284028D01*
X85373701Y-128161271D01*
X85317202Y-128024870D01*
X85288400Y-127880068D01*
X85288400Y-127732430D01*
X85317202Y-127587628D01*
X85373701Y-127451227D01*
X85455725Y-127328470D01*
X85560121Y-127224074D01*
X85682878Y-127142050D01*
X85819279Y-127085551D01*
X85944966Y-127060551D01*
X85964080Y-127056749D01*
X86111720Y-127056749D01*
X86130834Y-127060551D01*
G37*
G36*
X69007325Y-127035848D02*
G01*
X69131521Y-127060551D01*
X69267922Y-127117050D01*
X69390679Y-127199074D01*
X69495075Y-127303470D01*
X69577099Y-127426227D01*
X69633598Y-127562628D01*
X69662400Y-127707430D01*
X69662400Y-127855068D01*
X69633598Y-127999870D01*
X69577099Y-128136271D01*
X69495075Y-128259028D01*
X69390679Y-128363424D01*
X69267922Y-128445448D01*
X69131521Y-128501947D01*
X69007325Y-128526650D01*
X68986720Y-128530749D01*
X68839080Y-128530749D01*
X68818475Y-128526650D01*
X68694279Y-128501947D01*
X68557878Y-128445448D01*
X68435121Y-128363424D01*
X68330725Y-128259028D01*
X68248701Y-128136271D01*
X68192202Y-127999870D01*
X68163400Y-127855068D01*
X68163400Y-127707430D01*
X68192202Y-127562628D01*
X68248701Y-127426227D01*
X68330725Y-127303470D01*
X68435121Y-127199074D01*
X68557878Y-127117050D01*
X68694279Y-127060551D01*
X68818475Y-127035848D01*
X68839080Y-127031749D01*
X68986720Y-127031749D01*
X69007325Y-127035848D01*
G37*
G36*
X74087325Y-127035848D02*
G01*
X74211521Y-127060551D01*
X74347922Y-127117050D01*
X74470679Y-127199074D01*
X74575075Y-127303470D01*
X74657099Y-127426227D01*
X74713598Y-127562628D01*
X74742400Y-127707430D01*
X74742400Y-127855068D01*
X74713598Y-127999870D01*
X74657099Y-128136271D01*
X74575075Y-128259028D01*
X74470679Y-128363424D01*
X74347922Y-128445448D01*
X74211521Y-128501947D01*
X74087325Y-128526650D01*
X74066720Y-128530749D01*
X73919080Y-128530749D01*
X73898475Y-128526650D01*
X73774279Y-128501947D01*
X73637878Y-128445448D01*
X73515121Y-128363424D01*
X73410725Y-128259028D01*
X73328701Y-128136271D01*
X73272202Y-127999870D01*
X73243400Y-127855068D01*
X73243400Y-127707430D01*
X73272202Y-127562628D01*
X73328701Y-127426227D01*
X73410725Y-127303470D01*
X73515121Y-127199074D01*
X73637878Y-127117050D01*
X73774279Y-127060551D01*
X73898475Y-127035848D01*
X73919080Y-127031749D01*
X74066720Y-127031749D01*
X74087325Y-127035848D01*
G37*
G36*
X102882325Y-127035848D02*
G01*
X103006521Y-127060551D01*
X103142922Y-127117050D01*
X103265679Y-127199074D01*
X103370075Y-127303470D01*
X103452099Y-127426227D01*
X103508598Y-127562628D01*
X103537400Y-127707430D01*
X103537400Y-127855068D01*
X103508598Y-127999870D01*
X103452099Y-128136271D01*
X103370075Y-128259028D01*
X103265679Y-128363424D01*
X103142922Y-128445448D01*
X103006521Y-128501947D01*
X102882325Y-128526650D01*
X102861720Y-128530749D01*
X102714080Y-128530749D01*
X102693475Y-128526650D01*
X102569279Y-128501947D01*
X102432878Y-128445448D01*
X102310121Y-128363424D01*
X102205725Y-128259028D01*
X102123701Y-128136271D01*
X102067202Y-127999870D01*
X102038400Y-127855068D01*
X102038400Y-127707430D01*
X102067202Y-127562628D01*
X102123701Y-127426227D01*
X102205725Y-127303470D01*
X102310121Y-127199074D01*
X102432878Y-127117050D01*
X102569279Y-127060551D01*
X102693475Y-127035848D01*
X102714080Y-127031749D01*
X102861720Y-127031749D01*
X102882325Y-127035848D01*
G37*
G36*
X107962325Y-127035848D02*
G01*
X108086521Y-127060551D01*
X108222922Y-127117050D01*
X108345679Y-127199074D01*
X108450075Y-127303470D01*
X108532099Y-127426227D01*
X108588598Y-127562628D01*
X108617400Y-127707430D01*
X108617400Y-127855068D01*
X108588598Y-127999870D01*
X108532099Y-128136271D01*
X108450075Y-128259028D01*
X108345679Y-128363424D01*
X108222922Y-128445448D01*
X108086521Y-128501947D01*
X107962325Y-128526650D01*
X107941720Y-128530749D01*
X107794080Y-128530749D01*
X107773475Y-128526650D01*
X107649279Y-128501947D01*
X107512878Y-128445448D01*
X107390121Y-128363424D01*
X107285725Y-128259028D01*
X107203701Y-128136271D01*
X107147202Y-127999870D01*
X107118400Y-127855068D01*
X107118400Y-127707430D01*
X107147202Y-127562628D01*
X107203701Y-127426227D01*
X107285725Y-127303470D01*
X107390121Y-127199074D01*
X107512878Y-127117050D01*
X107649279Y-127060551D01*
X107773475Y-127035848D01*
X107794080Y-127031749D01*
X107941720Y-127031749D01*
X107962325Y-127035848D01*
G37*
G36*
X123912325Y-126860848D02*
G01*
X124036521Y-126885551D01*
X124172922Y-126942050D01*
X124295679Y-127024074D01*
X124400075Y-127128470D01*
X124482099Y-127251227D01*
X124538598Y-127387628D01*
X124567400Y-127532430D01*
X124567400Y-127680068D01*
X124538598Y-127824870D01*
X124482099Y-127961271D01*
X124400075Y-128084028D01*
X124295679Y-128188424D01*
X124172922Y-128270448D01*
X124036521Y-128326947D01*
X123912325Y-128351650D01*
X123891720Y-128355749D01*
X123744080Y-128355749D01*
X123723475Y-128351650D01*
X123599279Y-128326947D01*
X123462878Y-128270448D01*
X123340121Y-128188424D01*
X123235725Y-128084028D01*
X123153701Y-127961271D01*
X123097202Y-127824870D01*
X123068400Y-127680068D01*
X123068400Y-127532430D01*
X123097202Y-127387628D01*
X123153701Y-127251227D01*
X123235725Y-127128470D01*
X123340121Y-127024074D01*
X123462878Y-126942050D01*
X123599279Y-126885551D01*
X123723475Y-126860848D01*
X123744080Y-126856749D01*
X123891720Y-126856749D01*
X123912325Y-126860848D01*
G37*
G36*
X118832325Y-126860848D02*
G01*
X118956521Y-126885551D01*
X119092922Y-126942050D01*
X119215679Y-127024074D01*
X119320075Y-127128470D01*
X119402099Y-127251227D01*
X119458598Y-127387628D01*
X119487400Y-127532430D01*
X119487400Y-127680068D01*
X119458598Y-127824870D01*
X119402099Y-127961271D01*
X119320075Y-128084028D01*
X119215679Y-128188424D01*
X119092922Y-128270448D01*
X118956521Y-128326947D01*
X118832325Y-128351650D01*
X118811720Y-128355749D01*
X118664080Y-128355749D01*
X118643475Y-128351650D01*
X118519279Y-128326947D01*
X118382878Y-128270448D01*
X118260121Y-128188424D01*
X118155725Y-128084028D01*
X118073701Y-127961271D01*
X118017202Y-127824870D01*
X117988400Y-127680068D01*
X117988400Y-127532430D01*
X118017202Y-127387628D01*
X118073701Y-127251227D01*
X118155725Y-127128470D01*
X118260121Y-127024074D01*
X118382878Y-126942050D01*
X118519279Y-126885551D01*
X118643475Y-126860848D01*
X118664080Y-126856749D01*
X118811720Y-126856749D01*
X118832325Y-126860848D01*
G37*
G36*
X99685834Y-119465551D02*
G01*
X99811521Y-119490551D01*
X99947922Y-119547050D01*
X100070679Y-119629074D01*
X100175075Y-119733470D01*
X100257099Y-119856227D01*
X100313598Y-119992628D01*
X100342400Y-120137430D01*
X100342400Y-120285068D01*
X100313598Y-120429870D01*
X100257099Y-120566271D01*
X100175075Y-120689028D01*
X100070679Y-120793424D01*
X99947922Y-120875448D01*
X99811521Y-120931947D01*
X99687325Y-120956650D01*
X99666720Y-120960749D01*
X99519080Y-120960749D01*
X99498475Y-120956650D01*
X99374279Y-120931947D01*
X99237878Y-120875448D01*
X99115121Y-120793424D01*
X99010725Y-120689028D01*
X98928701Y-120566271D01*
X98872202Y-120429870D01*
X98843400Y-120285068D01*
X98843400Y-120137430D01*
X98872202Y-119992628D01*
X98928701Y-119856227D01*
X99010725Y-119733470D01*
X99115121Y-119629074D01*
X99237878Y-119547050D01*
X99374279Y-119490551D01*
X99499966Y-119465551D01*
X99519080Y-119461749D01*
X99666720Y-119461749D01*
X99685834Y-119465551D01*
G37*
G36*
X65360834Y-119465551D02*
G01*
X65486521Y-119490551D01*
X65622922Y-119547050D01*
X65745679Y-119629074D01*
X65850075Y-119733470D01*
X65932099Y-119856227D01*
X65988598Y-119992628D01*
X66017400Y-120137430D01*
X66017400Y-120285068D01*
X65988598Y-120429870D01*
X65932099Y-120566271D01*
X65850075Y-120689028D01*
X65745679Y-120793424D01*
X65622922Y-120875448D01*
X65486521Y-120931947D01*
X65362325Y-120956650D01*
X65341720Y-120960749D01*
X65194080Y-120960749D01*
X65173475Y-120956650D01*
X65049279Y-120931947D01*
X64912878Y-120875448D01*
X64790121Y-120793424D01*
X64685725Y-120689028D01*
X64603701Y-120566271D01*
X64547202Y-120429870D01*
X64518400Y-120285068D01*
X64518400Y-120137430D01*
X64547202Y-119992628D01*
X64603701Y-119856227D01*
X64685725Y-119733470D01*
X64790121Y-119629074D01*
X64912878Y-119547050D01*
X65049279Y-119490551D01*
X65174966Y-119465551D01*
X65194080Y-119461749D01*
X65341720Y-119461749D01*
X65360834Y-119465551D01*
G37*
G36*
X82485834Y-119465551D02*
G01*
X82611521Y-119490551D01*
X82747922Y-119547050D01*
X82870679Y-119629074D01*
X82975075Y-119733470D01*
X83057099Y-119856227D01*
X83113598Y-119992628D01*
X83142400Y-120137430D01*
X83142400Y-120285068D01*
X83113598Y-120429870D01*
X83057099Y-120566271D01*
X82975075Y-120689028D01*
X82870679Y-120793424D01*
X82747922Y-120875448D01*
X82611521Y-120931947D01*
X82487325Y-120956650D01*
X82466720Y-120960749D01*
X82319080Y-120960749D01*
X82298475Y-120956650D01*
X82174279Y-120931947D01*
X82037878Y-120875448D01*
X81915121Y-120793424D01*
X81810725Y-120689028D01*
X81728701Y-120566271D01*
X81672202Y-120429870D01*
X81643400Y-120285068D01*
X81643400Y-120137430D01*
X81672202Y-119992628D01*
X81728701Y-119856227D01*
X81810725Y-119733470D01*
X81915121Y-119629074D01*
X82037878Y-119547050D01*
X82174279Y-119490551D01*
X82299966Y-119465551D01*
X82319080Y-119461749D01*
X82466720Y-119461749D01*
X82485834Y-119465551D01*
G37*
G36*
X77405834Y-119465551D02*
G01*
X77531521Y-119490551D01*
X77667922Y-119547050D01*
X77790679Y-119629074D01*
X77895075Y-119733470D01*
X77977099Y-119856227D01*
X78033598Y-119992628D01*
X78062400Y-120137430D01*
X78062400Y-120285068D01*
X78033598Y-120429870D01*
X77977099Y-120566271D01*
X77895075Y-120689028D01*
X77790679Y-120793424D01*
X77667922Y-120875448D01*
X77531521Y-120931947D01*
X77407325Y-120956650D01*
X77386720Y-120960749D01*
X77239080Y-120960749D01*
X77218475Y-120956650D01*
X77094279Y-120931947D01*
X76957878Y-120875448D01*
X76835121Y-120793424D01*
X76730725Y-120689028D01*
X76648701Y-120566271D01*
X76592202Y-120429870D01*
X76563400Y-120285068D01*
X76563400Y-120137430D01*
X76592202Y-119992628D01*
X76648701Y-119856227D01*
X76730725Y-119733470D01*
X76835121Y-119629074D01*
X76957878Y-119547050D01*
X77094279Y-119490551D01*
X77219966Y-119465551D01*
X77239080Y-119461749D01*
X77386720Y-119461749D01*
X77405834Y-119465551D01*
G37*
G36*
X94605834Y-119465551D02*
G01*
X94731521Y-119490551D01*
X94867922Y-119547050D01*
X94990679Y-119629074D01*
X95095075Y-119733470D01*
X95177099Y-119856227D01*
X95233598Y-119992628D01*
X95262400Y-120137430D01*
X95262400Y-120285068D01*
X95233598Y-120429870D01*
X95177099Y-120566271D01*
X95095075Y-120689028D01*
X94990679Y-120793424D01*
X94867922Y-120875448D01*
X94731521Y-120931947D01*
X94607325Y-120956650D01*
X94586720Y-120960749D01*
X94439080Y-120960749D01*
X94418475Y-120956650D01*
X94294279Y-120931947D01*
X94157878Y-120875448D01*
X94035121Y-120793424D01*
X93930725Y-120689028D01*
X93848701Y-120566271D01*
X93792202Y-120429870D01*
X93763400Y-120285068D01*
X93763400Y-120137430D01*
X93792202Y-119992628D01*
X93848701Y-119856227D01*
X93930725Y-119733470D01*
X94035121Y-119629074D01*
X94157878Y-119547050D01*
X94294279Y-119490551D01*
X94419966Y-119465551D01*
X94439080Y-119461749D01*
X94586720Y-119461749D01*
X94605834Y-119465551D01*
G37*
G36*
X60280834Y-119465551D02*
G01*
X60406521Y-119490551D01*
X60542922Y-119547050D01*
X60665679Y-119629074D01*
X60770075Y-119733470D01*
X60852099Y-119856227D01*
X60908598Y-119992628D01*
X60937400Y-120137430D01*
X60937400Y-120285068D01*
X60908598Y-120429870D01*
X60852099Y-120566271D01*
X60770075Y-120689028D01*
X60665679Y-120793424D01*
X60542922Y-120875448D01*
X60406521Y-120931947D01*
X60282325Y-120956650D01*
X60261720Y-120960749D01*
X60114080Y-120960749D01*
X60093475Y-120956650D01*
X59969279Y-120931947D01*
X59832878Y-120875448D01*
X59710121Y-120793424D01*
X59605725Y-120689028D01*
X59523701Y-120566271D01*
X59467202Y-120429870D01*
X59438400Y-120285068D01*
X59438400Y-120137430D01*
X59467202Y-119992628D01*
X59523701Y-119856227D01*
X59605725Y-119733470D01*
X59710121Y-119629074D01*
X59832878Y-119547050D01*
X59969279Y-119490551D01*
X60094966Y-119465551D01*
X60114080Y-119461749D01*
X60261720Y-119461749D01*
X60280834Y-119465551D01*
G37*
G36*
X91210834Y-119440551D02*
G01*
X91336521Y-119465551D01*
X91472922Y-119522050D01*
X91595679Y-119604074D01*
X91700075Y-119708470D01*
X91782099Y-119831227D01*
X91838598Y-119967628D01*
X91867400Y-120112430D01*
X91867400Y-120260068D01*
X91838598Y-120404870D01*
X91782099Y-120541271D01*
X91700075Y-120664028D01*
X91595679Y-120768424D01*
X91472922Y-120850448D01*
X91336521Y-120906947D01*
X91212325Y-120931650D01*
X91191720Y-120935749D01*
X91044080Y-120935749D01*
X91023475Y-120931650D01*
X90899279Y-120906947D01*
X90762878Y-120850448D01*
X90640121Y-120768424D01*
X90535725Y-120664028D01*
X90453701Y-120541271D01*
X90397202Y-120404870D01*
X90368400Y-120260068D01*
X90368400Y-120112430D01*
X90397202Y-119967628D01*
X90453701Y-119831227D01*
X90535725Y-119708470D01*
X90640121Y-119604074D01*
X90762878Y-119522050D01*
X90899279Y-119465551D01*
X91024966Y-119440551D01*
X91044080Y-119436749D01*
X91191720Y-119436749D01*
X91210834Y-119440551D01*
G37*
G36*
X86130834Y-119440551D02*
G01*
X86256521Y-119465551D01*
X86392922Y-119522050D01*
X86515679Y-119604074D01*
X86620075Y-119708470D01*
X86702099Y-119831227D01*
X86758598Y-119967628D01*
X86787400Y-120112430D01*
X86787400Y-120260068D01*
X86758598Y-120404870D01*
X86702099Y-120541271D01*
X86620075Y-120664028D01*
X86515679Y-120768424D01*
X86392922Y-120850448D01*
X86256521Y-120906947D01*
X86132325Y-120931650D01*
X86111720Y-120935749D01*
X85964080Y-120935749D01*
X85943475Y-120931650D01*
X85819279Y-120906947D01*
X85682878Y-120850448D01*
X85560121Y-120768424D01*
X85455725Y-120664028D01*
X85373701Y-120541271D01*
X85317202Y-120404870D01*
X85288400Y-120260068D01*
X85288400Y-120112430D01*
X85317202Y-119967628D01*
X85373701Y-119831227D01*
X85455725Y-119708470D01*
X85560121Y-119604074D01*
X85682878Y-119522050D01*
X85819279Y-119465551D01*
X85944966Y-119440551D01*
X85964080Y-119436749D01*
X86111720Y-119436749D01*
X86130834Y-119440551D01*
G37*
G36*
X74087325Y-119415848D02*
G01*
X74211521Y-119440551D01*
X74347922Y-119497050D01*
X74470679Y-119579074D01*
X74575075Y-119683470D01*
X74657099Y-119806227D01*
X74713598Y-119942628D01*
X74742400Y-120087430D01*
X74742400Y-120235068D01*
X74713598Y-120379870D01*
X74657099Y-120516271D01*
X74575075Y-120639028D01*
X74470679Y-120743424D01*
X74347922Y-120825448D01*
X74211521Y-120881947D01*
X74087325Y-120906650D01*
X74066720Y-120910749D01*
X73919080Y-120910749D01*
X73898475Y-120906650D01*
X73774279Y-120881947D01*
X73637878Y-120825448D01*
X73515121Y-120743424D01*
X73410725Y-120639028D01*
X73328701Y-120516271D01*
X73272202Y-120379870D01*
X73243400Y-120235068D01*
X73243400Y-120087430D01*
X73272202Y-119942628D01*
X73328701Y-119806227D01*
X73410725Y-119683470D01*
X73515121Y-119579074D01*
X73637878Y-119497050D01*
X73774279Y-119440551D01*
X73898475Y-119415848D01*
X73919080Y-119411749D01*
X74066720Y-119411749D01*
X74087325Y-119415848D01*
G37*
G36*
X69007325Y-119415848D02*
G01*
X69131521Y-119440551D01*
X69267922Y-119497050D01*
X69390679Y-119579074D01*
X69495075Y-119683470D01*
X69577099Y-119806227D01*
X69633598Y-119942628D01*
X69662400Y-120087430D01*
X69662400Y-120235068D01*
X69633598Y-120379870D01*
X69577099Y-120516271D01*
X69495075Y-120639028D01*
X69390679Y-120743424D01*
X69267922Y-120825448D01*
X69131521Y-120881947D01*
X69007325Y-120906650D01*
X68986720Y-120910749D01*
X68839080Y-120910749D01*
X68818475Y-120906650D01*
X68694279Y-120881947D01*
X68557878Y-120825448D01*
X68435121Y-120743424D01*
X68330725Y-120639028D01*
X68248701Y-120516271D01*
X68192202Y-120379870D01*
X68163400Y-120235068D01*
X68163400Y-120087430D01*
X68192202Y-119942628D01*
X68248701Y-119806227D01*
X68330725Y-119683470D01*
X68435121Y-119579074D01*
X68557878Y-119497050D01*
X68694279Y-119440551D01*
X68818475Y-119415848D01*
X68839080Y-119411749D01*
X68986720Y-119411749D01*
X69007325Y-119415848D01*
G37*
G36*
X102882325Y-119415848D02*
G01*
X103006521Y-119440551D01*
X103142922Y-119497050D01*
X103265679Y-119579074D01*
X103370075Y-119683470D01*
X103452099Y-119806227D01*
X103508598Y-119942628D01*
X103537400Y-120087430D01*
X103537400Y-120235068D01*
X103508598Y-120379870D01*
X103452099Y-120516271D01*
X103370075Y-120639028D01*
X103265679Y-120743424D01*
X103142922Y-120825448D01*
X103006521Y-120881947D01*
X102882325Y-120906650D01*
X102861720Y-120910749D01*
X102714080Y-120910749D01*
X102693475Y-120906650D01*
X102569279Y-120881947D01*
X102432878Y-120825448D01*
X102310121Y-120743424D01*
X102205725Y-120639028D01*
X102123701Y-120516271D01*
X102067202Y-120379870D01*
X102038400Y-120235068D01*
X102038400Y-120087430D01*
X102067202Y-119942628D01*
X102123701Y-119806227D01*
X102205725Y-119683470D01*
X102310121Y-119579074D01*
X102432878Y-119497050D01*
X102569279Y-119440551D01*
X102693475Y-119415848D01*
X102714080Y-119411749D01*
X102861720Y-119411749D01*
X102882325Y-119415848D01*
G37*
G36*
X107962325Y-119415848D02*
G01*
X108086521Y-119440551D01*
X108222922Y-119497050D01*
X108345679Y-119579074D01*
X108450075Y-119683470D01*
X108532099Y-119806227D01*
X108588598Y-119942628D01*
X108617400Y-120087430D01*
X108617400Y-120235068D01*
X108588598Y-120379870D01*
X108532099Y-120516271D01*
X108450075Y-120639028D01*
X108345679Y-120743424D01*
X108222922Y-120825448D01*
X108086521Y-120881947D01*
X107962325Y-120906650D01*
X107941720Y-120910749D01*
X107794080Y-120910749D01*
X107773475Y-120906650D01*
X107649279Y-120881947D01*
X107512878Y-120825448D01*
X107390121Y-120743424D01*
X107285725Y-120639028D01*
X107203701Y-120516271D01*
X107147202Y-120379870D01*
X107118400Y-120235068D01*
X107118400Y-120087430D01*
X107147202Y-119942628D01*
X107203701Y-119806227D01*
X107285725Y-119683470D01*
X107390121Y-119579074D01*
X107512878Y-119497050D01*
X107649279Y-119440551D01*
X107773475Y-119415848D01*
X107794080Y-119411749D01*
X107941720Y-119411749D01*
X107962325Y-119415848D01*
G37*
G36*
X118832325Y-119240848D02*
G01*
X118956521Y-119265551D01*
X119092922Y-119322050D01*
X119215679Y-119404074D01*
X119320075Y-119508470D01*
X119402099Y-119631227D01*
X119458598Y-119767628D01*
X119487400Y-119912430D01*
X119487400Y-120060068D01*
X119458598Y-120204870D01*
X119402099Y-120341271D01*
X119320075Y-120464028D01*
X119215679Y-120568424D01*
X119092922Y-120650448D01*
X118956521Y-120706947D01*
X118832325Y-120731650D01*
X118811720Y-120735749D01*
X118664080Y-120735749D01*
X118643475Y-120731650D01*
X118519279Y-120706947D01*
X118382878Y-120650448D01*
X118260121Y-120568424D01*
X118155725Y-120464028D01*
X118073701Y-120341271D01*
X118017202Y-120204870D01*
X117988400Y-120060068D01*
X117988400Y-119912430D01*
X118017202Y-119767628D01*
X118073701Y-119631227D01*
X118155725Y-119508470D01*
X118260121Y-119404074D01*
X118382878Y-119322050D01*
X118519279Y-119265551D01*
X118643475Y-119240848D01*
X118664080Y-119236749D01*
X118811720Y-119236749D01*
X118832325Y-119240848D01*
G37*
G36*
X123912325Y-119240848D02*
G01*
X124036521Y-119265551D01*
X124172922Y-119322050D01*
X124295679Y-119404074D01*
X124400075Y-119508470D01*
X124482099Y-119631227D01*
X124538598Y-119767628D01*
X124567400Y-119912430D01*
X124567400Y-120060068D01*
X124538598Y-120204870D01*
X124482099Y-120341271D01*
X124400075Y-120464028D01*
X124295679Y-120568424D01*
X124172922Y-120650448D01*
X124036521Y-120706947D01*
X123912325Y-120731650D01*
X123891720Y-120735749D01*
X123744080Y-120735749D01*
X123723475Y-120731650D01*
X123599279Y-120706947D01*
X123462878Y-120650448D01*
X123340121Y-120568424D01*
X123235725Y-120464028D01*
X123153701Y-120341271D01*
X123097202Y-120204870D01*
X123068400Y-120060068D01*
X123068400Y-119912430D01*
X123097202Y-119767628D01*
X123153701Y-119631227D01*
X123235725Y-119508470D01*
X123340121Y-119404074D01*
X123462878Y-119322050D01*
X123599279Y-119265551D01*
X123723475Y-119240848D01*
X123744080Y-119236749D01*
X123891720Y-119236749D01*
X123912325Y-119240848D01*
G37*
G36*
X65612325Y-112560848D02*
G01*
X65736521Y-112585551D01*
X65872922Y-112642050D01*
X65995679Y-112724074D01*
X66100075Y-112828470D01*
X66182099Y-112951227D01*
X66238598Y-113087628D01*
X66267400Y-113232430D01*
X66267400Y-113380068D01*
X66238598Y-113524870D01*
X66182099Y-113661271D01*
X66100075Y-113784028D01*
X65995679Y-113888424D01*
X65872922Y-113970448D01*
X65736521Y-114026947D01*
X65612325Y-114051650D01*
X65591720Y-114055749D01*
X65444080Y-114055749D01*
X65423475Y-114051650D01*
X65299279Y-114026947D01*
X65162878Y-113970448D01*
X65040121Y-113888424D01*
X64935725Y-113784028D01*
X64853701Y-113661271D01*
X64797202Y-113524870D01*
X64768400Y-113380068D01*
X64768400Y-113232430D01*
X64797202Y-113087628D01*
X64853701Y-112951227D01*
X64935725Y-112828470D01*
X65040121Y-112724074D01*
X65162878Y-112642050D01*
X65299279Y-112585551D01*
X65423475Y-112560848D01*
X65444080Y-112556749D01*
X65591720Y-112556749D01*
X65612325Y-112560848D01*
G37*
G36*
X60532325Y-112560848D02*
G01*
X60656521Y-112585551D01*
X60792922Y-112642050D01*
X60915679Y-112724074D01*
X61020075Y-112828470D01*
X61102099Y-112951227D01*
X61158598Y-113087628D01*
X61187400Y-113232430D01*
X61187400Y-113380068D01*
X61158598Y-113524870D01*
X61102099Y-113661271D01*
X61020075Y-113784028D01*
X60915679Y-113888424D01*
X60792922Y-113970448D01*
X60656521Y-114026947D01*
X60532325Y-114051650D01*
X60511720Y-114055749D01*
X60364080Y-114055749D01*
X60343475Y-114051650D01*
X60219279Y-114026947D01*
X60082878Y-113970448D01*
X59960121Y-113888424D01*
X59855725Y-113784028D01*
X59773701Y-113661271D01*
X59717202Y-113524870D01*
X59688400Y-113380068D01*
X59688400Y-113232430D01*
X59717202Y-113087628D01*
X59773701Y-112951227D01*
X59855725Y-112828470D01*
X59960121Y-112724074D01*
X60082878Y-112642050D01*
X60219279Y-112585551D01*
X60343475Y-112560848D01*
X60364080Y-112556749D01*
X60511720Y-112556749D01*
X60532325Y-112560848D01*
G37*
G36*
X102432325Y-112385848D02*
G01*
X102556521Y-112410551D01*
X102692922Y-112467050D01*
X102815679Y-112549074D01*
X102920075Y-112653470D01*
X103002099Y-112776227D01*
X103058598Y-112912628D01*
X103087400Y-113057430D01*
X103087400Y-113205068D01*
X103058598Y-113349870D01*
X103002099Y-113486271D01*
X102920075Y-113609028D01*
X102815679Y-113713424D01*
X102692922Y-113795448D01*
X102556521Y-113851947D01*
X102432325Y-113876650D01*
X102411720Y-113880749D01*
X102264080Y-113880749D01*
X102243475Y-113876650D01*
X102119279Y-113851947D01*
X101982878Y-113795448D01*
X101860121Y-113713424D01*
X101755725Y-113609028D01*
X101673701Y-113486271D01*
X101617202Y-113349870D01*
X101588400Y-113205068D01*
X101588400Y-113057430D01*
X101617202Y-112912628D01*
X101673701Y-112776227D01*
X101755725Y-112653470D01*
X101860121Y-112549074D01*
X101982878Y-112467050D01*
X102119279Y-112410551D01*
X102243475Y-112385848D01*
X102264080Y-112381749D01*
X102411720Y-112381749D01*
X102432325Y-112385848D01*
G37*
G36*
X107512325Y-112385848D02*
G01*
X107636521Y-112410551D01*
X107772922Y-112467050D01*
X107895679Y-112549074D01*
X108000075Y-112653470D01*
X108082099Y-112776227D01*
X108138598Y-112912628D01*
X108167400Y-113057430D01*
X108167400Y-113205068D01*
X108138598Y-113349870D01*
X108082099Y-113486271D01*
X108000075Y-113609028D01*
X107895679Y-113713424D01*
X107772922Y-113795448D01*
X107636521Y-113851947D01*
X107512325Y-113876650D01*
X107491720Y-113880749D01*
X107344080Y-113880749D01*
X107323475Y-113876650D01*
X107199279Y-113851947D01*
X107062878Y-113795448D01*
X106940121Y-113713424D01*
X106835725Y-113609028D01*
X106753701Y-113486271D01*
X106697202Y-113349870D01*
X106668400Y-113205068D01*
X106668400Y-113057430D01*
X106697202Y-112912628D01*
X106753701Y-112776227D01*
X106835725Y-112653470D01*
X106940121Y-112549074D01*
X107062878Y-112467050D01*
X107199279Y-112410551D01*
X107323475Y-112385848D01*
X107344080Y-112381749D01*
X107491720Y-112381749D01*
X107512325Y-112385848D01*
G37*
G36*
X65612325Y-104940848D02*
G01*
X65736521Y-104965551D01*
X65872922Y-105022050D01*
X65995679Y-105104074D01*
X66100075Y-105208470D01*
X66182099Y-105331227D01*
X66238598Y-105467628D01*
X66267400Y-105612430D01*
X66267400Y-105760068D01*
X66238598Y-105904870D01*
X66182099Y-106041271D01*
X66100075Y-106164028D01*
X65995679Y-106268424D01*
X65872922Y-106350448D01*
X65736521Y-106406947D01*
X65612325Y-106431650D01*
X65591720Y-106435749D01*
X65444080Y-106435749D01*
X65423475Y-106431650D01*
X65299279Y-106406947D01*
X65162878Y-106350448D01*
X65040121Y-106268424D01*
X64935725Y-106164028D01*
X64853701Y-106041271D01*
X64797202Y-105904870D01*
X64768400Y-105760068D01*
X64768400Y-105612430D01*
X64797202Y-105467628D01*
X64853701Y-105331227D01*
X64935725Y-105208470D01*
X65040121Y-105104074D01*
X65162878Y-105022050D01*
X65299279Y-104965551D01*
X65423475Y-104940848D01*
X65444080Y-104936749D01*
X65591720Y-104936749D01*
X65612325Y-104940848D01*
G37*
G36*
X60532325Y-104940848D02*
G01*
X60656521Y-104965551D01*
X60792922Y-105022050D01*
X60915679Y-105104074D01*
X61020075Y-105208470D01*
X61102099Y-105331227D01*
X61158598Y-105467628D01*
X61187400Y-105612430D01*
X61187400Y-105760068D01*
X61158598Y-105904870D01*
X61102099Y-106041271D01*
X61020075Y-106164028D01*
X60915679Y-106268424D01*
X60792922Y-106350448D01*
X60656521Y-106406947D01*
X60532325Y-106431650D01*
X60511720Y-106435749D01*
X60364080Y-106435749D01*
X60343475Y-106431650D01*
X60219279Y-106406947D01*
X60082878Y-106350448D01*
X59960121Y-106268424D01*
X59855725Y-106164028D01*
X59773701Y-106041271D01*
X59717202Y-105904870D01*
X59688400Y-105760068D01*
X59688400Y-105612430D01*
X59717202Y-105467628D01*
X59773701Y-105331227D01*
X59855725Y-105208470D01*
X59960121Y-105104074D01*
X60082878Y-105022050D01*
X60219279Y-104965551D01*
X60343475Y-104940848D01*
X60364080Y-104936749D01*
X60511720Y-104936749D01*
X60532325Y-104940848D01*
G37*
G36*
X107512325Y-104765848D02*
G01*
X107636521Y-104790551D01*
X107772922Y-104847050D01*
X107895679Y-104929074D01*
X108000075Y-105033470D01*
X108082099Y-105156227D01*
X108138598Y-105292628D01*
X108167400Y-105437430D01*
X108167400Y-105585068D01*
X108138598Y-105729870D01*
X108082099Y-105866271D01*
X108000075Y-105989028D01*
X107895679Y-106093424D01*
X107772922Y-106175448D01*
X107636521Y-106231947D01*
X107512325Y-106256650D01*
X107491720Y-106260749D01*
X107344080Y-106260749D01*
X107323475Y-106256650D01*
X107199279Y-106231947D01*
X107062878Y-106175448D01*
X106940121Y-106093424D01*
X106835725Y-105989028D01*
X106753701Y-105866271D01*
X106697202Y-105729870D01*
X106668400Y-105585068D01*
X106668400Y-105437430D01*
X106697202Y-105292628D01*
X106753701Y-105156227D01*
X106835725Y-105033470D01*
X106940121Y-104929074D01*
X107062878Y-104847050D01*
X107199279Y-104790551D01*
X107323475Y-104765848D01*
X107344080Y-104761749D01*
X107491720Y-104761749D01*
X107512325Y-104765848D01*
G37*
G36*
X102432325Y-104765848D02*
G01*
X102556521Y-104790551D01*
X102692922Y-104847050D01*
X102815679Y-104929074D01*
X102920075Y-105033470D01*
X103002099Y-105156227D01*
X103058598Y-105292628D01*
X103087400Y-105437430D01*
X103087400Y-105585068D01*
X103058598Y-105729870D01*
X103002099Y-105866271D01*
X102920075Y-105989028D01*
X102815679Y-106093424D01*
X102692922Y-106175448D01*
X102556521Y-106231947D01*
X102432325Y-106256650D01*
X102411720Y-106260749D01*
X102264080Y-106260749D01*
X102243475Y-106256650D01*
X102119279Y-106231947D01*
X101982878Y-106175448D01*
X101860121Y-106093424D01*
X101755725Y-105989028D01*
X101673701Y-105866271D01*
X101617202Y-105729870D01*
X101588400Y-105585068D01*
X101588400Y-105437430D01*
X101617202Y-105292628D01*
X101673701Y-105156227D01*
X101755725Y-105033470D01*
X101860121Y-104929074D01*
X101982878Y-104847050D01*
X102119279Y-104790551D01*
X102243475Y-104765848D01*
X102264080Y-104761749D01*
X102411720Y-104761749D01*
X102432325Y-104765848D01*
G37*
G36*
X52352325Y-100130848D02*
G01*
X52476521Y-100155551D01*
X52612922Y-100212050D01*
X52735679Y-100294074D01*
X52840075Y-100398470D01*
X52922099Y-100521227D01*
X52978598Y-100657628D01*
X53007400Y-100802430D01*
X53007400Y-100950068D01*
X52978598Y-101094870D01*
X52922099Y-101231271D01*
X52840075Y-101354028D01*
X52735679Y-101458424D01*
X52612922Y-101540448D01*
X52476521Y-101596947D01*
X52352325Y-101621650D01*
X52331720Y-101625749D01*
X52184080Y-101625749D01*
X52163475Y-101621650D01*
X52039279Y-101596947D01*
X51902878Y-101540448D01*
X51780121Y-101458424D01*
X51675725Y-101354028D01*
X51593701Y-101231271D01*
X51537202Y-101094870D01*
X51508400Y-100950068D01*
X51508400Y-100802430D01*
X51537202Y-100657628D01*
X51593701Y-100521227D01*
X51675725Y-100398470D01*
X51780121Y-100294074D01*
X51902878Y-100212050D01*
X52039279Y-100155551D01*
X52163475Y-100130848D01*
X52184080Y-100126749D01*
X52331720Y-100126749D01*
X52352325Y-100130848D01*
G37*
G36*
X57432325Y-100130848D02*
G01*
X57556521Y-100155551D01*
X57692922Y-100212050D01*
X57815679Y-100294074D01*
X57920075Y-100398470D01*
X58002099Y-100521227D01*
X58058598Y-100657628D01*
X58087400Y-100802430D01*
X58087400Y-100950068D01*
X58058598Y-101094870D01*
X58002099Y-101231271D01*
X57920075Y-101354028D01*
X57815679Y-101458424D01*
X57692922Y-101540448D01*
X57556521Y-101596947D01*
X57432325Y-101621650D01*
X57411720Y-101625749D01*
X57264080Y-101625749D01*
X57243475Y-101621650D01*
X57119279Y-101596947D01*
X56982878Y-101540448D01*
X56860121Y-101458424D01*
X56755725Y-101354028D01*
X56673701Y-101231271D01*
X56617202Y-101094870D01*
X56588400Y-100950068D01*
X56588400Y-100802430D01*
X56617202Y-100657628D01*
X56673701Y-100521227D01*
X56755725Y-100398470D01*
X56860121Y-100294074D01*
X56982878Y-100212050D01*
X57119279Y-100155551D01*
X57243475Y-100130848D01*
X57264080Y-100126749D01*
X57411720Y-100126749D01*
X57432325Y-100130848D01*
G37*
G36*
X65512325Y-100085848D02*
G01*
X65636521Y-100110551D01*
X65772922Y-100167050D01*
X65895679Y-100249074D01*
X66000075Y-100353470D01*
X66082099Y-100476227D01*
X66138598Y-100612628D01*
X66167400Y-100757430D01*
X66167400Y-100905068D01*
X66138598Y-101049870D01*
X66082099Y-101186271D01*
X66000075Y-101309028D01*
X65895679Y-101413424D01*
X65772922Y-101495448D01*
X65636521Y-101551947D01*
X65512325Y-101576650D01*
X65491720Y-101580749D01*
X65344080Y-101580749D01*
X65323475Y-101576650D01*
X65199279Y-101551947D01*
X65062878Y-101495448D01*
X64940121Y-101413424D01*
X64835725Y-101309028D01*
X64753701Y-101186271D01*
X64697202Y-101049870D01*
X64668400Y-100905068D01*
X64668400Y-100757430D01*
X64697202Y-100612628D01*
X64753701Y-100476227D01*
X64835725Y-100353470D01*
X64940121Y-100249074D01*
X65062878Y-100167050D01*
X65199279Y-100110551D01*
X65323475Y-100085848D01*
X65344080Y-100081749D01*
X65491720Y-100081749D01*
X65512325Y-100085848D01*
G37*
G36*
X60432325Y-100085848D02*
G01*
X60556521Y-100110551D01*
X60692922Y-100167050D01*
X60815679Y-100249074D01*
X60920075Y-100353470D01*
X61002099Y-100476227D01*
X61058598Y-100612628D01*
X61087400Y-100757430D01*
X61087400Y-100905068D01*
X61058598Y-101049870D01*
X61002099Y-101186271D01*
X60920075Y-101309028D01*
X60815679Y-101413424D01*
X60692922Y-101495448D01*
X60556521Y-101551947D01*
X60432325Y-101576650D01*
X60411720Y-101580749D01*
X60264080Y-101580749D01*
X60243475Y-101576650D01*
X60119279Y-101551947D01*
X59982878Y-101495448D01*
X59860121Y-101413424D01*
X59755725Y-101309028D01*
X59673701Y-101186271D01*
X59617202Y-101049870D01*
X59588400Y-100905068D01*
X59588400Y-100757430D01*
X59617202Y-100612628D01*
X59673701Y-100476227D01*
X59755725Y-100353470D01*
X59860121Y-100249074D01*
X59982878Y-100167050D01*
X60119279Y-100110551D01*
X60243475Y-100085848D01*
X60264080Y-100081749D01*
X60411720Y-100081749D01*
X60432325Y-100085848D01*
G37*
G36*
X52352325Y-92510848D02*
G01*
X52476521Y-92535551D01*
X52612922Y-92592050D01*
X52735679Y-92674074D01*
X52840075Y-92778470D01*
X52922099Y-92901227D01*
X52978598Y-93037628D01*
X53007400Y-93182430D01*
X53007400Y-93330068D01*
X52978598Y-93474870D01*
X52922099Y-93611271D01*
X52840075Y-93734028D01*
X52735679Y-93838424D01*
X52612922Y-93920448D01*
X52476521Y-93976947D01*
X52352325Y-94001650D01*
X52331720Y-94005749D01*
X52184080Y-94005749D01*
X52163475Y-94001650D01*
X52039279Y-93976947D01*
X51902878Y-93920448D01*
X51780121Y-93838424D01*
X51675725Y-93734028D01*
X51593701Y-93611271D01*
X51537202Y-93474870D01*
X51508400Y-93330068D01*
X51508400Y-93182430D01*
X51537202Y-93037628D01*
X51593701Y-92901227D01*
X51675725Y-92778470D01*
X51780121Y-92674074D01*
X51902878Y-92592050D01*
X52039279Y-92535551D01*
X52163475Y-92510848D01*
X52184080Y-92506749D01*
X52331720Y-92506749D01*
X52352325Y-92510848D01*
G37*
G36*
X57432325Y-92510848D02*
G01*
X57556521Y-92535551D01*
X57692922Y-92592050D01*
X57815679Y-92674074D01*
X57920075Y-92778470D01*
X58002099Y-92901227D01*
X58058598Y-93037628D01*
X58087400Y-93182430D01*
X58087400Y-93330068D01*
X58058598Y-93474870D01*
X58002099Y-93611271D01*
X57920075Y-93734028D01*
X57815679Y-93838424D01*
X57692922Y-93920448D01*
X57556521Y-93976947D01*
X57432325Y-94001650D01*
X57411720Y-94005749D01*
X57264080Y-94005749D01*
X57243475Y-94001650D01*
X57119279Y-93976947D01*
X56982878Y-93920448D01*
X56860121Y-93838424D01*
X56755725Y-93734028D01*
X56673701Y-93611271D01*
X56617202Y-93474870D01*
X56588400Y-93330068D01*
X56588400Y-93182430D01*
X56617202Y-93037628D01*
X56673701Y-92901227D01*
X56755725Y-92778470D01*
X56860121Y-92674074D01*
X56982878Y-92592050D01*
X57119279Y-92535551D01*
X57243475Y-92510848D01*
X57264080Y-92506749D01*
X57411720Y-92506749D01*
X57432325Y-92510848D01*
G37*
G36*
X65512325Y-92465848D02*
G01*
X65636521Y-92490551D01*
X65772922Y-92547050D01*
X65895679Y-92629074D01*
X66000075Y-92733470D01*
X66082099Y-92856227D01*
X66138598Y-92992628D01*
X66167400Y-93137430D01*
X66167400Y-93285068D01*
X66138598Y-93429870D01*
X66082099Y-93566271D01*
X66000075Y-93689028D01*
X65895679Y-93793424D01*
X65772922Y-93875448D01*
X65636521Y-93931947D01*
X65512325Y-93956650D01*
X65491720Y-93960749D01*
X65344080Y-93960749D01*
X65323475Y-93956650D01*
X65199279Y-93931947D01*
X65062878Y-93875448D01*
X64940121Y-93793424D01*
X64835725Y-93689028D01*
X64753701Y-93566271D01*
X64697202Y-93429870D01*
X64668400Y-93285068D01*
X64668400Y-93137430D01*
X64697202Y-92992628D01*
X64753701Y-92856227D01*
X64835725Y-92733470D01*
X64940121Y-92629074D01*
X65062878Y-92547050D01*
X65199279Y-92490551D01*
X65323475Y-92465848D01*
X65344080Y-92461749D01*
X65491720Y-92461749D01*
X65512325Y-92465848D01*
G37*
G36*
X60432325Y-92465848D02*
G01*
X60556521Y-92490551D01*
X60692922Y-92547050D01*
X60815679Y-92629074D01*
X60920075Y-92733470D01*
X61002099Y-92856227D01*
X61058598Y-92992628D01*
X61087400Y-93137430D01*
X61087400Y-93285068D01*
X61058598Y-93429870D01*
X61002099Y-93566271D01*
X60920075Y-93689028D01*
X60815679Y-93793424D01*
X60692922Y-93875448D01*
X60556521Y-93931947D01*
X60432325Y-93956650D01*
X60411720Y-93960749D01*
X60264080Y-93960749D01*
X60243475Y-93956650D01*
X60119279Y-93931947D01*
X59982878Y-93875448D01*
X59860121Y-93793424D01*
X59755725Y-93689028D01*
X59673701Y-93566271D01*
X59617202Y-93429870D01*
X59588400Y-93285068D01*
X59588400Y-93137430D01*
X59617202Y-92992628D01*
X59673701Y-92856227D01*
X59755725Y-92733470D01*
X59860121Y-92629074D01*
X59982878Y-92547050D01*
X60119279Y-92490551D01*
X60243475Y-92465848D01*
X60264080Y-92461749D01*
X60411720Y-92461749D01*
X60432325Y-92465848D01*
G37*
G36*
X64597275Y-79792013D02*
G01*
X64750526Y-79838501D01*
X64750529Y-79838502D01*
X64891763Y-79913993D01*
X65015559Y-80015590D01*
X65117156Y-80139386D01*
X65192647Y-80280619D01*
X65192647Y-80280620D01*
X65192648Y-80280622D01*
X65239136Y-80433873D01*
X65239136Y-80433875D01*
X65248214Y-80526039D01*
X65250900Y-80553316D01*
X65250900Y-82009182D01*
X65239136Y-82128625D01*
X65192648Y-82281876D01*
X65192647Y-82281879D01*
X65117156Y-82423112D01*
X65015559Y-82546908D01*
X64891763Y-82648505D01*
X64750530Y-82723996D01*
X64750527Y-82723997D01*
X64597276Y-82770485D01*
X64437900Y-82786182D01*
X64278525Y-82770485D01*
X64125274Y-82723997D01*
X64125271Y-82723996D01*
X63984038Y-82648505D01*
X63860242Y-82546908D01*
X63758645Y-82423112D01*
X63683154Y-82281879D01*
X63683153Y-82281876D01*
X63636665Y-82128625D01*
X63624901Y-82009182D01*
X63624900Y-80553317D01*
X63636664Y-80433874D01*
X63683152Y-80280623D01*
X63683153Y-80280620D01*
X63758644Y-80139386D01*
X63860241Y-80015590D01*
X63984037Y-79913993D01*
X64125270Y-79838502D01*
X64125273Y-79838501D01*
X64278524Y-79792013D01*
X64437900Y-79776316D01*
X64597275Y-79792013D01*
G37*
G36*
X138297275Y-79792013D02*
G01*
X138450526Y-79838501D01*
X138450529Y-79838502D01*
X138591763Y-79913993D01*
X138715559Y-80015590D01*
X138817156Y-80139386D01*
X138892647Y-80280619D01*
X138892647Y-80280620D01*
X138892648Y-80280622D01*
X138939136Y-80433873D01*
X138939136Y-80433875D01*
X138948214Y-80526039D01*
X138950900Y-80553316D01*
X138950900Y-82009182D01*
X138939136Y-82128625D01*
X138892648Y-82281876D01*
X138892647Y-82281879D01*
X138817156Y-82423112D01*
X138715559Y-82546908D01*
X138591763Y-82648505D01*
X138450530Y-82723996D01*
X138450527Y-82723997D01*
X138297276Y-82770485D01*
X138137900Y-82786182D01*
X137978525Y-82770485D01*
X137825274Y-82723997D01*
X137825271Y-82723996D01*
X137684038Y-82648505D01*
X137560242Y-82546908D01*
X137458645Y-82423112D01*
X137383154Y-82281879D01*
X137383153Y-82281876D01*
X137336665Y-82128625D01*
X137324901Y-82009182D01*
X137324900Y-80553317D01*
X137336664Y-80433874D01*
X137383152Y-80280623D01*
X137383153Y-80280620D01*
X137458644Y-80139386D01*
X137560241Y-80015590D01*
X137684037Y-79913993D01*
X137825270Y-79838502D01*
X137825273Y-79838501D01*
X137978524Y-79792013D01*
X138137900Y-79776316D01*
X138297275Y-79792013D01*
G37*
G36*
X53110615Y-79464307D02*
G01*
X53206653Y-79493440D01*
X53221835Y-79498045D01*
X53228622Y-79500104D01*
X53337368Y-79558230D01*
X53432690Y-79636459D01*
X53510919Y-79731781D01*
X53569045Y-79840527D01*
X53604842Y-79958534D01*
X53616928Y-80081249D01*
X53604842Y-80203964D01*
X53569045Y-80321971D01*
X53510919Y-80430717D01*
X53432690Y-80526039D01*
X53337368Y-80604268D01*
X53228622Y-80662394D01*
X53110615Y-80698191D01*
X53018646Y-80707249D01*
X52307154Y-80707249D01*
X52215185Y-80698191D01*
X52097178Y-80662394D01*
X51988432Y-80604268D01*
X51893110Y-80526039D01*
X51814881Y-80430717D01*
X51756755Y-80321971D01*
X51720958Y-80203964D01*
X51708872Y-80081249D01*
X51720958Y-79958534D01*
X51756755Y-79840527D01*
X51814881Y-79731781D01*
X51893110Y-79636459D01*
X51988432Y-79558230D01*
X52097178Y-79500104D01*
X52103966Y-79498045D01*
X52119147Y-79493440D01*
X52215185Y-79464307D01*
X52307154Y-79455249D01*
X53018646Y-79455249D01*
X53110615Y-79464307D01*
G37*
G36*
X55544452Y-78272580D02*
G01*
X55626527Y-78306577D01*
X55626529Y-78306578D01*
X55663713Y-78331424D01*
X55700395Y-78355934D01*
X55763215Y-78418754D01*
X55812572Y-78492622D01*
X55846569Y-78574697D01*
X55863900Y-78661828D01*
X55863900Y-78750670D01*
X55846569Y-78837801D01*
X55812572Y-78919876D01*
X55763215Y-78993744D01*
X55747662Y-79009297D01*
X55732117Y-79028239D01*
X55720566Y-79049850D01*
X55713453Y-79073299D01*
X55711051Y-79097685D01*
X55713453Y-79122071D01*
X55720566Y-79145520D01*
X55732117Y-79167131D01*
X55747662Y-79186073D01*
X55766604Y-79201618D01*
X55788215Y-79213169D01*
X55811664Y-79220282D01*
X55836050Y-79222684D01*
X55860436Y-79220282D01*
X55883885Y-79213169D01*
X55887514Y-79211453D01*
X55889500Y-79210851D01*
X55889501Y-79210850D01*
X55933801Y-79197412D01*
X56035779Y-79166477D01*
X56149782Y-79155249D01*
X56776018Y-79155249D01*
X56890021Y-79166477D01*
X57036302Y-79210851D01*
X57171104Y-79282904D01*
X57171107Y-79282906D01*
X57171108Y-79282907D01*
X57256468Y-79352961D01*
X57289269Y-79379880D01*
X57386245Y-79498045D01*
X57458298Y-79632847D01*
X57502672Y-79779128D01*
X57517654Y-79931249D01*
X57502672Y-80083370D01*
X57458298Y-80229651D01*
X57386245Y-80364453D01*
X57386243Y-80364456D01*
X57386242Y-80364457D01*
X57289269Y-80482618D01*
X57203123Y-80553317D01*
X57171104Y-80579594D01*
X57036302Y-80651647D01*
X56890021Y-80696021D01*
X56776018Y-80707249D01*
X56149782Y-80707249D01*
X56035779Y-80696021D01*
X55889498Y-80651647D01*
X55754696Y-80579594D01*
X55722678Y-80553317D01*
X55636531Y-80482618D01*
X55539558Y-80364457D01*
X55539557Y-80364456D01*
X55539555Y-80364453D01*
X55467502Y-80229651D01*
X55423128Y-80083370D01*
X55408146Y-79931249D01*
X55423128Y-79779128D01*
X55467502Y-79632847D01*
X55539555Y-79498045D01*
X55636533Y-79379877D01*
X55669330Y-79352961D01*
X55686657Y-79335634D01*
X55700270Y-79315260D01*
X55709648Y-79292621D01*
X55714428Y-79268588D01*
X55714428Y-79244084D01*
X55709648Y-79220050D01*
X55700270Y-79197412D01*
X55686656Y-79177037D01*
X55669329Y-79159710D01*
X55648955Y-79146097D01*
X55626316Y-79136719D01*
X55602283Y-79131939D01*
X55577779Y-79131939D01*
X55553745Y-79136719D01*
X55545251Y-79139759D01*
X55457321Y-79157249D01*
X55368479Y-79157249D01*
X55281348Y-79139918D01*
X55199273Y-79105921D01*
X55199272Y-79105921D01*
X55199271Y-79105920D01*
X55125404Y-79056563D01*
X55062586Y-78993745D01*
X55013229Y-78919878D01*
X55013228Y-78919876D01*
X54979231Y-78837801D01*
X54961900Y-78750670D01*
X54961900Y-78661828D01*
X54979231Y-78574697D01*
X55013228Y-78492622D01*
X55062585Y-78418754D01*
X55125405Y-78355934D01*
X55162087Y-78331424D01*
X55199271Y-78306578D01*
X55199273Y-78306577D01*
X55281348Y-78272580D01*
X55368479Y-78255249D01*
X55457321Y-78255249D01*
X55544452Y-78272580D01*
G37*
G36*
X56890021Y-71716477D02*
G01*
X57036302Y-71760851D01*
X57171104Y-71832904D01*
X57171107Y-71832906D01*
X57171108Y-71832907D01*
X57289269Y-71929880D01*
X57331863Y-71981780D01*
X57386245Y-72048045D01*
X57458298Y-72182847D01*
X57502672Y-72329128D01*
X57517654Y-72481249D01*
X57502672Y-72633370D01*
X57458298Y-72779651D01*
X57386245Y-72914453D01*
X57386243Y-72914456D01*
X57386242Y-72914457D01*
X57289269Y-73032618D01*
X57197016Y-73108329D01*
X57171104Y-73129594D01*
X57036302Y-73201647D01*
X56890021Y-73246021D01*
X56776018Y-73257249D01*
X56149782Y-73257249D01*
X56035779Y-73246021D01*
X55883564Y-73199847D01*
X55872339Y-73195197D01*
X55848305Y-73190416D01*
X55823801Y-73190416D01*
X55799768Y-73195195D01*
X55777129Y-73204572D01*
X55756754Y-73218185D01*
X55739427Y-73235512D01*
X55725812Y-73255886D01*
X55716434Y-73278524D01*
X55711653Y-73302558D01*
X55711653Y-73327062D01*
X55716432Y-73351095D01*
X55725809Y-73373734D01*
X55739422Y-73394109D01*
X55747662Y-73403201D01*
X55763215Y-73418754D01*
X55812572Y-73492622D01*
X55846569Y-73574697D01*
X55863900Y-73661828D01*
X55863900Y-73750670D01*
X55846569Y-73837801D01*
X55812572Y-73919876D01*
X55812571Y-73919878D01*
X55763214Y-73993745D01*
X55700396Y-74056563D01*
X55626529Y-74105920D01*
X55626528Y-74105921D01*
X55626527Y-74105921D01*
X55544452Y-74139918D01*
X55457321Y-74157249D01*
X55368479Y-74157249D01*
X55281348Y-74139918D01*
X55199273Y-74105921D01*
X55199272Y-74105921D01*
X55199271Y-74105920D01*
X55125404Y-74056563D01*
X55062586Y-73993745D01*
X55013229Y-73919878D01*
X55013228Y-73919876D01*
X54979231Y-73837801D01*
X54961900Y-73750670D01*
X54961900Y-73661828D01*
X54979231Y-73574697D01*
X55013228Y-73492622D01*
X55062585Y-73418754D01*
X55125405Y-73355934D01*
X55168615Y-73327062D01*
X55199271Y-73306578D01*
X55208976Y-73302558D01*
X55281348Y-73272580D01*
X55368479Y-73255249D01*
X55457321Y-73255249D01*
X55546846Y-73273056D01*
X55565643Y-73278759D01*
X55590029Y-73281161D01*
X55614415Y-73278760D01*
X55637864Y-73271647D01*
X55659475Y-73260096D01*
X55678417Y-73244551D01*
X55693963Y-73225610D01*
X55705514Y-73203999D01*
X55712628Y-73180550D01*
X55715030Y-73156164D01*
X55712629Y-73131778D01*
X55705516Y-73108329D01*
X55693965Y-73086718D01*
X55678420Y-73067776D01*
X55669330Y-73059537D01*
X55636533Y-73032621D01*
X55539555Y-72914453D01*
X55467502Y-72779651D01*
X55423128Y-72633370D01*
X55408146Y-72481249D01*
X55423128Y-72329128D01*
X55467502Y-72182847D01*
X55539555Y-72048045D01*
X55593938Y-71981780D01*
X55636531Y-71929880D01*
X55754692Y-71832907D01*
X55754693Y-71832906D01*
X55754696Y-71832904D01*
X55889498Y-71760851D01*
X56035779Y-71716477D01*
X56149782Y-71705249D01*
X56776018Y-71705249D01*
X56890021Y-71716477D01*
G37*
G36*
X53110615Y-71714307D02*
G01*
X53228622Y-71750104D01*
X53337368Y-71808230D01*
X53432690Y-71886459D01*
X53510919Y-71981781D01*
X53569045Y-72090527D01*
X53604842Y-72208534D01*
X53616928Y-72331249D01*
X53604842Y-72453964D01*
X53569045Y-72571971D01*
X53510919Y-72680717D01*
X53432690Y-72776039D01*
X53337368Y-72854268D01*
X53228622Y-72912394D01*
X53228619Y-72912395D01*
X53221821Y-72914457D01*
X53110615Y-72948191D01*
X53018646Y-72957249D01*
X52307154Y-72957249D01*
X52215185Y-72948191D01*
X52103979Y-72914457D01*
X52097181Y-72912395D01*
X52097178Y-72912394D01*
X51988432Y-72854268D01*
X51893110Y-72776039D01*
X51814881Y-72680717D01*
X51756755Y-72571971D01*
X51720958Y-72453964D01*
X51708872Y-72331249D01*
X51720958Y-72208534D01*
X51756755Y-72090527D01*
X51814881Y-71981781D01*
X51893110Y-71886459D01*
X51988432Y-71808230D01*
X52097178Y-71750104D01*
X52215185Y-71714307D01*
X52307154Y-71705249D01*
X53018646Y-71705249D01*
X53110615Y-71714307D01*
G37*
G36*
X138297275Y-59892013D02*
G01*
X138450526Y-59938501D01*
X138450529Y-59938502D01*
X138591763Y-60013993D01*
X138715559Y-60115590D01*
X138817156Y-60239386D01*
X138892647Y-60380619D01*
X138892647Y-60380620D01*
X138892648Y-60380622D01*
X138939136Y-60533873D01*
X138950900Y-60653316D01*
X138950900Y-62109182D01*
X138939136Y-62228625D01*
X138892648Y-62381876D01*
X138892647Y-62381879D01*
X138817156Y-62523112D01*
X138715559Y-62646908D01*
X138591763Y-62748505D01*
X138450530Y-62823996D01*
X138450527Y-62823997D01*
X138297276Y-62870485D01*
X138137900Y-62886182D01*
X137978525Y-62870485D01*
X137825274Y-62823997D01*
X137825271Y-62823996D01*
X137684038Y-62748505D01*
X137560242Y-62646908D01*
X137458645Y-62523112D01*
X137383154Y-62381879D01*
X137383153Y-62381876D01*
X137336665Y-62228625D01*
X137324901Y-62109182D01*
X137324900Y-60653317D01*
X137336664Y-60533874D01*
X137383152Y-60380623D01*
X137383153Y-60380620D01*
X137458644Y-60239386D01*
X137560241Y-60115590D01*
X137684037Y-60013993D01*
X137825270Y-59938502D01*
X137825273Y-59938501D01*
X137978524Y-59892013D01*
X138137900Y-59876316D01*
X138297275Y-59892013D01*
G37*
G36*
X64597275Y-59892013D02*
G01*
X64750526Y-59938501D01*
X64750529Y-59938502D01*
X64891763Y-60013993D01*
X65015559Y-60115590D01*
X65117156Y-60239386D01*
X65192647Y-60380619D01*
X65192647Y-60380620D01*
X65192648Y-60380622D01*
X65239136Y-60533873D01*
X65250900Y-60653316D01*
X65250900Y-62109182D01*
X65239136Y-62228625D01*
X65192648Y-62381876D01*
X65192647Y-62381879D01*
X65117156Y-62523112D01*
X65015559Y-62646908D01*
X64891763Y-62748505D01*
X64750530Y-62823996D01*
X64750527Y-62823997D01*
X64597276Y-62870485D01*
X64437900Y-62886182D01*
X64278525Y-62870485D01*
X64125274Y-62823997D01*
X64125271Y-62823996D01*
X63984038Y-62748505D01*
X63860242Y-62646908D01*
X63758645Y-62523112D01*
X63683154Y-62381879D01*
X63683153Y-62381876D01*
X63636665Y-62228625D01*
X63624901Y-62109182D01*
X63624900Y-60653317D01*
X63636664Y-60533874D01*
X63683152Y-60380623D01*
X63683153Y-60380620D01*
X63758644Y-60239386D01*
X63860241Y-60115590D01*
X63984037Y-60013993D01*
X64125270Y-59938502D01*
X64125273Y-59938501D01*
X64278524Y-59892013D01*
X64437900Y-59876316D01*
X64597275Y-59892013D01*
G37*
G36*
X59088900Y-54832249D02*
G01*
X57286900Y-54832249D01*
X57286900Y-53030249D01*
X59088900Y-53030249D01*
X59088900Y-54832249D01*
G37*
G36*
X55761412Y-53035176D02*
G01*
X55910712Y-53064873D01*
X56074684Y-53132793D01*
X56222254Y-53231396D01*
X56347753Y-53356895D01*
X56446356Y-53504465D01*
X56514276Y-53668437D01*
X56548900Y-53842508D01*
X56548900Y-54019990D01*
X56514276Y-54194061D01*
X56446356Y-54358033D01*
X56347753Y-54505603D01*
X56222254Y-54631102D01*
X56074684Y-54729705D01*
X55910712Y-54797625D01*
X55761412Y-54827322D01*
X55736642Y-54832249D01*
X55559158Y-54832249D01*
X55534388Y-54827322D01*
X55385088Y-54797625D01*
X55221116Y-54729705D01*
X55073546Y-54631102D01*
X54948047Y-54505603D01*
X54849444Y-54358033D01*
X54781524Y-54194061D01*
X54746900Y-54019990D01*
X54746900Y-53842508D01*
X54781524Y-53668437D01*
X54849444Y-53504465D01*
X54948047Y-53356895D01*
X55073546Y-53231396D01*
X55221116Y-53132793D01*
X55385088Y-53064873D01*
X55534388Y-53035176D01*
X55559158Y-53030249D01*
X55736642Y-53030249D01*
X55761412Y-53035176D01*
G37*
G36*
X53221412Y-53035176D02*
G01*
X53370712Y-53064873D01*
X53534684Y-53132793D01*
X53682254Y-53231396D01*
X53807753Y-53356895D01*
X53906356Y-53504465D01*
X53974276Y-53668437D01*
X54008900Y-53842508D01*
X54008900Y-54019990D01*
X53974276Y-54194061D01*
X53906356Y-54358033D01*
X53807753Y-54505603D01*
X53682254Y-54631102D01*
X53534684Y-54729705D01*
X53370712Y-54797625D01*
X53221412Y-54827322D01*
X53196642Y-54832249D01*
X53019158Y-54832249D01*
X52994388Y-54827322D01*
X52845088Y-54797625D01*
X52681116Y-54729705D01*
X52533546Y-54631102D01*
X52408047Y-54505603D01*
X52309444Y-54358033D01*
X52241524Y-54194061D01*
X52206900Y-54019990D01*
X52206900Y-53842508D01*
X52241524Y-53668437D01*
X52309444Y-53504465D01*
X52408047Y-53356895D01*
X52533546Y-53231396D01*
X52681116Y-53132793D01*
X52845088Y-53064873D01*
X52994388Y-53035176D01*
X53019158Y-53030249D01*
X53196642Y-53030249D01*
X53221412Y-53035176D01*
G37*
G36*
X77205388Y-50034350D02*
G01*
X77212901Y-50037462D01*
X77251068Y-50053271D01*
X77292172Y-50080736D01*
X77292174Y-50080738D01*
X77292177Y-50080740D01*
X77327138Y-50115701D01*
X77327140Y-50115704D01*
X77327142Y-50115706D01*
X77354607Y-50156810D01*
X77366955Y-50186621D01*
X77373528Y-50202490D01*
X77383174Y-50250983D01*
X77383174Y-50300425D01*
X77373528Y-50348918D01*
X77368707Y-50360556D01*
X77354607Y-50394598D01*
X77327142Y-50435702D01*
X77327140Y-50435704D01*
X77327138Y-50435707D01*
X77292177Y-50470668D01*
X77292174Y-50470670D01*
X77292172Y-50470672D01*
X77251068Y-50498137D01*
X77222027Y-50510166D01*
X77205388Y-50517058D01*
X77156895Y-50526704D01*
X77107453Y-50526704D01*
X77058960Y-50517058D01*
X77042321Y-50510166D01*
X77013280Y-50498137D01*
X76972176Y-50470672D01*
X76972174Y-50470670D01*
X76972171Y-50470668D01*
X76937210Y-50435707D01*
X76932948Y-50429329D01*
X76928500Y-50422672D01*
X76912954Y-50403730D01*
X76894012Y-50388185D01*
X76872401Y-50376634D01*
X76848952Y-50369521D01*
X76824566Y-50367120D01*
X76800180Y-50369522D01*
X76776731Y-50376636D01*
X76755121Y-50388187D01*
X76736179Y-50403733D01*
X76720636Y-50422673D01*
X76711753Y-50435967D01*
X76676792Y-50470928D01*
X76676789Y-50470930D01*
X76676787Y-50470932D01*
X76635683Y-50498397D01*
X76607897Y-50509906D01*
X76590003Y-50517318D01*
X76541510Y-50526964D01*
X76492068Y-50526964D01*
X76443575Y-50517318D01*
X76425681Y-50509906D01*
X76397895Y-50498397D01*
X76356791Y-50470932D01*
X76356789Y-50470930D01*
X76356786Y-50470928D01*
X76321825Y-50435967D01*
X76313114Y-50422930D01*
X76297573Y-50403993D01*
X76278631Y-50388447D01*
X76257021Y-50376896D01*
X76233572Y-50369782D01*
X76209186Y-50367380D01*
X76184800Y-50369781D01*
X76161351Y-50376894D01*
X76139740Y-50388445D01*
X76120798Y-50403990D01*
X76105252Y-50422932D01*
X76100976Y-50429331D01*
X76096369Y-50436226D01*
X76061408Y-50471187D01*
X76061405Y-50471189D01*
X76061403Y-50471191D01*
X76020299Y-50498656D01*
X75992511Y-50510166D01*
X75974619Y-50517577D01*
X75926126Y-50527223D01*
X75876684Y-50527223D01*
X75828191Y-50517577D01*
X75810299Y-50510166D01*
X75782511Y-50498656D01*
X75741407Y-50471191D01*
X75741405Y-50471189D01*
X75741402Y-50471187D01*
X75706441Y-50436226D01*
X75701834Y-50429331D01*
X75697731Y-50423191D01*
X75682185Y-50404249D01*
X75663243Y-50388704D01*
X75641632Y-50377153D01*
X75618183Y-50370040D01*
X75593797Y-50367639D01*
X75569411Y-50370041D01*
X75545962Y-50377155D01*
X75524352Y-50388706D01*
X75505410Y-50404252D01*
X75489867Y-50423191D01*
X75486455Y-50428297D01*
X75480984Y-50436485D01*
X75446023Y-50471446D01*
X75446020Y-50471448D01*
X75446018Y-50471450D01*
X75404914Y-50498915D01*
X75377126Y-50510425D01*
X75359234Y-50517836D01*
X75310741Y-50527482D01*
X75261299Y-50527482D01*
X75212806Y-50517836D01*
X75194914Y-50510425D01*
X75167126Y-50498915D01*
X75126022Y-50471450D01*
X75126020Y-50471448D01*
X75126017Y-50471446D01*
X75091056Y-50436485D01*
X75085585Y-50428297D01*
X75082346Y-50423450D01*
X75066800Y-50404508D01*
X75047858Y-50388963D01*
X75026247Y-50377412D01*
X75002798Y-50370299D01*
X74978412Y-50367898D01*
X74954026Y-50370300D01*
X74930577Y-50377414D01*
X74908967Y-50388965D01*
X74890025Y-50404511D01*
X74874482Y-50423450D01*
X74871243Y-50428297D01*
X74865599Y-50436744D01*
X74830638Y-50471705D01*
X74830635Y-50471707D01*
X74830633Y-50471709D01*
X74789529Y-50499174D01*
X74761741Y-50510684D01*
X74743849Y-50518095D01*
X74695356Y-50527741D01*
X74645914Y-50527741D01*
X74597421Y-50518095D01*
X74579529Y-50510684D01*
X74551741Y-50499174D01*
X74510637Y-50471709D01*
X74510635Y-50471707D01*
X74510632Y-50471705D01*
X74475671Y-50436744D01*
X74466960Y-50423707D01*
X74451419Y-50404770D01*
X74432477Y-50389224D01*
X74410867Y-50377673D01*
X74387418Y-50370559D01*
X74363032Y-50368157D01*
X74338646Y-50370558D01*
X74315197Y-50377671D01*
X74293586Y-50389222D01*
X74274644Y-50404767D01*
X74259098Y-50423709D01*
X74255514Y-50429072D01*
X74250215Y-50437003D01*
X74215254Y-50471964D01*
X74215251Y-50471966D01*
X74215249Y-50471968D01*
X74174145Y-50499433D01*
X74141845Y-50512812D01*
X74128465Y-50518354D01*
X74079972Y-50528000D01*
X74030530Y-50528000D01*
X73982037Y-50518354D01*
X73968657Y-50512812D01*
X73936357Y-50499433D01*
X73895253Y-50471968D01*
X73895251Y-50471966D01*
X73895248Y-50471964D01*
X73860287Y-50437003D01*
X73854988Y-50429073D01*
X73851577Y-50423968D01*
X73836031Y-50405026D01*
X73817089Y-50389481D01*
X73795478Y-50377930D01*
X73772029Y-50370817D01*
X73747643Y-50368416D01*
X73723257Y-50370818D01*
X73699808Y-50377932D01*
X73678198Y-50389483D01*
X73659256Y-50405029D01*
X73643713Y-50423968D01*
X73640131Y-50429329D01*
X73634830Y-50437262D01*
X73599869Y-50472223D01*
X73599866Y-50472225D01*
X73599864Y-50472227D01*
X73558760Y-50499692D01*
X73532845Y-50510426D01*
X73513080Y-50518613D01*
X73464587Y-50528259D01*
X73415145Y-50528259D01*
X73366652Y-50518613D01*
X73346887Y-50510426D01*
X73320972Y-50499692D01*
X73279868Y-50472227D01*
X73279866Y-50472225D01*
X73279863Y-50472223D01*
X73244902Y-50437262D01*
X73239605Y-50429334D01*
X73236192Y-50424227D01*
X73220646Y-50405285D01*
X73201704Y-50389740D01*
X73180093Y-50378189D01*
X73156644Y-50371076D01*
X73132258Y-50368675D01*
X73107872Y-50371077D01*
X73084423Y-50378191D01*
X73062813Y-50389742D01*
X73043871Y-50405288D01*
X73028328Y-50424228D01*
X73019445Y-50437522D01*
X72984484Y-50472483D01*
X72984481Y-50472485D01*
X72984479Y-50472487D01*
X72943375Y-50499952D01*
X72911075Y-50513331D01*
X72897695Y-50518873D01*
X72849202Y-50528519D01*
X72799760Y-50528519D01*
X72751267Y-50518873D01*
X72737887Y-50513331D01*
X72705587Y-50499952D01*
X72664483Y-50472487D01*
X72664481Y-50472485D01*
X72664478Y-50472483D01*
X72629517Y-50437522D01*
X72620806Y-50424485D01*
X72605265Y-50405548D01*
X72586323Y-50390002D01*
X72564713Y-50378451D01*
X72541264Y-50371337D01*
X72516878Y-50368935D01*
X72492492Y-50371336D01*
X72469043Y-50378449D01*
X72447432Y-50390000D01*
X72428490Y-50405545D01*
X72412944Y-50424487D01*
X72409707Y-50429331D01*
X72404061Y-50437781D01*
X72369100Y-50472742D01*
X72369097Y-50472744D01*
X72369095Y-50472746D01*
X72327991Y-50500211D01*
X72303329Y-50510426D01*
X72282311Y-50519132D01*
X72233818Y-50528778D01*
X72184376Y-50528778D01*
X72135883Y-50519132D01*
X72114865Y-50510426D01*
X72090203Y-50500211D01*
X72049099Y-50472746D01*
X72049097Y-50472744D01*
X72049094Y-50472742D01*
X72014133Y-50437781D01*
X72008487Y-50429331D01*
X72005423Y-50424746D01*
X71989877Y-50405804D01*
X71970935Y-50390259D01*
X71949324Y-50378708D01*
X71925875Y-50371595D01*
X71901489Y-50369194D01*
X71877103Y-50371596D01*
X71853654Y-50378710D01*
X71832044Y-50390261D01*
X71813102Y-50405807D01*
X71797559Y-50424746D01*
X71790061Y-50435967D01*
X71788676Y-50438040D01*
X71753715Y-50473001D01*
X71753712Y-50473003D01*
X71753710Y-50473005D01*
X71712606Y-50500470D01*
X71687944Y-50510685D01*
X71666926Y-50519391D01*
X71618433Y-50529037D01*
X71568991Y-50529037D01*
X71520498Y-50519391D01*
X71499480Y-50510685D01*
X71474818Y-50500470D01*
X71433714Y-50473005D01*
X71433712Y-50473003D01*
X71433709Y-50473001D01*
X71398748Y-50438040D01*
X71390037Y-50425003D01*
X71374496Y-50406066D01*
X71355554Y-50390520D01*
X71333944Y-50378969D01*
X71310495Y-50371855D01*
X71286109Y-50369453D01*
X71261723Y-50371854D01*
X71238274Y-50378967D01*
X71216663Y-50390518D01*
X71197721Y-50406063D01*
X71182175Y-50425005D01*
X71179457Y-50429072D01*
X71173292Y-50438299D01*
X71138331Y-50473260D01*
X71138328Y-50473262D01*
X71138326Y-50473264D01*
X71097222Y-50500729D01*
X71064922Y-50514108D01*
X71051542Y-50519650D01*
X71003049Y-50529296D01*
X70953607Y-50529296D01*
X70905114Y-50519650D01*
X70891734Y-50514108D01*
X70859434Y-50500729D01*
X70818330Y-50473264D01*
X70818328Y-50473262D01*
X70818325Y-50473260D01*
X70783364Y-50438299D01*
X70777199Y-50429072D01*
X70774654Y-50425264D01*
X70759108Y-50406322D01*
X70740166Y-50390777D01*
X70718555Y-50379226D01*
X70695106Y-50372113D01*
X70670720Y-50369712D01*
X70646334Y-50372114D01*
X70622885Y-50379228D01*
X70601275Y-50390779D01*
X70582333Y-50406325D01*
X70566790Y-50425264D01*
X70564074Y-50429329D01*
X70557907Y-50438558D01*
X70522946Y-50473519D01*
X70522943Y-50473521D01*
X70522941Y-50473523D01*
X70481837Y-50500988D01*
X70459051Y-50510426D01*
X70436157Y-50519909D01*
X70387664Y-50529555D01*
X70338222Y-50529555D01*
X70289729Y-50519909D01*
X70266835Y-50510426D01*
X70244049Y-50500988D01*
X70202945Y-50473523D01*
X70202943Y-50473521D01*
X70202940Y-50473519D01*
X70167979Y-50438558D01*
X70161812Y-50429329D01*
X70159269Y-50425523D01*
X70143723Y-50406581D01*
X70124781Y-50391036D01*
X70103170Y-50379485D01*
X70079721Y-50372372D01*
X70055335Y-50369971D01*
X70030949Y-50372373D01*
X70007500Y-50379487D01*
X69985890Y-50391038D01*
X69966948Y-50406584D01*
X69951405Y-50425524D01*
X69942522Y-50438818D01*
X69907561Y-50473779D01*
X69907558Y-50473781D01*
X69907556Y-50473783D01*
X69866452Y-50501248D01*
X69834152Y-50514627D01*
X69820772Y-50520169D01*
X69772279Y-50529815D01*
X69722837Y-50529815D01*
X69674344Y-50520169D01*
X69660964Y-50514627D01*
X69628664Y-50501248D01*
X69587560Y-50473783D01*
X69587558Y-50473781D01*
X69587555Y-50473779D01*
X69552594Y-50438818D01*
X69543883Y-50425781D01*
X69528342Y-50406844D01*
X69509400Y-50391298D01*
X69487790Y-50379747D01*
X69464341Y-50372633D01*
X69439955Y-50370231D01*
X69415569Y-50372632D01*
X69392120Y-50379745D01*
X69370509Y-50391296D01*
X69351567Y-50406841D01*
X69336021Y-50425783D01*
X69333650Y-50429331D01*
X69327138Y-50439077D01*
X69292177Y-50474038D01*
X69292174Y-50474040D01*
X69292172Y-50474042D01*
X69251068Y-50501507D01*
X69229535Y-50510426D01*
X69205388Y-50520428D01*
X69156895Y-50530074D01*
X69107453Y-50530074D01*
X69058960Y-50520428D01*
X69034813Y-50510426D01*
X69013280Y-50501507D01*
X68972176Y-50474042D01*
X68972174Y-50474040D01*
X68972171Y-50474038D01*
X68937210Y-50439077D01*
X68937208Y-50439074D01*
X68937206Y-50439072D01*
X68909741Y-50397968D01*
X68894459Y-50361074D01*
X68890820Y-50352288D01*
X68881174Y-50303795D01*
X68881174Y-50254353D01*
X68890820Y-50205860D01*
X68898467Y-50187399D01*
X68909741Y-50160180D01*
X68937206Y-50119076D01*
X68937209Y-50119073D01*
X68937210Y-50119071D01*
X68972171Y-50084110D01*
X68972174Y-50084108D01*
X68972176Y-50084106D01*
X69013280Y-50056641D01*
X69058958Y-50037721D01*
X69058957Y-50037721D01*
X69058960Y-50037720D01*
X69107453Y-50028074D01*
X69156895Y-50028074D01*
X69205388Y-50037720D01*
X69205391Y-50037721D01*
X69205390Y-50037721D01*
X69251068Y-50056641D01*
X69292172Y-50084106D01*
X69292174Y-50084108D01*
X69292177Y-50084110D01*
X69327138Y-50119071D01*
X69335849Y-50132108D01*
X69351390Y-50151045D01*
X69370332Y-50166591D01*
X69391942Y-50178142D01*
X69415391Y-50185256D01*
X69439777Y-50187658D01*
X69464163Y-50185257D01*
X69487612Y-50178144D01*
X69509223Y-50166593D01*
X69528165Y-50151048D01*
X69543711Y-50132106D01*
X69552592Y-50118815D01*
X69552594Y-50118812D01*
X69587555Y-50083851D01*
X69587558Y-50083849D01*
X69587560Y-50083847D01*
X69628664Y-50056382D01*
X69660964Y-50043003D01*
X69674344Y-50037461D01*
X69722837Y-50027815D01*
X69772279Y-50027815D01*
X69820772Y-50037461D01*
X69834152Y-50043003D01*
X69866452Y-50056382D01*
X69907556Y-50083847D01*
X69907558Y-50083849D01*
X69907561Y-50083851D01*
X69942522Y-50118812D01*
X69942524Y-50118815D01*
X69951232Y-50131847D01*
X69966778Y-50150789D01*
X69985720Y-50166334D01*
X70007331Y-50177885D01*
X70030780Y-50184998D01*
X70055166Y-50187399D01*
X70079552Y-50184997D01*
X70103001Y-50177883D01*
X70124611Y-50166332D01*
X70143553Y-50150786D01*
X70159097Y-50131845D01*
X70159616Y-50131069D01*
X70167979Y-50118552D01*
X70202940Y-50083591D01*
X70202943Y-50083589D01*
X70202945Y-50083587D01*
X70244049Y-50056122D01*
X70289099Y-50037462D01*
X70289729Y-50037201D01*
X70338222Y-50027555D01*
X70387664Y-50027555D01*
X70436157Y-50037201D01*
X70436787Y-50037462D01*
X70481837Y-50056122D01*
X70522941Y-50083587D01*
X70522943Y-50083589D01*
X70522946Y-50083591D01*
X70557907Y-50118552D01*
X70557909Y-50118555D01*
X70566617Y-50131587D01*
X70582163Y-50150529D01*
X70601105Y-50166074D01*
X70622716Y-50177625D01*
X70646165Y-50184738D01*
X70670551Y-50187139D01*
X70694937Y-50184737D01*
X70718386Y-50177623D01*
X70739996Y-50166072D01*
X70758938Y-50150526D01*
X70774481Y-50131587D01*
X70783362Y-50118296D01*
X70783363Y-50118295D01*
X70783364Y-50118293D01*
X70818325Y-50083332D01*
X70818328Y-50083330D01*
X70818330Y-50083328D01*
X70859434Y-50055863D01*
X70891734Y-50042484D01*
X70905114Y-50036942D01*
X70953607Y-50027296D01*
X71003049Y-50027296D01*
X71051542Y-50036942D01*
X71064922Y-50042484D01*
X71097222Y-50055863D01*
X71138326Y-50083328D01*
X71138328Y-50083330D01*
X71138331Y-50083332D01*
X71173292Y-50118293D01*
X71182003Y-50131330D01*
X71197544Y-50150267D01*
X71216486Y-50165813D01*
X71238096Y-50177364D01*
X71261545Y-50184478D01*
X71285931Y-50186880D01*
X71310317Y-50184479D01*
X71333766Y-50177366D01*
X71355377Y-50165815D01*
X71374319Y-50150270D01*
X71389865Y-50131328D01*
X71398746Y-50118037D01*
X71398748Y-50118034D01*
X71433709Y-50083073D01*
X71433712Y-50083071D01*
X71433714Y-50083069D01*
X71474818Y-50055604D01*
X71517992Y-50037721D01*
X71520498Y-50036683D01*
X71568991Y-50027037D01*
X71618433Y-50027037D01*
X71666926Y-50036683D01*
X71669432Y-50037721D01*
X71712606Y-50055604D01*
X71753710Y-50083069D01*
X71753712Y-50083071D01*
X71753715Y-50083073D01*
X71788676Y-50118034D01*
X71788678Y-50118037D01*
X71797386Y-50131069D01*
X71812932Y-50150011D01*
X71831874Y-50165556D01*
X71853485Y-50177107D01*
X71876934Y-50184220D01*
X71901320Y-50186621D01*
X71925706Y-50184219D01*
X71949155Y-50177105D01*
X71970765Y-50165554D01*
X71989707Y-50150008D01*
X72005250Y-50131069D01*
X72014131Y-50117778D01*
X72014132Y-50117777D01*
X72014133Y-50117775D01*
X72049094Y-50082814D01*
X72049097Y-50082812D01*
X72049099Y-50082810D01*
X72090203Y-50055345D01*
X72132752Y-50037721D01*
X72135883Y-50036424D01*
X72184376Y-50026778D01*
X72233818Y-50026778D01*
X72282311Y-50036424D01*
X72285442Y-50037721D01*
X72327991Y-50055345D01*
X72369095Y-50082810D01*
X72369097Y-50082812D01*
X72369100Y-50082814D01*
X72404061Y-50117775D01*
X72412772Y-50130812D01*
X72428313Y-50149749D01*
X72447255Y-50165295D01*
X72468865Y-50176846D01*
X72492314Y-50183960D01*
X72516700Y-50186362D01*
X72541086Y-50183961D01*
X72564535Y-50176848D01*
X72586146Y-50165297D01*
X72605088Y-50149752D01*
X72620634Y-50130810D01*
X72629515Y-50117519D01*
X72629517Y-50117516D01*
X72664478Y-50082555D01*
X72664481Y-50082553D01*
X72664483Y-50082551D01*
X72705587Y-50055086D01*
X72748136Y-50037462D01*
X72751267Y-50036165D01*
X72799760Y-50026519D01*
X72849202Y-50026519D01*
X72897695Y-50036165D01*
X72900826Y-50037462D01*
X72943375Y-50055086D01*
X72984479Y-50082551D01*
X72984481Y-50082553D01*
X72984484Y-50082555D01*
X73019445Y-50117516D01*
X73019447Y-50117519D01*
X73028155Y-50130551D01*
X73043701Y-50149493D01*
X73062643Y-50165038D01*
X73084254Y-50176589D01*
X73107703Y-50183702D01*
X73132089Y-50186103D01*
X73156475Y-50183701D01*
X73179924Y-50176587D01*
X73201534Y-50165036D01*
X73220476Y-50149490D01*
X73236020Y-50130549D01*
X73236539Y-50129773D01*
X73244902Y-50117256D01*
X73279863Y-50082295D01*
X73279866Y-50082293D01*
X73279868Y-50082291D01*
X73320972Y-50054826D01*
X73362268Y-50037721D01*
X73366652Y-50035905D01*
X73415145Y-50026259D01*
X73464587Y-50026259D01*
X73513080Y-50035905D01*
X73517464Y-50037721D01*
X73558760Y-50054826D01*
X73599864Y-50082291D01*
X73599866Y-50082293D01*
X73599869Y-50082295D01*
X73634830Y-50117256D01*
X73634832Y-50117259D01*
X73643540Y-50130291D01*
X73659086Y-50149233D01*
X73678028Y-50164778D01*
X73699639Y-50176329D01*
X73723088Y-50183442D01*
X73747474Y-50185843D01*
X73771860Y-50183441D01*
X73795309Y-50176327D01*
X73816919Y-50164776D01*
X73835861Y-50149230D01*
X73851404Y-50130291D01*
X73860285Y-50117000D01*
X73860286Y-50116999D01*
X73860287Y-50116997D01*
X73895248Y-50082036D01*
X73895251Y-50082034D01*
X73895253Y-50082032D01*
X73936357Y-50054567D01*
X73977653Y-50037462D01*
X73982037Y-50035646D01*
X74030530Y-50026000D01*
X74079972Y-50026000D01*
X74128465Y-50035646D01*
X74132849Y-50037462D01*
X74174145Y-50054567D01*
X74215249Y-50082032D01*
X74215251Y-50082034D01*
X74215254Y-50082036D01*
X74250215Y-50116997D01*
X74258926Y-50130034D01*
X74274467Y-50148971D01*
X74293409Y-50164517D01*
X74315019Y-50176068D01*
X74338468Y-50183182D01*
X74362854Y-50185584D01*
X74387240Y-50183183D01*
X74410689Y-50176070D01*
X74432300Y-50164519D01*
X74451242Y-50148974D01*
X74466788Y-50130032D01*
X74475669Y-50116741D01*
X74475671Y-50116738D01*
X74510632Y-50081777D01*
X74510635Y-50081775D01*
X74510637Y-50081773D01*
X74551741Y-50054308D01*
X74584041Y-50040929D01*
X74597421Y-50035387D01*
X74645914Y-50025741D01*
X74695356Y-50025741D01*
X74743849Y-50035387D01*
X74757229Y-50040929D01*
X74789529Y-50054308D01*
X74830633Y-50081773D01*
X74830635Y-50081775D01*
X74830638Y-50081777D01*
X74865599Y-50116738D01*
X74865601Y-50116741D01*
X74874309Y-50129773D01*
X74889855Y-50148715D01*
X74908797Y-50164260D01*
X74930408Y-50175811D01*
X74953857Y-50182924D01*
X74978243Y-50185325D01*
X75002629Y-50182923D01*
X75026078Y-50175809D01*
X75047688Y-50164258D01*
X75066630Y-50148712D01*
X75082173Y-50129773D01*
X75091054Y-50116482D01*
X75091056Y-50116479D01*
X75126017Y-50081518D01*
X75126020Y-50081516D01*
X75126022Y-50081514D01*
X75167126Y-50054049D01*
X75206546Y-50037721D01*
X75212806Y-50035128D01*
X75261299Y-50025482D01*
X75310741Y-50025482D01*
X75359234Y-50035128D01*
X75365494Y-50037721D01*
X75404914Y-50054049D01*
X75446018Y-50081514D01*
X75446020Y-50081516D01*
X75446023Y-50081518D01*
X75480984Y-50116479D01*
X75480986Y-50116482D01*
X75489694Y-50129514D01*
X75505240Y-50148456D01*
X75524182Y-50164001D01*
X75545793Y-50175552D01*
X75569242Y-50182665D01*
X75593628Y-50185066D01*
X75618014Y-50182664D01*
X75641463Y-50175550D01*
X75663073Y-50163999D01*
X75682015Y-50148453D01*
X75697558Y-50129514D01*
X75706439Y-50116223D01*
X75706440Y-50116222D01*
X75706441Y-50116220D01*
X75741402Y-50081259D01*
X75741405Y-50081257D01*
X75741407Y-50081255D01*
X75782511Y-50053790D01*
X75821931Y-50037462D01*
X75828191Y-50034869D01*
X75876684Y-50025223D01*
X75926126Y-50025223D01*
X75974619Y-50034869D01*
X75980879Y-50037462D01*
X76020299Y-50053790D01*
X76061403Y-50081255D01*
X76061405Y-50081257D01*
X76061408Y-50081259D01*
X76096369Y-50116220D01*
X76105080Y-50129257D01*
X76120621Y-50148194D01*
X76139563Y-50163740D01*
X76161173Y-50175291D01*
X76184622Y-50182405D01*
X76209008Y-50184807D01*
X76233394Y-50182406D01*
X76256843Y-50175293D01*
X76278454Y-50163742D01*
X76297396Y-50148197D01*
X76312942Y-50129255D01*
X76321823Y-50115964D01*
X76321825Y-50115961D01*
X76356786Y-50081000D01*
X76356789Y-50080998D01*
X76356791Y-50080996D01*
X76397895Y-50053531D01*
X76430195Y-50040152D01*
X76443575Y-50034610D01*
X76492068Y-50024964D01*
X76541510Y-50024964D01*
X76590003Y-50034610D01*
X76603383Y-50040152D01*
X76635683Y-50053531D01*
X76676787Y-50080996D01*
X76676789Y-50080998D01*
X76676792Y-50081000D01*
X76711753Y-50115961D01*
X76711755Y-50115964D01*
X76720463Y-50128996D01*
X76736009Y-50147938D01*
X76754951Y-50163483D01*
X76776562Y-50175034D01*
X76800011Y-50182147D01*
X76824397Y-50184548D01*
X76848783Y-50182146D01*
X76872232Y-50175032D01*
X76893842Y-50163481D01*
X76912784Y-50147935D01*
X76928328Y-50128994D01*
X76933452Y-50121326D01*
X76937210Y-50115701D01*
X76972171Y-50080740D01*
X76972174Y-50080738D01*
X76972176Y-50080736D01*
X77013280Y-50053271D01*
X77051447Y-50037462D01*
X77058960Y-50034350D01*
X77107453Y-50024704D01*
X77156895Y-50024704D01*
X77205388Y-50034350D01*
G37*
G36*
X100337458Y-50024608D02*
G01*
X100350838Y-50030150D01*
X100383138Y-50043529D01*
X100424242Y-50070994D01*
X100424244Y-50070996D01*
X100424247Y-50070998D01*
X100459208Y-50105959D01*
X100459210Y-50105962D01*
X100459212Y-50105964D01*
X100486677Y-50147068D01*
X100499454Y-50177915D01*
X100505598Y-50192748D01*
X100515244Y-50241241D01*
X100515244Y-50290683D01*
X100505598Y-50339176D01*
X100500455Y-50351592D01*
X100486677Y-50384856D01*
X100459212Y-50425960D01*
X100459210Y-50425962D01*
X100459208Y-50425965D01*
X100424247Y-50460926D01*
X100424244Y-50460928D01*
X100424242Y-50460930D01*
X100383138Y-50488395D01*
X100352846Y-50500942D01*
X100337458Y-50507316D01*
X100288965Y-50516962D01*
X100239523Y-50516962D01*
X100191030Y-50507316D01*
X100175642Y-50500942D01*
X100145350Y-50488395D01*
X100104246Y-50460930D01*
X100104244Y-50460928D01*
X100104241Y-50460926D01*
X100069280Y-50425965D01*
X100067773Y-50423709D01*
X100060570Y-50412930D01*
X100045024Y-50393988D01*
X100026082Y-50378443D01*
X100004471Y-50366892D01*
X99981022Y-50359779D01*
X99956636Y-50357378D01*
X99932250Y-50359780D01*
X99908801Y-50366894D01*
X99887191Y-50378445D01*
X99868249Y-50393991D01*
X99852706Y-50412930D01*
X99845330Y-50423968D01*
X99843823Y-50426224D01*
X99808862Y-50461185D01*
X99808859Y-50461187D01*
X99808857Y-50461189D01*
X99767753Y-50488654D01*
X99739965Y-50500164D01*
X99722073Y-50507575D01*
X99673580Y-50517221D01*
X99624138Y-50517221D01*
X99575645Y-50507575D01*
X99557753Y-50500164D01*
X99529965Y-50488654D01*
X99488861Y-50461189D01*
X99488859Y-50461187D01*
X99488856Y-50461185D01*
X99453895Y-50426224D01*
X99445184Y-50413187D01*
X99429643Y-50394250D01*
X99410701Y-50378704D01*
X99389091Y-50367153D01*
X99365642Y-50360039D01*
X99341256Y-50357637D01*
X99316870Y-50360038D01*
X99293421Y-50367151D01*
X99271810Y-50378702D01*
X99252868Y-50394247D01*
X99237322Y-50413189D01*
X99229946Y-50424227D01*
X99228439Y-50426483D01*
X99193478Y-50461444D01*
X99193475Y-50461446D01*
X99193473Y-50461448D01*
X99152369Y-50488913D01*
X99124581Y-50500423D01*
X99106689Y-50507834D01*
X99058196Y-50517480D01*
X99008754Y-50517480D01*
X98960261Y-50507834D01*
X98942369Y-50500423D01*
X98914581Y-50488913D01*
X98873477Y-50461448D01*
X98873475Y-50461446D01*
X98873472Y-50461444D01*
X98838511Y-50426483D01*
X98837004Y-50424227D01*
X98829801Y-50413448D01*
X98814255Y-50394506D01*
X98795313Y-50378961D01*
X98773702Y-50367410D01*
X98750253Y-50360297D01*
X98725867Y-50357896D01*
X98701481Y-50360298D01*
X98678032Y-50367412D01*
X98656422Y-50378963D01*
X98637480Y-50394509D01*
X98621937Y-50413448D01*
X98614733Y-50424229D01*
X98613054Y-50426742D01*
X98578093Y-50461703D01*
X98578090Y-50461705D01*
X98578088Y-50461707D01*
X98536984Y-50489172D01*
X98509196Y-50500682D01*
X98491304Y-50508093D01*
X98442811Y-50517739D01*
X98393369Y-50517739D01*
X98344876Y-50508093D01*
X98326984Y-50500682D01*
X98299196Y-50489172D01*
X98258092Y-50461707D01*
X98258090Y-50461705D01*
X98258087Y-50461703D01*
X98223126Y-50426742D01*
X98221447Y-50424229D01*
X98214416Y-50413707D01*
X98198870Y-50394765D01*
X98179928Y-50379220D01*
X98158317Y-50367669D01*
X98134868Y-50360556D01*
X98110482Y-50358155D01*
X98086096Y-50360557D01*
X98062647Y-50367671D01*
X98041037Y-50379222D01*
X98022095Y-50394768D01*
X98006552Y-50413707D01*
X98002968Y-50419070D01*
X97997669Y-50427001D01*
X97962708Y-50461962D01*
X97962705Y-50461964D01*
X97962703Y-50461966D01*
X97921599Y-50489431D01*
X97892444Y-50501507D01*
X97875919Y-50508352D01*
X97827426Y-50517998D01*
X97777984Y-50517998D01*
X97729491Y-50508352D01*
X97712966Y-50501507D01*
X97683811Y-50489431D01*
X97642707Y-50461966D01*
X97642705Y-50461964D01*
X97642702Y-50461962D01*
X97607741Y-50427001D01*
X97599030Y-50413964D01*
X97583489Y-50395027D01*
X97564547Y-50379481D01*
X97542937Y-50367930D01*
X97519488Y-50360816D01*
X97495102Y-50358414D01*
X97470716Y-50360815D01*
X97447267Y-50367928D01*
X97425656Y-50379479D01*
X97406714Y-50395024D01*
X97391168Y-50413966D01*
X97387584Y-50419329D01*
X97382285Y-50427260D01*
X97347324Y-50462221D01*
X97347321Y-50462223D01*
X97347319Y-50462225D01*
X97306215Y-50489690D01*
X97273915Y-50503069D01*
X97260535Y-50508611D01*
X97212042Y-50518257D01*
X97162600Y-50518257D01*
X97114107Y-50508611D01*
X97100727Y-50503069D01*
X97068427Y-50489690D01*
X97027323Y-50462225D01*
X97027321Y-50462223D01*
X97027318Y-50462221D01*
X96992357Y-50427260D01*
X96987058Y-50419330D01*
X96983647Y-50414225D01*
X96968101Y-50395283D01*
X96949159Y-50379738D01*
X96927548Y-50368187D01*
X96904099Y-50361074D01*
X96879713Y-50358673D01*
X96855327Y-50361075D01*
X96831878Y-50368189D01*
X96810268Y-50379740D01*
X96791326Y-50395286D01*
X96775783Y-50414226D01*
X96766900Y-50427520D01*
X96731939Y-50462481D01*
X96731936Y-50462483D01*
X96731934Y-50462485D01*
X96690830Y-50489950D01*
X96662928Y-50501507D01*
X96645150Y-50508871D01*
X96596657Y-50518517D01*
X96547215Y-50518517D01*
X96498722Y-50508871D01*
X96480944Y-50501507D01*
X96453042Y-50489950D01*
X96411938Y-50462485D01*
X96411936Y-50462483D01*
X96411933Y-50462481D01*
X96376972Y-50427520D01*
X96375465Y-50425264D01*
X96368262Y-50414485D01*
X96352716Y-50395543D01*
X96333774Y-50379998D01*
X96312163Y-50368447D01*
X96288714Y-50361334D01*
X96264328Y-50358933D01*
X96239942Y-50361335D01*
X96216493Y-50368449D01*
X96194883Y-50380000D01*
X96175941Y-50395546D01*
X96160398Y-50414485D01*
X96153022Y-50425523D01*
X96151515Y-50427779D01*
X96116554Y-50462740D01*
X96116551Y-50462742D01*
X96116549Y-50462744D01*
X96075445Y-50490209D01*
X96043145Y-50503588D01*
X96029765Y-50509130D01*
X95981272Y-50518776D01*
X95931830Y-50518776D01*
X95883337Y-50509130D01*
X95869957Y-50503588D01*
X95837657Y-50490209D01*
X95796553Y-50462744D01*
X95796551Y-50462742D01*
X95796548Y-50462740D01*
X95761587Y-50427779D01*
X95752876Y-50414742D01*
X95737335Y-50395805D01*
X95718393Y-50380259D01*
X95696783Y-50368708D01*
X95673334Y-50361594D01*
X95648948Y-50359192D01*
X95624562Y-50361593D01*
X95601113Y-50368706D01*
X95579502Y-50380257D01*
X95560560Y-50395802D01*
X95545014Y-50414744D01*
X95537518Y-50425962D01*
X95536131Y-50428038D01*
X95501170Y-50462999D01*
X95501167Y-50463001D01*
X95501165Y-50463003D01*
X95460061Y-50490468D01*
X95435399Y-50500683D01*
X95414381Y-50509389D01*
X95365888Y-50519035D01*
X95316446Y-50519035D01*
X95267953Y-50509389D01*
X95246935Y-50500683D01*
X95222273Y-50490468D01*
X95181169Y-50463003D01*
X95181167Y-50463001D01*
X95181164Y-50462999D01*
X95146203Y-50428038D01*
X95144816Y-50425962D01*
X95137493Y-50415003D01*
X95121947Y-50396061D01*
X95103005Y-50380516D01*
X95081394Y-50368965D01*
X95057945Y-50361852D01*
X95033559Y-50359451D01*
X95009173Y-50361853D01*
X94985724Y-50368967D01*
X94964114Y-50380518D01*
X94945172Y-50396064D01*
X94929629Y-50415003D01*
X94922131Y-50426224D01*
X94920746Y-50428297D01*
X94885785Y-50463258D01*
X94885782Y-50463260D01*
X94885780Y-50463262D01*
X94844676Y-50490727D01*
X94820014Y-50500942D01*
X94798996Y-50509648D01*
X94750503Y-50519294D01*
X94701061Y-50519294D01*
X94652568Y-50509648D01*
X94631550Y-50500942D01*
X94606888Y-50490727D01*
X94565784Y-50463262D01*
X94565782Y-50463260D01*
X94565779Y-50463258D01*
X94530818Y-50428297D01*
X94522107Y-50415260D01*
X94506566Y-50396323D01*
X94487624Y-50380777D01*
X94466014Y-50369226D01*
X94442565Y-50362112D01*
X94418179Y-50359710D01*
X94393793Y-50362111D01*
X94370344Y-50369224D01*
X94348733Y-50380775D01*
X94329791Y-50396320D01*
X94314245Y-50415262D01*
X94311527Y-50419329D01*
X94305362Y-50428556D01*
X94270401Y-50463517D01*
X94270398Y-50463519D01*
X94270396Y-50463521D01*
X94229292Y-50490986D01*
X94205144Y-50500988D01*
X94183612Y-50509907D01*
X94135119Y-50519553D01*
X94085677Y-50519553D01*
X94037184Y-50509907D01*
X94015652Y-50500988D01*
X93991504Y-50490986D01*
X93950400Y-50463521D01*
X93950398Y-50463519D01*
X93950395Y-50463517D01*
X93915434Y-50428556D01*
X93909269Y-50419329D01*
X93906724Y-50415521D01*
X93891178Y-50396579D01*
X93872236Y-50381034D01*
X93850625Y-50369483D01*
X93827176Y-50362370D01*
X93802790Y-50359969D01*
X93778404Y-50362371D01*
X93754955Y-50369485D01*
X93733345Y-50381036D01*
X93714403Y-50396582D01*
X93698860Y-50415522D01*
X93689977Y-50428816D01*
X93655016Y-50463777D01*
X93655013Y-50463779D01*
X93655011Y-50463781D01*
X93613907Y-50491246D01*
X93590498Y-50500942D01*
X93568227Y-50510167D01*
X93519734Y-50519813D01*
X93470292Y-50519813D01*
X93421799Y-50510167D01*
X93399528Y-50500942D01*
X93376119Y-50491246D01*
X93335015Y-50463781D01*
X93335013Y-50463779D01*
X93335010Y-50463777D01*
X93300049Y-50428816D01*
X93297676Y-50425264D01*
X93291339Y-50415781D01*
X93275793Y-50396839D01*
X93256851Y-50381294D01*
X93235240Y-50369743D01*
X93211791Y-50362630D01*
X93187405Y-50360229D01*
X93163019Y-50362631D01*
X93139570Y-50369745D01*
X93117960Y-50381296D01*
X93099018Y-50396842D01*
X93083475Y-50415781D01*
X93077138Y-50425264D01*
X93074592Y-50429075D01*
X93039631Y-50464036D01*
X93039628Y-50464038D01*
X93039626Y-50464040D01*
X92998522Y-50491505D01*
X92974374Y-50501507D01*
X92952842Y-50510426D01*
X92904349Y-50520072D01*
X92854907Y-50520072D01*
X92806414Y-50510426D01*
X92784882Y-50501507D01*
X92760734Y-50491505D01*
X92719630Y-50464040D01*
X92719628Y-50464038D01*
X92719625Y-50464036D01*
X92684664Y-50429075D01*
X92675953Y-50416038D01*
X92660412Y-50397101D01*
X92641470Y-50381555D01*
X92619860Y-50370004D01*
X92596411Y-50362890D01*
X92572025Y-50360488D01*
X92547639Y-50362889D01*
X92524190Y-50370002D01*
X92502579Y-50381553D01*
X92483637Y-50397098D01*
X92468091Y-50416040D01*
X92462620Y-50424227D01*
X92459208Y-50429334D01*
X92424247Y-50464295D01*
X92424244Y-50464297D01*
X92424242Y-50464299D01*
X92383138Y-50491764D01*
X92350838Y-50505143D01*
X92337458Y-50510685D01*
X92288965Y-50520331D01*
X92239523Y-50520331D01*
X92191030Y-50510685D01*
X92177650Y-50505143D01*
X92145350Y-50491764D01*
X92104246Y-50464299D01*
X92104244Y-50464297D01*
X92104241Y-50464295D01*
X92069280Y-50429334D01*
X92069278Y-50429331D01*
X92069276Y-50429329D01*
X92041811Y-50388225D01*
X92026637Y-50351591D01*
X92022890Y-50342545D01*
X92013244Y-50294052D01*
X92013244Y-50244610D01*
X92022890Y-50196117D01*
X92030335Y-50178144D01*
X92041811Y-50150437D01*
X92069276Y-50109333D01*
X92069279Y-50109330D01*
X92069280Y-50109328D01*
X92104241Y-50074367D01*
X92104244Y-50074365D01*
X92104246Y-50074363D01*
X92145350Y-50046898D01*
X92191028Y-50027978D01*
X92191027Y-50027978D01*
X92191030Y-50027977D01*
X92239523Y-50018331D01*
X92288965Y-50018331D01*
X92337458Y-50027977D01*
X92337461Y-50027978D01*
X92337460Y-50027978D01*
X92383138Y-50046898D01*
X92424242Y-50074363D01*
X92424244Y-50074365D01*
X92424247Y-50074367D01*
X92459208Y-50109328D01*
X92467919Y-50122365D01*
X92483460Y-50141302D01*
X92502402Y-50156848D01*
X92524012Y-50168399D01*
X92547461Y-50175513D01*
X92571847Y-50177915D01*
X92596233Y-50175514D01*
X92619682Y-50168401D01*
X92641293Y-50156850D01*
X92660235Y-50141305D01*
X92675781Y-50122363D01*
X92684662Y-50109072D01*
X92684664Y-50109069D01*
X92719625Y-50074108D01*
X92719628Y-50074106D01*
X92719630Y-50074104D01*
X92760734Y-50046639D01*
X92805555Y-50028074D01*
X92806414Y-50027718D01*
X92854907Y-50018072D01*
X92904349Y-50018072D01*
X92952842Y-50027718D01*
X92953701Y-50028074D01*
X92998522Y-50046639D01*
X93039626Y-50074104D01*
X93039628Y-50074106D01*
X93039631Y-50074108D01*
X93074592Y-50109069D01*
X93074594Y-50109072D01*
X93083302Y-50122104D01*
X93098848Y-50141046D01*
X93117790Y-50156591D01*
X93139401Y-50168142D01*
X93162850Y-50175255D01*
X93187236Y-50177656D01*
X93211622Y-50175254D01*
X93235071Y-50168140D01*
X93256681Y-50156589D01*
X93275623Y-50141043D01*
X93291166Y-50122104D01*
X93300047Y-50108813D01*
X93300049Y-50108810D01*
X93335010Y-50073849D01*
X93335013Y-50073847D01*
X93335015Y-50073845D01*
X93376119Y-50046380D01*
X93408419Y-50033001D01*
X93421799Y-50027459D01*
X93470292Y-50017813D01*
X93519734Y-50017813D01*
X93568227Y-50027459D01*
X93581607Y-50033001D01*
X93613907Y-50046380D01*
X93655011Y-50073845D01*
X93655013Y-50073847D01*
X93655016Y-50073849D01*
X93689977Y-50108810D01*
X93689979Y-50108813D01*
X93698687Y-50121845D01*
X93714233Y-50140787D01*
X93733175Y-50156332D01*
X93754786Y-50167883D01*
X93778235Y-50174996D01*
X93802621Y-50177397D01*
X93827007Y-50174995D01*
X93850456Y-50167881D01*
X93872066Y-50156330D01*
X93891008Y-50140784D01*
X93906552Y-50121843D01*
X93907071Y-50121067D01*
X93915434Y-50108550D01*
X93950395Y-50073589D01*
X93950398Y-50073587D01*
X93950400Y-50073585D01*
X93991504Y-50046120D01*
X94035072Y-50028074D01*
X94037184Y-50027199D01*
X94085677Y-50017553D01*
X94135119Y-50017553D01*
X94183612Y-50027199D01*
X94185724Y-50028074D01*
X94229292Y-50046120D01*
X94270396Y-50073585D01*
X94270398Y-50073587D01*
X94270401Y-50073589D01*
X94305362Y-50108550D01*
X94314073Y-50121587D01*
X94329614Y-50140524D01*
X94348556Y-50156070D01*
X94370166Y-50167621D01*
X94393615Y-50174735D01*
X94418001Y-50177137D01*
X94442387Y-50174736D01*
X94465836Y-50167623D01*
X94487447Y-50156072D01*
X94506389Y-50140527D01*
X94521935Y-50121585D01*
X94530816Y-50108294D01*
X94530818Y-50108291D01*
X94565779Y-50073330D01*
X94565782Y-50073328D01*
X94565784Y-50073326D01*
X94606888Y-50045861D01*
X94639188Y-50032482D01*
X94652568Y-50026940D01*
X94701061Y-50017294D01*
X94750503Y-50017294D01*
X94798996Y-50026940D01*
X94812376Y-50032482D01*
X94844676Y-50045861D01*
X94885780Y-50073326D01*
X94885782Y-50073328D01*
X94885785Y-50073330D01*
X94920746Y-50108291D01*
X94920748Y-50108294D01*
X94929456Y-50121326D01*
X94945002Y-50140268D01*
X94963944Y-50155813D01*
X94985555Y-50167364D01*
X95009004Y-50174477D01*
X95033390Y-50176878D01*
X95057776Y-50174476D01*
X95081225Y-50167362D01*
X95102835Y-50155811D01*
X95121777Y-50140265D01*
X95137320Y-50121326D01*
X95146201Y-50108035D01*
X95146202Y-50108034D01*
X95146203Y-50108032D01*
X95181164Y-50073071D01*
X95181167Y-50073069D01*
X95181169Y-50073067D01*
X95222273Y-50045602D01*
X95264822Y-50027978D01*
X95267953Y-50026681D01*
X95316446Y-50017035D01*
X95365888Y-50017035D01*
X95414381Y-50026681D01*
X95417512Y-50027978D01*
X95460061Y-50045602D01*
X95501165Y-50073067D01*
X95501167Y-50073069D01*
X95501170Y-50073071D01*
X95536131Y-50108032D01*
X95544842Y-50121069D01*
X95560383Y-50140006D01*
X95579325Y-50155552D01*
X95600935Y-50167103D01*
X95624384Y-50174217D01*
X95648770Y-50176619D01*
X95673156Y-50174218D01*
X95696605Y-50167105D01*
X95718216Y-50155554D01*
X95737158Y-50140009D01*
X95752704Y-50121067D01*
X95761585Y-50107776D01*
X95761587Y-50107773D01*
X95796548Y-50072812D01*
X95796551Y-50072810D01*
X95796553Y-50072808D01*
X95837657Y-50045343D01*
X95880206Y-50027719D01*
X95883337Y-50026422D01*
X95931830Y-50016776D01*
X95981272Y-50016776D01*
X96029765Y-50026422D01*
X96032896Y-50027719D01*
X96075445Y-50045343D01*
X96116549Y-50072808D01*
X96116551Y-50072810D01*
X96116554Y-50072812D01*
X96151515Y-50107773D01*
X96151517Y-50107776D01*
X96160225Y-50120808D01*
X96175771Y-50139750D01*
X96194713Y-50155295D01*
X96216324Y-50166846D01*
X96239773Y-50173959D01*
X96264159Y-50176360D01*
X96288545Y-50173958D01*
X96311994Y-50166844D01*
X96333604Y-50155293D01*
X96352546Y-50139747D01*
X96368089Y-50120808D01*
X96376970Y-50107517D01*
X96376972Y-50107514D01*
X96411933Y-50072553D01*
X96411936Y-50072551D01*
X96411938Y-50072549D01*
X96453042Y-50045084D01*
X96485342Y-50031705D01*
X96498722Y-50026163D01*
X96547215Y-50016517D01*
X96596657Y-50016517D01*
X96645150Y-50026163D01*
X96658530Y-50031705D01*
X96690830Y-50045084D01*
X96731934Y-50072549D01*
X96731936Y-50072551D01*
X96731939Y-50072553D01*
X96766900Y-50107514D01*
X96766902Y-50107517D01*
X96775610Y-50120549D01*
X96791156Y-50139491D01*
X96810098Y-50155036D01*
X96831709Y-50166587D01*
X96855158Y-50173700D01*
X96879544Y-50176101D01*
X96903930Y-50173699D01*
X96927379Y-50166585D01*
X96948989Y-50155034D01*
X96967931Y-50139488D01*
X96983475Y-50120547D01*
X96983994Y-50119771D01*
X96992357Y-50107254D01*
X97027318Y-50072293D01*
X97027321Y-50072291D01*
X97027323Y-50072289D01*
X97068427Y-50044824D01*
X97109723Y-50027719D01*
X97114107Y-50025903D01*
X97162600Y-50016257D01*
X97212042Y-50016257D01*
X97260535Y-50025903D01*
X97264919Y-50027719D01*
X97306215Y-50044824D01*
X97347319Y-50072289D01*
X97347321Y-50072291D01*
X97347324Y-50072293D01*
X97382285Y-50107254D01*
X97390996Y-50120291D01*
X97406537Y-50139228D01*
X97425479Y-50154774D01*
X97447089Y-50166325D01*
X97470538Y-50173439D01*
X97494924Y-50175841D01*
X97519310Y-50173440D01*
X97542759Y-50166327D01*
X97564370Y-50154776D01*
X97583312Y-50139231D01*
X97598858Y-50120289D01*
X97607739Y-50106998D01*
X97607741Y-50106995D01*
X97642702Y-50072034D01*
X97642705Y-50072032D01*
X97642707Y-50072030D01*
X97683811Y-50044565D01*
X97723625Y-50028074D01*
X97729491Y-50025644D01*
X97777984Y-50015998D01*
X97827426Y-50015998D01*
X97875919Y-50025644D01*
X97881785Y-50028074D01*
X97921599Y-50044565D01*
X97962703Y-50072030D01*
X97962705Y-50072032D01*
X97962708Y-50072034D01*
X97997669Y-50106995D01*
X97997671Y-50106998D01*
X98006379Y-50120030D01*
X98021925Y-50138972D01*
X98040867Y-50154517D01*
X98062478Y-50166068D01*
X98085927Y-50173181D01*
X98110313Y-50175582D01*
X98134699Y-50173180D01*
X98158148Y-50166066D01*
X98179758Y-50154515D01*
X98198700Y-50138969D01*
X98214243Y-50120030D01*
X98223124Y-50106739D01*
X98223126Y-50106736D01*
X98258087Y-50071775D01*
X98258090Y-50071773D01*
X98258092Y-50071771D01*
X98299196Y-50044306D01*
X98338616Y-50027978D01*
X98344876Y-50025385D01*
X98393369Y-50015739D01*
X98442811Y-50015739D01*
X98491304Y-50025385D01*
X98497564Y-50027978D01*
X98536984Y-50044306D01*
X98578088Y-50071771D01*
X98578090Y-50071773D01*
X98578093Y-50071775D01*
X98613054Y-50106736D01*
X98613056Y-50106739D01*
X98621764Y-50119771D01*
X98637310Y-50138713D01*
X98656252Y-50154258D01*
X98677863Y-50165809D01*
X98701312Y-50172922D01*
X98725698Y-50175323D01*
X98750084Y-50172921D01*
X98773533Y-50165807D01*
X98795143Y-50154256D01*
X98814085Y-50138710D01*
X98829628Y-50119771D01*
X98838509Y-50106480D01*
X98838510Y-50106479D01*
X98838511Y-50106477D01*
X98873472Y-50071516D01*
X98873475Y-50071514D01*
X98873477Y-50071512D01*
X98914581Y-50044047D01*
X98954001Y-50027719D01*
X98960261Y-50025126D01*
X99008754Y-50015480D01*
X99058196Y-50015480D01*
X99106689Y-50025126D01*
X99112949Y-50027719D01*
X99152369Y-50044047D01*
X99193473Y-50071512D01*
X99193475Y-50071514D01*
X99193478Y-50071516D01*
X99228439Y-50106477D01*
X99237150Y-50119514D01*
X99252691Y-50138451D01*
X99271633Y-50153997D01*
X99293243Y-50165548D01*
X99316692Y-50172662D01*
X99341078Y-50175064D01*
X99365464Y-50172663D01*
X99388913Y-50165550D01*
X99410524Y-50153999D01*
X99429466Y-50138454D01*
X99445012Y-50119512D01*
X99453893Y-50106221D01*
X99453895Y-50106218D01*
X99488856Y-50071257D01*
X99488859Y-50071255D01*
X99488861Y-50071253D01*
X99529965Y-50043788D01*
X99567903Y-50028074D01*
X99575645Y-50024867D01*
X99624138Y-50015221D01*
X99673580Y-50015221D01*
X99722073Y-50024867D01*
X99729815Y-50028074D01*
X99767753Y-50043788D01*
X99808857Y-50071253D01*
X99808859Y-50071255D01*
X99808862Y-50071257D01*
X99843823Y-50106218D01*
X99843825Y-50106221D01*
X99852533Y-50119253D01*
X99868079Y-50138195D01*
X99887021Y-50153740D01*
X99908632Y-50165291D01*
X99932081Y-50172404D01*
X99956467Y-50174805D01*
X99980853Y-50172403D01*
X100004302Y-50165289D01*
X100025912Y-50153738D01*
X100044854Y-50138192D01*
X100060397Y-50119253D01*
X100069278Y-50105962D01*
X100069280Y-50105959D01*
X100104241Y-50070998D01*
X100104244Y-50070996D01*
X100104246Y-50070994D01*
X100145350Y-50043529D01*
X100177650Y-50030150D01*
X100191030Y-50024608D01*
X100239523Y-50014962D01*
X100288965Y-50014962D01*
X100337458Y-50024608D01*
G37*
G36*
X123469527Y-50014865D02*
G01*
X123482907Y-50020407D01*
X123515207Y-50033786D01*
X123556311Y-50061251D01*
X123556313Y-50061253D01*
X123556316Y-50061255D01*
X123591277Y-50096216D01*
X123591279Y-50096219D01*
X123591281Y-50096221D01*
X123618746Y-50137325D01*
X123631523Y-50168172D01*
X123637667Y-50183005D01*
X123647313Y-50231498D01*
X123647313Y-50280940D01*
X123637667Y-50329433D01*
X123636271Y-50332804D01*
X123618746Y-50375113D01*
X123591281Y-50416217D01*
X123591279Y-50416219D01*
X123591277Y-50416222D01*
X123556316Y-50451183D01*
X123556313Y-50451185D01*
X123556311Y-50451187D01*
X123515207Y-50478652D01*
X123487305Y-50490209D01*
X123469527Y-50497573D01*
X123421034Y-50507219D01*
X123371592Y-50507219D01*
X123323099Y-50497573D01*
X123305321Y-50490209D01*
X123277419Y-50478652D01*
X123236315Y-50451187D01*
X123236313Y-50451185D01*
X123236310Y-50451183D01*
X123201349Y-50416222D01*
X123199842Y-50413966D01*
X123192639Y-50403187D01*
X123177093Y-50384245D01*
X123158151Y-50368700D01*
X123136540Y-50357149D01*
X123113091Y-50350036D01*
X123088705Y-50347635D01*
X123064319Y-50350037D01*
X123040870Y-50357151D01*
X123019260Y-50368702D01*
X123000318Y-50384248D01*
X122984775Y-50403187D01*
X122977399Y-50414225D01*
X122975892Y-50416481D01*
X122940931Y-50451442D01*
X122940928Y-50451444D01*
X122940926Y-50451446D01*
X122899822Y-50478911D01*
X122871920Y-50490468D01*
X122854142Y-50497832D01*
X122805649Y-50507478D01*
X122756207Y-50507478D01*
X122707714Y-50497832D01*
X122689936Y-50490468D01*
X122662034Y-50478911D01*
X122620930Y-50451446D01*
X122620928Y-50451444D01*
X122620925Y-50451442D01*
X122585964Y-50416481D01*
X122577253Y-50403444D01*
X122561712Y-50384507D01*
X122542770Y-50368961D01*
X122521160Y-50357410D01*
X122497711Y-50350296D01*
X122473325Y-50347894D01*
X122448939Y-50350295D01*
X122425490Y-50357408D01*
X122403879Y-50368959D01*
X122384937Y-50384504D01*
X122369391Y-50403446D01*
X122362187Y-50414227D01*
X122360508Y-50416740D01*
X122325547Y-50451701D01*
X122325544Y-50451703D01*
X122325542Y-50451705D01*
X122284438Y-50479170D01*
X122256536Y-50490727D01*
X122238758Y-50498091D01*
X122190265Y-50507737D01*
X122140823Y-50507737D01*
X122092330Y-50498091D01*
X122074552Y-50490727D01*
X122046650Y-50479170D01*
X122005546Y-50451705D01*
X122005544Y-50451703D01*
X122005541Y-50451701D01*
X121970580Y-50416740D01*
X121968901Y-50414227D01*
X121961870Y-50403705D01*
X121946324Y-50384763D01*
X121927382Y-50369218D01*
X121905771Y-50357667D01*
X121882322Y-50350554D01*
X121857936Y-50348153D01*
X121833550Y-50350555D01*
X121810101Y-50357669D01*
X121788491Y-50369220D01*
X121769549Y-50384766D01*
X121754006Y-50403705D01*
X121747842Y-50412930D01*
X121745123Y-50416999D01*
X121710162Y-50451960D01*
X121710159Y-50451962D01*
X121710157Y-50451964D01*
X121669053Y-50479429D01*
X121639898Y-50491505D01*
X121623373Y-50498350D01*
X121574880Y-50507996D01*
X121525438Y-50507996D01*
X121476945Y-50498350D01*
X121460420Y-50491505D01*
X121431265Y-50479429D01*
X121390161Y-50451964D01*
X121390159Y-50451962D01*
X121390156Y-50451960D01*
X121355195Y-50416999D01*
X121352476Y-50412930D01*
X121346485Y-50403964D01*
X121330939Y-50385022D01*
X121311997Y-50369477D01*
X121290386Y-50357926D01*
X121266937Y-50350813D01*
X121242551Y-50348412D01*
X121218165Y-50350814D01*
X121194716Y-50357928D01*
X121173106Y-50369479D01*
X121154164Y-50385025D01*
X121138621Y-50403965D01*
X121129738Y-50417259D01*
X121094777Y-50452220D01*
X121094774Y-50452222D01*
X121094772Y-50452224D01*
X121053668Y-50479689D01*
X121027019Y-50490727D01*
X121007988Y-50498610D01*
X120959495Y-50508256D01*
X120910053Y-50508256D01*
X120861560Y-50498610D01*
X120842529Y-50490727D01*
X120815880Y-50479689D01*
X120774776Y-50452224D01*
X120774774Y-50452222D01*
X120774771Y-50452220D01*
X120739810Y-50417259D01*
X120731099Y-50404222D01*
X120715558Y-50385285D01*
X120696616Y-50369739D01*
X120675006Y-50358188D01*
X120651557Y-50351074D01*
X120627171Y-50348672D01*
X120602785Y-50351073D01*
X120579336Y-50358186D01*
X120557725Y-50369737D01*
X120538783Y-50385282D01*
X120523237Y-50404224D01*
X120515861Y-50415262D01*
X120514354Y-50417518D01*
X120479393Y-50452479D01*
X120479390Y-50452481D01*
X120479388Y-50452483D01*
X120438284Y-50479948D01*
X120410382Y-50491505D01*
X120392604Y-50498869D01*
X120344111Y-50508515D01*
X120294669Y-50508515D01*
X120246176Y-50498869D01*
X120228398Y-50491505D01*
X120200496Y-50479948D01*
X120159392Y-50452483D01*
X120159390Y-50452481D01*
X120159387Y-50452479D01*
X120124426Y-50417518D01*
X120122919Y-50415262D01*
X120115716Y-50404483D01*
X120100170Y-50385541D01*
X120081228Y-50369996D01*
X120059617Y-50358445D01*
X120036168Y-50351332D01*
X120011782Y-50348931D01*
X119987396Y-50351333D01*
X119963947Y-50358447D01*
X119942337Y-50369998D01*
X119923395Y-50385544D01*
X119907852Y-50404483D01*
X119900476Y-50415521D01*
X119898969Y-50417777D01*
X119864008Y-50452738D01*
X119864005Y-50452740D01*
X119864003Y-50452742D01*
X119822899Y-50480207D01*
X119794997Y-50491764D01*
X119777219Y-50499128D01*
X119728726Y-50508774D01*
X119679284Y-50508774D01*
X119630791Y-50499128D01*
X119613013Y-50491764D01*
X119585111Y-50480207D01*
X119544007Y-50452742D01*
X119544005Y-50452740D01*
X119544002Y-50452738D01*
X119509041Y-50417777D01*
X119507534Y-50415521D01*
X119500331Y-50404742D01*
X119484785Y-50385800D01*
X119465843Y-50370255D01*
X119444232Y-50358704D01*
X119420783Y-50351591D01*
X119396397Y-50349190D01*
X119372011Y-50351592D01*
X119348562Y-50358706D01*
X119326952Y-50370257D01*
X119308010Y-50385803D01*
X119292467Y-50404742D01*
X119285263Y-50415523D01*
X119283584Y-50418036D01*
X119248623Y-50452997D01*
X119248620Y-50452999D01*
X119248618Y-50453001D01*
X119207514Y-50480466D01*
X119175214Y-50493845D01*
X119161834Y-50499387D01*
X119113341Y-50509033D01*
X119063899Y-50509033D01*
X119015406Y-50499387D01*
X119002026Y-50493845D01*
X118969726Y-50480466D01*
X118928622Y-50453001D01*
X118928620Y-50452999D01*
X118928617Y-50452997D01*
X118893656Y-50418036D01*
X118884945Y-50404999D01*
X118869404Y-50386062D01*
X118850462Y-50370516D01*
X118828852Y-50358965D01*
X118805403Y-50351851D01*
X118781017Y-50349449D01*
X118756631Y-50351850D01*
X118733182Y-50358963D01*
X118711571Y-50370514D01*
X118692629Y-50386059D01*
X118677083Y-50405001D01*
X118669587Y-50416219D01*
X118668200Y-50418295D01*
X118633239Y-50453256D01*
X118633236Y-50453258D01*
X118633234Y-50453260D01*
X118592130Y-50480725D01*
X118567982Y-50490727D01*
X118546450Y-50499646D01*
X118497957Y-50509292D01*
X118448515Y-50509292D01*
X118400022Y-50499646D01*
X118378490Y-50490727D01*
X118354342Y-50480725D01*
X118313238Y-50453260D01*
X118313236Y-50453258D01*
X118313233Y-50453256D01*
X118278272Y-50418295D01*
X118276885Y-50416219D01*
X118269562Y-50405260D01*
X118254016Y-50386318D01*
X118235074Y-50370773D01*
X118213463Y-50359222D01*
X118190014Y-50352109D01*
X118165628Y-50349708D01*
X118141242Y-50352110D01*
X118117793Y-50359224D01*
X118096183Y-50370775D01*
X118077241Y-50386321D01*
X118061698Y-50405260D01*
X118054200Y-50416481D01*
X118052815Y-50418554D01*
X118017854Y-50453515D01*
X118017851Y-50453517D01*
X118017849Y-50453519D01*
X117976745Y-50480984D01*
X117952597Y-50490986D01*
X117931065Y-50499905D01*
X117882572Y-50509551D01*
X117833130Y-50509551D01*
X117784637Y-50499905D01*
X117763105Y-50490986D01*
X117738957Y-50480984D01*
X117697853Y-50453519D01*
X117697851Y-50453517D01*
X117697848Y-50453515D01*
X117662887Y-50418554D01*
X117654177Y-50405518D01*
X117638633Y-50386579D01*
X117619691Y-50371034D01*
X117598081Y-50359483D01*
X117574632Y-50352370D01*
X117550245Y-50349968D01*
X117525859Y-50352370D01*
X117502410Y-50359483D01*
X117480800Y-50371034D01*
X117461858Y-50386580D01*
X117446314Y-50405520D01*
X117439977Y-50415003D01*
X117437431Y-50418814D01*
X117402470Y-50453775D01*
X117402467Y-50453777D01*
X117402465Y-50453779D01*
X117361361Y-50481244D01*
X117338466Y-50490727D01*
X117315681Y-50500165D01*
X117267188Y-50509811D01*
X117217746Y-50509811D01*
X117169253Y-50500165D01*
X117146468Y-50490727D01*
X117123573Y-50481244D01*
X117082469Y-50453779D01*
X117082467Y-50453777D01*
X117082464Y-50453775D01*
X117047503Y-50418814D01*
X117045130Y-50415262D01*
X117038793Y-50405779D01*
X117023247Y-50386837D01*
X117004305Y-50371292D01*
X116982694Y-50359741D01*
X116959245Y-50352628D01*
X116934859Y-50350227D01*
X116910473Y-50352629D01*
X116887024Y-50359743D01*
X116865414Y-50371294D01*
X116846472Y-50386840D01*
X116830929Y-50405779D01*
X116825458Y-50413966D01*
X116822046Y-50419073D01*
X116787085Y-50454034D01*
X116787082Y-50454036D01*
X116787080Y-50454038D01*
X116745976Y-50481503D01*
X116721828Y-50491505D01*
X116700296Y-50500424D01*
X116651803Y-50510070D01*
X116602361Y-50510070D01*
X116553868Y-50500424D01*
X116532336Y-50491505D01*
X116508188Y-50481503D01*
X116467084Y-50454038D01*
X116467082Y-50454036D01*
X116467079Y-50454034D01*
X116432118Y-50419073D01*
X116429745Y-50415521D01*
X116423408Y-50406038D01*
X116407862Y-50387096D01*
X116388920Y-50371551D01*
X116367309Y-50360000D01*
X116343860Y-50352887D01*
X116319474Y-50350486D01*
X116295088Y-50352888D01*
X116271639Y-50360002D01*
X116250029Y-50371553D01*
X116231087Y-50387099D01*
X116215544Y-50406038D01*
X116208046Y-50417259D01*
X116206661Y-50419332D01*
X116171700Y-50454293D01*
X116171697Y-50454295D01*
X116171695Y-50454297D01*
X116130591Y-50481762D01*
X116106443Y-50491764D01*
X116084911Y-50500683D01*
X116036418Y-50510329D01*
X115986976Y-50510329D01*
X115938483Y-50500683D01*
X115916951Y-50491764D01*
X115892803Y-50481762D01*
X115851699Y-50454297D01*
X115851697Y-50454295D01*
X115851694Y-50454293D01*
X115816733Y-50419332D01*
X115808022Y-50406295D01*
X115792481Y-50387358D01*
X115773539Y-50371812D01*
X115751929Y-50360261D01*
X115728480Y-50353147D01*
X115704094Y-50350745D01*
X115679708Y-50353146D01*
X115656259Y-50360259D01*
X115634648Y-50371810D01*
X115615706Y-50387355D01*
X115600160Y-50406297D01*
X115594861Y-50414227D01*
X115591277Y-50419591D01*
X115556316Y-50454552D01*
X115556313Y-50454554D01*
X115556311Y-50454556D01*
X115515207Y-50482021D01*
X115482907Y-50495400D01*
X115469527Y-50500942D01*
X115421034Y-50510588D01*
X115371592Y-50510588D01*
X115323099Y-50500942D01*
X115309719Y-50495400D01*
X115277419Y-50482021D01*
X115236315Y-50454556D01*
X115236313Y-50454554D01*
X115236310Y-50454552D01*
X115201349Y-50419591D01*
X115201347Y-50419588D01*
X115201345Y-50419586D01*
X115173880Y-50378482D01*
X115158780Y-50342027D01*
X115154959Y-50332802D01*
X115145313Y-50284309D01*
X115145313Y-50234867D01*
X115154959Y-50186374D01*
X115162404Y-50168401D01*
X115173880Y-50140694D01*
X115201345Y-50099590D01*
X115201348Y-50099587D01*
X115201349Y-50099585D01*
X115236310Y-50064624D01*
X115236313Y-50064622D01*
X115236315Y-50064620D01*
X115277419Y-50037155D01*
X115323097Y-50018235D01*
X115323096Y-50018235D01*
X115323099Y-50018234D01*
X115371592Y-50008588D01*
X115421034Y-50008588D01*
X115469527Y-50018234D01*
X115469530Y-50018235D01*
X115469529Y-50018235D01*
X115515207Y-50037155D01*
X115556311Y-50064620D01*
X115556313Y-50064622D01*
X115556316Y-50064624D01*
X115591277Y-50099585D01*
X115599988Y-50112622D01*
X115615529Y-50131559D01*
X115634471Y-50147105D01*
X115656081Y-50158656D01*
X115679530Y-50165770D01*
X115703916Y-50168172D01*
X115728302Y-50165771D01*
X115751751Y-50158658D01*
X115773362Y-50147107D01*
X115792304Y-50131562D01*
X115807850Y-50112620D01*
X115816731Y-50099329D01*
X115816733Y-50099326D01*
X115851694Y-50064365D01*
X115851697Y-50064363D01*
X115851699Y-50064361D01*
X115892803Y-50036896D01*
X115937624Y-50018331D01*
X115938483Y-50017975D01*
X115986976Y-50008329D01*
X116036418Y-50008329D01*
X116084911Y-50017975D01*
X116085770Y-50018331D01*
X116130591Y-50036896D01*
X116171695Y-50064361D01*
X116171697Y-50064363D01*
X116171700Y-50064365D01*
X116206661Y-50099326D01*
X116206663Y-50099329D01*
X116215371Y-50112361D01*
X116230917Y-50131303D01*
X116249859Y-50146848D01*
X116271470Y-50158399D01*
X116294919Y-50165512D01*
X116319305Y-50167913D01*
X116343691Y-50165511D01*
X116367140Y-50158397D01*
X116388750Y-50146846D01*
X116407692Y-50131300D01*
X116423235Y-50112361D01*
X116432116Y-50099070D01*
X116432118Y-50099067D01*
X116467079Y-50064106D01*
X116467082Y-50064104D01*
X116467084Y-50064102D01*
X116508188Y-50036637D01*
X116540488Y-50023258D01*
X116553868Y-50017716D01*
X116602361Y-50008070D01*
X116651803Y-50008070D01*
X116700296Y-50017716D01*
X116713676Y-50023258D01*
X116745976Y-50036637D01*
X116787080Y-50064102D01*
X116787082Y-50064104D01*
X116787085Y-50064106D01*
X116822046Y-50099067D01*
X116822048Y-50099070D01*
X116830756Y-50112102D01*
X116846302Y-50131044D01*
X116865244Y-50146589D01*
X116886855Y-50158140D01*
X116910304Y-50165253D01*
X116934690Y-50167654D01*
X116959076Y-50165252D01*
X116982525Y-50158138D01*
X117004135Y-50146587D01*
X117023077Y-50131041D01*
X117038620Y-50112102D01*
X117047501Y-50098811D01*
X117047502Y-50098810D01*
X117047503Y-50098808D01*
X117082464Y-50063847D01*
X117082467Y-50063845D01*
X117082469Y-50063843D01*
X117123573Y-50036378D01*
X117167375Y-50018235D01*
X117169253Y-50017457D01*
X117217746Y-50007811D01*
X117267188Y-50007811D01*
X117315681Y-50017457D01*
X117317559Y-50018235D01*
X117361361Y-50036378D01*
X117402465Y-50063843D01*
X117402467Y-50063845D01*
X117402470Y-50063847D01*
X117437431Y-50098808D01*
X117445621Y-50111065D01*
X117446139Y-50111841D01*
X117461685Y-50130783D01*
X117480627Y-50146328D01*
X117502237Y-50157879D01*
X117525686Y-50164992D01*
X117550073Y-50167394D01*
X117574459Y-50164992D01*
X117597908Y-50157879D01*
X117619518Y-50146328D01*
X117638460Y-50130782D01*
X117654004Y-50111842D01*
X117662885Y-50098551D01*
X117662887Y-50098548D01*
X117697848Y-50063587D01*
X117697851Y-50063585D01*
X117697853Y-50063583D01*
X117738957Y-50036118D01*
X117771257Y-50022739D01*
X117784637Y-50017197D01*
X117833130Y-50007551D01*
X117882572Y-50007551D01*
X117931065Y-50017197D01*
X117944445Y-50022739D01*
X117976745Y-50036118D01*
X118017849Y-50063583D01*
X118017851Y-50063585D01*
X118017854Y-50063587D01*
X118052815Y-50098548D01*
X118052817Y-50098551D01*
X118061525Y-50111583D01*
X118077071Y-50130525D01*
X118096013Y-50146070D01*
X118117624Y-50157621D01*
X118141073Y-50164734D01*
X118165459Y-50167135D01*
X118189845Y-50164733D01*
X118213294Y-50157619D01*
X118234904Y-50146068D01*
X118253846Y-50130522D01*
X118269389Y-50111583D01*
X118278270Y-50098292D01*
X118278271Y-50098291D01*
X118278272Y-50098289D01*
X118313233Y-50063328D01*
X118313236Y-50063326D01*
X118313238Y-50063324D01*
X118354342Y-50035859D01*
X118396891Y-50018235D01*
X118400022Y-50016938D01*
X118448515Y-50007292D01*
X118497957Y-50007292D01*
X118546450Y-50016938D01*
X118549581Y-50018235D01*
X118592130Y-50035859D01*
X118633234Y-50063324D01*
X118633236Y-50063326D01*
X118633239Y-50063328D01*
X118668200Y-50098289D01*
X118676911Y-50111326D01*
X118692452Y-50130263D01*
X118711394Y-50145809D01*
X118733004Y-50157360D01*
X118756453Y-50164474D01*
X118780839Y-50166876D01*
X118805225Y-50164475D01*
X118828674Y-50157362D01*
X118850285Y-50145811D01*
X118869227Y-50130266D01*
X118884773Y-50111324D01*
X118893654Y-50098033D01*
X118893656Y-50098030D01*
X118928617Y-50063069D01*
X118928620Y-50063067D01*
X118928622Y-50063065D01*
X118969726Y-50035600D01*
X119012275Y-50017976D01*
X119015406Y-50016679D01*
X119063899Y-50007033D01*
X119113341Y-50007033D01*
X119161834Y-50016679D01*
X119164965Y-50017976D01*
X119207514Y-50035600D01*
X119248618Y-50063065D01*
X119248620Y-50063067D01*
X119248623Y-50063069D01*
X119283584Y-50098030D01*
X119283586Y-50098033D01*
X119292294Y-50111065D01*
X119307840Y-50130007D01*
X119326782Y-50145552D01*
X119348393Y-50157103D01*
X119371842Y-50164216D01*
X119396228Y-50166617D01*
X119420614Y-50164215D01*
X119444063Y-50157101D01*
X119465673Y-50145550D01*
X119484615Y-50130004D01*
X119500158Y-50111065D01*
X119509039Y-50097774D01*
X119509041Y-50097771D01*
X119544002Y-50062810D01*
X119544005Y-50062808D01*
X119544007Y-50062806D01*
X119585111Y-50035341D01*
X119617411Y-50021962D01*
X119630791Y-50016420D01*
X119679284Y-50006774D01*
X119728726Y-50006774D01*
X119777219Y-50016420D01*
X119790599Y-50021962D01*
X119822899Y-50035341D01*
X119864003Y-50062806D01*
X119864005Y-50062808D01*
X119864008Y-50062810D01*
X119898969Y-50097771D01*
X119898971Y-50097774D01*
X119907679Y-50110806D01*
X119923225Y-50129748D01*
X119942167Y-50145293D01*
X119963778Y-50156844D01*
X119987227Y-50163957D01*
X120011613Y-50166358D01*
X120035999Y-50163956D01*
X120059448Y-50156842D01*
X120081058Y-50145291D01*
X120100000Y-50129745D01*
X120115543Y-50110806D01*
X120124424Y-50097515D01*
X120124425Y-50097514D01*
X120124426Y-50097512D01*
X120159387Y-50062551D01*
X120159390Y-50062549D01*
X120159392Y-50062547D01*
X120200496Y-50035082D01*
X120241169Y-50018235D01*
X120246176Y-50016161D01*
X120294669Y-50006515D01*
X120344111Y-50006515D01*
X120392604Y-50016161D01*
X120397611Y-50018235D01*
X120438284Y-50035082D01*
X120479388Y-50062547D01*
X120479390Y-50062549D01*
X120479393Y-50062551D01*
X120514354Y-50097512D01*
X120523065Y-50110549D01*
X120538606Y-50129486D01*
X120557548Y-50145032D01*
X120579158Y-50156583D01*
X120602607Y-50163697D01*
X120626993Y-50166099D01*
X120651379Y-50163698D01*
X120674828Y-50156585D01*
X120696439Y-50145034D01*
X120715381Y-50129489D01*
X120730927Y-50110547D01*
X120739808Y-50097256D01*
X120739810Y-50097253D01*
X120774771Y-50062292D01*
X120774774Y-50062290D01*
X120774776Y-50062288D01*
X120815880Y-50034823D01*
X120856553Y-50017976D01*
X120861560Y-50015902D01*
X120910053Y-50006256D01*
X120959495Y-50006256D01*
X121007988Y-50015902D01*
X121012995Y-50017976D01*
X121053668Y-50034823D01*
X121094772Y-50062288D01*
X121094774Y-50062290D01*
X121094777Y-50062292D01*
X121129738Y-50097253D01*
X121129740Y-50097256D01*
X121138448Y-50110288D01*
X121153994Y-50129230D01*
X121172936Y-50144775D01*
X121194547Y-50156326D01*
X121217996Y-50163439D01*
X121242382Y-50165840D01*
X121266768Y-50163438D01*
X121290217Y-50156324D01*
X121311827Y-50144773D01*
X121330769Y-50129227D01*
X121346313Y-50110286D01*
X121346832Y-50109510D01*
X121355195Y-50096993D01*
X121390156Y-50062032D01*
X121390159Y-50062030D01*
X121390161Y-50062028D01*
X121431265Y-50034563D01*
X121470685Y-50018235D01*
X121476945Y-50015642D01*
X121525438Y-50005996D01*
X121574880Y-50005996D01*
X121623373Y-50015642D01*
X121629633Y-50018235D01*
X121669053Y-50034563D01*
X121710157Y-50062028D01*
X121710159Y-50062030D01*
X121710162Y-50062032D01*
X121745123Y-50096993D01*
X121745125Y-50096996D01*
X121753833Y-50110028D01*
X121769379Y-50128970D01*
X121788321Y-50144515D01*
X121809932Y-50156066D01*
X121833381Y-50163179D01*
X121857767Y-50165580D01*
X121882153Y-50163178D01*
X121905602Y-50156064D01*
X121927212Y-50144513D01*
X121946154Y-50128967D01*
X121961697Y-50110028D01*
X121970578Y-50096737D01*
X121970579Y-50096736D01*
X121970580Y-50096734D01*
X122005541Y-50061773D01*
X122005544Y-50061771D01*
X122005546Y-50061769D01*
X122046650Y-50034304D01*
X122086070Y-50017976D01*
X122092330Y-50015383D01*
X122140823Y-50005737D01*
X122190265Y-50005737D01*
X122238758Y-50015383D01*
X122245018Y-50017976D01*
X122284438Y-50034304D01*
X122325542Y-50061769D01*
X122325544Y-50061771D01*
X122325547Y-50061773D01*
X122360508Y-50096734D01*
X122369219Y-50109771D01*
X122384760Y-50128708D01*
X122403702Y-50144254D01*
X122425312Y-50155805D01*
X122448761Y-50162919D01*
X122473147Y-50165321D01*
X122497533Y-50162920D01*
X122520982Y-50155807D01*
X122542593Y-50144256D01*
X122561535Y-50128711D01*
X122577081Y-50109769D01*
X122585962Y-50096478D01*
X122585964Y-50096475D01*
X122620925Y-50061514D01*
X122620928Y-50061512D01*
X122620930Y-50061510D01*
X122662034Y-50034045D01*
X122699972Y-50018331D01*
X122707714Y-50015124D01*
X122756207Y-50005478D01*
X122805649Y-50005478D01*
X122854142Y-50015124D01*
X122861884Y-50018331D01*
X122899822Y-50034045D01*
X122940926Y-50061510D01*
X122940928Y-50061512D01*
X122940931Y-50061514D01*
X122975892Y-50096475D01*
X122975894Y-50096478D01*
X122984602Y-50109510D01*
X123000148Y-50128452D01*
X123019090Y-50143997D01*
X123040701Y-50155548D01*
X123064150Y-50162661D01*
X123088536Y-50165062D01*
X123112922Y-50162660D01*
X123136371Y-50155546D01*
X123157981Y-50143995D01*
X123176923Y-50128449D01*
X123192466Y-50109510D01*
X123201347Y-50096219D01*
X123201349Y-50096216D01*
X123236310Y-50061255D01*
X123236313Y-50061253D01*
X123236315Y-50061251D01*
X123277419Y-50033786D01*
X123309719Y-50020407D01*
X123323099Y-50014865D01*
X123371592Y-50005219D01*
X123421034Y-50005219D01*
X123469527Y-50014865D01*
G37*
G36*
X55121323Y-44884048D02*
G01*
X55181890Y-44896095D01*
X55238944Y-44919728D01*
X55295998Y-44943360D01*
X55398688Y-45011975D01*
X55486026Y-45099313D01*
X55554641Y-45202003D01*
X55601906Y-45316112D01*
X55626001Y-45437245D01*
X55626001Y-45560755D01*
X55601906Y-45681888D01*
X55554641Y-45795997D01*
X55486026Y-45898687D01*
X55398688Y-45986025D01*
X55295998Y-46054640D01*
X55238943Y-46078273D01*
X55181890Y-46101905D01*
X55121323Y-46113952D01*
X55060756Y-46126000D01*
X54937246Y-46126000D01*
X54876679Y-46113952D01*
X54816112Y-46101905D01*
X54759059Y-46078273D01*
X54702004Y-46054640D01*
X54599314Y-45986025D01*
X54511976Y-45898687D01*
X54443361Y-45795997D01*
X54396096Y-45681888D01*
X54372001Y-45560755D01*
X54372001Y-45437245D01*
X54396096Y-45316112D01*
X54443361Y-45202003D01*
X54511976Y-45099313D01*
X54599314Y-45011975D01*
X54702004Y-44943360D01*
X54759058Y-44919728D01*
X54816112Y-44896095D01*
X54876679Y-44884048D01*
X54937246Y-44872000D01*
X55060756Y-44872000D01*
X55121323Y-44884048D01*
G37*
G36*
X137651221Y-44884048D02*
G01*
X137711788Y-44896095D01*
X137768842Y-44919728D01*
X137825896Y-44943360D01*
X137928586Y-45011975D01*
X138015924Y-45099313D01*
X138084539Y-45202003D01*
X138131804Y-45316112D01*
X138155899Y-45437245D01*
X138155899Y-45560755D01*
X138131804Y-45681888D01*
X138084539Y-45795997D01*
X138015924Y-45898687D01*
X137928586Y-45986025D01*
X137825896Y-46054640D01*
X137768841Y-46078273D01*
X137711788Y-46101905D01*
X137651221Y-46113952D01*
X137590654Y-46126000D01*
X137467144Y-46126000D01*
X137406577Y-46113952D01*
X137346010Y-46101905D01*
X137288957Y-46078273D01*
X137231902Y-46054640D01*
X137129212Y-45986025D01*
X137041874Y-45898687D01*
X136973259Y-45795997D01*
X136925994Y-45681888D01*
X136901899Y-45560755D01*
X136901899Y-45437245D01*
X136925994Y-45316112D01*
X136973259Y-45202003D01*
X137041874Y-45099313D01*
X137129212Y-45011975D01*
X137231902Y-44943360D01*
X137288956Y-44919728D01*
X137346010Y-44896095D01*
X137406577Y-44884048D01*
X137467144Y-44872000D01*
X137590654Y-44872000D01*
X137651221Y-44884048D01*
G37*
M02*
