G04 #@! TF.GenerationSoftware,KiCad,Pcbnew,5.1.5+dfsg1-2build2*
G04 #@! TF.CreationDate,2020-10-06T21:02:37+02:00*
G04 #@! TF.ProjectId,Logic_KiCad,4c6f6769-635f-44b6-9943-61642e6b6963,rev?*
G04 #@! TF.SameCoordinates,Original*
G04 #@! TF.FileFunction,Soldermask,Bot*
G04 #@! TF.FilePolarity,Negative*
%FSLAX46Y46*%
G04 Gerber Fmt 4.6, Leading zero omitted, Abs format (unit mm)*
G04 Created by KiCad (PCBNEW 5.1.5+dfsg1-2build2) date 2020-10-06 21:02:37*
%MOMM*%
%LPD*%
G04 APERTURE LIST*
%ADD10O,1.624000X3.000000*%
%ADD11C,1.497000*%
%ADD12O,1.800000X1.800000*%
%ADD13R,1.800000X1.800000*%
%ADD14O,0.900000X0.900000*%
%ADD15O,1.900000X1.250000*%
%ADD16O,2.100000X1.550000*%
G04 APERTURE END LIST*
D10*
G04 #@! TO.C,U4*
X222050000Y-26225000D03*
X148350000Y-26225000D03*
X148350000Y-46125000D03*
X222050000Y-46125000D03*
G04 #@! TD*
D11*
G04 #@! TO.C,SW11*
X183505000Y-92675000D03*
X178425000Y-92675000D03*
X183505000Y-85055000D03*
X178425000Y-85055000D03*
G04 #@! TD*
G04 #@! TO.C,SW12*
X191780000Y-92625000D03*
X186700000Y-92625000D03*
X191780000Y-85005000D03*
X186700000Y-85005000D03*
G04 #@! TD*
G04 #@! TO.C,SW3*
X149330000Y-65675000D03*
X144250000Y-65675000D03*
X149330000Y-58055000D03*
X144250000Y-58055000D03*
G04 #@! TD*
G04 #@! TO.C,SW10*
X175030000Y-92650000D03*
X169950000Y-92650000D03*
X175030000Y-85030000D03*
X169950000Y-85030000D03*
G04 #@! TD*
G04 #@! TO.C,SW9*
X166305000Y-92675000D03*
X161225000Y-92675000D03*
X166305000Y-85055000D03*
X161225000Y-85055000D03*
G04 #@! TD*
D12*
G04 #@! TO.C,SW1*
X137020000Y-18775000D03*
X139560000Y-18775000D03*
D13*
X142100000Y-18775000D03*
G04 #@! TD*
D11*
G04 #@! TO.C,SW8*
X157905000Y-92625000D03*
X152825000Y-92625000D03*
X157905000Y-85005000D03*
X152825000Y-85005000D03*
G04 #@! TD*
G04 #@! TO.C,SW7*
X149180000Y-92675000D03*
X144100000Y-92675000D03*
X149180000Y-85055000D03*
X144100000Y-85055000D03*
G04 #@! TD*
G04 #@! TO.C,SW6*
X191330000Y-77975000D03*
X186250000Y-77975000D03*
X191330000Y-70355000D03*
X186250000Y-70355000D03*
G04 #@! TD*
G04 #@! TO.C,SW5*
X149430000Y-78150000D03*
X144350000Y-78150000D03*
X149430000Y-70530000D03*
X144350000Y-70530000D03*
G04 #@! TD*
G04 #@! TO.C,SW4*
X136170000Y-58100000D03*
X141250000Y-58100000D03*
X136170000Y-65720000D03*
X141250000Y-65720000D03*
G04 #@! TD*
G04 #@! TO.C,SW2*
X207730000Y-92450000D03*
X202650000Y-92450000D03*
X207730000Y-84830000D03*
X202650000Y-84830000D03*
G04 #@! TD*
D14*
G04 #@! TO.C,J1*
X139325000Y-43550000D03*
X139325000Y-38550000D03*
D15*
X136575000Y-44925000D03*
X136575000Y-37175000D03*
D16*
X140375000Y-44775000D03*
X140375000Y-37325000D03*
G04 #@! TD*
M02*
