G04 #@! TF.GenerationSoftware,KiCad,Pcbnew,5.1.5+dfsg1-2build2*
G04 #@! TF.CreationDate,2021-01-24T21:22:00+01:00*
G04 #@! TF.ProjectId,Logic_panel_v1_1,4c6f6769-635f-4706-916e-656c5f76315f,rev?*
G04 #@! TF.SameCoordinates,Original*
G04 #@! TF.FileFunction,Profile,NP*
%FSLAX46Y46*%
G04 Gerber Fmt 4.6, Leading zero omitted, Abs format (unit mm)*
G04 Created by KiCad (PCBNEW 5.1.5+dfsg1-2build2) date 2021-01-24 21:22:00*
%MOMM*%
%LPD*%
G04 APERTURE LIST*
G04 #@! TA.AperFunction,Profile*
%ADD10C,0.100000*%
G04 #@! TD*
G04 APERTURE END LIST*
D10*
X146039800Y-149891700D02*
X145522700Y-149973600D01*
X146545400Y-149756200D02*
X146039800Y-149891700D01*
X147034100Y-149568600D02*
X146545400Y-149756200D01*
X147500500Y-149331000D02*
X147034100Y-149568600D01*
X147939500Y-149045900D02*
X147500500Y-149331000D01*
X148346300Y-148716500D02*
X147939500Y-149045900D01*
X148716400Y-148346400D02*
X148346300Y-148716500D01*
X149045900Y-147939500D02*
X148716400Y-148346400D01*
X149331000Y-147500500D02*
X149045900Y-147939500D01*
X149568700Y-147034000D02*
X149331000Y-147500500D01*
X149756200Y-146545300D02*
X149568700Y-147034000D01*
X149891700Y-146039700D02*
X149756200Y-146545300D01*
X149973600Y-145522800D02*
X149891700Y-146039700D01*
X150001000Y-145000100D02*
X149973600Y-145522800D01*
X150001000Y-55000000D02*
X150001000Y-145000100D01*
X149973600Y-54477300D02*
X150001000Y-55000000D01*
X149891700Y-53960300D02*
X149973600Y-54477300D01*
X149756200Y-53454700D02*
X149891700Y-53960300D01*
X149568700Y-52966000D02*
X149756200Y-53454700D01*
X149331000Y-52499500D02*
X149568700Y-52966000D01*
X149045900Y-52060500D02*
X149331000Y-52499500D01*
X148716400Y-51653600D02*
X149045900Y-52060500D01*
X148346300Y-51283500D02*
X148716400Y-51653600D01*
X147939500Y-50954100D02*
X148346300Y-51283500D01*
X147500500Y-50669000D02*
X147939500Y-50954100D01*
X147034000Y-50431300D02*
X147500500Y-50669000D01*
X146545300Y-50243800D02*
X147034000Y-50431300D01*
X146039700Y-50108300D02*
X146545300Y-50243800D01*
X145522700Y-50026400D02*
X146039700Y-50108300D01*
X145000000Y-49999000D02*
X145522700Y-50026400D01*
X55000000Y-49999000D02*
X145000000Y-49999000D01*
X54477300Y-50026400D02*
X55000000Y-49999000D01*
X53960300Y-50108300D02*
X54477300Y-50026400D01*
X53454700Y-50243800D02*
X53960300Y-50108300D01*
X52966000Y-50431300D02*
X53454700Y-50243800D01*
X52499500Y-50669000D02*
X52966000Y-50431300D01*
X52060500Y-50954100D02*
X52499500Y-50669000D01*
X51653600Y-51283600D02*
X52060500Y-50954100D01*
X51283500Y-51653700D02*
X51653600Y-51283600D01*
X50954100Y-52060500D02*
X51283500Y-51653700D01*
X50669000Y-52499500D02*
X50954100Y-52060500D01*
X50431300Y-52966000D02*
X50669000Y-52499500D01*
X50243800Y-53454700D02*
X50431300Y-52966000D01*
X50108300Y-53960300D02*
X50243800Y-53454700D01*
X50026400Y-54477300D02*
X50108300Y-53960300D01*
X49999000Y-55000000D02*
X50026400Y-54477300D01*
X49999000Y-145000000D02*
X49999000Y-55000000D01*
X50026400Y-145522700D02*
X49999000Y-145000000D01*
X50108300Y-146039700D02*
X50026400Y-145522700D01*
X50243800Y-146545300D02*
X50108300Y-146039700D01*
X50431300Y-147034000D02*
X50243800Y-146545300D01*
X50669000Y-147500500D02*
X50431300Y-147034000D01*
X50954100Y-147939600D02*
X50669000Y-147500500D01*
X51283600Y-148346400D02*
X50954100Y-147939600D01*
X51653700Y-148716500D02*
X51283600Y-148346400D01*
X52060500Y-149045900D02*
X51653700Y-148716500D01*
X52499500Y-149331000D02*
X52060500Y-149045900D01*
X52966000Y-149568700D02*
X52499500Y-149331000D01*
X53454700Y-149756200D02*
X52966000Y-149568700D01*
X53960300Y-149891700D02*
X53454700Y-149756200D01*
X54477300Y-149973600D02*
X53960300Y-149891700D01*
X55000000Y-150001000D02*
X54477300Y-149973600D01*
X145000000Y-150001000D02*
X55000000Y-150001000D01*
X145522700Y-149973600D02*
X145000000Y-150001000D01*
M02*
