M48
; DRILL file {KiCad 5.1.5+dfsg1-2build2} date Tue Oct  6 21:02:37 2020
; FORMAT={-:-/ absolute / metric / decimal}
; #@! TF.CreationDate,2020-10-06T21:02:37+02:00
; #@! TF.GenerationSoftware,Kicad,Pcbnew,5.1.5+dfsg1-2build2
FMAT,2
METRIC
T1C0.300
T2C0.500
T3C0.550
T4C0.762
T5C0.813
T6C0.850
T7C1.000
T8C0.800
%
G90
G05
T1
X144.075Y-39.7
X144.475Y-37.275
X145.0Y-55.0
X145.2Y-50.025
X148.325Y-37.25
X149.1Y-22.9
X149.4Y-24.525
X149.7Y-20.45
X150.775Y-75.9
X150.95Y-64.475
X150.975Y-59.325
X151.65Y-29.35
X152.265Y-52.08
X152.95Y-44.55
X154.775Y-32.6
X157.75Y-33.275
X158.013Y-28.007
X158.35Y-34.375
X158.675Y-27.175
X158.675Y-39.595
X158.675Y-41.295
X158.8Y-75.625
X158.825Y-77.325
X158.875Y-50.525
X158.875Y-52.225
X158.95Y-58.685
X158.975Y-60.385
X159.175Y-67.265
X159.175Y-68.965
X161.05Y-29.85
X161.05Y-33.325
X161.75Y-24.9
X162.164Y-31.25
X162.925Y-31.925
X164.125Y-37.075
X164.65Y-23.95
X165.05Y-19.675
X165.6Y-22.8
X166.175Y-29.775
X166.25Y-37.15
X166.675Y-22.8
X167.025Y-32.95
X167.075Y-75.7
X167.075Y-77.28
X167.15Y-20.375
X167.175Y-50.61
X167.2Y-52.31
X167.25Y-58.685
X167.25Y-60.385
X167.3Y-39.595
X167.3Y-41.295
X167.35Y-67.335
X167.375Y-69.035
X167.75Y-25.7
X168.475Y-24.2
X169.054Y-23.384
X169.087Y-24.991
X169.875Y-18.5
X170.375Y-29.35
X170.425Y-23.25
X170.5Y-26.775
X170.862Y-19.846
X171.616Y-20.503
X171.621Y-18.404
X172.45Y-30.75
X173.413Y-21.342
X173.449Y-30.714
X175.8Y-75.55
X175.8Y-77.3
X175.925Y-58.685
X175.925Y-60.385
X175.975Y-50.61
X176.0Y-41.3
X176.0Y-52.31
X176.05Y-39.595
X176.05Y-69.01
X176.075Y-67.31
X177.425Y-30.825
X180.425Y-23.7
X180.575Y-25.65
X180.982Y-28.157
X182.032Y-27.02
X182.512Y-27.897
X183.95Y-30.15
X183.975Y-24.225
X184.7Y-27.05
X184.7Y-34.3
X184.875Y-67.31
X184.95Y-50.61
X185.3Y-58.685
X188.275Y-29.375
X190.6Y-19.1
X190.681Y-30.975
X192.875Y-52.825
X193.25Y-77.675
X193.3Y-69.425
X193.425Y-61.125
X201.075Y-50.565
X201.075Y-75.39
X201.144Y-77.09
X201.175Y-67.315
X201.197Y-52.265
X201.2Y-58.715
X201.2Y-60.415
X201.2Y-69.015
X202.8Y-24.55
X208.55Y-50.615
X208.625Y-67.275
X208.65Y-75.5
X208.7Y-52.315
X208.7Y-58.715
X208.75Y-77.275
X208.762Y-60.415
X208.8Y-68.975
X215.075Y-20.85
X216.1Y-75.55
X216.199Y-52.29
X216.2Y-50.59
X216.225Y-67.31
X216.235Y-58.628
X216.25Y-77.315
X216.262Y-60.415
X216.3Y-69.01
X220.4Y-66.275
X220.525Y-57.925
X224.025Y-50.775
T2
X142.725Y-63.75
X142.75Y-61.425
X153.525Y-37.4
X155.675Y-33.85
X168.025Y-30.975
X175.75Y-19.625
X178.95Y-19.575
X179.425Y-38.675
X181.225Y-34.35
X185.4Y-20.425
X185.775Y-33.025
X187.025Y-45.8
X187.025Y-53.025
X193.6Y-29.475
X197.925Y-25.95
X206.2Y-27.925
X209.525Y-31.5
X211.775Y-49.6
X212.35Y-45.425
T5
X161.225Y-85.055
X161.225Y-92.675
X166.305Y-85.055
X166.305Y-92.675
X144.25Y-58.055
X144.25Y-65.675
X149.33Y-58.055
X149.33Y-65.675
X202.65Y-84.83
X202.65Y-92.45
X207.73Y-84.83
X207.73Y-92.45
X178.425Y-85.055
X178.425Y-92.675
X183.505Y-85.055
X183.505Y-92.675
X136.17Y-58.1
X136.17Y-65.72
X141.25Y-58.1
X141.25Y-65.72
X186.7Y-85.005
X186.7Y-92.625
X191.78Y-85.005
X191.78Y-92.625
X144.35Y-70.53
X144.35Y-78.15
X149.43Y-70.53
X149.43Y-78.15
X152.825Y-85.005
X152.825Y-92.625
X157.905Y-85.005
X157.905Y-92.625
X186.25Y-70.355
X186.25Y-77.975
X191.33Y-70.355
X191.33Y-77.975
X144.1Y-85.055
X144.1Y-92.675
X149.18Y-85.055
X149.18Y-92.675
X169.95Y-85.03
X169.95Y-92.65
X175.03Y-85.03
X175.03Y-92.65
T7
X137.02Y-18.775
X139.56Y-18.775
X142.1Y-18.775
T8
X139.325Y-38.55
X139.325Y-43.55
T3
X136.9Y-37.175G85X136.25Y-37.175
G05
X136.9Y-44.925G85X136.25Y-44.925
G05
T4
X148.35Y-25.806G85X148.35Y-26.644
G05
X148.35Y-45.706G85X148.35Y-46.544
G05
X222.05Y-25.806G85X222.05Y-26.644
G05
X222.05Y-45.706G85X222.05Y-46.544
G05
T6
X140.65Y-37.325G85X140.1Y-37.325
G05
X140.65Y-44.775G85X140.1Y-44.775
G05
T0
M30
